<svg width="400" height="104" viewBox="0 0 400 104" fill="none" xmlns="http://www.w3.org/2000/svg">
<path fill-rule="evenodd" clip-rule="evenodd" d="M392 11.8732C392 10.8365 391.187 10 390.183 10C389.183 10 388.37 10.8401 388.37 11.8732C388.37 12.9063 389.18 13.7463 390.183 13.7463C391.187 13.7463 392 12.9099 392 11.8732ZM376.784 11.8732C376.784 10.8365 375.971 10 374.971 10C373.967 10 373.154 10.8401 373.154 11.8732C373.154 12.9063 373.971 13.7463 374.971 13.7463C375.971 13.7463 376.784 12.9099 376.784 11.8732ZM361.568 11.8732C361.568 10.8365 360.755 10 359.755 10C358.751 10 357.942 10.8401 357.942 11.8732C357.942 12.9063 358.755 13.7463 359.755 13.7463C360.755 13.7463 361.568 12.9099 361.568 11.8732ZM346.352 11.8732C346.352 10.8365 345.543 10 344.539 10C343.539 10 342.726 10.8401 342.726 11.8732C342.726 12.9063 343.535 13.7463 344.539 13.7463C345.543 13.7463 346.352 12.9099 346.352 11.8732ZM331.14 11.8732C331.14 10.8365 330.327 10 329.327 10C328.323 10 327.51 10.8401 327.51 11.8732C327.51 12.9063 328.326 13.7463 329.327 13.7463C330.327 13.7463 331.14 12.9099 331.14 11.8732ZM315.924 11.8732C315.924 10.8365 315.111 10 314.111 10C313.107 10 312.297 10.8401 312.297 11.8732C312.297 12.9063 313.111 13.7463 314.111 13.7463C315.111 13.7463 315.924 12.9099 315.924 11.8732ZM300.708 11.8732C300.708 10.8365 299.898 10 298.895 10C297.891 10 297.081 10.8401 297.081 11.8732C297.081 12.9063 297.891 13.7463 298.895 13.7463C299.898 13.7463 300.708 12.9099 300.708 11.8732ZM285.499 11.8732C285.499 10.8365 284.686 10 283.682 10C282.682 10 281.869 10.8401 281.869 11.8732C281.869 12.9063 282.679 13.7463 283.682 13.7463C284.686 13.7463 285.499 12.9099 285.499 11.8732ZM270.28 11.8732C270.28 10.8365 269.466 10 268.466 10C267.463 10 266.65 10.8401 266.65 11.8732C266.65 12.9063 267.466 13.7463 268.466 13.7463C269.466 13.7463 270.28 12.9099 270.28 11.8732ZM255.064 11.8732C255.064 10.8365 254.251 10 253.25 10C252.247 10 251.437 10.8401 251.437 11.8732C251.437 12.9063 252.25 13.7463 253.25 13.7463C254.251 13.7463 255.064 12.9099 255.064 11.8732ZM239.851 11.8732C239.851 10.8365 239.042 10 238.038 10C237.034 10 236.225 10.8401 236.225 11.8732C236.225 12.9063 237.034 13.7463 238.038 13.7463C239.042 13.7463 239.851 12.9099 239.851 11.8732ZM224.639 11.8732C224.639 10.8365 223.826 10 222.822 10C221.822 10 221.009 10.8401 221.009 11.8732C221.009 12.9063 221.819 13.7463 222.822 13.7463C223.826 13.7463 224.639 12.9099 224.639 11.8732ZM209.42 11.8732C209.42 10.8365 208.606 10 207.606 10C206.603 10 205.793 10.8401 205.793 11.8732C205.793 12.9063 206.606 13.7463 207.606 13.7463C208.606 13.7463 209.42 12.9099 209.42 11.8732ZM194.207 11.8732C194.207 10.8365 193.397 10 192.394 10C191.394 10 190.58 10.8401 190.58 11.8732C190.58 12.9063 191.39 13.7463 192.394 13.7463C193.397 13.7463 194.207 12.9099 194.207 11.8732ZM178.991 11.8732C178.991 10.8365 178.181 10 177.178 10C176.178 10 175.365 10.8401 175.365 11.8732C175.365 12.9063 176.174 13.7463 177.178 13.7463C178.181 13.7463 178.991 12.9099 178.991 11.8732ZM163.775 11.8732C163.775 10.8365 162.962 10 161.962 10C160.958 10 160.145 10.8401 160.145 11.8732C160.145 12.9063 160.962 13.7463 161.962 13.7463C162.962 13.7463 163.775 12.9099 163.775 11.8732ZM148.563 11.8732C148.563 10.8365 147.75 10 146.75 10C145.746 10 144.936 10.8401 144.936 11.8732C144.936 12.9063 145.749 13.7463 146.75 13.7463C147.75 13.7463 148.563 12.9099 148.563 11.8732ZM133.347 11.8732C133.347 10.8365 132.537 10 131.534 10C130.534 10 129.72 10.8401 129.72 11.8732C129.72 12.9063 130.53 13.7463 131.534 13.7463C132.537 13.7463 133.347 12.9099 133.347 11.8732ZM118.134 11.8732C118.134 10.8365 117.321 10 116.318 10C115.318 10 114.504 10.8401 114.504 11.8732C114.504 12.9063 115.314 13.7463 116.318 13.7463C117.321 13.7463 118.134 12.9099 118.134 11.8732ZM102.919 11.8732C102.919 10.8365 102.105 10 101.105 10C100.102 10 99.2885 10.8401 99.2885 11.8732C99.2885 12.9063 100.105 13.7463 101.105 13.7463C102.105 13.7463 102.919 12.9099 102.919 11.8732ZM87.7027 11.8732C87.7027 10.8365 86.8895 10 85.8894 10C84.8858 10 84.0761 10.8401 84.0761 11.8732C84.0761 12.9063 84.8893 13.7463 85.8894 13.7463C86.8895 13.7463 87.7027 12.9099 87.7027 11.8732ZM72.4868 11.8732C72.4868 10.8365 71.677 10 70.6735 10C69.6734 10 68.8602 10.8401 68.8602 11.8732C68.8602 12.9063 69.6699 13.7463 70.6735 13.7463C71.677 13.7463 72.4868 12.9099 72.4868 11.8732ZM57.2743 11.8732C57.2743 10.8365 56.4611 10 55.461 10C54.4575 10 53.6443 10.8401 53.6443 11.8732C53.6443 12.9063 54.4609 13.7463 55.461 13.7463C56.4611 13.7463 57.2743 12.9099 57.2743 11.8732ZM42.0584 11.8732C42.0584 10.8365 41.2487 10 40.2451 10C39.2416 10 38.4318 10.8401 38.4318 11.8732C38.4318 12.9063 39.2416 13.7463 40.2451 13.7463C41.2487 13.7463 42.0584 12.9099 42.0584 11.8732ZM26.8425 11.8732C26.8425 10.8365 26.0328 10 25.0292 10C24.0291 10 23.2159 10.8401 23.2159 11.8732C23.2159 12.9063 24.0257 13.7463 25.0292 13.7463C26.0328 13.7463 26.8425 12.9099 26.8425 11.8732ZM11.6301 11.8732C11.6301 10.8365 10.8169 10 9.81331 10C8.81322 10 8 10.8401 8 11.8732C8 12.9063 8.80976 13.7463 9.81331 13.7463C10.8169 13.7463 11.6301 12.9099 11.6301 11.8732ZM392 23.1122C392 22.0755 391.187 21.239 390.183 21.239C389.183 21.239 388.37 22.0791 388.37 23.1122C388.37 24.1453 389.18 24.9853 390.183 24.9853C391.187 24.9853 392 24.1488 392 23.1122ZM376.784 23.1122C376.784 22.0755 375.971 21.239 374.971 21.239C373.967 21.239 373.154 22.0791 373.154 23.1122C373.154 24.1453 373.971 24.9853 374.971 24.9853C375.971 24.9853 376.784 24.1488 376.784 23.1122ZM361.568 23.1122C361.568 22.0755 360.755 21.239 359.755 21.239C358.751 21.239 357.942 22.0791 357.942 23.1122C357.942 24.1453 358.755 24.9853 359.755 24.9853C360.755 24.9853 361.568 24.1488 361.568 23.1122ZM346.352 23.1122C346.352 22.0755 345.543 21.239 344.539 21.239C343.539 21.239 342.726 22.0791 342.726 23.1122C342.726 24.1453 343.535 24.9853 344.539 24.9853C345.543 24.9853 346.352 24.1488 346.352 23.1122ZM331.14 23.1122C331.14 22.0755 330.327 21.239 329.327 21.239C328.323 21.239 327.51 22.0791 327.51 23.1122C327.51 24.1453 328.326 24.9853 329.327 24.9853C330.327 24.9853 331.14 24.1488 331.14 23.1122ZM315.924 23.1122C315.924 22.0755 315.111 21.239 314.111 21.239C313.107 21.239 312.297 22.0791 312.297 23.1122C312.297 24.1453 313.111 24.9853 314.111 24.9853C315.111 24.9853 315.924 24.1488 315.924 23.1122ZM300.708 23.1122C300.708 22.0755 299.898 21.239 298.895 21.239C297.891 21.239 297.081 22.0791 297.081 23.1122C297.081 24.1453 297.891 24.9853 298.895 24.9853C299.898 24.9853 300.708 24.1488 300.708 23.1122ZM285.499 23.1122C285.499 22.0755 284.686 21.239 283.682 21.239C282.682 21.239 281.869 22.0791 281.869 23.1122C281.869 24.1453 282.679 24.9853 283.682 24.9853C284.686 24.9853 285.499 24.1488 285.499 23.1122ZM270.28 23.1122C270.28 22.0755 269.466 21.239 268.466 21.239C267.463 21.239 266.65 22.0791 266.65 23.1122C266.65 24.1453 267.466 24.9853 268.466 24.9853C269.466 24.9853 270.28 24.1488 270.28 23.1122ZM255.064 23.1122C255.064 22.0755 254.251 21.239 253.25 21.239C252.247 21.239 251.437 22.0791 251.437 23.1122C251.437 24.1453 252.25 24.9853 253.25 24.9853C254.251 24.9853 255.064 24.1488 255.064 23.1122ZM239.851 23.1122C239.851 22.0755 239.042 21.239 238.038 21.239C237.034 21.239 236.225 22.0791 236.225 23.1122C236.225 24.1453 237.034 24.9853 238.038 24.9853C239.042 24.9853 239.851 24.1488 239.851 23.1122ZM224.639 23.1122C224.639 22.0755 223.826 21.239 222.822 21.239C221.822 21.239 221.009 22.0791 221.009 23.1122C221.009 24.1453 221.819 24.9853 222.822 24.9853C223.826 24.9853 224.639 24.1488 224.639 23.1122ZM209.42 23.1122C209.42 22.0755 208.606 21.239 207.606 21.239C206.603 21.239 205.793 22.0791 205.793 23.1122C205.793 24.1453 206.606 24.9853 207.606 24.9853C208.606 24.9853 209.42 24.1488 209.42 23.1122ZM194.207 23.1122C194.207 22.0755 193.397 21.239 192.394 21.239C191.394 21.239 190.58 22.0791 190.58 23.1122C190.58 24.1453 191.39 24.9853 192.394 24.9853C193.397 24.9853 194.207 24.1488 194.207 23.1122ZM178.991 23.1122C178.991 22.0755 178.181 21.239 177.178 21.239C176.178 21.239 175.365 22.0791 175.365 23.1122C175.365 24.1453 176.174 24.9853 177.178 24.9853C178.181 24.9853 178.991 24.1488 178.991 23.1122ZM163.775 23.1122C163.775 22.0755 162.962 21.239 161.962 21.239C160.958 21.239 160.145 22.0791 160.145 23.1122C160.145 24.1453 160.962 24.9853 161.962 24.9853C162.962 24.9853 163.775 24.1488 163.775 23.1122ZM148.563 23.1122C148.563 22.0755 147.75 21.239 146.75 21.239C145.746 21.239 144.936 22.0791 144.936 23.1122C144.936 24.1453 145.749 24.9853 146.75 24.9853C147.75 24.9853 148.563 24.1488 148.563 23.1122ZM133.347 23.1122C133.347 22.0755 132.537 21.239 131.534 21.239C130.534 21.239 129.72 22.0791 129.72 23.1122C129.72 24.1453 130.53 24.9853 131.534 24.9853C132.537 24.9853 133.347 24.1488 133.347 23.1122ZM118.134 23.1122C118.134 22.0755 117.321 21.239 116.318 21.239C115.318 21.239 114.504 22.0791 114.504 23.1122C114.504 24.1453 115.314 24.9853 116.318 24.9853C117.321 24.9853 118.134 24.1488 118.134 23.1122ZM102.919 23.1122C102.919 22.0755 102.105 21.239 101.105 21.239C100.102 21.239 99.2885 22.0791 99.2885 23.1122C99.2885 24.1453 100.105 24.9853 101.105 24.9853C102.105 24.9853 102.919 24.1488 102.919 23.1122ZM87.7027 23.1122C87.7027 22.0755 86.8895 21.239 85.8894 21.239C84.8858 21.239 84.0761 22.0791 84.0761 23.1122C84.0761 24.1453 84.8893 24.9853 85.8894 24.9853C86.8895 24.9853 87.7027 24.1488 87.7027 23.1122ZM72.4868 23.1122C72.4868 22.0755 71.677 21.239 70.6735 21.239C69.6734 21.239 68.8602 22.0791 68.8602 23.1122C68.8602 24.1453 69.6699 24.9853 70.6735 24.9853C71.677 24.9853 72.4868 24.1488 72.4868 23.1122ZM57.2743 23.1122C57.2743 22.0755 56.4611 21.239 55.461 21.239C54.4575 21.239 53.6443 22.0791 53.6443 23.1122C53.6443 24.1453 54.4609 24.9853 55.461 24.9853C56.4611 24.9853 57.2743 24.1488 57.2743 23.1122ZM42.0584 23.1122C42.0584 22.0755 41.2487 21.239 40.2451 21.239C39.2416 21.239 38.4318 22.0791 38.4318 23.1122C38.4318 24.1453 39.2416 24.9853 40.2451 24.9853C41.2487 24.9853 42.0584 24.1488 42.0584 23.1122ZM26.8425 23.1122C26.8425 22.0755 26.0328 21.239 25.0292 21.239C24.0291 21.239 23.2159 22.0791 23.2159 23.1122C23.2159 24.1453 24.0257 24.9853 25.0292 24.9853C26.0328 24.9853 26.8425 24.1488 26.8425 23.1122ZM11.6301 23.1122C11.6301 22.0755 10.8169 21.239 9.81331 21.239C8.81322 21.239 8 22.0791 8 23.1122C8 24.1453 8.80976 24.9853 9.81331 24.9853C10.8169 24.9853 11.6301 24.1488 11.6301 23.1122ZM390.183 33.4146C391.187 33.4146 392 34.2511 392 35.2878C392 36.3244 391.187 37.1609 390.183 37.1609C389.18 37.1609 388.37 36.3244 388.37 35.2878C388.37 34.2511 389.183 33.4146 390.183 33.4146ZM374.971 33.4146C375.971 33.4146 376.784 34.2511 376.784 35.2878C376.784 36.3244 375.971 37.1609 374.971 37.1609C373.971 37.1609 373.154 36.3244 373.154 35.2878C373.154 34.2511 373.967 33.4146 374.971 33.4146ZM359.755 33.4146C360.755 33.4146 361.568 34.2511 361.568 35.2878C361.568 36.3244 360.755 37.1609 359.755 37.1609C358.755 37.1609 357.942 36.3244 357.942 35.2878C357.942 34.2511 358.751 33.4146 359.755 33.4146ZM344.539 33.4146C345.543 33.4146 346.352 34.2511 346.352 35.2878C346.352 36.3244 345.543 37.1609 344.539 37.1609C343.535 37.1609 342.726 36.3244 342.726 35.2878C342.726 34.2511 343.539 33.4146 344.539 33.4146ZM329.327 33.4146C330.327 33.4146 331.14 34.2511 331.14 35.2878C331.14 36.3244 330.327 37.1609 329.327 37.1609C328.326 37.1609 327.51 36.3244 327.51 35.2878C327.51 34.2511 328.323 33.4146 329.327 33.4146ZM314.111 33.4146C315.111 33.4146 315.924 34.2511 315.924 35.2878C315.924 36.3244 315.111 37.1609 314.111 37.1609C313.111 37.1609 312.297 36.3244 312.297 35.2878C312.297 34.2511 313.107 33.4146 314.111 33.4146ZM298.895 33.4146C299.898 33.4146 300.708 34.2511 300.708 35.2878C300.708 36.3244 299.898 37.1609 298.895 37.1609C297.891 37.1609 297.081 36.3244 297.081 35.2878C297.081 34.2511 297.891 33.4146 298.895 33.4146ZM283.682 33.4146C284.686 33.4146 285.499 34.2511 285.499 35.2878C285.499 36.3244 284.686 37.1609 283.682 37.1609C282.679 37.1609 281.869 36.3244 281.869 35.2878C281.869 34.2511 282.682 33.4146 283.682 33.4146ZM268.466 33.4146C269.466 33.4146 270.28 34.2511 270.28 35.2878C270.28 36.3244 269.466 37.1609 268.466 37.1609C267.466 37.1609 266.65 36.3244 266.65 35.2878C266.65 34.2511 267.463 33.4146 268.466 33.4146ZM253.25 33.4146C254.251 33.4146 255.064 34.2511 255.064 35.2878C255.064 36.3244 254.251 37.1609 253.25 37.1609C252.25 37.1609 251.437 36.3244 251.437 35.2878C251.437 34.2511 252.247 33.4146 253.25 33.4146ZM238.038 33.4146C239.042 33.4146 239.851 34.2511 239.851 35.2878C239.851 36.3244 239.042 37.1609 238.038 37.1609C237.034 37.1609 236.225 36.3244 236.225 35.2878C236.225 34.2511 237.034 33.4146 238.038 33.4146ZM222.822 33.4146C223.826 33.4146 224.639 34.2511 224.639 35.2878C224.639 36.3244 223.826 37.1609 222.822 37.1609C221.819 37.1609 221.009 36.3244 221.009 35.2878C221.009 34.2511 221.822 33.4146 222.822 33.4146ZM207.606 33.4146C208.606 33.4146 209.42 34.2511 209.42 35.2878C209.42 36.3244 208.606 37.1609 207.606 37.1609C206.606 37.1609 205.793 36.3244 205.793 35.2878C205.793 34.2511 206.603 33.4146 207.606 33.4146ZM192.394 33.4146C193.397 33.4146 194.207 34.2511 194.207 35.2878C194.207 36.3244 193.397 37.1609 192.394 37.1609C191.39 37.1609 190.58 36.3244 190.58 35.2878C190.58 34.2511 191.394 33.4146 192.394 33.4146ZM177.178 33.4146C178.181 33.4146 178.991 34.2511 178.991 35.2878C178.991 36.3244 178.181 37.1609 177.178 37.1609C176.174 37.1609 175.365 36.3244 175.365 35.2878C175.365 34.2511 176.178 33.4146 177.178 33.4146ZM161.962 33.4146C162.962 33.4146 163.775 34.2511 163.775 35.2878C163.775 36.3244 162.962 37.1609 161.962 37.1609C160.962 37.1609 160.145 36.3244 160.145 35.2878C160.145 34.2511 160.958 33.4146 161.962 33.4146ZM146.75 33.4146C147.75 33.4146 148.563 34.2511 148.563 35.2878C148.563 36.3244 147.75 37.1609 146.75 37.1609C145.749 37.1609 144.936 36.3244 144.936 35.2878C144.936 34.2511 145.746 33.4146 146.75 33.4146ZM131.534 33.4146C132.537 33.4146 133.347 34.2511 133.347 35.2878C133.347 36.3244 132.537 37.1609 131.534 37.1609C130.53 37.1609 129.72 36.3244 129.72 35.2878C129.72 34.2511 130.534 33.4146 131.534 33.4146ZM116.318 33.4146C117.321 33.4146 118.134 34.2511 118.134 35.2878C118.134 36.3244 117.321 37.1609 116.318 37.1609C115.314 37.1609 114.504 36.3244 114.504 35.2878C114.504 34.2511 115.318 33.4146 116.318 33.4146ZM101.105 33.4146C102.105 33.4146 102.919 34.2511 102.919 35.2878C102.919 36.3244 102.105 37.1609 101.105 37.1609C100.105 37.1609 99.2885 36.3244 99.2885 35.2878C99.2885 34.2511 100.102 33.4146 101.105 33.4146ZM85.8894 33.4146C86.8895 33.4146 87.7027 34.2511 87.7027 35.2878C87.7027 36.3244 86.8895 37.1609 85.8894 37.1609C84.8893 37.1609 84.0761 36.3244 84.0761 35.2878C84.0761 34.2511 84.8858 33.4146 85.8894 33.4146ZM70.6735 33.4146C71.677 33.4146 72.4868 34.2511 72.4868 35.2878C72.4868 36.3244 71.677 37.1609 70.6735 37.1609C69.6699 37.1609 68.8602 36.3244 68.8602 35.2878C68.8602 34.2511 69.6734 33.4146 70.6735 33.4146ZM55.461 33.4146C56.4611 33.4146 57.2743 34.2511 57.2743 35.2878C57.2743 36.3244 56.4611 37.1609 55.461 37.1609C54.4609 37.1609 53.6443 36.3244 53.6443 35.2878C53.6443 34.2511 54.4575 33.4146 55.461 33.4146ZM40.2451 33.4146C41.2487 33.4146 42.0584 34.2511 42.0584 35.2878C42.0584 36.3244 41.2487 37.1609 40.2451 37.1609C39.2416 37.1609 38.4318 36.3244 38.4318 35.2878C38.4318 34.2511 39.2416 33.4146 40.2451 33.4146ZM25.0292 33.4146C26.0328 33.4146 26.8425 34.2511 26.8425 35.2878C26.8425 36.3244 26.0328 37.1609 25.0292 37.1609C24.0257 37.1609 23.2159 36.3244 23.2159 35.2878C23.2159 34.2511 24.0291 33.4146 25.0292 33.4146ZM9.81331 33.4146C10.8169 33.4146 11.6301 34.2511 11.6301 35.2878C11.6301 36.3244 10.8169 37.1609 9.81331 37.1609C8.80976 37.1609 8 36.3244 8 35.2878C8 34.2511 8.81322 33.4146 9.81331 33.4146ZM392 46.5268C392 45.4901 391.187 44.6536 390.183 44.6536C389.183 44.6536 388.37 45.4901 388.37 46.5268C388.37 47.5635 389.18 48.4 390.183 48.4C391.187 48.4 392 47.5635 392 46.5268ZM376.784 46.5268C376.784 45.4901 375.971 44.6536 374.971 44.6536C373.967 44.6536 373.154 45.4901 373.154 46.5268C373.154 47.5635 373.971 48.4 374.971 48.4C375.971 48.4 376.784 47.5635 376.784 46.5268ZM361.568 46.5268C361.568 45.4901 360.755 44.6536 359.755 44.6536C358.751 44.6536 357.942 45.4901 357.942 46.5268C357.942 47.5635 358.755 48.4 359.755 48.4C360.755 48.4 361.568 47.5635 361.568 46.5268ZM346.352 46.5268C346.352 45.4901 345.543 44.6536 344.539 44.6536C343.539 44.6536 342.726 45.4901 342.726 46.5268C342.726 47.5635 343.535 48.4 344.539 48.4C345.543 48.4 346.352 47.5635 346.352 46.5268ZM331.14 46.5268C331.14 45.4901 330.327 44.6536 329.327 44.6536C328.323 44.6536 327.51 45.4901 327.51 46.5268C327.51 47.5635 328.326 48.4 329.327 48.4C330.327 48.4 331.14 47.5635 331.14 46.5268ZM315.924 46.5268C315.924 45.4901 315.111 44.6536 314.111 44.6536C313.107 44.6536 312.297 45.4901 312.297 46.5268C312.297 47.5635 313.111 48.4 314.111 48.4C315.111 48.4 315.924 47.5635 315.924 46.5268ZM300.708 46.5268C300.708 45.4901 299.898 44.6536 298.895 44.6536C297.891 44.6536 297.081 45.4901 297.081 46.5268C297.081 47.5635 297.891 48.4 298.895 48.4C299.898 48.4 300.708 47.5635 300.708 46.5268ZM285.499 46.5268C285.499 45.4901 284.686 44.6536 283.682 44.6536C282.682 44.6536 281.869 45.4901 281.869 46.5268C281.869 47.5635 282.679 48.4 283.682 48.4C284.686 48.4 285.499 47.5635 285.499 46.5268ZM270.28 46.5268C270.28 45.4901 269.466 44.6536 268.466 44.6536C267.463 44.6536 266.65 45.4901 266.65 46.5268C266.65 47.5635 267.466 48.4 268.466 48.4C269.466 48.4 270.28 47.5635 270.28 46.5268ZM255.064 46.5268C255.064 45.4901 254.251 44.6536 253.25 44.6536C252.247 44.6536 251.437 45.4901 251.437 46.5268C251.437 47.5635 252.25 48.4 253.25 48.4C254.251 48.4 255.064 47.5635 255.064 46.5268ZM239.851 46.5268C239.851 45.4901 239.042 44.6536 238.038 44.6536C237.034 44.6536 236.225 45.4901 236.225 46.5268C236.225 47.5635 237.034 48.4 238.038 48.4C239.042 48.4 239.851 47.5635 239.851 46.5268ZM224.639 46.5268C224.639 45.4901 223.826 44.6536 222.822 44.6536C221.822 44.6536 221.009 45.4901 221.009 46.5268C221.009 47.5635 221.819 48.4 222.822 48.4C223.826 48.4 224.639 47.5635 224.639 46.5268ZM209.42 46.5268C209.42 45.4901 208.606 44.6536 207.606 44.6536C206.603 44.6536 205.793 45.4901 205.793 46.5268C205.793 47.5635 206.606 48.4 207.606 48.4C208.606 48.4 209.42 47.5635 209.42 46.5268ZM194.207 46.5268C194.207 45.4901 193.397 44.6536 192.394 44.6536C191.394 44.6536 190.58 45.4901 190.58 46.5268C190.58 47.5635 191.39 48.4 192.394 48.4C193.397 48.4 194.207 47.5635 194.207 46.5268ZM178.991 46.5268C178.991 45.4901 178.181 44.6536 177.178 44.6536C176.178 44.6536 175.365 45.4901 175.365 46.5268C175.365 47.5635 176.174 48.4 177.178 48.4C178.181 48.4 178.991 47.5635 178.991 46.5268ZM163.775 46.5268C163.775 45.4901 162.962 44.6536 161.962 44.6536C160.958 44.6536 160.145 45.4901 160.145 46.5268C160.145 47.5635 160.962 48.4 161.962 48.4C162.962 48.4 163.775 47.5635 163.775 46.5268ZM148.563 46.5268C148.563 45.4901 147.75 44.6536 146.75 44.6536C145.746 44.6536 144.936 45.4901 144.936 46.5268C144.936 47.5635 145.749 48.4 146.75 48.4C147.75 48.4 148.563 47.5635 148.563 46.5268ZM133.347 46.5268C133.347 45.4901 132.537 44.6536 131.534 44.6536C130.534 44.6536 129.72 45.4901 129.72 46.5268C129.72 47.5635 130.53 48.4 131.534 48.4C132.537 48.4 133.347 47.5635 133.347 46.5268ZM118.134 46.5268C118.134 45.4901 117.321 44.6536 116.318 44.6536C115.318 44.6536 114.504 45.4901 114.504 46.5268C114.504 47.5635 115.314 48.4 116.318 48.4C117.321 48.4 118.134 47.5635 118.134 46.5268ZM102.919 46.5268C102.919 45.4901 102.105 44.6536 101.105 44.6536C100.102 44.6536 99.2885 45.4901 99.2885 46.5268C99.2885 47.5635 100.105 48.4 101.105 48.4C102.105 48.4 102.919 47.5635 102.919 46.5268ZM87.7027 46.5268C87.7027 45.4901 86.8895 44.6536 85.8894 44.6536C84.8858 44.6536 84.0761 45.4901 84.0761 46.5268C84.0761 47.5635 84.8893 48.4 85.8894 48.4C86.8895 48.4 87.7027 47.5635 87.7027 46.5268ZM72.4868 46.5268C72.4868 45.4901 71.677 44.6536 70.6735 44.6536C69.6734 44.6536 68.8602 45.4901 68.8602 46.5268C68.8602 47.5635 69.6699 48.4 70.6735 48.4C71.677 48.4 72.4868 47.5635 72.4868 46.5268ZM57.2743 46.5268C57.2743 45.4901 56.4611 44.6536 55.461 44.6536C54.4575 44.6536 53.6443 45.4901 53.6443 46.5268C53.6443 47.5635 54.4609 48.4 55.461 48.4C56.4611 48.4 57.2743 47.5635 57.2743 46.5268ZM42.0584 46.5268C42.0584 45.4901 41.2487 44.6536 40.2451 44.6536C39.2416 44.6536 38.4318 45.4901 38.4318 46.5268C38.4318 47.5635 39.2416 48.4 40.2451 48.4C41.2487 48.4 42.0584 47.5635 42.0584 46.5268ZM26.8425 46.5268C26.8425 45.4901 26.0328 44.6536 25.0292 44.6536C24.0291 44.6536 23.2159 45.4901 23.2159 46.5268C23.2159 47.5635 24.0257 48.4 25.0292 48.4C26.0328 48.4 26.8425 47.5635 26.8425 46.5268ZM11.6301 46.5268C11.6301 45.4901 10.8169 44.6536 9.81331 44.6536C8.81322 44.6536 8 45.4901 8 46.5268C8 47.5635 8.80976 48.4 9.81331 48.4C10.8169 48.4 11.6301 47.5635 11.6301 46.5268ZM390.183 56.8293C391.187 56.8293 392 57.6658 392 58.7025C392 59.7391 391.187 60.5756 390.183 60.5756C389.18 60.5756 388.37 59.7391 388.37 58.7025C388.37 57.6658 389.183 56.8293 390.183 56.8293ZM374.971 56.8293C375.971 56.8293 376.784 57.6658 376.784 58.7025C376.784 59.7391 375.971 60.5756 374.971 60.5756C373.971 60.5756 373.154 59.7391 373.154 58.7025C373.154 57.6658 373.967 56.8293 374.971 56.8293ZM359.755 56.8293C360.755 56.8293 361.568 57.6658 361.568 58.7025C361.568 59.7391 360.755 60.5756 359.755 60.5756C358.755 60.5756 357.942 59.7391 357.942 58.7025C357.942 57.6658 358.751 56.8293 359.755 56.8293ZM344.539 56.8293C345.543 56.8293 346.352 57.6658 346.352 58.7025C346.352 59.7391 345.543 60.5756 344.539 60.5756C343.535 60.5756 342.726 59.7391 342.726 58.7025C342.726 57.6658 343.539 56.8293 344.539 56.8293ZM329.327 56.8293C330.327 56.8293 331.14 57.6658 331.14 58.7025C331.14 59.7391 330.327 60.5756 329.327 60.5756C328.326 60.5756 327.51 59.7391 327.51 58.7025C327.51 57.6658 328.323 56.8293 329.327 56.8293ZM314.111 56.8293C315.111 56.8293 315.924 57.6658 315.924 58.7025C315.924 59.7391 315.111 60.5756 314.111 60.5756C313.111 60.5756 312.297 59.7391 312.297 58.7025C312.297 57.6658 313.107 56.8293 314.111 56.8293ZM298.895 56.8293C299.898 56.8293 300.708 57.6658 300.708 58.7025C300.708 59.7391 299.898 60.5756 298.895 60.5756C297.891 60.5756 297.081 59.7391 297.081 58.7025C297.081 57.6658 297.891 56.8293 298.895 56.8293ZM283.682 56.8293C284.686 56.8293 285.499 57.6658 285.499 58.7025C285.499 59.7391 284.686 60.5756 283.682 60.5756C282.679 60.5756 281.869 59.7391 281.869 58.7025C281.869 57.6658 282.682 56.8293 283.682 56.8293ZM268.466 56.8293C269.466 56.8293 270.28 57.6658 270.28 58.7025C270.28 59.7391 269.466 60.5756 268.466 60.5756C267.466 60.5756 266.65 59.7391 266.65 58.7025C266.65 57.6658 267.463 56.8293 268.466 56.8293ZM253.25 56.8293C254.251 56.8293 255.064 57.6658 255.064 58.7025C255.064 59.7391 254.251 60.5756 253.25 60.5756C252.25 60.5756 251.437 59.7391 251.437 58.7025C251.437 57.6658 252.247 56.8293 253.25 56.8293ZM238.038 56.8293C239.042 56.8293 239.851 57.6658 239.851 58.7025C239.851 59.7391 239.042 60.5756 238.038 60.5756C237.034 60.5756 236.225 59.7391 236.225 58.7025C236.225 57.6658 237.034 56.8293 238.038 56.8293ZM222.822 56.8293C223.826 56.8293 224.639 57.6658 224.639 58.7025C224.639 59.7391 223.826 60.5756 222.822 60.5756C221.819 60.5756 221.009 59.7391 221.009 58.7025C221.009 57.6658 221.822 56.8293 222.822 56.8293ZM207.606 56.8293C208.606 56.8293 209.42 57.6658 209.42 58.7025C209.42 59.7391 208.606 60.5756 207.606 60.5756C206.606 60.5756 205.793 59.7391 205.793 58.7025C205.793 57.6658 206.603 56.8293 207.606 56.8293ZM192.394 56.8293C193.397 56.8293 194.207 57.6658 194.207 58.7025C194.207 59.7391 193.397 60.5756 192.394 60.5756C191.39 60.5756 190.58 59.7391 190.58 58.7025C190.58 57.6658 191.394 56.8293 192.394 56.8293ZM177.178 56.8293C178.181 56.8293 178.991 57.6658 178.991 58.7025C178.991 59.7391 178.181 60.5756 177.178 60.5756C176.174 60.5756 175.365 59.7391 175.365 58.7025C175.365 57.6658 176.178 56.8293 177.178 56.8293ZM161.962 56.8293C162.962 56.8293 163.775 57.6658 163.775 58.7025C163.775 59.7391 162.962 60.5756 161.962 60.5756C160.962 60.5756 160.145 59.7391 160.145 58.7025C160.145 57.6658 160.958 56.8293 161.962 56.8293ZM146.75 56.8293C147.75 56.8293 148.563 57.6658 148.563 58.7025C148.563 59.7391 147.75 60.5756 146.75 60.5756C145.749 60.5756 144.936 59.7391 144.936 58.7025C144.936 57.6658 145.746 56.8293 146.75 56.8293ZM131.534 56.8293C132.537 56.8293 133.347 57.6658 133.347 58.7025C133.347 59.7391 132.537 60.5756 131.534 60.5756C130.53 60.5756 129.72 59.7391 129.72 58.7025C129.72 57.6658 130.534 56.8293 131.534 56.8293ZM116.318 56.8293C117.321 56.8293 118.134 57.6658 118.134 58.7025C118.134 59.7391 117.321 60.5756 116.318 60.5756C115.314 60.5756 114.504 59.7391 114.504 58.7025C114.504 57.6658 115.318 56.8293 116.318 56.8293ZM101.105 56.8293C102.105 56.8293 102.919 57.6658 102.919 58.7025C102.919 59.7391 102.105 60.5756 101.105 60.5756C100.105 60.5756 99.2885 59.7391 99.2885 58.7025C99.2885 57.6658 100.102 56.8293 101.105 56.8293ZM85.8894 56.8293C86.8895 56.8293 87.7027 57.6658 87.7027 58.7025C87.7027 59.7391 86.8895 60.5756 85.8894 60.5756C84.8893 60.5756 84.0761 59.7391 84.0761 58.7025C84.0761 57.6658 84.8858 56.8293 85.8894 56.8293ZM70.6735 56.8293C71.677 56.8293 72.4868 57.6658 72.4868 58.7025C72.4868 59.7391 71.677 60.5756 70.6735 60.5756C69.6699 60.5756 68.8602 59.7391 68.8602 58.7025C68.8602 57.6658 69.6734 56.8293 70.6735 56.8293ZM55.461 56.8293C56.4611 56.8293 57.2743 57.6658 57.2743 58.7025C57.2743 59.7391 56.4611 60.5756 55.461 60.5756C54.4609 60.5756 53.6443 59.7391 53.6443 58.7025C53.6443 57.6658 54.4575 56.8293 55.461 56.8293ZM40.2451 56.8293C41.2487 56.8293 42.0584 57.6658 42.0584 58.7025C42.0584 59.7391 41.2487 60.5756 40.2451 60.5756C39.2416 60.5756 38.4318 59.7391 38.4318 58.7025C38.4318 57.6658 39.2416 56.8293 40.2451 56.8293ZM25.0292 56.8293C26.0328 56.8293 26.8425 57.6658 26.8425 58.7025C26.8425 59.7391 26.0328 60.5756 25.0292 60.5756C24.0257 60.5756 23.2159 59.7391 23.2159 58.7025C23.2159 57.6658 24.0291 56.8293 25.0292 56.8293ZM9.81331 56.8293C10.8169 56.8293 11.6301 57.6658 11.6301 58.7025C11.6301 59.7391 10.8169 60.5756 9.81331 60.5756C8.80976 60.5756 8 59.7391 8 58.7025C8 57.6658 8.81322 56.8293 9.81331 56.8293ZM392 69.9414C392 68.9083 391.187 68.0683 390.183 68.0683C389.183 68.0683 388.37 68.9048 388.37 69.9414C388.37 70.9781 389.18 71.8146 390.183 71.8146C391.187 71.8146 392 70.9746 392 69.9414ZM376.784 69.9414C376.784 68.9083 375.971 68.0683 374.971 68.0683C373.967 68.0683 373.154 68.9048 373.154 69.9414C373.154 70.9781 373.971 71.8146 374.971 71.8146C375.971 71.8146 376.784 70.9746 376.784 69.9414ZM361.568 69.9414C361.568 68.9083 360.755 68.0683 359.755 68.0683C358.751 68.0683 357.942 68.9048 357.942 69.9414C357.942 70.9781 358.755 71.8146 359.755 71.8146C360.755 71.8146 361.568 70.9746 361.568 69.9414ZM346.352 69.9414C346.352 68.9083 345.543 68.0683 344.539 68.0683C343.539 68.0683 342.726 68.9048 342.726 69.9414C342.726 70.9781 343.535 71.8146 344.539 71.8146C345.543 71.8146 346.352 70.9746 346.352 69.9414ZM331.14 69.9414C331.14 68.9083 330.327 68.0683 329.327 68.0683C328.323 68.0683 327.51 68.9048 327.51 69.9414C327.51 70.9781 328.326 71.8146 329.327 71.8146C330.327 71.8146 331.14 70.9746 331.14 69.9414ZM315.924 69.9414C315.924 68.9083 315.111 68.0683 314.111 68.0683C313.107 68.0683 312.297 68.9048 312.297 69.9414C312.297 70.9781 313.111 71.8146 314.111 71.8146C315.111 71.8146 315.924 70.9746 315.924 69.9414ZM300.708 69.9414C300.708 68.9083 299.898 68.0683 298.895 68.0683C297.891 68.0683 297.081 68.9048 297.081 69.9414C297.081 70.9781 297.891 71.8146 298.895 71.8146C299.898 71.8146 300.708 70.9746 300.708 69.9414ZM285.499 69.9414C285.499 68.9083 284.686 68.0683 283.682 68.0683C282.682 68.0683 281.869 68.9048 281.869 69.9414C281.869 70.9781 282.679 71.8146 283.682 71.8146C284.686 71.8146 285.499 70.9746 285.499 69.9414ZM270.28 69.9414C270.28 68.9083 269.466 68.0683 268.466 68.0683C267.463 68.0683 266.65 68.9048 266.65 69.9414C266.65 70.9781 267.466 71.8146 268.466 71.8146C269.466 71.8146 270.28 70.9746 270.28 69.9414ZM255.064 69.9414C255.064 68.9083 254.251 68.0683 253.25 68.0683C252.247 68.0683 251.437 68.9048 251.437 69.9414C251.437 70.9781 252.25 71.8146 253.25 71.8146C254.251 71.8146 255.064 70.9746 255.064 69.9414ZM239.851 69.9414C239.851 68.9083 239.042 68.0683 238.038 68.0683C237.034 68.0683 236.225 68.9048 236.225 69.9414C236.225 70.9781 237.034 71.8146 238.038 71.8146C239.042 71.8146 239.851 70.9746 239.851 69.9414ZM224.639 69.9414C224.639 68.9083 223.826 68.0683 222.822 68.0683C221.822 68.0683 221.009 68.9048 221.009 69.9414C221.009 70.9781 221.819 71.8146 222.822 71.8146C223.826 71.8146 224.639 70.9746 224.639 69.9414ZM209.42 69.9414C209.42 68.9083 208.606 68.0683 207.606 68.0683C206.603 68.0683 205.793 68.9048 205.793 69.9414C205.793 70.9781 206.606 71.8146 207.606 71.8146C208.606 71.8146 209.42 70.9746 209.42 69.9414ZM194.207 69.9414C194.207 68.9083 193.397 68.0683 192.394 68.0683C191.394 68.0683 190.58 68.9048 190.58 69.9414C190.58 70.9781 191.39 71.8146 192.394 71.8146C193.397 71.8146 194.207 70.9746 194.207 69.9414ZM178.991 69.9414C178.991 68.9083 178.181 68.0683 177.178 68.0683C176.178 68.0683 175.365 68.9048 175.365 69.9414C175.365 70.9781 176.174 71.8146 177.178 71.8146C178.181 71.8146 178.991 70.9746 178.991 69.9414ZM163.775 69.9414C163.775 68.9083 162.962 68.0683 161.962 68.0683C160.958 68.0683 160.145 68.9048 160.145 69.9414C160.145 70.9781 160.962 71.8146 161.962 71.8146C162.962 71.8146 163.775 70.9746 163.775 69.9414ZM148.563 69.9414C148.563 68.9083 147.75 68.0683 146.75 68.0683C145.746 68.0683 144.936 68.9048 144.936 69.9414C144.936 70.9781 145.749 71.8146 146.75 71.8146C147.75 71.8146 148.563 70.9746 148.563 69.9414ZM133.347 69.9414C133.347 68.9083 132.537 68.0683 131.534 68.0683C130.534 68.0683 129.72 68.9048 129.72 69.9414C129.72 70.9781 130.53 71.8146 131.534 71.8146C132.537 71.8146 133.347 70.9746 133.347 69.9414ZM118.134 69.9414C118.134 68.9083 117.321 68.0683 116.318 68.0683C115.318 68.0683 114.504 68.9048 114.504 69.9414C114.504 70.9781 115.314 71.8146 116.318 71.8146C117.321 71.8146 118.134 70.9746 118.134 69.9414ZM102.919 69.9414C102.919 68.9083 102.105 68.0683 101.105 68.0683C100.102 68.0683 99.2885 68.9048 99.2885 69.9414C99.2885 70.9781 100.105 71.8146 101.105 71.8146C102.105 71.8146 102.919 70.9746 102.919 69.9414ZM87.7027 69.9414C87.7027 68.9083 86.8895 68.0683 85.8894 68.0683C84.8858 68.0683 84.0761 68.9048 84.0761 69.9414C84.0761 70.9781 84.8893 71.8146 85.8894 71.8146C86.8895 71.8146 87.7027 70.9746 87.7027 69.9414ZM72.4868 69.9414C72.4868 68.9083 71.677 68.0683 70.6735 68.0683C69.6734 68.0683 68.8602 68.9048 68.8602 69.9414C68.8602 70.9781 69.6699 71.8146 70.6735 71.8146C71.677 71.8146 72.4868 70.9746 72.4868 69.9414ZM57.2743 69.9414C57.2743 68.9083 56.4611 68.0683 55.461 68.0683C54.4575 68.0683 53.6443 68.9048 53.6443 69.9414C53.6443 70.9781 54.4609 71.8146 55.461 71.8146C56.4611 71.8146 57.2743 70.9746 57.2743 69.9414ZM42.0584 69.9414C42.0584 68.9083 41.2487 68.0683 40.2451 68.0683C39.2416 68.0683 38.4318 68.9048 38.4318 69.9414C38.4318 70.9781 39.2416 71.8146 40.2451 71.8146C41.2487 71.8146 42.0584 70.9746 42.0584 69.9414ZM26.8425 69.9414C26.8425 68.9083 26.0328 68.0683 25.0292 68.0683C24.0291 68.0683 23.2159 68.9048 23.2159 69.9414C23.2159 70.9781 24.0257 71.8146 25.0292 71.8146C26.0328 71.8146 26.8425 70.9746 26.8425 69.9414ZM11.6301 69.9414C11.6301 68.9083 10.8169 68.0683 9.81331 68.0683C8.81322 68.0683 8 68.9048 8 69.9414C8 70.9781 8.80976 71.8146 9.81331 71.8146C10.8169 71.8146 11.6301 70.9746 11.6301 69.9414ZM390.183 79.1707C391.187 79.1707 392 80.0108 392 81.0439C392 82.077 391.187 82.9171 390.183 82.9171C389.18 82.9171 388.37 82.0806 388.37 81.0439C388.37 80.0072 389.183 79.1707 390.183 79.1707ZM374.971 79.1707C375.971 79.1707 376.784 80.0108 376.784 81.0439C376.784 82.077 375.971 82.9171 374.971 82.9171C373.971 82.9171 373.154 82.0806 373.154 81.0439C373.154 80.0072 373.967 79.1707 374.971 79.1707ZM359.755 79.1707C360.755 79.1707 361.568 80.0108 361.568 81.0439C361.568 82.077 360.755 82.9171 359.755 82.9171C358.755 82.9171 357.942 82.0806 357.942 81.0439C357.942 80.0072 358.751 79.1707 359.755 79.1707ZM344.539 79.1707C345.543 79.1707 346.352 80.0108 346.352 81.0439C346.352 82.077 345.543 82.9171 344.539 82.9171C343.535 82.9171 342.726 82.0806 342.726 81.0439C342.726 80.0072 343.539 79.1707 344.539 79.1707ZM329.327 79.1707C330.327 79.1707 331.14 80.0108 331.14 81.0439C331.14 82.077 330.327 82.9171 329.327 82.9171C328.326 82.9171 327.51 82.0806 327.51 81.0439C327.51 80.0072 328.323 79.1707 329.327 79.1707ZM314.111 79.1707C315.111 79.1707 315.924 80.0108 315.924 81.0439C315.924 82.077 315.111 82.9171 314.111 82.9171C313.111 82.9171 312.297 82.0806 312.297 81.0439C312.297 80.0072 313.107 79.1707 314.111 79.1707ZM298.895 79.1707C299.898 79.1707 300.708 80.0108 300.708 81.0439C300.708 82.077 299.898 82.9171 298.895 82.9171C297.891 82.9171 297.081 82.0806 297.081 81.0439C297.081 80.0072 297.891 79.1707 298.895 79.1707ZM283.682 79.1707C284.686 79.1707 285.499 80.0108 285.499 81.0439C285.499 82.077 284.686 82.9171 283.682 82.9171C282.679 82.9171 281.869 82.0806 281.869 81.0439C281.869 80.0072 282.682 79.1707 283.682 79.1707ZM268.466 79.1707C269.466 79.1707 270.28 80.0108 270.28 81.0439C270.28 82.077 269.466 82.9171 268.466 82.9171C267.466 82.9171 266.65 82.0806 266.65 81.0439C266.65 80.0072 267.463 79.1707 268.466 79.1707ZM253.25 79.1707C254.251 79.1707 255.064 80.0108 255.064 81.0439C255.064 82.077 254.251 82.9171 253.25 82.9171C252.25 82.9171 251.437 82.0806 251.437 81.0439C251.437 80.0072 252.247 79.1707 253.25 79.1707ZM238.038 79.1707C239.042 79.1707 239.851 80.0108 239.851 81.0439C239.851 82.077 239.042 82.9171 238.038 82.9171C237.034 82.9171 236.225 82.0806 236.225 81.0439C236.225 80.0072 237.034 79.1707 238.038 79.1707ZM222.822 79.1707C223.826 79.1707 224.639 80.0108 224.639 81.0439C224.639 82.077 223.826 82.9171 222.822 82.9171C221.819 82.9171 221.009 82.0806 221.009 81.0439C221.009 80.0072 221.822 79.1707 222.822 79.1707ZM207.606 79.1707C208.606 79.1707 209.42 80.0108 209.42 81.0439C209.42 82.077 208.606 82.9171 207.606 82.9171C206.606 82.9171 205.793 82.0806 205.793 81.0439C205.793 80.0072 206.603 79.1707 207.606 79.1707ZM192.394 79.1707C193.397 79.1707 194.207 80.0108 194.207 81.0439C194.207 82.077 193.397 82.9171 192.394 82.9171C191.39 82.9171 190.58 82.0806 190.58 81.0439C190.58 80.0072 191.394 79.1707 192.394 79.1707ZM177.178 79.1707C178.181 79.1707 178.991 80.0108 178.991 81.0439C178.991 82.077 178.181 82.9171 177.178 82.9171C176.174 82.9171 175.365 82.0806 175.365 81.0439C175.365 80.0072 176.178 79.1707 177.178 79.1707ZM161.962 79.1707C162.962 79.1707 163.775 80.0108 163.775 81.0439C163.775 82.077 162.962 82.9171 161.962 82.9171C160.962 82.9171 160.145 82.0806 160.145 81.0439C160.145 80.0072 160.958 79.1707 161.962 79.1707ZM146.75 79.1707C147.75 79.1707 148.563 80.0108 148.563 81.0439C148.563 82.077 147.75 82.9171 146.75 82.9171C145.749 82.9171 144.936 82.0806 144.936 81.0439C144.936 80.0072 145.746 79.1707 146.75 79.1707ZM131.534 79.1707C132.537 79.1707 133.347 80.0108 133.347 81.0439C133.347 82.077 132.537 82.9171 131.534 82.9171C130.53 82.9171 129.72 82.0806 129.72 81.0439C129.72 80.0072 130.534 79.1707 131.534 79.1707ZM116.318 79.1707C117.321 79.1707 118.134 80.0108 118.134 81.0439C118.134 82.077 117.321 82.9171 116.318 82.9171C115.314 82.9171 114.504 82.0806 114.504 81.0439C114.504 80.0072 115.318 79.1707 116.318 79.1707ZM101.105 79.1707C102.105 79.1707 102.919 80.0108 102.919 81.0439C102.919 82.077 102.105 82.9171 101.105 82.9171C100.105 82.9171 99.2885 82.0806 99.2885 81.0439C99.2885 80.0072 100.102 79.1707 101.105 79.1707ZM85.8894 79.1707C86.8895 79.1707 87.7027 80.0108 87.7027 81.0439C87.7027 82.077 86.8895 82.9171 85.8894 82.9171C84.8893 82.9171 84.0761 82.0806 84.0761 81.0439C84.0761 80.0072 84.8858 79.1707 85.8894 79.1707ZM70.6735 79.1707C71.677 79.1707 72.4868 80.0108 72.4868 81.0439C72.4868 82.077 71.677 82.9171 70.6735 82.9171C69.6699 82.9171 68.8602 82.0806 68.8602 81.0439C68.8602 80.0072 69.6734 79.1707 70.6735 79.1707ZM55.461 79.1707C56.4611 79.1707 57.2743 80.0108 57.2743 81.0439C57.2743 82.077 56.4611 82.9171 55.461 82.9171C54.4609 82.9171 53.6443 82.0806 53.6443 81.0439C53.6443 80.0072 54.4575 79.1707 55.461 79.1707ZM40.2451 79.1707C41.2487 79.1707 42.0584 80.0108 42.0584 81.0439C42.0584 82.077 41.2487 82.9171 40.2451 82.9171C39.2416 82.9171 38.4318 82.0806 38.4318 81.0439C38.4318 80.0072 39.2416 79.1707 40.2451 79.1707ZM25.0292 79.1707C26.0328 79.1707 26.8425 80.0108 26.8425 81.0439C26.8425 82.077 26.0328 82.9171 25.0292 82.9171C24.0257 82.9171 23.2159 82.0806 23.2159 81.0439C23.2159 80.0072 24.0291 79.1707 25.0292 79.1707ZM9.81331 79.1707C10.8169 79.1707 11.6301 80.0108 11.6301 81.0439C11.6301 82.077 10.8169 82.9171 9.81331 82.9171C8.80976 82.9171 8 82.0806 8 81.0439C8 80.0072 8.81322 79.1707 9.81331 79.1707ZM376.784 93.3543C376.784 92.3222 375.971 91.4829 374.971 91.4829C373.967 91.4829 373.154 92.3186 373.154 93.3543C373.154 94.39 373.971 95.2293 374.971 95.2293C375.971 95.2293 376.784 94.3864 376.784 93.3543ZM361.568 93.3543C361.568 92.3222 360.755 91.4829 359.755 91.4829C358.751 91.4829 357.941 92.3186 357.941 93.3543C357.941 94.39 358.755 95.2293 359.755 95.2293C360.755 95.2293 361.568 94.3864 361.568 93.3543ZM346.352 93.3543C346.352 92.3222 345.542 91.4829 344.539 91.4829C343.539 91.4829 342.726 92.3186 342.726 93.3543C342.726 94.39 343.535 95.2293 344.539 95.2293C345.542 95.2293 346.352 94.3864 346.352 93.3543ZM331.14 93.3543C331.14 92.3222 330.327 91.4829 329.326 91.4829C328.323 91.4829 327.51 92.3186 327.51 93.3543C327.51 94.39 328.326 95.2293 329.326 95.2293C330.327 95.2293 331.14 94.3864 331.14 93.3543ZM315.924 93.3543C315.924 92.3222 315.111 91.4829 314.111 91.4829C313.107 91.4829 312.297 92.3186 312.297 93.3543C312.297 94.39 313.11 95.2293 314.111 95.2293C315.111 95.2293 315.924 94.3864 315.924 93.3543ZM300.708 93.3543C300.708 92.3222 299.898 91.4829 298.895 91.4829C297.891 91.4829 297.081 92.3186 297.081 93.3543C297.081 94.39 297.891 95.2293 298.895 95.2293C299.898 95.2293 300.708 94.3864 300.708 93.3543ZM285.499 93.3543C285.499 92.3222 284.686 91.4829 283.682 91.4829C282.682 91.4829 281.869 92.3186 281.869 93.3543C281.869 94.39 282.679 95.2293 283.682 95.2293C284.686 95.2293 285.499 94.3864 285.499 93.3543ZM270.28 93.3543C270.28 92.3222 269.466 91.4829 268.466 91.4829C267.463 91.4829 266.65 92.3186 266.65 93.3543C266.65 94.39 267.466 95.2293 268.466 95.2293C269.466 95.2293 270.28 94.3864 270.28 93.3543ZM255.064 93.3543C255.064 92.3222 254.25 91.4829 253.25 91.4829C252.247 91.4829 251.437 92.3186 251.437 93.3543C251.437 94.39 252.25 95.2293 253.25 95.2293C254.25 95.2293 255.064 94.3864 255.064 93.3543ZM239.851 93.3543C239.851 92.3222 239.042 91.4829 238.038 91.4829C237.034 91.4829 236.225 92.3186 236.225 93.3543C236.225 94.39 237.034 95.2293 238.038 95.2293C239.042 95.2293 239.851 94.3864 239.851 93.3543ZM224.639 93.3543C224.639 92.3222 223.826 91.4829 222.822 91.4829C221.822 91.4829 221.009 92.3186 221.009 93.3543C221.009 94.39 221.818 95.2293 222.822 95.2293C223.826 95.2293 224.639 94.3864 224.639 93.3543ZM209.419 93.3543C209.419 92.3222 208.606 91.4829 207.606 91.4829C206.603 91.4829 205.793 92.3186 205.793 93.3543C205.793 94.39 206.606 95.2293 207.606 95.2293C208.606 95.2293 209.419 94.3864 209.419 93.3543ZM194.207 93.3543C194.207 92.3222 193.397 91.4829 192.394 91.4829C191.394 91.4829 190.58 92.3186 190.58 93.3543C190.58 94.39 191.39 95.2293 192.394 95.2293C193.397 95.2293 194.207 94.3864 194.207 93.3543ZM178.991 93.3543C178.991 92.3222 178.181 91.4829 177.178 91.4829C176.178 91.4829 175.364 92.3186 175.364 93.3543C175.364 94.39 176.174 95.2293 177.178 95.2293C178.181 95.2293 178.991 94.3864 178.991 93.3543ZM163.775 93.3543C163.775 92.3222 162.962 91.4829 161.962 91.4829C160.958 91.4829 160.145 92.3186 160.145 93.3543C160.145 94.39 160.962 95.2293 161.962 95.2293C162.962 95.2293 163.775 94.3864 163.775 93.3543ZM148.563 93.3543C148.563 92.3222 147.75 91.4829 146.749 91.4829C145.746 91.4829 144.936 92.3186 144.936 93.3543C144.936 94.39 145.749 95.2293 146.749 95.2293C147.75 95.2293 148.563 94.3864 148.563 93.3543ZM133.347 93.3543C133.347 92.3222 132.537 91.4829 131.534 91.4829C130.533 91.4829 129.72 92.3186 129.72 93.3543C129.72 94.39 130.53 95.2293 131.534 95.2293C132.537 95.2293 133.347 94.3864 133.347 93.3543ZM118.134 93.3543C118.134 92.3222 117.321 91.4829 116.318 91.4829C115.318 91.4829 114.504 92.3186 114.504 93.3543C114.504 94.39 115.314 95.2293 116.318 95.2293C117.321 95.2293 118.134 94.3864 118.134 93.3543ZM102.919 93.3543C102.919 92.3222 102.105 91.4829 101.105 91.4829C100.102 91.4829 99.2884 92.3186 99.2884 93.3543C99.2884 94.39 100.105 95.2293 101.105 95.2293C102.105 95.2293 102.919 94.3864 102.919 93.3543ZM87.7026 93.3543C87.7026 92.3222 86.8894 91.4829 85.8893 91.4829C84.8857 91.4829 84.076 92.3186 84.076 93.3543C84.076 94.39 84.8892 95.2293 85.8893 95.2293C86.8894 95.2293 87.7026 94.3864 87.7026 93.3543ZM72.4867 93.3543C72.4867 92.3222 71.6769 91.4829 70.6734 91.4829C69.6733 91.4829 68.8601 92.3186 68.8601 93.3543C68.8601 94.39 69.6698 95.2293 70.6734 95.2293C71.6769 95.2293 72.4867 94.3864 72.4867 93.3543ZM57.2743 93.3543C57.2743 92.3222 56.461 91.4829 55.4609 91.4829C54.4574 91.4829 53.6442 92.3186 53.6442 93.3543C53.6442 94.39 54.4608 95.2293 55.4609 95.2293C56.461 95.2293 57.2743 94.3864 57.2743 93.3543ZM42.0583 93.3543C42.0583 92.3222 41.2486 91.4829 40.245 91.4829C39.2415 91.4829 38.4317 92.3186 38.4317 93.3543C38.4317 94.39 39.2415 95.2293 40.245 95.2293C41.2486 95.2293 42.0583 94.3864 42.0583 93.3543ZM26.8424 93.3543C26.8424 92.3222 26.0327 91.4829 25.0291 91.4829C24.029 91.4829 23.2158 92.3186 23.2158 93.3543C23.2158 94.39 24.0256 95.2293 25.0291 95.2293C26.0327 95.2293 26.8424 94.3864 26.8424 93.3543Z" fill="url(#paint0_linear_2603_51476)" fill-opacity="0.65"/>
<path d="M1 46V17L17 1H391L399 9V46" stroke="#009956" stroke-width="0.5"/>
<path d="M1 1V11L11 1H1Z" fill="#00FF90"/>
<path d="M398 2V8L392 2H398Z" fill="#00FF90"/>
<path d="M399 58V87L383 103H9L1 95V58" stroke="#009956" stroke-width="0.5"/>
<path d="M399 103V93L389 103H399Z" fill="#00FF90"/>
<path d="M2 102V96L8 102H2Z" fill="#00FF90"/>
<defs>
<linearGradient id="paint0_linear_2603_51476" x1="200" y1="-5.40379" x2="200" y2="110.296" gradientUnits="userSpaceOnUse">
<stop stop-color="#00331D" stop-opacity="0"/>
<stop offset="0.5" stop-color="#00331D"/>
<stop offset="1" stop-color="#00331D" stop-opacity="0"/>
</linearGradient>
</defs>
</svg>
