<svg width="30" height="30" viewBox="0 0 30 30" fill="none" xmlns="http://www.w3.org/2000/svg">
<path d="M10.6911 12.6426C11.993 13.9445 11.993 16.0553 10.6911 17.3573C9.38916 18.6592 7.27835 18.6592 5.97643 17.3573C4.67452 16.0553 4.67452 13.9445 5.97643 12.6426C7.27835 11.3407 9.38916 11.3407 10.6911 12.6426" stroke="#9D9FAF" stroke-width="1.5" stroke-linecap="round" stroke-linejoin="round"/>
<path d="M24.0231 5.97643C25.325 7.27835 25.325 9.38916 24.0231 10.6911C22.7212 11.993 20.6104 11.993 19.3085 10.6911C18.0066 9.38916 18.0066 7.27835 19.3085 5.97643C20.6104 4.67452 22.7212 4.67452 24.0231 5.97643" stroke="#9D9FAF" stroke-width="1.5" stroke-linecap="round" stroke-linejoin="round"/>
<path d="M24.0231 19.3089C25.325 20.6108 25.325 22.7216 24.0231 24.0235C22.7212 25.3254 20.6104 25.3254 19.3085 24.0235C18.0066 22.7216 18.0066 20.6108 19.3085 19.3089C20.6104 18.007 22.7212 18.007 24.0231 19.3089" stroke="#9D9FAF" stroke-width="1.5" stroke-linecap="round" stroke-linejoin="round"/>
<path d="M11.3008 13.5125L18.7008 9.8125" stroke="#9D9FAF" stroke-width="1.5" stroke-linecap="round" stroke-linejoin="round"/>
<path d="M11.3008 16.4875L18.7008 20.1875" stroke="#9D9FAF" stroke-width="1.5" stroke-linecap="round" stroke-linejoin="round"/>
</svg>
