<svg width="28" height="28" viewBox="0 0 28 28" fill="none" xmlns="http://www.w3.org/2000/svg">
<path fill-rule="evenodd" clip-rule="evenodd" d="M13 8.75V25.375C13 25.8563 12.6062 26.25 12.125 26.25H6.23876C4.90876 26.25 3.79751 25.2613 3.64001 23.9488L2.00376 10.8237C1.98626 10.7012 1.97751 10.605 1.97751 10.5C1.97751 9.05625 3.15876 7.875 4.60251 7.875H7.52501C7.70876 4.4625 10.5438 1.75 14 1.75C17.4563 1.75 20.2913 4.4625 20.475 7.875H18.725C18.5413 5.43375 16.4938 3.5 14 3.5C11.5063 3.5 9.45876 5.43375 9.27501 7.875H12.125C12.6062 7.875 13 8.26875 13 8.75ZM24.9909 18.9879L24.341 23.6891C24.2545 24.3279 23.9136 24.9158 23.3828 25.3416C22.852 25.7673 22.168 26.0016 21.4602 26H15.97C15.4365 26 15 25.6031 15 25.118V18.882C15 18.3969 15.4365 18 15.97 18H24.0306C24.3119 18 24.5738 18.1058 24.7581 18.2999C24.9424 18.4851 25.0297 18.7409 24.9909 18.9879ZM25.9714 10.9636C25.9905 10.849 26 10.7519 26 10.6461C26 9.19074 24.7121 8 23.1379 8H15.954C15.4293 8 15 8.39691 15 8.88203V15.118C15 15.6031 15.4293 16 15.954 16H24.4545C24.9315 16 25.3417 15.6648 25.399 15.2238L25.9714 10.9636Z" fill="#00663A"/>
</svg>
