<svg width="56" height="57" viewBox="0 0 56 57" fill="none" xmlns="http://www.w3.org/2000/svg">
<path fill-rule="evenodd" clip-rule="evenodd" d="M3.02973 17.5587C7.08108 7.84253 16.731 1.00628 27.9906 1.00628C39.2503 1.00628 48.9002 7.84253 52.9515 17.5587C49.5666 12.3728 43.6827 8.94126 36.9906 8.94126C34.3254 8.94126 31.7884 9.48556 29.4863 10.4682L27.9906 1.46141L26.4949 10.4682C24.1929 9.48556 21.6558 8.94126 18.9906 8.94126C12.2986 8.94126 6.4146 12.3728 3.02973 17.5587ZM0.990616 27.7868C0.990616 24.1645 1.71569 20.7101 3.02973 17.5587C1.10697 20.5045 -0.00938416 24.0164 -0.00938416 27.7868C-0.00938416 12.4485 12.5266 0.0144043 27.9906 0.0144043C43.4546 0.0144043 55.9906 12.4485 55.9906 27.7868C55.9906 24.0164 54.8743 20.5045 52.9515 17.5587C54.2655 20.7101 54.9906 24.1645 54.9906 27.7868C54.9906 17.9265 46.9317 9.93313 36.9906 9.93313C34.3777 9.93313 31.8948 10.4853 29.6541 11.4785L29.4863 10.4682C28.9758 10.6861 28.4769 10.9256 27.9906 11.1855C27.5044 10.9256 27.0054 10.6861 26.4949 10.4682L26.3271 11.4785C24.0864 10.4853 21.6035 9.93313 18.9906 9.93313C9.04949 9.93313 0.990616 17.9265 0.990616 27.7868ZM1.01142 28.6528C0.997603 28.3659 0.990616 28.0772 0.990616 27.7868C0.990616 28.077 0.995268 28.366 1.0045 28.6539L0.490616 28.7379L1.01045 28.8228C1.1349 32.0681 1.84153 35.1654 3.02973 38.015C1.10697 35.0692 -0.00938416 31.5573 -0.00938416 27.7868C-0.00938416 43.1001 12.4858 55.5187 27.915 55.5592L27.9906 56.0144L28.0662 55.5592C43.4954 55.5187 55.9906 43.1001 55.9906 27.7868C55.9906 31.5573 54.8743 35.0692 52.9515 38.015C54.1397 35.1654 54.8463 32.0681 54.9708 28.8228L55.4906 28.7379L54.9767 28.6539C54.986 28.366 54.9906 28.077 54.9906 27.7868C54.9906 28.0772 54.9836 28.3659 54.9698 28.6528L37.8928 25.8628C37.3172 20.2324 34.2428 15.3345 29.7867 12.2771L29.6541 11.4785C29.4395 11.5737 29.2272 11.6728 29.0171 11.7759C28.6818 11.5689 28.3395 11.3719 27.9906 11.1855C27.6418 11.3719 27.2994 11.5689 26.9641 11.7759C26.7541 11.6728 26.5417 11.5737 26.3271 11.4785L26.1945 12.2771C21.7385 15.3345 18.664 20.2324 18.0884 25.8628L1.01142 28.6528ZM1.02051 28.8245C1.01721 28.7673 1.01418 28.7101 1.01142 28.6528L1.0045 28.6539C1.00631 28.7103 1.00829 28.7666 1.01045 28.8228L1.02051 28.8245ZM18.3929 31.6627L1.02051 28.8245C1.5623 38.2019 9.40064 45.6405 18.9906 45.6405C21.4895 45.6405 23.8695 45.1355 26.0324 44.2226L26.1995 45.2286C23.9765 46.1335 21.5423 46.6324 18.9906 46.6324C12.2986 46.6324 6.4146 43.2008 3.02973 38.015C7.0522 47.6619 16.5937 54.4698 27.7501 54.5664L27.915 55.5592C27.9402 55.5592 27.9654 55.5593 27.9906 55.5593C28.0158 55.5593 28.041 55.5592 28.0662 55.5592L28.2311 54.5664C39.3875 54.4698 48.929 47.6619 52.9515 38.015C49.5666 43.2008 43.6827 46.6324 36.9906 46.6324C34.4389 46.6324 32.0047 46.1335 29.7818 45.2286L29.9488 44.2226C32.1118 45.1355 34.4917 45.6405 36.9906 45.6405C46.5806 45.6405 54.4189 38.2019 54.9607 28.8245L54.9708 28.8228C54.9729 28.7666 54.9749 28.7103 54.9767 28.6539L54.9698 28.6528C54.9671 28.7101 54.964 28.7673 54.9607 28.8245L37.5884 31.6627C37.852 30.4118 37.9906 29.1154 37.9906 27.7868C37.9906 27.1373 37.9575 26.4954 37.8928 25.8628L36.8684 25.6955C36.2946 20.817 33.7379 16.539 30.019 13.6755L29.7867 12.2771C29.5345 12.1041 29.2779 11.937 29.0171 11.7759C28.6684 11.9471 28.3261 12.1292 27.9906 12.3216C27.6551 12.1292 27.3128 11.9471 26.9641 11.7759C26.7033 11.937 26.4467 12.1041 26.1945 12.2771L25.9623 13.6755C22.2433 16.539 19.6867 20.817 19.1128 25.6955L18.0884 25.8628C18.0237 26.4954 17.9906 27.1373 17.9906 27.7868C17.9906 29.1154 18.1292 30.4118 18.3929 31.6627ZM19.4556 31.8364L18.3929 31.6627C19.3744 36.3196 22.0889 40.345 25.8369 43.0451L26.0324 44.2226C26.3477 44.0896 26.6584 43.9478 26.9641 43.7977C27.2994 44.0048 27.6418 44.2017 27.9906 44.3882C27.411 44.698 26.8133 44.9788 26.1995 45.2286L27.7501 54.5664C27.8302 54.5671 27.9104 54.5674 27.9906 54.5674C28.0709 54.5674 28.151 54.5671 28.2311 54.5664L29.7818 45.2286C29.1679 44.9788 28.5702 44.698 27.9906 44.3882C28.3395 44.2017 28.6818 44.0048 29.0171 43.7977C29.3229 43.9478 29.6335 44.0896 29.9488 44.2226L30.1444 43.0451C33.8923 40.345 36.6069 36.3196 37.5884 31.6627L36.5256 31.8364C36.8298 30.5353 36.9906 29.1797 36.9906 27.7868C36.9906 27.0793 36.9491 26.3815 36.8684 25.6955L31.8797 24.8804L30.019 13.6755C29.3762 13.1806 28.6986 12.7279 27.9906 12.3216C27.2826 12.7279 26.6051 13.1806 25.9623 13.6755L24.1015 24.8804L19.1128 25.6955C19.0321 26.3815 18.9906 27.0793 18.9906 27.7868C18.9906 29.1797 19.1514 30.5353 19.4556 31.8364ZM25.5987 41.6107L25.8369 43.0451C26.203 43.3088 26.5789 43.5599 26.9641 43.7977C27.3128 43.6266 27.6551 43.4445 27.9906 43.252C28.3261 43.4445 28.6684 43.6266 29.0171 43.7977C29.4023 43.5599 29.7783 43.3088 30.1444 43.0451L30.3826 41.6107C33.4081 39.1548 35.6126 35.7411 36.5256 31.8364L31.8797 32.5954L30.3826 41.6107C29.6332 42.2189 28.8335 42.7684 27.9906 43.252C27.1477 42.7684 26.348 42.2189 25.5987 41.6107ZM25.5987 41.6107L24.1015 32.5954L19.4556 31.8364C20.3686 35.7411 22.5731 39.1548 25.5987 41.6107Z" fill="white"/>
</svg>
