<svg width="20" height="20" viewBox="0 0 20 20" fill="none" xmlns="http://www.w3.org/2000/svg">
<path d="M15.9477 7.93072C15.9126 7.87275 15.8617 7.82452 15.8002 7.79097C15.7387 7.75742 15.6688 7.73974 15.5977 7.73974H10.3271L11.2107 1.41841C11.2202 1.3338 11.199 1.24868 11.1505 1.17673C11.1021 1.10478 11.0291 1.0502 10.9435 1.02178C10.8579 0.993353 10.7645 0.992737 10.6785 1.02003C10.5924 1.04732 10.5187 1.10093 10.4691 1.17223L4.0596 11.6862C4.02212 11.7432 4.00157 11.8086 4.00009 11.8756C3.9986 11.9426 4.01622 12.0088 4.05114 12.0673C4.08606 12.1257 4.13701 12.1745 4.19873 12.2084C4.26045 12.2423 4.33072 12.2601 4.40228 12.2602H9.59407L8.89381 18.591C8.88693 18.6753 8.91036 18.7593 8.96038 18.8298C9.01039 18.9002 9.08412 18.9529 9.16982 18.9795C9.25553 19.0062 9.34829 19.0052 9.43335 18.9768C9.51841 18.9484 9.59088 18.8942 9.63923 18.8228L15.9429 8.30997C15.9794 8.2528 15.9991 8.18758 16 8.12096C16.0008 8.05433 15.9828 7.98869 15.9477 7.93072Z" fill="#F4FD36"/>
</svg>
