<svg width="36" height="36" viewBox="0 0 36 36" fill="none" xmlns="http://www.w3.org/2000/svg">
<path fill-rule="evenodd" clip-rule="evenodd" d="M12.2585 2H2.4093C2.18325 2 2 2.18325 2 2.4093V12.2585C2 12.4845 2.18325 12.6678 2.4093 12.6678H12.2585C12.4845 12.6678 12.6678 12.4845 12.6678 12.2585V2.4093C12.6678 2.18325 12.4845 2 12.2585 2ZM22.9271 12.6678H13.0779C12.8519 12.6678 12.6686 12.851 12.6686 13.0771V22.9263C12.6686 23.1523 12.8519 23.3356 13.0779 23.3356H22.9271C23.1532 23.3356 23.3364 23.1523 23.3364 22.9263V13.0771C23.3364 12.851 23.1532 12.6678 22.9271 12.6678ZM23.7413 2H33.5905C33.8166 2 33.9998 2.18325 33.9998 2.4093V12.2585C33.9998 12.4845 33.8166 12.6678 33.5905 12.6678H23.7413C23.5153 12.6678 23.332 12.4845 23.332 12.2585V2.4093C23.332 2.18325 23.5153 2 23.7413 2ZM12.2585 23.3318H2.4093C2.18325 23.3318 2 23.5151 2 23.7411V33.5903C2 33.8164 2.18325 33.9996 2.4093 33.9996H12.2585C12.4845 33.9996 12.6678 33.8164 12.6678 33.5903V23.7411C12.6678 23.5151 12.4845 23.3318 12.2585 23.3318ZM23.7413 23.3318H33.5905C33.8166 23.3318 33.9998 23.5151 33.9998 23.7411V33.5903C33.9998 33.8164 33.8166 33.9996 33.5905 33.9996H23.7413C23.5153 33.9996 23.332 33.8164 23.332 33.5903V23.7411C23.332 23.5151 23.5153 23.3318 23.7413 23.3318Z" fill="url(#paint0_linear_8006_33527)"/>
<defs>
<linearGradient id="paint0_linear_8006_33527" x1="2" y1="17.9998" x2="34" y2="17.9998" gradientUnits="userSpaceOnUse">
<stop stop-color="#00FF90"/>
<stop offset="1" stop-color="#F4FD36"/>
</linearGradient>
</defs>
</svg>
