<svg width="30" height="30" viewBox="0 0 30 30" fill="none" xmlns="http://www.w3.org/2000/svg">
<path d="M11.25 2.5C7.975 2.5 5.3125 5.1625 5.3125 8.4375C5.3125 11.65 7.825 14.25 11.1 14.3625C11.2 14.35 11.3 14.35 11.375 14.3625C11.4 14.3625 11.4125 14.3625 11.4375 14.3625C11.45 14.3625 11.45 14.3625 11.4625 14.3625C14.6625 14.25 17.175 11.65 17.1875 8.4375C17.1875 5.1625 14.525 2.5 11.25 2.5Z" fill="white"/>
<path d="M17.5992 17.6875C14.1117 15.3625 8.42422 15.3625 4.91172 17.6875C3.32422 18.75 2.44922 20.1875 2.44922 21.725C2.44922 23.2625 3.32422 24.6875 4.89922 25.7375C6.64922 26.9125 8.94922 27.5 11.2492 27.5C13.5492 27.5 15.8492 26.9125 17.5992 25.7375C19.1742 24.675 20.0492 23.25 20.0492 21.7C20.0367 20.1625 19.1742 18.7375 17.5992 17.6875Z" fill="white"/>
<path d="M24.9867 9.175C25.1867 11.6 23.4617 13.725 21.0742 14.0125C21.0617 14.0125 21.0617 14.0125 21.0492 14.0125H21.0117C20.9367 14.0125 20.8617 14.0125 20.7992 14.0375C19.5867 14.1 18.4742 13.7125 17.6367 13C18.9242 11.85 19.6617 10.125 19.5117 8.25C19.4242 7.2375 19.0742 6.3125 18.5492 5.525C19.0242 5.2875 19.5742 5.1375 20.1367 5.0875C22.5867 4.875 24.7742 6.7 24.9867 9.175Z" fill="white"/>
<path d="M27.4883 20.7375C27.3883 21.95 26.6133 23 25.3133 23.7125C24.0633 24.4 22.4883 24.725 20.9258 24.6875C21.8258 23.875 22.3508 22.8625 22.4508 21.7875C22.5758 20.2375 21.8383 18.75 20.3633 17.5625C19.5258 16.9 18.5508 16.375 17.4883 15.9875C20.2508 15.1875 23.7258 15.725 25.8633 17.45C27.0133 18.375 27.6008 19.5375 27.4883 20.7375Z" fill="white"/>
</svg>
