<svg width="33" height="32" viewBox="0 0 33 32" fill="none" xmlns="http://www.w3.org/2000/svg">
<path d="M11.1656 5.32889H8.49786C7.02448 5.32889 5.83008 6.52329 5.83008 7.99667V25.3372C5.83008 26.8106 7.02448 28.005 8.49786 28.005H16.5012" stroke="#00FF90" stroke-width="1.5" stroke-linecap="round" stroke-linejoin="round"/>
<rect x="11.166" y="2.6611" width="10.6711" height="5.33556" rx="1" stroke="#00FF90" stroke-width="1.5" stroke-linecap="round" stroke-linejoin="round"/>
<path d="M21.8359 5.32889H24.5037C25.9771 5.32889 27.1715 6.52329 27.1715 7.99667V14.6661" stroke="#00FF90" stroke-width="1.5" stroke-linecap="round" stroke-linejoin="round"/>
<path d="M21.8355 13.3322H15.166" stroke="#00FF90" stroke-width="1.5" stroke-linecap="round" stroke-linejoin="round"/>
<path d="M17.8338 18.6678H15.166" stroke="#00FF90" stroke-width="1.5" stroke-linecap="round" stroke-linejoin="round"/>
<path d="M11.165 13.1655C11.0729 13.1655 10.9983 13.2401 10.9983 13.3322C10.9983 13.4243 11.0729 13.499 11.165 13.499C11.2571 13.499 11.3317 13.4243 11.3317 13.3322C11.3317 13.2401 11.2571 13.1655 11.165 13.1655" stroke="#00FF90" stroke-width="1.5" stroke-linecap="round" stroke-linejoin="round"/>
<path d="M11.165 18.501C11.0729 18.501 10.9983 18.5757 10.9983 18.6678C10.9983 18.7599 11.0729 18.8345 11.165 18.8345C11.2571 18.8345 11.3317 18.7599 11.3317 18.6678C11.3317 18.5757 11.2571 18.501 11.165 18.501" stroke="#00FF90" stroke-width="1.5" stroke-linecap="round" stroke-linejoin="round"/>
<path fill-rule="evenodd" clip-rule="evenodd" d="M24.5035 18.6678C24.5035 21.6145 22.1147 24.0033 19.168 24.0033C22.1147 24.0033 24.5035 26.3921 24.5035 29.3389C24.5035 26.3921 26.8923 24.0033 29.8391 24.0033C26.8923 24.0033 24.5035 21.6145 24.5035 18.6678Z" stroke="#00FF90" stroke-width="1.5" stroke-linecap="round" stroke-linejoin="round"/>
</svg>
