<svg width="30" height="30" viewBox="0 0 30 30" fill="none" xmlns="http://www.w3.org/2000/svg">
<path d="M6.60903 21.1765C13.1328 23.7225 18.6845 24.2184 24.9757 20.2555C24.9296 20.3247 23.6851 22.1684 20.4125 23.1133C21.1039 24.0582 22.0488 25.1413 22.0488 25.1413C24.1461 25.1413 26.1972 24.5421 27.9717 23.3898C29.3545 22.4679 30.1381 20.8777 29.9767 19.2184C29.7002 16.3837 29.0318 13.6182 27.9948 10.9679C26.6811 7.51096 23.5238 5.11411 19.8594 4.76839C19.5368 4.74533 19.3063 4.74533 19.1681 4.74533L18.7993 5.11404C23.0168 6.31247 25.1141 8.1792 25.1601 8.24838C18.6841 4.97577 11.0327 4.92972 4.51056 8.1101C4.51056 8.1101 6.58474 6.05897 11.1709 4.97577L10.8944 4.69922C10.4104 4.69922 9.94944 4.74533 9.46552 4.81444C6.07769 5.39059 3.24303 7.71827 2.02155 10.9217C0.9614 13.6873 0.270028 16.5911 0.0165365 19.541C-0.121738 21.1082 0.615749 22.6523 1.90633 23.5511C3.61174 24.6804 5.63981 25.2796 7.69094 25.2796C7.69094 25.2796 8.52058 24.1964 9.3503 23.2285C6.23902 22.3066 4.9715 20.4629 4.94844 20.3937L5.53397 20.6927C5.88402 20.8719 6.24282 21.0333 6.60903 21.1765ZM10.2261 19.1723C8.72803 19.1262 7.55266 17.8587 7.59878 16.3376C7.64489 14.9087 8.7972 13.7564 10.2261 13.7103C11.7241 13.7564 12.8995 15.024 12.8533 16.545C12.7842 17.974 11.6549 19.1263 10.2261 19.1723ZM19.6289 19.1723C18.1309 19.1262 16.9555 17.8587 17.0016 16.3376C17.0478 14.9087 18.2001 13.7564 19.6289 13.7103C21.127 13.7564 22.3023 15.024 22.2562 16.545C22.2102 17.974 21.0578 19.1263 19.6289 19.1723Z" fill="white"/>
</svg>
