<svg width="16" height="17" viewBox="0 0 16 17" fill="none" xmlns="http://www.w3.org/2000/svg">
<path d="M11.6667 14.7963C11.0905 14.7963 10.5667 14.4333 10.3571 13.863C10.3571 13.8111 10.3571 13.7593 10.3048 13.7593H5.64286C5.64286 13.8111 5.64286 13.863 5.59048 13.863C5.43334 14.4333 4.90953 14.7963 4.33334 14.7963C4.01905 14.7963 3.80953 15.0037 3.80953 15.3148C3.80953 15.6259 4.01905 15.8333 4.33334 15.8333H11.6667C11.981 15.8333 12.1905 15.6259 12.1905 15.3148C12.1905 15.0037 11.981 14.7963 11.6667 14.7963ZM13.7619 1.83334H2.2381C1.34762 1.83334 0.666672 2.50742 0.666672 3.3889V11.1667C0.666672 12.0482 1.34762 12.7222 2.2381 12.7222H13.7619C14.6524 12.7222 15.3333 12.0482 15.3333 11.1667V3.3889C15.3333 2.50742 14.6524 1.83334 13.7619 1.83334ZM12.7143 8.05557H10.0952C9.9381 8.05557 9.78096 7.95186 9.6762 7.84816L9.20477 7.12223L8.52382 8.78149C8.41905 8.93705 8.20953 9.0926 8.00001 9.0926C7.79048 9.0926 7.63334 8.9889 7.52858 8.78149L6.79524 7.32964L6.27143 7.84816C6.16667 8.00371 6.06191 8.05557 5.90477 8.05557H3.28572C2.97143 8.05557 2.76191 7.84816 2.76191 7.53705C2.76191 7.22594 2.97143 7.01853 3.28572 7.01853H5.69524L6.58572 6.13705C6.69048 6.03334 6.90001 5.98149 7.05715 5.98149C7.21429 6.03334 7.37143 6.13705 7.42381 6.24075L7.94762 7.27779L8.5762 5.77408C8.62858 5.61853 8.8381 5.46297 8.99524 5.46297C9.20477 5.46297 9.36191 5.51482 9.46667 5.67038L10.3571 7.01853H12.7143C13.0286 7.01853 13.2381 7.22594 13.2381 7.53705C13.2381 7.84816 13.0286 8.05557 12.7143 8.05557Z" fill="#9D9FAF"/>
</svg>
