<svg width="36" height="36" viewBox="0 0 36 36" fill="none" xmlns="http://www.w3.org/2000/svg">
<path d="M24.6 18.9427L28.3707 15.172C30.4534 13.0893 30.4534 9.712 28.3707 7.62934V7.62934C26.288 5.54667 22.9107 5.54667 20.828 7.62934L17.0574 11.4" stroke="#009956" stroke-width="2" stroke-linecap="round" stroke-linejoin="round"/>
<path d="M11.3998 17.0573L7.62914 20.828C5.54647 22.9107 5.54647 26.288 7.62914 28.3707V28.3707C9.71181 30.4533 13.0891 30.4533 15.1718 28.3707L18.9425 24.6" stroke="#009956" stroke-width="2" stroke-linecap="round" stroke-linejoin="round"/>
<path d="M9.51978 13.28L6.69312 12.3467" stroke="#009956" stroke-width="2" stroke-linecap="round" stroke-linejoin="round"/>
<path d="M13.2796 9.52L12.3462 6.69333" stroke="#009956" stroke-width="2" stroke-linecap="round" stroke-linejoin="round"/>
<path d="M26.4802 22.72L29.3202 23.6533" stroke="#009956" stroke-width="2" stroke-linecap="round" stroke-linejoin="round"/>
<path d="M22.7198 26.48L23.6531 29.32" stroke="#009956" stroke-width="2" stroke-linecap="round" stroke-linejoin="round"/>
<path d="M14.2266 21.7733L21.7732 14.2267" stroke="#009956" stroke-width="2" stroke-linecap="round" stroke-linejoin="round"/>
</svg>
