<svg width="36" height="36" viewBox="0 0 36 36" fill="none" xmlns="http://www.w3.org/2000/svg">
<path fill-rule="evenodd" clip-rule="evenodd" d="M13.6603 5.90625H6.21563C6.04476 5.90625 5.90625 6.04476 5.90625 6.21563V13.6603C5.90625 13.8312 6.04476 13.9697 6.21563 13.9697H13.6603C13.8312 13.9697 13.9697 13.8312 13.9697 13.6603V6.21563C13.9697 6.04476 13.8312 5.90625 13.6603 5.90625ZM21.7238 13.9697H14.2791C14.1082 13.9697 13.9697 14.1082 13.9697 14.2791V21.7237C13.9697 21.8946 14.1082 22.0331 14.2791 22.0331H21.7238C21.8947 22.0331 22.0332 21.8946 22.0332 21.7237V14.2791C22.0332 14.1082 21.8947 13.9697 21.7238 13.9697ZM22.3396 5.90625H29.7843C29.9552 5.90625 30.0937 6.04476 30.0937 6.21563V13.6603C30.0937 13.8312 29.9552 13.9697 29.7843 13.9697H22.3396C22.1688 13.9697 22.0303 13.8312 22.0303 13.6603V6.21563C22.0303 6.04476 22.1688 5.90625 22.3396 5.90625ZM13.6603 22.0303H6.21563C6.04476 22.0303 5.90625 22.1688 5.90625 22.3397V29.7844C5.90625 29.9552 6.04476 30.0937 6.21563 30.0937H13.6603C13.8312 30.0937 13.9697 29.9552 13.9697 29.7844V22.3397C13.9697 22.1688 13.8312 22.0303 13.6603 22.0303ZM22.3396 22.0303H29.7843C29.9552 22.0303 30.0937 22.1688 30.0937 22.3397V29.7844C30.0937 29.9552 29.9552 30.0937 29.7843 30.0937H22.3396C22.1688 30.0937 22.0303 29.9552 22.0303 29.7844V22.3397C22.0303 22.1688 22.1688 22.0303 22.3396 22.0303Z" fill="url(#paint0_linear_2125_12251)"/>
<defs>
<linearGradient id="paint0_linear_2125_12251" x1="5.90625" y1="18" x2="30.0937" y2="18" gradientUnits="userSpaceOnUse">
<stop stop-color="#00FF90"/>
<stop offset="1" stop-color="#F4FD36"/>
</linearGradient>
</defs>
</svg>
