<svg width="36" height="43" viewBox="0 0 36 43" fill="none" xmlns="http://www.w3.org/2000/svg">
<g filter="url(#filter0_d_2045_348)">
<path fill-rule="evenodd" clip-rule="evenodd" d="M12 14.0063C12 10.6934 14.6905 8 18 8C21.3095 8 24 10.6934 24 14.0063C23.9874 17.2561 21.4484 19.8862 18.2147 20H18.1895H18.1263C18.0505 19.9874 17.9495 19.9874 17.8484 20C14.5389 19.8862 12 17.2561 12 14.0063ZM11.0684 23.7234C14.9102 21.2589 21.1309 21.2589 24.9453 23.7234C26.668 24.8365 27.6113 26.347 27.625 27.9768C27.625 29.6199 26.668 31.1304 24.9453 32.2567C23.0312 33.5022 20.5156 34.125 18 34.125C15.4844 34.125 12.9687 33.5022 11.0547 32.2567C9.33203 31.1437 8.375 29.6331 8.375 28.0033C8.375 26.3735 9.33203 24.8497 11.0684 23.7234ZM19.0254 28.9971H20.7344C21.2949 28.9971 21.7598 28.5466 21.7598 28.0033C21.7598 27.46 21.2949 27.0095 20.7344 27.0095H19.0254V25.3532C19.0254 24.81 18.5605 24.3595 18 24.3595C17.4395 24.3595 16.9746 24.81 16.9746 25.3532V27.0095H15.2656C14.7051 27.0095 14.2402 27.46 14.2402 28.0033C14.2402 28.5466 14.7051 28.9971 15.2656 28.9971H16.9746V30.6534C16.9746 31.1967 17.4395 31.6472 18 31.6472C18.5605 31.6472 19.0254 31.1967 19.0254 30.6534V28.9971Z" fill="url(#paint0_linear_2045_348)"/>
</g>
<defs>
<filter id="filter0_d_2045_348" x="0.375" y="0" width="35.25" height="42.125" filterUnits="userSpaceOnUse" color-interpolation-filters="sRGB">
<feFlood flood-opacity="0" result="BackgroundImageFix"/>
<feColorMatrix in="SourceAlpha" type="matrix" values="0 0 0 0 0 0 0 0 0 0 0 0 0 0 0 0 0 0 127 0" result="hardAlpha"/>
<feOffset/>
<feGaussianBlur stdDeviation="4"/>
<feComposite in2="hardAlpha" operator="out"/>
<feColorMatrix type="matrix" values="0 0 0 0 0.482353 0 0 0 0 1 0 0 0 0 0.388235 0 0 0 0.35 0"/>
<feBlend mode="normal" in2="BackgroundImageFix" result="effect1_dropShadow_2045_348"/>
<feBlend mode="normal" in="SourceGraphic" in2="effect1_dropShadow_2045_348" result="shape"/>
</filter>
<linearGradient id="paint0_linear_2045_348" x1="8.375" y1="21.0625" x2="27.625" y2="21.0625" gradientUnits="userSpaceOnUse">
<stop stop-color="#00FF90"/>
<stop offset="1" stop-color="#F4FD36"/>
</linearGradient>
</defs>
</svg>
