<svg width="28" height="28" viewBox="0 0 28 28" fill="none" xmlns="http://www.w3.org/2000/svg">
<path fill-rule="evenodd" clip-rule="evenodd" d="M20.7463 17.1345C20.6372 17.2432 20.4664 17.4134 20.565 17.7272L20.9828 19.4821C21.1037 19.9898 20.9007 20.707 20.5317 21.076L13.822 27.7857C13.453 28.1548 13.0847 28.0349 13.0037 27.5192L12.2412 22.6664C12.1601 22.1507 12.3956 21.4272 12.7648 21.058C12.7648 21.058 13.0165 20.8081 12.7537 20.5453C11.4313 19.2229 8.85216 16.6437 7.46422 15.256C7.21265 15.0045 6.96225 15.2555 6.96225 15.2555C6.59331 15.6247 5.86955 15.8603 5.35395 15.7792L0.501116 15.0166C-0.0144829 14.9356 -0.13438 14.5674 0.23465 14.1983L6.94425 7.48874C7.31328 7.11971 8.03064 6.91677 8.53833 7.03751L10.3669 7.47292C10.7763 7.55841 11.0052 7.35589 11.1213 7.24895C16.9903 1.85048 24.5707 -1.70638 27.1182 0.840986C29.6792 3.40215 26.2233 11.2237 20.7856 17.0944C20.7741 17.1068 20.7608 17.1201 20.7463 17.1345ZM19.0627 4.94373C17.9263 6.08002 17.9263 7.92239 19.0627 9.05884C20.199 10.1952 22.0415 10.1952 23.178 9.05876C24.3143 7.92239 24.3143 6.07993 23.178 4.94373C22.0415 3.80728 20.1991 3.80728 19.0627 4.94373ZM6.6151 17.6265C6.71238 17.5263 6.87838 17.3553 7.2834 17.7602L10.353 20.8299C10.7673 21.2443 10.5978 21.4077 10.497 21.5049C10.4907 21.511 10.4847 21.5169 10.479 21.5225C8.92349 23.078 8.07049 23.4005 6.59341 23.9589C5.73113 24.2849 4.65616 24.6913 3.10459 25.4703C1.94828 26.051 4.13553 20.1063 6.59927 17.6426C6.60435 17.6375 6.60961 17.6321 6.6151 17.6265Z" fill="#00663A" fill-opacity="0.8"/>
</svg>
