<svg width="36" height="36" viewBox="0 0 36 36" fill="none" xmlns="http://www.w3.org/2000/svg">
<path d="M14.8523 16.8853C14.6043 17.3778 14.475 17.9216 14.4746 18.473C14.4746 18.747 14.5835 19.0098 14.7772 19.2036C14.971 19.3973 15.2338 19.5062 15.5078 19.5062C15.7818 19.5062 16.0446 19.3973 16.2384 19.2036C16.4322 19.0098 16.541 18.747 16.541 18.473C16.541 18.2411 16.5927 18.0207 16.6971 17.8163C16.846 17.5232 17.0889 17.2884 17.3869 17.1496C17.6849 17.0108 18.0209 16.976 18.3411 17.0506C18.868 17.1654 19.3008 17.5948 19.4202 18.1183C19.4994 18.4392 19.4676 18.7775 19.3301 19.0781C19.1925 19.3787 18.9572 19.6239 18.6625 19.7737C17.6167 20.3064 16.9681 21.3407 16.9681 22.4749C16.9681 22.749 17.0769 23.0118 17.2707 23.2055C17.4645 23.3993 17.7273 23.5082 18.0013 23.5082C18.2753 23.5082 18.5381 23.3993 18.7319 23.2055C18.9256 23.0118 19.0345 22.749 19.0345 22.4749C19.0345 22.1225 19.2515 21.793 19.6016 21.6151C20.3037 21.2544 20.8655 20.6698 21.198 19.9539C21.5305 19.238 21.6147 18.4317 21.4373 17.6625C21.2892 17.0175 20.9611 16.4278 20.491 15.962C20.0209 15.4962 19.4283 15.1734 18.7819 15.0313C18.0141 14.8624 17.212 14.9527 16.5009 15.2882C15.7899 15.6236 15.2101 16.1853 14.8523 16.8853ZM18.736 24.7618C18.6386 24.6705 18.5259 24.5971 18.4031 24.5448C18.2789 24.4875 18.1438 24.4578 18.007 24.4578C17.8703 24.4578 17.7351 24.4875 17.611 24.5448C17.4836 24.5949 17.3667 24.6685 17.2666 24.7618C17.1732 24.8577 17.0991 24.9708 17.0484 25.0947C16.991 25.221 16.9681 25.3587 16.9681 25.4976C16.9681 25.6228 16.991 25.7605 17.0484 25.888C17.1345 26.1451 17.3733 26.3426 17.611 26.4493C17.7372 26.5079 17.8635 26.5297 18.0013 26.5297C18.139 26.5297 18.2653 26.5067 18.3916 26.4493C18.5179 26.3919 18.6327 26.3242 18.736 26.2209C18.8278 26.129 18.9082 26.0131 18.9541 25.888C19.0115 25.7617 19.0345 25.6239 19.0345 25.4976C19.0339 25.223 18.9269 24.9592 18.736 24.7618Z" fill="url(#paint0_linear_2125_12312)"/>
<path d="M34.5879 19.3834C32.8074 17.3858 26.6059 11.0879 19.0589 10.5299C18.3547 10.4578 17.645 10.4578 16.9408 10.5299C9.39497 11.0879 3.19344 17.3858 1.41289 19.3834C1.08031 19.7558 0.896484 20.2376 0.896484 20.7369C0.896484 21.2361 1.08031 21.718 1.41289 22.0903C3.19344 24.0867 9.39497 30.387 16.9408 30.9449C17.6454 31.017 18.3555 31.017 19.06 30.9449C26.6059 30.387 32.8085 24.0867 34.5891 22.0903C34.9215 21.7178 35.1051 21.2359 35.1049 20.7366C35.1047 20.2373 34.9207 19.7556 34.5879 19.3834ZM26.196 20.738C26.196 24.9673 22.9759 28.4572 18.8591 28.8877C18.5733 28.9072 18.2897 28.9336 18.0004 28.9336C17.7111 28.9336 17.4264 28.9072 17.1406 28.8877C13.0238 28.456 9.8048 24.9673 9.8048 20.738C9.8048 16.5087 13.0238 13.0188 17.1406 12.5872C17.4264 12.5676 17.7111 12.5412 18.0004 12.5412C18.2897 12.5412 18.5733 12.5676 18.8591 12.5872C22.9759 13.0177 26.196 16.5087 26.196 20.738ZM2.95581 20.7575C3.90061 19.6979 6.19548 17.3204 9.25606 15.394C8.26486 16.9999 7.73942 18.8497 7.73839 20.7369C7.73839 22.6976 8.30092 24.5253 9.25835 26.0843C6.19662 24.1625 3.90061 21.7953 2.95581 20.7575ZM26.7471 26.0785C27.7374 24.4731 28.2624 22.6243 28.2636 20.738C28.2626 18.8508 27.7371 17.0011 26.7459 15.3952C29.7858 17.3089 32.0704 19.6669 33.0266 20.7369C32.0704 21.8068 29.7858 24.1648 26.7471 26.0785ZM18.0004 8.23737C18.1361 8.23737 18.2704 8.21065 18.3958 8.15873C18.5212 8.1068 18.6351 8.0307 18.731 7.93476C18.8269 7.83881 18.903 7.72491 18.955 7.59956C19.0069 7.47421 19.0336 7.33985 19.0336 7.20417V6.0332C19.0336 5.75918 18.9248 5.49638 18.731 5.30262C18.5372 5.10885 18.2744 5 18.0004 5C17.7264 5 17.4636 5.10885 17.2698 5.30262C17.0761 5.49638 16.9672 5.75918 16.9672 6.0332V7.20417C16.9672 7.33985 16.9939 7.47421 17.0459 7.59956C17.0978 7.72491 17.1739 7.83881 17.2698 7.93476C17.3658 8.0307 17.4797 8.1068 17.605 8.15873C17.7304 8.21065 17.8647 8.23737 18.0004 8.23737ZM10.0838 9.60235C10.1516 9.71979 10.2419 9.82272 10.3495 9.90526C10.4572 9.9878 10.58 10.0483 10.711 10.0834C10.842 10.1185 10.9786 10.1274 11.1131 10.1097C11.2476 10.0919 11.3772 10.0479 11.4947 9.98005C11.6121 9.9122 11.715 9.8219 11.7976 9.71428C11.8801 9.60666 11.9406 9.48383 11.9757 9.35282C12.0108 9.22181 12.0197 9.08517 12.002 8.9507C11.9842 8.81624 11.9402 8.68659 11.8724 8.56915L11.2869 7.55546C11.2212 7.4339 11.1318 7.32675 11.024 7.24034C10.9162 7.15393 10.7922 7.09002 10.6592 7.05239C10.5263 7.01477 10.3872 7.00418 10.25 7.02127C10.1129 7.03836 9.98066 7.08277 9.86103 7.15188C9.74139 7.22099 9.63683 7.31339 9.55353 7.42362C9.47023 7.53385 9.40989 7.65967 9.37607 7.79363C9.34225 7.92759 9.33564 8.06697 9.35663 8.20353C9.37762 8.34009 9.42579 8.47105 9.49829 8.58866L10.0838 9.60235ZM24.5062 9.98005C24.6235 10.0484 24.7531 10.0929 24.8877 10.111C25.0223 10.129 25.1591 10.1202 25.2903 10.0851C25.4214 10.05 25.5444 9.98924 25.6519 9.90639C25.7595 9.82353 25.8496 9.7202 25.9171 9.60235L26.5025 8.58866C26.575 8.47105 26.6232 8.34009 26.6442 8.20353C26.6652 8.06697 26.6586 7.92759 26.6248 7.79363C26.5909 7.65967 26.5306 7.53385 26.4473 7.42362C26.364 7.31339 26.2594 7.22099 26.1398 7.15188C26.0202 7.08277 25.8879 7.03836 25.7508 7.02127C25.6137 7.00418 25.4745 7.01477 25.3416 7.05239C25.2087 7.09002 25.0846 7.15393 24.9768 7.24034C24.869 7.32675 24.7796 7.4339 24.7139 7.55546L24.1285 8.56915C24.0604 8.68652 24.0161 8.81619 23.9983 8.95071C23.9804 9.08522 23.9893 9.22194 24.0244 9.35302C24.0594 9.4841 24.1201 9.60697 24.2027 9.71457C24.2854 9.82217 24.3885 9.91238 24.5062 9.98005Z" fill="url(#paint1_linear_2125_12312)"/>
<defs>
<linearGradient id="paint0_linear_2125_12312" x1="14.4746" y1="20.739" x2="21.528" y2="20.739" gradientUnits="userSpaceOnUse">
<stop stop-color="#00FF90"/>
<stop offset="1" stop-color="#F4FD36"/>
</linearGradient>
<linearGradient id="paint1_linear_2125_12312" x1="0.896484" y1="17.9995" x2="35.1049" y2="17.9995" gradientUnits="userSpaceOnUse">
<stop stop-color="#00FF90"/>
<stop offset="1" stop-color="#F4FD36"/>
</linearGradient>
</defs>
</svg>
