<svg width="47" height="30" viewBox="0 0 47 30" fill="none" xmlns="http://www.w3.org/2000/svg">
<path d="M2.39575 18.867V8.57349H6.193C7.64673 8.57349 8.88441 9.06734 9.90238 10.0586C10.9204 11.05 11.4294 12.2717 11.4294 13.7203C11.4294 15.1652 10.9167 16.3869 9.89508 17.3819C8.87711 18.3732 7.63943 18.867 6.18937 18.867H2.39575ZM5.07251 10.8414V16.6027H5.68036C6.59215 16.6027 7.31353 16.3504 7.84447 15.8419C8.37911 15.3334 8.64639 14.6274 8.64639 13.7203C8.64639 12.8277 8.38274 12.1254 7.8518 11.6133C7.32083 11.0975 6.60678 10.8414 5.70967 10.8414H5.07251Z" fill="white"/>
<path d="M14.6296 14.3457H17.5151C17.4529 14.0128 17.2881 13.7458 17.0208 13.5446C16.7535 13.3398 16.4495 13.2373 16.1053 13.2373C15.2741 13.241 14.7798 13.6104 14.6296 14.3457ZM19.8221 15.5199V15.7796H14.5894C14.5894 16.8185 15.1093 17.3416 16.1456 17.3416C16.6876 17.3416 17.083 17.1258 17.3321 16.6941H19.7268C19.5401 17.4842 19.0933 18.0951 18.3903 18.5195C17.7568 18.9072 17.0135 19.1011 16.153 19.1011C14.9555 19.1011 13.9889 18.7828 13.2565 18.1464C12.4838 17.4769 12.0957 16.5515 12.0957 15.3736C12.0957 14.2177 12.4546 13.3032 13.1759 12.6264C13.8827 11.9644 14.8164 11.6315 15.9809 11.6315C17.1856 11.6315 18.1267 11.979 18.8041 12.6704C19.4852 13.3617 19.8221 14.3128 19.8221 15.5199Z" fill="white"/>
<path d="M32.7334 9.61963V18.867H30.0566V12.2936C30.0566 10.8158 31.254 9.61963 32.7334 9.61963Z" fill="white"/>
<path d="M34.4873 18.867V8.57343H37.164L42.0781 14.8688H42.1036V8.57343H44.7805V18.867H42.1036L37.197 12.5606H37.164V18.867H34.4873Z" fill="white"/>
<path d="M31.3382 8.74536C32.3069 8.74536 33.0922 7.96092 33.0922 6.99321C33.0922 6.02551 32.3069 5.24103 31.3382 5.24103C30.3695 5.24103 29.5842 6.02551 29.5842 6.99321C29.5842 7.96092 30.3695 8.74536 31.3382 8.74536Z" fill="white"/>
<path d="M27.4385 6.8944C27.4385 5.86285 27.8486 4.87155 28.5809 4.13996C29.3133 3.40835 30.302 2.99866 31.3383 2.99866C32.3709 2.99866 33.3632 3.40835 34.0956 4.13996C34.8279 4.87155 35.238 5.85918 35.238 6.8944H34.5386C34.5386 6.04577 34.2018 5.2337 33.6013 4.63377C33.0007 4.03388 32.1878 3.69733 31.3383 3.69733C30.4887 3.69733 29.6758 4.03388 29.0753 4.63377C28.4747 5.2337 28.1379 6.04577 28.1379 6.8944H27.4385Z" fill="white"/>
<path d="M25.4905 6.89434C25.4905 5.34701 26.1056 3.85823 27.2042 2.76448C28.299 1.67075 29.7894 1.05255 31.3383 1.05255C32.8873 1.05255 34.3776 1.66709 35.4725 2.76448C36.5673 3.85823 37.1862 5.34701 37.1862 6.89434H36.4135C36.4135 5.54819 35.8789 4.2606 34.9269 3.30953C33.9748 2.35845 32.6859 1.82438 31.3383 1.82438C29.9908 1.82438 28.7019 2.35845 27.7498 3.30953C26.7977 4.2606 26.2631 5.54819 26.2631 6.89434H25.4905Z" fill="white"/>
<path d="M25.4905 6.89434C25.4905 5.34701 26.1056 3.85823 27.2042 2.76448C28.299 1.67075 29.7894 1.05255 31.3383 1.05255C32.8873 1.05255 34.3776 1.66709 35.4725 2.76448C36.5673 3.85823 37.1862 5.34701 37.1862 6.89434H36.4135C36.4135 5.54819 35.8789 4.2606 34.9269 3.30953C33.9748 2.35845 32.6859 1.82438 31.3383 1.82438C29.9908 1.82438 28.7019 2.35845 27.7498 3.30953C26.7977 4.2606 26.2631 5.54819 26.2631 6.89434H25.4905Z" fill="white"/>
<path d="M23.6924 20.3339V15.4542H25.2157C27.6508 15.4542 28.8665 14.2909 28.8665 11.9608C28.8665 10.8232 28.5186 9.96352 27.8265 9.38193C27.182 8.84419 26.2776 8.57349 25.1168 8.57349H21.0193V20.3339V22.1373H43.9932C44.4912 22.1373 44.8939 21.7349 44.8939 21.2338V20.3339H23.6924ZM23.6924 10.728H24.1464C24.8055 10.728 25.2559 10.7866 25.5013 10.9C25.8858 11.0829 26.0762 11.4633 26.0762 12.0413C26.0762 12.6009 25.8748 12.9667 25.4757 13.1423C25.2413 13.2447 24.7982 13.296 24.1464 13.296H23.6924V10.728Z" fill="white"/>
<path d="M7.84058 27.3316H5.04661L4.51201 28.685H2.36255L5.36155 20.8935H7.57326L10.5136 28.685H8.35322L7.84058 27.3316ZM7.29497 25.7806L6.4674 23.2968H6.44543L5.6069 25.7806H7.29497Z" fill="white"/>
<path d="M12.9891 20.1034V28.6813H11.1033V21.9872C11.1033 20.9484 11.9491 20.1034 12.9891 20.1034Z" fill="white"/>
<path d="M14.2268 20.1034C15.2667 20.1034 16.1126 20.9447 16.1126 21.9872V28.685H14.2268V20.1034Z" fill="white"/>
<path d="M19.2325 23.3809V28.685H17.3467V25.2648C17.3503 24.2222 18.1925 23.3809 19.2325 23.3809ZM18.2878 20.2899C18.5807 20.2899 18.8297 20.3924 19.0348 20.5972C19.2398 20.802 19.3423 21.0508 19.3423 21.3434C19.3423 21.6361 19.2398 21.8848 19.0348 22.0897C18.8297 22.2945 18.5807 22.3969 18.2878 22.3969C17.9948 22.3969 17.7458 22.2945 17.5408 22.0897C17.3357 21.8848 17.2332 21.6361 17.2332 21.3434C17.2332 21.0508 17.3357 20.802 17.5408 20.5972C17.7458 20.3924 17.9948 20.2899 18.2878 20.2899Z" fill="white"/>
<path d="M23.2421 24.8368C22.8869 24.8368 22.594 24.9502 22.367 25.1733C22.1399 25.3965 22.0301 25.6818 22.0301 26.0366C22.0301 26.3951 22.1399 26.6841 22.3633 26.8999C22.5903 27.1157 22.8833 27.2218 23.2421 27.2218C23.601 27.2218 23.8939 27.1157 24.1173 26.8999C24.3406 26.6804 24.4505 26.3951 24.4505 26.0366C24.4505 25.6818 24.337 25.3965 24.1136 25.1733C23.8866 24.9502 23.5973 24.8368 23.2421 24.8368ZM26.2741 23.3809V28.685H24.3883V28.096H24.3663C24.0477 28.6082 23.5131 28.8642 22.7661 28.8642C21.9898 28.8642 21.3453 28.5825 20.8327 28.0229C20.3347 27.4778 20.0857 26.8158 20.0857 26.0329C20.0857 25.2538 20.331 24.5917 20.8217 24.0503C21.327 23.4906 21.9678 23.2126 22.7405 23.2126C23.4472 23.2126 23.9964 23.4431 24.3883 23.904V23.3846H26.2741V23.3809Z" fill="white"/>
<path d="M29.4161 23.3809V24.065H29.4381C29.8262 23.4944 30.3901 23.2054 31.1371 23.2054C32.4663 23.2054 33.1328 23.9369 33.1328 25.4038V28.6777H31.247V26.0952C31.247 25.6562 31.2213 25.3599 31.1701 25.2063C31.0602 24.8697 30.8002 24.7015 30.3974 24.7015C29.7456 24.7015 29.4161 25.1112 29.4161 25.9269V28.6777H27.5303V23.3736H29.4161V23.3809Z" fill="white"/>
<path d="M38.2006 23.5162V25.1075C37.8637 24.8624 37.5378 24.738 37.2265 24.738C36.8603 24.738 36.5528 24.8624 36.3038 25.1111C36.0584 25.3562 35.9339 25.6635 35.9339 26.0293C35.9339 26.4134 36.0584 26.7243 36.3038 26.9694C36.5528 27.2108 36.8713 27.3315 37.2595 27.3315C37.622 27.3315 37.9369 27.2108 38.2043 26.9694V28.5606C37.8051 28.7618 37.362 28.8642 36.875 28.8642C36.0767 28.8642 35.3993 28.6045 34.8427 28.0814C34.2751 27.551 33.9895 26.8889 33.9895 26.0915C33.9895 25.2465 34.2715 24.5551 34.839 24.0174C35.4066 23.4797 36.1133 23.209 36.9592 23.209C37.4133 23.209 37.827 23.3114 38.2006 23.5162Z" fill="white"/>
<path d="M40.892 25.2611H43.0743C43.0268 25.0087 42.9023 24.8075 42.7008 24.6538C42.4996 24.5002 42.2688 24.4234 42.0087 24.4234C41.3792 24.4234 41.009 24.7014 40.892 25.2611ZM44.8249 26.15V26.3475H40.8627C40.8627 27.134 41.2547 27.529 42.0383 27.529C42.4481 27.529 42.7486 27.3644 42.939 27.0388H44.7515C44.6085 27.6388 44.2717 28.0997 43.7408 28.4216C43.261 28.7142 42.6971 28.8605 42.0491 28.8605C41.1447 28.8605 40.4122 28.6191 39.8557 28.1399C39.2699 27.6315 38.9768 26.9328 38.9768 26.0403C38.9768 25.166 39.248 24.471 39.7934 23.9625C40.3281 23.4614 41.035 23.209 41.9138 23.209C42.8253 23.209 43.5396 23.4723 44.052 23.9954C44.5685 24.5148 44.8249 25.2355 44.8249 26.15Z" fill="white"/>
</svg>
