<svg width="28" height="28" viewBox="0 0 28 28" fill="none" xmlns="http://www.w3.org/2000/svg">
<path fill-rule="evenodd" clip-rule="evenodd" d="M0.990938 2.00784C9.6168 3.15901 18.3706 3.15901 27.0096 2.00784C27.5345 1.93773 28 2.3469 28 2.87518V18.8829C28 19.4035 27.5447 19.8193 27.0096 19.7502C18.3042 18.5903 9.58754 18.6047 0.990391 19.7502C0.465555 19.8203 0 19.4112 0 18.8829V2.87518C0 2.34564 0.466266 1.93795 0.990938 2.00784ZM19.25 23.2578C19.4819 23.2578 19.7045 23.3503 19.8685 23.5143L22.5 26.5013C23.053 27.0534 22.6533 27.9948 21.8815 27.9948C21.6578 27.9948 21.4336 27.9095 21.263 27.7384L18.8874 25.0078H9.11258L6.73703 27.7384C6.39578 28.0801 5.84125 28.0801 5.5 27.7384C5.1582 27.3971 5.1582 26.8426 5.5 26.5013L8.13148 23.5143C8.29555 23.3503 8.51812 23.2578 8.75 23.2578H11.375V20.6722C13.1247 20.6249 14.8753 20.6249 16.625 20.6722V23.2578H19.25ZM10.7863 11.458L12.4456 8.13946L14.3883 15.9103C14.5797 16.6759 15.6203 16.7901 15.9732 16.0843L18.0506 11.9293L23.6465 11.9598C24.0054 11.9618 24.298 11.6724 24.3 11.3134C24.3019 10.9544 24.0125 10.6618 23.6535 10.6598L17.7779 10.6278C17.4543 10.6261 17.1577 10.8082 17.013 11.0977L15.3544 14.4149L13.4117 6.64402C13.2203 5.87843 12.1798 5.76421 11.8268 6.47004L9.74709 10.6295L4.64614 10.6598C4.28716 10.662 3.99788 10.9547 4.00001 11.3137C4.00214 11.6727 4.29488 11.962 4.65386 11.9598L10.0311 11.9279C10.3512 11.926 10.6431 11.7444 10.7863 11.458Z" fill="url(#paint0_linear_4361_20053)"/>
<defs>
<linearGradient id="paint0_linear_4361_20053" x1="0" y1="14.9974" x2="28" y2="14.9974" gradientUnits="userSpaceOnUse">
<stop stop-color="#00FF90"/>
<stop offset="1" stop-color="#F4FD36"/>
</linearGradient>
</defs>
</svg>
