<svg width="40" height="44" viewBox="0 0 40 44" fill="none" xmlns="http://www.w3.org/2000/svg">
<g filter="url(#filter0_d_2045_332)">
<path d="M17.1219 31.8824H12.1807C10.3614 31.8824 8.88657 33.3572 8.88657 35.1765V36H20.416V35.1765C20.416 33.3572 18.9411 31.8824 17.1219 31.8824ZM27.1734 14.6656L30.97 9.91992C30.0502 9.80891 22.7567 7.86862 15.4748 9.43058V8H13.8277V27.9058C12.8683 28.245 12.1807 29.1597 12.1807 30.2353H17.1219C17.1219 29.1597 16.4343 28.245 15.4748 27.9058V21.0208C23.8931 19.3195 29.9762 21.4096 31.1135 21.5607L27.1734 14.6656Z" fill="url(#paint0_linear_2045_332)"/>
</g>
<defs>
<filter id="filter0_d_2045_332" x="0.886566" y="0" width="38.2269" height="44" filterUnits="userSpaceOnUse" color-interpolation-filters="sRGB">
<feFlood flood-opacity="0" result="BackgroundImageFix"/>
<feColorMatrix in="SourceAlpha" type="matrix" values="0 0 0 0 0 0 0 0 0 0 0 0 0 0 0 0 0 0 127 0" result="hardAlpha"/>
<feOffset/>
<feGaussianBlur stdDeviation="4"/>
<feComposite in2="hardAlpha" operator="out"/>
<feColorMatrix type="matrix" values="0 0 0 0 0.482353 0 0 0 0 1 0 0 0 0 0.388235 0 0 0 0.35 0"/>
<feBlend mode="normal" in2="BackgroundImageFix" result="effect1_dropShadow_2045_332"/>
<feBlend mode="normal" in="SourceGraphic" in2="effect1_dropShadow_2045_332" result="shape"/>
</filter>
<linearGradient id="paint0_linear_2045_332" x1="8.88657" y1="22" x2="31.1135" y2="22" gradientUnits="userSpaceOnUse">
<stop stop-color="#00FF90"/>
<stop offset="1" stop-color="#F4FD36"/>
</linearGradient>
</defs>
</svg>
