<svg width="28" height="28" viewBox="0 0 28 28" fill="none" xmlns="http://www.w3.org/2000/svg">
<g clip-path="url(#clip0_4942_37402)">
<path d="M14 0C11.2311 0 8.52431 0.821086 6.22202 2.35943C3.91973 3.89776 2.12532 6.08427 1.06569 8.64243C0.00606598 11.2006 -0.271181 14.0155 0.269012 16.7313C0.809205 19.447 2.14258 21.9416 4.10051 23.8995C6.05845 25.8574 8.55301 27.1908 11.2687 27.731C13.9845 28.2712 16.7994 27.9939 19.3576 26.9343C21.9157 25.8747 24.1022 24.0803 25.6406 21.778C27.1789 19.4757 28 16.7689 28 14C27.9961 10.2882 26.5198 6.72949 23.8952 4.10483C21.2705 1.48017 17.7118 0.00391976 14 0ZM25.8462 14C25.8473 15.5198 25.5548 17.0255 24.9846 18.4342L18.9673 14.7337C18.7115 14.5758 18.4253 14.4735 18.1273 14.4335L15.0554 14.0188C14.6321 13.9636 14.2019 14.0346 13.8188 14.2228C13.4356 14.411 13.1166 14.7082 12.9015 15.0769H11.7277L11.2162 14.0188C11.0747 13.7242 10.8678 13.4659 10.6111 13.2636C10.3544 13.0613 10.0549 12.9204 9.73539 12.8517L8.65847 12.6188L9.71116 10.7692H11.9606C12.3246 10.7685 12.6825 10.6759 13.0012 10.5L14.6502 9.59C14.7951 9.50924 14.9305 9.41262 15.054 9.30192L18.6765 6.02538C19.0397 5.6999 19.2811 5.26034 19.3609 4.77921C19.4407 4.29808 19.3541 3.80413 19.1154 3.37885L19.0669 3.29135C21.094 4.25249 22.8069 5.7688 24.0068 7.66426C25.2067 9.55973 25.8445 11.7566 25.8462 14ZM2.15385 14C2.15205 12.2393 2.54489 10.5005 3.30347 8.91154L4.83001 12.9863C4.95722 13.3237 5.1671 13.6238 5.4404 13.859C5.7137 14.0942 6.04167 14.257 6.39424 14.3325L9.27904 14.9531L9.79193 16.0192C9.96992 16.3818 10.2458 16.6875 10.5883 16.9015C10.9309 17.1156 11.3264 17.2297 11.7304 17.2308H11.9296L10.9564 19.4156C10.7849 19.8003 10.7299 20.2268 10.7984 20.6424C10.8668 21.058 11.0556 21.4444 11.3414 21.7538L11.3602 21.7727L14 24.4919L13.7388 25.8381C10.6452 25.7661 7.7021 24.4879 5.53771 22.2762C3.37331 20.0645 2.15898 17.0945 2.15385 14Z" fill="#00663A" fill-opacity="0.8"/>
</g>
<defs>
<clipPath id="clip0_4942_37402">
<rect width="28" height="28" fill="white"/>
</clipPath>
</defs>
</svg>
