<svg width="36" height="36" viewBox="0 0 36 36" fill="none" xmlns="http://www.w3.org/2000/svg">
<path d="M32.1987 4.11048C27.6868 5.97888 8.34151 13.9921 2.99623 16.1762C-0.588655 17.5752 1.50979 18.8867 1.50979 18.8867C1.50979 18.8867 4.56979 19.9357 7.19275 20.7227C9.81571 21.5096 11.2147 20.6352 11.2147 20.6352L23.5425 12.3289C27.914 9.35641 26.8649 11.8044 25.8159 12.8534C23.5425 15.1268 19.783 18.7114 16.6355 21.5968C15.2366 22.8208 15.9361 23.8702 16.5481 24.3947C18.8215 26.3182 25.0289 30.2526 25.3789 30.515C27.226 31.8226 30.8591 33.705 31.4117 29.7281L33.5977 16.0013C34.2971 11.3674 34.9966 7.083 35.0841 5.859C35.3462 2.88648 32.1987 4.11048 32.1987 4.11048Z" fill="url(#paint0_linear_2125_12277)"/>
<defs>
<linearGradient id="paint0_linear_2125_12277" x1="0.899414" y1="17.9923" x2="35.0996" y2="17.9923" gradientUnits="userSpaceOnUse">
<stop stop-color="#00FF90"/>
<stop offset="1" stop-color="#F4FD36"/>
</linearGradient>
</defs>
</svg>
