<svg width="24" height="24" viewBox="0 0 24 24" fill="none" xmlns="http://www.w3.org/2000/svg">
<path d="M17.5 21.4444C16.6357 21.4444 15.85 20.9 15.5357 20.0444C15.5357 19.9667 15.5357 19.8889 15.4571 19.8889H8.46429C8.46429 19.9667 8.46429 20.0444 8.38571 20.0444C8.15 20.9 7.36429 21.4444 6.5 21.4444C6.02857 21.4444 5.71429 21.7556 5.71429 22.2222C5.71429 22.6889 6.02857 23 6.5 23H17.5C17.9714 23 18.2857 22.6889 18.2857 22.2222C18.2857 21.7556 17.9714 21.4444 17.5 21.4444ZM20.6429 2H3.35714C2.02143 2 1 3.01111 1 4.33333V16C1 17.3222 2.02143 18.3333 3.35714 18.3333H20.6429C21.9786 18.3333 23 17.3222 23 16V4.33333C23 3.01111 21.9786 2 20.6429 2ZM19.0714 11.3333H15.1429C14.9071 11.3333 14.6714 11.1778 14.5143 11.0222L13.8071 9.93333L12.7857 12.4222C12.6286 12.6556 12.3143 12.8889 12 12.8889C11.6857 12.8889 11.45 12.7333 11.2929 12.4222L10.1929 10.2444L9.40714 11.0222C9.25 11.2556 9.09286 11.3333 8.85714 11.3333H4.92857C4.45714 11.3333 4.14286 11.0222 4.14286 10.5556C4.14286 10.0889 4.45714 9.77778 4.92857 9.77778H8.54286L9.87857 8.45556C10.0357 8.3 10.35 8.22222 10.5857 8.22222C10.8214 8.3 11.0571 8.45556 11.1357 8.61111L11.9214 10.1667L12.8643 7.91111C12.9429 7.67778 13.2571 7.44444 13.4929 7.44444C13.8071 7.44444 14.0429 7.52222 14.2 7.75556L15.5357 9.77778H19.0714C19.5429 9.77778 19.8571 10.0889 19.8571 10.5556C19.8571 11.0222 19.5429 11.3333 19.0714 11.3333Z" fill="#00663A"/>
</svg>
