<svg width="24" height="24" viewBox="0 0 24 24" fill="none" xmlns="http://www.w3.org/2000/svg">
<g clip-path="url(#clip0_2045_635)">
<path d="M0.516792 16.1105L2.69861 19.8895C2.82472 20.1079 3.02259 20.2759 3.25856 20.3648C3.49454 20.4538 3.75405 20.4583 3.99294 20.3775L7.20341 19.2913C7.48679 19.4782 7.78084 19.6483 8.08406 19.8009L8.7485 23.1231C8.79797 23.3703 8.93158 23.5929 9.12661 23.7527C9.32165 23.9126 9.56605 24 9.81825 24H14.1819C14.4341 24 14.6785 23.9126 14.8735 23.7527C15.0686 23.5929 15.2022 23.3703 15.2516 23.1231L15.9161 19.8009C16.2193 19.6483 16.5133 19.4782 16.7966 19.2913L20.0072 20.3775C20.2461 20.4582 20.5056 20.4538 20.7416 20.3648C20.9775 20.2759 21.1754 20.1079 21.3015 19.8895L23.4833 16.1105C23.6094 15.8921 23.656 15.6367 23.615 15.3879C23.5741 15.1391 23.4482 14.9121 23.2588 14.7456L20.7126 12.508C20.7322 12.1696 20.7322 11.8303 20.7126 11.4919L23.2586 9.2544C23.448 9.08792 23.5739 8.86095 23.6149 8.61211C23.6558 8.36327 23.6093 8.10793 23.4832 7.88953L21.3014 4.11047C21.1753 3.89207 20.9774 3.7241 20.7414 3.63514C20.5054 3.54618 20.2459 3.54173 20.007 3.62255L16.7966 4.70865C16.5133 4.52179 16.2193 4.35166 15.9161 4.19913L15.2516 0.876945C15.2022 0.629651 15.0686 0.407133 14.8735 0.247249C14.6785 0.0873658 14.4341 -5.74064e-06 14.1819 2.82897e-10L9.81825 2.82897e-10C9.56605 -5.74064e-06 9.32165 0.0873658 9.12661 0.247249C8.93158 0.407133 8.79797 0.629651 8.7485 0.876945L8.08406 4.19913C7.78088 4.3517 7.48685 4.52183 7.20348 4.70865L3.99294 3.62255C3.75404 3.54179 3.49455 3.54627 3.25859 3.63522C3.02262 3.72418 2.82475 3.89211 2.69861 4.11047L0.516792 7.88953C0.390698 8.10793 0.344165 8.36327 0.38511 8.61211C0.426055 8.86095 0.55195 9.08792 0.741374 9.2544L3.28741 11.4919C3.26794 11.8304 3.26794 12.1696 3.28741 12.5081L0.741374 14.7456C0.551932 14.9121 0.426026 15.1391 0.385081 15.3879C0.344135 15.6368 0.390679 15.8921 0.516792 16.1105ZM12.0001 7.63636C14.4062 7.63636 16.3637 9.59389 16.3637 12C16.3637 14.4061 14.4062 16.3636 12.0001 16.3636C9.59396 16.3636 7.63643 14.4061 7.63643 12C7.63643 9.59389 9.59396 7.63636 12.0001 7.63636Z" fill="url(#paint0_linear_2045_635)"/>
</g>
<defs>
<linearGradient id="paint0_linear_2045_635" x1="0.370605" y1="12" x2="23.6295" y2="12" gradientUnits="userSpaceOnUse">
<stop stop-color="#00FF90"/>
<stop offset="1" stop-color="#F4FD36"/>
</linearGradient>
<clipPath id="clip0_2045_635">
<rect width="24" height="24" fill="white"/>
</clipPath>
</defs>
</svg>
