<svg width="28" height="28" viewBox="0 0 28 28" fill="none" xmlns="http://www.w3.org/2000/svg">
<path fill-rule="evenodd" clip-rule="evenodd" d="M6.37262 8C6.45754 7.98787 6.54246 7.98787 6.62738 8C8.5078 7.93934 10 6.39861 10 4.50607C10 2.56499 8.43501 1 6.49393 1C4.56499 1 3 2.56499 3 4.50607C3 6.39861 4.4922 7.93934 6.37262 8ZM21.3668 8C21.4516 7.98787 21.5363 7.98787 21.6211 8C23.4983 7.93934 24.9879 6.39861 25 4.50607C25 2.56499 23.4256 1 21.5 1C19.5623 1 18 2.57712 18 4.50607C18 6.39861 19.4896 7.93934 21.3668 8ZM20.0652 17.9279C21.9567 18.1658 24.0047 17.8152 25.4656 16.876C27.5136 15.5612 27.5136 13.42 25.4526 12.1177C23.9786 11.1786 21.9306 10.8279 20 11.0784C20.5479 12.1177 20.8348 13.3073 20.8348 14.5595C20.8218 15.7616 20.5609 16.9011 20.0652 17.9279ZM7.946 17.9529C7.43298 16.9155 7.14947 15.7656 7.14947 14.5532C7.14947 13.2908 7.44648 12.1034 8 11.0535C6.08293 10.8535 4.04436 11.216 2.59981 12.1159C0.466731 13.4283 0.466731 15.5656 2.59981 16.878C4.05786 17.7654 6.04243 18.1404 7.946 17.9529ZM14.1814 19C14.0653 18.9854 13.9347 18.9854 13.8041 19C11.1335 18.9127 9 16.7147 9 14.0073C9.01451 11.2416 11.2351 9 14.0073 9C16.7649 9 19 11.2416 19 14.0073C18.9855 16.7147 16.8665 18.9127 14.1814 19ZM10.4613 26.8809C8.5129 25.5834 8.5129 23.4296 10.4613 22.1191C12.6935 20.627 16.3323 20.627 18.5387 22.1191C20.4871 23.4166 20.4871 25.5704 18.5387 26.8809C16.3194 28.373 12.6806 28.373 10.4613 26.8809Z" fill="#00663A" fill-opacity="0.8"/>
</svg>
