<svg width="36" height="36" viewBox="0 0 36 36" fill="none" xmlns="http://www.w3.org/2000/svg">
<path fill-rule="evenodd" clip-rule="evenodd" d="M27.9999 22.0007C27.8686 22.001 27.7385 21.9752 27.6171 21.9249C27.4958 21.8746 27.3857 21.8006 27.2931 21.7074C26.9025 21.3166 26.9025 20.6833 27.2931 20.2926L30.5854 17.0005H20.3332C19.7812 17.0005 19.3332 16.5525 19.3332 16.0005C19.3332 15.4485 19.7812 15.0005 20.3332 15.0005H30.588L27.2931 11.7057C26.9025 11.315 26.9025 10.6817 27.2931 10.291C27.684 9.90016 28.3173 9.90016 28.708 10.291L33.7081 15.2912C33.9932 15.5763 34.0702 15.9905 33.9393 16.3454C33.8844 16.4947 33.7949 16.6273 33.6805 16.7335L28.708 21.706C28.6154 21.7996 28.5051 21.8738 28.3835 21.9244C28.262 21.975 28.1316 22.0009 27.9999 22.0007ZM12.6662 34.0011C12.3808 34.0011 12.11 33.9611 11.8394 33.8771L3.81503 31.2037C2.72311 30.8223 1.99902 29.8049 1.99902 28.6677V4.66684C1.99902 3.1961 3.19513 2 4.66587 2H4.66591H19.6664C21.6892 2 23.3331 3.64412 23.3331 5.66688V11.6671C23.3331 12.2191 22.8851 12.6671 22.333 12.6671C21.781 12.6671 21.333 12.2191 21.333 11.6671V5.66688C21.333 4.7481 20.5852 4.00007 19.6664 4.00007H11.1234L13.5167 4.79747C14.6088 5.1788 15.3327 6.19621 15.3327 7.33344V28.0009H19.6664C20.5852 28.0009 21.333 27.2528 21.333 26.3341V20.3339C21.333 19.7819 21.781 19.3339 22.333 19.3339C22.8851 19.3339 23.3331 19.7819 23.3331 20.3339V26.3341C23.3331 28.3569 21.6893 30.001 19.6664 30.001H15.3327V31.3343C15.3327 32.805 14.1369 34.0011 12.6662 34.0011ZM4.66587 4.00007L4.66656 4.00007C4.75146 4.00013 4.82597 4.01087 4.88319 4.02938L12.87 6.69085C13.142 6.78554 13.3327 7.04949 13.3327 7.33344V31.3343C13.3327 31.701 13.0329 32.0011 12.6662 32.0011C12.5807 32.0011 12.506 31.9903 12.4486 31.9717L4.46174 29.3103C4.18973 29.2155 3.99909 28.9516 3.99909 28.6677V4.66684C3.99909 4.30008 4.29917 4.00007 4.66587 4.00007Z" fill="url(#paint0_linear_2125_4865)"/>
<defs>
<linearGradient id="paint0_linear_2125_4865" x1="1.99902" y1="18.0006" x2="34.0011" y2="18.0006" gradientUnits="userSpaceOnUse">
<stop stop-color="#00FF90"/>
<stop offset="1" stop-color="#F4FD36"/>
</linearGradient>
</defs>
</svg>
