<svg width="24" height="24" viewBox="0 0 24 24" fill="none" xmlns="http://www.w3.org/2000/svg">
<path fill-rule="evenodd" clip-rule="evenodd" d="M7.414 20.414L3.586 16.586C3.211 16.211 3 15.702 3 15.172V8.828C3 8.298 3.211 7.789 3.586 7.414L7.414 3.586C7.789 3.211 8.298 3 8.828 3H15.171C15.701 3 16.21 3.211 16.585 3.586L20.413 7.414C20.789 7.789 21 8.298 21 8.828V15.171C21 15.701 20.789 16.21 20.414 16.585L16 21H8.828C8.298 21 7.789 20.789 7.414 20.414V20.414Z" stroke="#E53935" stroke-width="1.5" stroke-linecap="round" stroke-linejoin="round"/>
<path d="M9 15L15 9" stroke="#E53935" stroke-width="1.5" stroke-linecap="round" stroke-linejoin="round"/>
<path d="M15 15L9 9" stroke="#E53935" stroke-width="1.5" stroke-linecap="round" stroke-linejoin="round"/>
</svg>
