<svg width="28" height="28" viewBox="0 0 28 28" fill="none" xmlns="http://www.w3.org/2000/svg">
<path fill-rule="evenodd" clip-rule="evenodd" d="M8 7.00632C8 3.69336 10.6905 1 14 1C17.3095 1 20 3.69336 20 7.00632C19.9874 10.2561 17.4484 12.8862 14.2147 13H14.1895H14.1263C14.0505 12.9874 13.9495 12.9874 13.8484 13C10.5389 12.8862 8 10.2561 8 7.00632ZM7.06836 16.7234C10.9102 14.2589 17.1309 14.2589 20.9453 16.7234C22.668 17.8365 23.6113 19.347 23.625 20.9768C23.625 22.6199 22.668 24.1304 20.9453 25.2567C19.0312 26.5022 16.5156 27.125 14 27.125C11.4844 27.125 8.96875 26.5022 7.05469 25.2567C5.33203 24.1437 4.375 22.6331 4.375 21.0033C4.375 19.3735 5.33203 17.8497 7.06836 16.7234ZM15.0254 21.9971H16.7344C17.2949 21.9971 17.7598 21.5466 17.7598 21.0033C17.7598 20.46 17.2949 20.0095 16.7344 20.0095H15.0254V18.3532C15.0254 17.81 14.5605 17.3595 14 17.3595C13.4395 17.3595 12.9746 17.81 12.9746 18.3532V20.0095H11.2656C10.7051 20.0095 10.2402 20.46 10.2402 21.0033C10.2402 21.5466 10.7051 21.9971 11.2656 21.9971H12.9746V23.6534C12.9746 24.1967 13.4395 24.6472 14 24.6472C14.5605 24.6472 15.0254 24.1967 15.0254 23.6534V21.9971Z" fill="#00663A" fill-opacity="0.8"/>
</svg>
