<svg width="32" height="32" viewBox="0 0 32 32" fill="none" xmlns="http://www.w3.org/2000/svg">
<path fill-rule="evenodd" clip-rule="evenodd" d="M12.2507 20L14.8 23.4C15.4 24.2 16.6 24.2 17.2 23.4L19.7493 20H24C26.2093 20 28 18.2093 28 16V8C28 5.79067 26.2093 4 24 4H8C5.79067 4 4 5.79067 4 8V16C4 18.2093 5.79067 20 8 20H12.2507Z" stroke="#9D9FAF" stroke-width="1.5" stroke-linecap="round" stroke-linejoin="round"/>
<path d="M9.33398 28H22.6673" stroke="#9D9FAF" stroke-width="1.5" stroke-linecap="round" stroke-linejoin="round"/>
<path d="M16.2367 12.4307C16.3673 12.5613 16.3673 12.772 16.2367 12.9027C16.106 13.0333 15.8953 13.0333 15.7647 12.9027C15.634 12.772 15.634 12.5613 15.7647 12.4307C15.8953 12.3 16.106 12.3013 16.2367 12.4307" stroke="#9D9FAF" stroke-width="1.5" stroke-linecap="round" stroke-linejoin="round"/>
<path d="M21.5687 12.4307C21.6993 12.5613 21.6993 12.772 21.5687 12.9027C21.438 13.0333 21.2273 13.0333 21.0967 12.9027C20.966 12.772 20.966 12.5613 21.0967 12.4307C21.2273 12.3 21.438 12.3013 21.5687 12.4307" stroke="#9D9FAF" stroke-width="1.5" stroke-linecap="round" stroke-linejoin="round"/>
<path d="M10.9027 12.4307C11.0333 12.5613 11.0333 12.772 10.9027 12.9027C10.772 13.0333 10.5613 13.0333 10.4307 12.9027C10.3 12.772 10.3 12.5613 10.4307 12.4307C10.5613 12.3 10.772 12.3013 10.9027 12.4307" stroke="#9D9FAF" stroke-width="1.5" stroke-linecap="round" stroke-linejoin="round"/>
</svg>
