<svg width="24" height="24" viewBox="0 0 24 24" fill="none" xmlns="http://www.w3.org/2000/svg">
<path d="M1.13827 15.8881L3.202 19.4625C3.32128 19.6691 3.50844 19.828 3.73165 19.9121C3.95485 19.9963 4.20031 20.0005 4.42628 19.924L7.46299 18.8967C7.73102 19.0735 8.00916 19.2344 8.29597 19.3787L8.92445 22.521C8.97124 22.755 9.09762 22.9654 9.2821 23.1167C9.46658 23.2679 9.69775 23.3505 9.9363 23.3505H14.0638C14.3023 23.3505 14.5335 23.2679 14.718 23.1167C14.9024 22.9654 15.0288 22.755 15.0756 22.521L15.7041 19.3787C15.9909 19.2344 16.269 19.0734 16.537 18.8967L19.5738 19.924C19.7997 20.0005 20.0452 19.9962 20.2684 19.9121C20.4916 19.828 20.6788 19.6691 20.798 19.4625L22.8618 15.888C22.981 15.6814 23.0251 15.4399 22.9863 15.2045C22.9476 14.9692 22.8285 14.7545 22.6493 14.597L20.241 12.4805C20.2595 12.1604 20.2595 11.8395 20.241 11.5194L22.6492 9.40302C22.8284 9.24555 22.9475 9.03086 22.9862 8.79549C23.0249 8.56012 22.9809 8.3186 22.8616 8.11202L20.7979 4.5375C20.6786 4.33092 20.4915 4.17204 20.2683 4.0879C20.0451 4.00376 19.7996 3.99955 19.5736 4.07598L16.537 5.10331C16.269 4.92656 15.9909 4.76563 15.7041 4.62136L15.0756 1.47899C15.0288 1.24508 14.9024 1.0346 14.718 0.883373C14.5335 0.732143 14.3023 0.6495 14.0638 0.649506H9.9363C9.69775 0.6495 9.46658 0.732143 9.2821 0.883373C9.09762 1.0346 8.97124 1.24508 8.92445 1.47899L8.29597 4.62136C8.0092 4.76567 7.73109 4.9266 7.46305 5.10331L4.42628 4.07598C4.20031 3.9996 3.95486 4.00384 3.73167 4.08797C3.50848 4.17211 3.32131 4.33096 3.202 4.5375L1.13827 8.11202C1.019 8.3186 0.97499 8.56012 1.01372 8.79549C1.05245 9.03086 1.17153 9.24555 1.3507 9.40302L3.75894 11.5194C3.74052 11.8396 3.74052 12.1605 3.75894 12.4806L1.3507 14.597C1.17151 14.7545 1.05242 14.9692 1.01369 15.2046C0.974962 15.44 1.01899 15.6815 1.13827 15.8881ZM12 7.87256C14.2759 7.87256 16.1275 9.72413 16.1275 12C16.1275 14.2759 14.2759 16.1275 12 16.1275C9.72414 16.1275 7.87257 14.2759 7.87257 12C7.87257 9.72413 9.72414 7.87256 12 7.87256Z" fill="#00663A"/>
</svg>
