<svg width="36" height="36" viewBox="0 0 36 36" fill="none" xmlns="http://www.w3.org/2000/svg">
<path d="M13.9964 18.8008L12.0042 8.83979C11.959 8.61399 11.8371 8.41082 11.659 8.26483C11.4809 8.11884 11.2578 8.03906 11.0275 8.03906H9.03531C8.80504 8.03906 8.58189 8.11884 8.40382 8.26483C8.22574 8.41082 8.10375 8.61399 8.0586 8.83979L6.06642 18.8007C5.95851 19.3402 6.3084 19.865 6.84782 19.9728C7.38724 20.0807 7.91204 19.7308 8.01989 19.1914L8.65659 16.0078H11.4062L12.0429 19.1915C12.1508 19.7311 12.6758 20.0808 13.215 19.9729C13.7544 19.865 14.1043 19.3402 13.9964 18.8008ZM9.05503 14.0156L9.8519 10.0312H10.2109L11.0078 14.0156H9.05503ZM29.9533 16.0078H26.965V15.0117C26.965 14.4616 26.519 14.0156 25.9689 14.0156C25.4188 14.0156 24.9728 14.4616 24.9728 15.0117V16.0078H21.9845C21.4344 16.0078 20.9884 16.4538 20.9884 17.0039C20.9884 17.554 21.4344 18 21.9845 18H22.2256C22.7932 19.8336 23.6477 21.241 24.588 22.3689C23.8226 23.0689 23.0482 23.643 22.3584 24.1948C21.9288 24.5385 21.8591 25.1653 22.2029 25.5949C22.5467 26.0247 23.1736 26.0939 23.6029 25.7504C24.2966 25.1954 25.1281 24.5787 25.9689 23.8071C26.8103 24.5793 27.6433 25.1971 28.3349 25.7504C28.7645 26.0941 29.3913 26.0244 29.7349 25.5949C30.0786 25.1653 30.0089 24.5384 29.5794 24.1948C28.8914 23.6443 28.1159 23.0696 27.3498 22.3689C28.2901 21.241 29.1446 19.8336 29.7122 18H29.9533C30.5034 18 30.9494 17.554 30.9494 17.0039C30.9494 16.4538 30.5034 16.0078 29.9533 16.0078ZM25.9689 20.9049C25.3331 20.1067 24.761 19.154 24.3298 17.9934H27.6079C27.1768 19.154 26.6047 20.1067 25.9689 20.9049Z" fill="url(#paint0_linear_2125_4806)"/>
<path d="M32.0117 7.04297H17.6413L17.2143 3.6176C17.0278 2.12532 15.7531 1 14.2492 1H3.98828C2.34054 1 1 2.34054 1 3.98828V25.9688C1 27.6165 2.34054 28.957 3.98828 28.957H12.3875L12.8091 32.3824C12.9953 33.8717 14.27 35 15.7743 35H32.0117C33.6595 35 35 33.6595 35 32.0117V10.0312C35 8.38351 33.6595 7.04297 32.0117 7.04297ZM3.98828 26.9648C3.43904 26.9648 2.99219 26.518 2.99219 25.9688V3.98828C2.99219 3.43904 3.43904 2.99219 3.98828 2.99219H14.2492C14.7505 2.99219 15.1754 3.36725 15.2375 3.86437L18.1171 26.9648H3.98828ZM14.7278 31.6631L14.3947 28.957H17.0672L14.7278 31.6631ZM33.0078 32.0117C33.0078 32.561 32.561 33.0078 32.0117 33.0078H16.1987L19.9907 28.6215C20.0863 28.5138 20.1574 28.3866 20.199 28.2487C20.2406 28.1109 20.2518 27.9656 20.2317 27.823L17.8897 9.03516H32.0117C32.561 9.03516 33.0078 9.482 33.0078 10.0312V32.0117Z" fill="url(#paint1_linear_2125_4806)"/>
<defs>
<linearGradient id="paint0_linear_2125_4806" x1="6.04688" y1="17.0039" x2="30.9494" y2="17.0039" gradientUnits="userSpaceOnUse">
<stop stop-color="#00FF90"/>
<stop offset="1" stop-color="#F4FD36"/>
</linearGradient>
<linearGradient id="paint1_linear_2125_4806" x1="1" y1="18" x2="35" y2="18" gradientUnits="userSpaceOnUse">
<stop stop-color="#00FF90"/>
<stop offset="1" stop-color="#F4FD36"/>
</linearGradient>
</defs>
</svg>
