<svg width="30" height="30" viewBox="0 0 30 30" fill="none" xmlns="http://www.w3.org/2000/svg">
<path fill-rule="evenodd" clip-rule="evenodd" d="M15.0003 5.96891V24.0298C15.0005 24.7044 14.6944 25.3426 14.1682 25.7648C13.642 26.1869 12.9526 26.3473 12.2941 26.2007L6.73682 24.9652C5.71975 24.7394 4.99609 23.8374 4.99609 22.7956V7.20443C4.99609 6.16219 5.72046 5.26 6.73807 5.03478L12.2954 3.79926C12.9535 3.65293 13.6425 3.81325 14.1684 4.2351C14.6943 4.65695 15.0003 5.29472 15.0003 5.96891Z" stroke="#9D9FAF" stroke-width="1.5" stroke-linecap="round" stroke-linejoin="round"/>
<path d="M11.2483 16.2755V13.7745" stroke="#9D9FAF" stroke-width="1.5" stroke-linecap="round" stroke-linejoin="round"/>
<path d="M25.0046 9.9979V7.44434C25.0047 6.78097 24.7413 6.14471 24.2722 5.67564C23.8031 5.20656 23.1669 4.94312 22.5035 4.9433H18.752" stroke="#9D9FAF" stroke-width="1.5" stroke-linecap="round" stroke-linejoin="round"/>
<path d="M25.0046 20.0021V22.5031C25.0047 23.1665 24.7413 23.8027 24.2722 24.2718C23.8031 24.7409 23.1669 25.0043 22.5035 25.0042H18.752" stroke="#9D9FAF" stroke-width="1.5" stroke-linecap="round" stroke-linejoin="round"/>
<path d="M18.752 15H25.0046" stroke="#9D9FAF" stroke-width="1.5" stroke-linecap="round" stroke-linejoin="round"/>
<path d="M22.5039 17.501L25.0049 15L22.5039 12.4989" stroke="#9D9FAF" stroke-width="1.5" stroke-linecap="round" stroke-linejoin="round"/>
</svg>
