<svg width="32" height="32" viewBox="0 0 32 32" fill="none" xmlns="http://www.w3.org/2000/svg">
<path d="M14.8477 3.55467V17.4126C14.8477 17.9196 14.6019 18.3805 14.1871 18.6724L3.10995 26.431C2.2035 27.061 0.912955 26.5693 0.713228 25.4785C0.482774 24.1572 0.790046 22.6055 1.71186 20.9309L6.5053 12.3119L11.0222 4.18457C11.3756 3.55467 11.7596 3.00158 12.1591 2.52531C13.0809 1.44985 14.8477 2.14122 14.8477 3.55467Z" fill="#00331D"/>
<path d="M28.8901 26.431L17.8129 18.6724C17.3981 18.3805 17.1523 17.9196 17.1523 17.4126V3.55467C17.1523 2.14122 18.9191 1.44985 19.8409 2.52531C20.2404 3.00158 20.6245 3.55467 20.9778 4.18457L25.4947 12.3119L30.2881 20.9309C31.21 22.6055 31.5172 24.1572 31.2868 25.4785C31.0871 26.5693 29.7965 27.061 28.8901 26.431Z" fill="#00331D"/>
<path d="M5.64485 26.9688L15.0935 20.6698C15.6004 20.3318 16.4301 20.3318 16.9371 20.6698L26.3857 26.9688C28.8899 28.6435 28.4751 30.0108 25.4639 30.0108H6.5513C3.5554 29.9955 3.14058 28.6281 5.64485 26.9688Z" fill="#00331D"/>
</svg>
