<svg width="36" height="36" viewBox="0 0 36 36" fill="none" xmlns="http://www.w3.org/2000/svg">
<path fill-rule="evenodd" clip-rule="evenodd" d="M16.3596 3.07127C17.4625 1.99583 19.0295 1.69953 20.4488 2.29802C21.8682 2.89651 22.75 4.22517 22.7499 5.7656V23.9974C22.7499 24.6878 22.1903 25.2474 21.4999 25.2474C20.8095 25.2474 20.2499 24.6878 20.2499 23.9974V5.7656C20.2499 4.98785 19.6587 4.67804 19.4775 4.60169C19.3 4.52691 18.687 4.32652 18.1385 4.82953L10.7232 13.4383C10.6058 13.5745 10.4605 13.6838 10.297 13.7587C10.1336 13.8337 9.95592 13.8725 9.77612 13.8725H7.00001C5.62152 13.8725 4.5 14.994 4.5 16.3725V19.6225C4.5 21.001 5.62152 22.1225 7.00001 22.1225H9.77612C9.95592 22.1225 10.1336 22.1612 10.2971 22.2362C10.4605 22.3111 10.6058 22.4204 10.7232 22.5566L18.1386 31.1653C18.6931 31.6742 19.3096 31.4729 19.4881 31.3977C19.6668 31.3224 20.2499 31.0167 20.2499 30.2473C20.2499 29.5569 20.8095 28.9973 21.4999 28.9973C22.1903 28.9973 22.7499 29.5569 22.7499 30.2473C22.7499 31.7821 21.8722 33.1056 20.4594 33.7013C19.9739 33.906 19.4708 34.0061 18.9749 34.0061C18.0186 34.0062 17.0886 33.6342 16.3597 32.9234C16.3338 32.8982 16.3089 32.8717 16.2853 32.8443L9.20308 24.6224H7.00001C4.24303 24.6224 2 22.3793 2 19.6223V16.3724C2 13.6154 4.24303 11.3723 7.00001 11.3723H9.20302L16.2852 3.15042C16.3089 3.12297 16.3337 3.09659 16.3596 3.07127ZM28.0647 21.5413L28.036 21.5939C27.8094 22.0111 27.3798 22.2476 26.9364 22.2476C26.7284 22.2476 26.5236 22.1954 26.341 22.0958C25.7343 21.7663 25.5096 21.0074 25.8391 20.4008L25.8698 20.3446L25.8699 20.3445C26.1208 19.884 26.5001 19.1883 26.5001 17.9977C26.5001 16.7606 26.1091 16.0707 25.8503 15.6143C25.5099 15.0137 25.7209 14.2509 26.3214 13.9104C26.9221 13.57 27.6848 13.781 28.0253 14.3816L28.0254 14.3817C28.3418 14.9401 29.0001 16.1016 29.0001 17.9977C29.0001 19.8255 28.3917 20.9415 28.0648 21.5411L28.0647 21.5413ZM28.1119 8.15064C28.5977 7.66013 29.3892 7.65638 29.8797 8.1422C32.5368 10.774 34 14.2723 33.9999 17.9928C33.9999 21.7195 32.5367 25.2213 29.8796 27.8531C29.6458 28.0853 29.3296 28.2155 29 28.2151C28.8348 28.2153 28.6712 28.1827 28.5188 28.1191C28.3663 28.0555 28.228 27.9622 28.1119 27.8447C27.6261 27.3543 27.6298 26.5628 28.1204 26.077C30.2998 23.9182 31.5 21.0472 31.5 17.9928C31.5 14.9447 30.2998 12.0772 28.1204 9.91841C27.6298 9.43259 27.6261 8.64115 28.1119 8.15064Z" fill="url(#paint0_linear_2125_4881)"/>
<defs>
<linearGradient id="paint0_linear_2125_4881" x1="2" y1="17.9997" x2="33.9999" y2="17.9997" gradientUnits="userSpaceOnUse">
<stop stop-color="#00FF90"/>
<stop offset="1" stop-color="#F4FD36"/>
</linearGradient>
</defs>
</svg>
