<svg width="36" height="36" viewBox="0 0 36 36" fill="none" xmlns="http://www.w3.org/2000/svg">
<path fill-rule="evenodd" clip-rule="evenodd" d="M33.7033 5.93489C33.9079 6.12555 34.0602 6.36543 34.1457 6.63167C34.3233 7.17622 34.2089 7.76325 33.8419 8.20107L32.1821 10.1778L32.3629 12.7524C32.4021 13.3242 32.1494 13.8655 31.6866 14.202C31.2226 14.5375 30.6301 14.6115 30.0997 14.3959L27.707 13.4287L25.3131 14.3959C25.054 14.5013 24.7721 14.5388 24.4944 14.5047C24.2167 14.4705 23.9523 14.366 23.7263 14.2009C23.4994 14.0372 23.3183 13.8182 23.2001 13.5646C23.0819 13.311 23.0306 13.0314 23.0511 12.7524L23.2319 10.1778L21.5721 8.20215C21.204 7.76325 21.0907 7.17622 21.2671 6.63167C21.4436 6.08712 21.8814 5.6798 22.4357 5.54257L24.9407 4.91852L26.3086 2.72943C26.9141 1.75795 28.4977 1.75577 29.1043 2.72943L30.4722 4.91852L32.9771 5.54257C33.2487 5.60917 33.4987 5.74424 33.7033 5.93489ZM30.1988 9.92076C30.1804 9.66675 30.2617 9.41555 30.4254 9.22046L32.0209 7.32325L29.6162 6.72316C29.37 6.66217 29.1577 6.50751 29.0226 6.29187L27.7092 4.191L26.3957 6.29187C26.2611 6.50706 26.0484 6.66166 25.8021 6.72316L23.3974 7.32325L24.9908 9.22046C25.1534 9.41616 25.2345 9.6669 25.2173 9.92076L25.0441 12.393L27.341 11.464C27.5764 11.3684 27.8398 11.3684 28.0751 11.464L30.3731 12.393L30.1988 9.92076ZM28.8473 15.9685C28.5873 15.9685 28.338 16.0718 28.1542 16.2556C27.9703 16.4394 27.8671 16.6888 27.8671 16.9487V24.8763C27.8662 25.5895 27.5825 26.2732 27.0782 26.7775C26.5739 27.2818 25.8902 27.5655 25.177 27.5664H18.6206C18.408 27.5661 18.2011 27.6353 18.0314 27.7635L12.3703 32.0208C12.3219 32.0596 12.2629 32.0828 12.2011 32.0875C12.1393 32.0922 12.0775 32.078 12.0239 32.0469C11.9685 32.0204 11.9221 31.9782 11.8905 31.9255C11.859 31.8729 11.8436 31.812 11.8464 31.7507L11.9553 28.5814C11.9595 28.45 11.9374 28.3192 11.8901 28.1965C11.8428 28.0739 11.7714 27.962 11.6801 27.8674C11.5888 27.7729 11.4795 27.6976 11.3586 27.6461C11.2377 27.5946 11.1076 27.5678 10.9762 27.5674H6.42268C5.7094 27.5669 5.0255 27.2833 4.52114 26.7789C4.01678 26.2745 3.73317 25.5906 3.7326 24.8774V11.9171C3.73202 11.2025 4.01494 10.517 4.51927 10.0108C5.0236 9.50462 5.70814 9.21921 6.42268 9.21719H18.5008C18.7608 9.21719 19.0101 9.11392 19.1939 8.9301C19.3777 8.74628 19.481 8.49697 19.481 8.237C19.481 7.97704 19.3777 7.72773 19.1939 7.5439C19.0101 7.36008 18.7608 7.25681 18.5008 7.25681H6.42268C5.1883 7.2597 4.00546 7.75208 3.13364 8.62594C2.26182 9.4998 1.77221 10.6838 1.77222 11.9182V24.8774C1.77366 26.1104 2.26404 27.2925 3.13583 28.1645C4.00762 29.0365 5.18964 29.5272 6.42268 29.5289H9.96116L9.8871 31.6875C9.87208 32.1186 9.98003 32.545 10.1983 32.9171C10.4166 33.2891 10.7363 33.5913 11.12 33.7884C11.4466 33.9596 11.8098 34.0493 12.1786 34.0498C12.661 34.0498 13.1392 33.894 13.5465 33.5902L18.9473 29.5289H25.1759C26.4089 29.5272 27.591 29.0365 28.4627 28.1645C29.3345 27.2925 29.8249 26.1104 29.8264 24.8774V16.9498C29.8266 16.821 29.8015 16.6935 29.7525 16.5745C29.7034 16.4554 29.6313 16.3472 29.5404 16.2561C29.4494 16.1649 29.3414 16.0926 29.2224 16.0433C29.1035 15.9939 28.976 15.9685 28.8473 15.9685ZM22.3887 15.9141C22.3887 15.6541 22.2855 15.4048 22.1017 15.221C21.9178 15.0372 21.6685 14.9339 21.4086 14.9339H10.6265C10.3665 14.9339 10.1172 15.0372 9.93336 15.221C9.74954 15.4048 9.64627 15.6541 9.64627 15.9141C9.64627 16.174 9.74954 16.4234 9.93336 16.6072C10.1172 16.791 10.3665 16.8943 10.6265 16.8943H21.4086C21.5373 16.8943 21.6647 16.8689 21.7837 16.8197C21.9026 16.7704 22.0106 16.6982 22.1017 16.6072C22.1927 16.5162 22.2649 16.4081 22.3141 16.2892C22.3634 16.1703 22.3887 16.0428 22.3887 15.9141ZM10.6243 19.8839C10.3643 19.8839 10.115 19.9871 9.93118 20.1709C9.74736 20.3548 9.64409 20.6041 9.64409 20.864C9.64409 21.124 9.74736 21.3733 9.93118 21.5571C10.115 21.741 10.3643 21.8442 10.6243 21.8442H16.341C16.6009 21.8442 16.8502 21.741 17.0341 21.5571C17.2179 21.3733 17.3212 21.124 17.3212 20.864C17.3212 20.6041 17.2179 20.3548 17.0341 20.1709C16.8502 19.9871 16.6009 19.8839 16.341 19.8839H10.6243Z" fill="url(#paint0_linear_2125_4844)"/>
<defs>
<linearGradient id="paint0_linear_2125_4844" x1="1.77222" y1="18.0249" x2="34.2279" y2="18.0249" gradientUnits="userSpaceOnUse">
<stop stop-color="#00FF90"/>
<stop offset="1" stop-color="#F4FD36"/>
</linearGradient>
</defs>
</svg>
