<svg width="16" height="16" viewBox="0 0 16 16" fill="none" xmlns="http://www.w3.org/2000/svg">
<path d="M3.64169 2.955C4.81035 1.94451 6.33378 1.33325 7.99998 1.33325C11.6818 1.33325 14.6666 4.31802 14.6666 7.99992C14.6666 9.42398 14.2201 10.7438 13.4594 11.827L11.3333 7.99992H13.3333C13.3333 5.0544 10.9455 2.66659 7.99998 2.66659C6.56653 2.66659 5.26516 3.2321 4.3068 4.1522L3.64169 2.955ZM12.3582 13.0449C11.1896 14.0553 9.66618 14.6666 7.99998 14.6666C4.31808 14.6666 1.33331 11.6818 1.33331 7.99992C1.33331 6.57582 1.77984 5.25603 2.54051 4.17288L4.66665 7.99992H2.66665C2.66665 10.9455 5.05446 13.3333 7.99998 13.3333C9.43345 13.3333 10.7348 12.7677 11.6932 11.8477L12.3582 13.0449Z" fill="#1AF7A8"/>
</svg>
