<svg width="36" height="36" viewBox="0 0 36 36" fill="none" xmlns="http://www.w3.org/2000/svg">
<path d="M27.8235 4.4587H25.7769V3.22935C25.7769 2.90331 25.6476 2.59062 25.4173 2.36007C25.187 2.12952 24.8747 2 24.549 2C24.2233 2 23.911 2.12952 23.6807 2.36007C23.4504 2.59062 23.3211 2.90331 23.3211 3.22935V4.4587H12.6789V3.22935C12.6789 2.90331 12.5496 2.59062 12.3193 2.36007C12.089 2.12952 11.7767 2 11.451 2C11.1253 2 10.813 2.12952 10.5827 2.36007C10.3524 2.59062 10.2231 2.90331 10.2231 3.22935V4.4587H8.17651C7.34699 4.36245 6.50646 4.45522 5.7178 4.73009C4.92914 5.00496 4.21277 5.4548 3.62228 6.04598C3.03179 6.63715 2.58246 7.35434 2.30791 8.14391C2.03336 8.93347 1.94069 9.77497 2.03683 10.6055V27.8164C1.94069 28.6469 2.03336 29.4884 2.30791 30.2779C2.58246 31.0675 3.03179 31.7847 3.62228 32.3758C4.21277 32.967 4.92914 33.4169 5.7178 33.6917C6.50646 33.9666 7.34699 34.0594 8.17651 33.9631H27.8235C28.653 34.0594 29.4935 33.9666 30.2822 33.6917C31.0709 33.4169 31.7872 32.967 32.3777 32.3758C32.9682 31.7847 33.4175 31.0675 33.6921 30.2779C33.9666 29.4884 34.0593 28.6469 33.9632 27.8164V10.6055C34.0593 9.77497 33.9666 8.93347 33.6921 8.14391C33.4175 7.35434 32.9682 6.63715 32.3777 6.04598C31.7872 5.4548 31.0709 5.00496 30.2822 4.73009C29.4935 4.45522 28.653 4.36245 27.8235 4.4587ZM8.17651 6.9174H10.2231V8.14675C10.2231 8.4728 10.3524 8.78549 10.5827 9.01604C10.813 9.24658 11.1253 9.37611 11.451 9.37611C11.7767 9.37611 12.089 9.24658 12.3193 9.01604C12.5496 8.78549 12.6789 8.4728 12.6789 8.14675V6.9174H23.3211V8.14675C23.3211 8.4728 23.4504 8.78549 23.6807 9.01604C23.911 9.24658 24.2233 9.37611 24.549 9.37611C24.8747 9.37611 25.187 9.24658 25.4173 9.01604C25.6476 8.78549 25.7769 8.4728 25.7769 8.14675V6.9174H27.8235C30.4054 6.9174 31.5073 8.02054 31.5073 10.6055V11.8348H4.49271V10.6055C4.49271 8.02054 5.59457 6.9174 8.17651 6.9174ZM27.8235 31.5044H8.17651C5.59457 31.5044 4.49271 30.4013 4.49271 27.8164V14.2935H31.5073V27.8164C31.5073 30.4013 30.4054 31.5044 27.8235 31.5044ZM22.9609 19.2929C23.075 19.407 23.1655 19.5426 23.2272 19.6918C23.289 19.841 23.3208 20.0009 23.3208 20.1624C23.3208 20.3239 23.289 20.4839 23.2272 20.6331C23.1655 20.7823 23.075 20.9178 22.9609 21.032L17.5088 26.5051C17.395 26.6194 17.2598 26.7102 17.1109 26.7721C16.962 26.8341 16.8023 26.8659 16.6411 26.8659C16.4798 26.8659 16.3202 26.8341 16.1713 26.7721C16.0224 26.7102 15.8871 26.6194 15.7733 26.5051L13.0391 23.7677C12.8222 23.5347 12.7042 23.2264 12.7098 22.9079C12.7154 22.5895 12.8442 22.2856 13.0692 22.0603C13.2942 21.8351 13.5977 21.7061 13.9158 21.7005C14.234 21.6949 14.5418 21.8131 14.7746 22.0302L16.6362 23.8923L21.2205 19.3027C21.3338 19.1871 21.4689 19.0951 21.6179 19.0321C21.7669 18.969 21.9268 18.936 22.0886 18.9351C22.2504 18.9342 22.4107 18.9653 22.5604 19.0267C22.7101 19.0881 22.8462 19.1786 22.9609 19.2929Z" fill="url(#paint0_linear_2062_5654)"/>
<defs>
<linearGradient id="paint0_linear_2062_5654" x1="2" y1="18" x2="34" y2="18" gradientUnits="userSpaceOnUse">
<stop stop-color="#00FF90"/>
<stop offset="1" stop-color="#F4FD36"/>
</linearGradient>
</defs>
</svg>
