<svg width="30" height="30" viewBox="0 0 30 30" fill="none" xmlns="http://www.w3.org/2000/svg">
<path d="M26.8325 3.42541C23.0726 4.98241 6.9515 11.6601 2.4971 13.4802C-0.490301 14.646 1.2584 15.7389 1.2584 15.7389C1.2584 15.7389 3.8084 16.6131 5.9942 17.2689C8.18 17.9247 9.3458 17.196 9.3458 17.196L19.619 10.2741C23.2619 7.79701 22.3877 9.83701 21.5135 10.7112C19.619 12.6057 16.4861 15.5928 13.8632 17.9973C12.6974 19.0173 13.2803 19.8918 13.7903 20.3289C15.6848 21.9318 20.8577 25.2105 21.1493 25.4292C22.6886 26.5188 25.7162 28.0875 26.1767 24.7734L27.9983 13.3344C28.5812 9.47282 29.1641 5.90251 29.237 4.88251C29.4554 2.40541 26.8325 3.42541 26.8325 3.42541Z" fill="white"/>
</svg>
