<svg width="44" height="44" viewBox="0 0 44 44" fill="none" xmlns="http://www.w3.org/2000/svg">
<g filter="url(#filter0_d_2045_318)">
<path fill-rule="evenodd" clip-rule="evenodd" d="M28.7463 25.1345C28.6372 25.2432 28.4664 25.4134 28.565 25.7272L28.9828 27.4821C29.1037 27.9898 28.9007 28.707 28.5317 29.076L21.822 35.7857C21.453 36.1548 21.0847 36.0349 21.0037 35.5192L20.2412 30.6664C20.1601 30.1507 20.3956 29.4272 20.7648 29.058C20.7648 29.058 21.0165 28.8081 20.7537 28.5453C19.4313 27.2229 16.8522 24.6437 15.4642 23.256C15.2126 23.0045 14.9623 23.2555 14.9623 23.2555C14.5933 23.6247 13.8696 23.8603 13.354 23.7792L8.50112 23.0166C7.98552 22.9356 7.86562 22.5674 8.23465 22.1983L14.9442 15.4887C15.3133 15.1197 16.0306 14.9168 16.5383 15.0375L18.3669 15.4729C18.7763 15.5584 19.0052 15.3559 19.1213 15.2489C24.9903 9.85048 32.5707 6.29362 35.1182 8.84099C37.6792 11.4022 34.2233 19.2237 28.7856 25.0944C28.7741 25.1068 28.7608 25.1201 28.7463 25.1345ZM27.0627 12.9437C25.9263 14.08 25.9263 15.9224 27.0627 17.0588C28.199 18.1952 30.0415 18.1952 31.178 17.0588C32.3143 15.9224 32.3143 14.0799 31.178 12.9437C30.0415 11.8073 28.1991 11.8073 27.0627 12.9437ZM14.6151 25.6265C14.7124 25.5263 14.8784 25.3553 15.2834 25.7602L18.353 28.8299C18.7673 29.2443 18.5978 29.4077 18.497 29.5049C18.4907 29.511 18.4847 29.5169 18.479 29.5225C16.9235 31.078 16.0705 31.4005 14.5934 31.9589C13.7311 32.2849 12.6562 32.6913 11.1046 33.4703C9.94828 34.051 12.1355 28.1063 14.5993 25.6426C14.6043 25.6375 14.6096 25.6321 14.6151 25.6265Z" fill="url(#paint0_linear_2045_318)"/>
</g>
<defs>
<filter id="filter0_d_2045_318" x="0.0204468" y="0" width="43.9591" height="44" filterUnits="userSpaceOnUse" color-interpolation-filters="sRGB">
<feFlood flood-opacity="0" result="BackgroundImageFix"/>
<feColorMatrix in="SourceAlpha" type="matrix" values="0 0 0 0 0 0 0 0 0 0 0 0 0 0 0 0 0 0 127 0" result="hardAlpha"/>
<feOffset/>
<feGaussianBlur stdDeviation="4"/>
<feComposite in2="hardAlpha" operator="out"/>
<feColorMatrix type="matrix" values="0 0 0 0 0.482353 0 0 0 0 1 0 0 0 0 0.388235 0 0 0 0.35 0"/>
<feBlend mode="normal" in2="BackgroundImageFix" result="effect1_dropShadow_2045_318"/>
<feBlend mode="normal" in="SourceGraphic" in2="effect1_dropShadow_2045_318" result="shape"/>
</filter>
<linearGradient id="paint0_linear_2045_318" x1="8.02045" y1="22" x2="35.9795" y2="22" gradientUnits="userSpaceOnUse">
<stop stop-color="#00FF90"/>
<stop offset="1" stop-color="#F4FD36"/>
</linearGradient>
</defs>
</svg>
