<svg width="400" height="124" viewBox="0 0 400 124" fill="none" xmlns="http://www.w3.org/2000/svg">
<mask id="mask0_2107_3230" style="mask-type:alpha" maskUnits="userSpaceOnUse" x="1" y="1" width="398" height="122">
<path d="M1 25L25 1H173L181 9H381L399 27V96L372 123H195L182 110H8L1 103V25Z" fill="#D9D9D9"/>
</mask>
<g mask="url(#mask0_2107_3230)">
<path fill-rule="evenodd" clip-rule="evenodd" d="M407.659 -8.00732H377.676H-7.65903H-8V130.999H407.659L408 130.999V-8.00732H407.659ZM21.6424 113.707V130.317H-7.31807L-7.31807 113.707H21.6424ZM22.3189 113.707V130.317H51.2794V113.707H22.3189ZM51.2794 113.03H22.3189V96.4202H51.2794V113.03ZM51.9613 113.707V130.317H80.9217V113.707H51.9613ZM80.9217 113.03H51.9613V96.4202H80.9217V113.03ZM81.6037 113.707V130.317H110.564V113.707H81.6037ZM110.564 113.03H81.6037V96.4202H110.564V113.03ZM111.246 113.707V130.317H140.206V113.707H111.246ZM140.206 113.03H111.246V96.4202H140.206V113.03ZM140.888 113.707V130.317H169.849V113.707H140.888ZM169.849 113.03H140.888V96.4202H169.849V113.03ZM170.525 113.707V130.317H199.486V113.707H170.525ZM199.486 113.03H170.525V96.4202H199.486V113.03ZM200.168 113.707V130.317H229.128V113.707H200.168ZM229.128 113.03H200.168V96.4202H229.128V113.03ZM229.81 113.707V130.317H258.771V113.707H229.81ZM258.771 113.03H229.81V96.4202H258.771V113.03ZM259.453 113.707V130.317H288.413V113.707H259.453ZM288.413 113.03H259.453V96.4202H288.413V113.03ZM289.09 113.707V130.317H318.05V113.707H289.09ZM318.05 113.03H289.09V96.4202H318.05V113.03ZM318.732 113.707V130.317H347.692V113.707H318.732ZM347.692 113.03H318.732V96.4202H347.692V113.03ZM348.374 113.707V130.317H377.335V113.707H348.374ZM377.335 113.03H348.374V96.4202H377.335V113.03ZM378.017 113.707V130.317H406.977V113.707H378.017ZM406.977 113.03H378.017V96.4202H406.977V113.03ZM406.977 79.1284V95.7383H378.017V79.1284H406.977ZM406.977 44.5447V61.1546H378.017V44.5447H406.977ZM406.977 27.2529V43.8628H378.017V27.2529H406.977ZM406.977 9.96645V26.5764H378.017V9.96645H406.977ZM406.977 -7.32539H378.017V9.28452H406.977V-7.32539ZM377.335 9.28452V-7.32539H348.374V9.28452H377.335ZM347.692 9.28452V-7.32539H318.732V9.28452H347.692ZM318.732 9.96645H347.692V26.5764H318.732V9.96645ZM318.05 9.28452V-7.32539H289.09V9.28452H318.05ZM289.09 9.96645H318.05V26.5764H289.09V9.96645ZM288.413 9.28452V-7.32539H259.453V9.28452H288.413ZM259.453 9.96645H288.413V26.5764H259.453V9.96645ZM258.771 9.28452V-7.32539H229.81V9.28452H258.771ZM229.81 9.96645H258.771V26.5764H229.81V9.96645ZM229.128 9.28452V-7.32539H200.168V9.28452H229.128ZM200.168 9.96645H229.128V26.5764H200.168V9.96645ZM199.486 9.28452V-7.32539H170.525V9.28452H199.486ZM170.525 9.96645H199.486V26.5764H170.525V9.96645ZM169.849 9.28452V-7.32539H140.888V9.28452H169.849ZM140.888 9.96645H169.849V26.5764H140.888V9.96645ZM140.206 9.28452V-7.32539H111.246V9.28452H140.206ZM111.246 9.96645H140.206V26.5764H111.246V9.96645ZM110.564 9.28452V-7.32539H81.6037V9.28452H110.564ZM81.6037 9.96645H110.564V26.5764H81.6037V9.96645ZM80.9217 9.28452V-7.32539H51.9613V9.28452H80.9217ZM51.9613 9.96645H80.9217V26.5764H51.9613V9.96645ZM51.2794 9.28452V-7.32539H22.3189V9.28452H51.2794ZM22.3189 9.96645H51.2794V26.5764H22.3189V9.96645ZM21.6424 9.28452V-7.32539H-7.31807L-7.31807 9.28452H21.6424ZM-7.31807 9.96645H21.6424V26.5764H-7.31807V9.96645ZM-7.31807 27.2529V43.8628H21.6424V27.2529H-7.31807ZM22.3189 27.2529V43.8628H51.2794V27.2529H22.3189ZM51.9613 27.2529V43.8628H80.9217V27.2529H51.9613ZM81.6037 27.2529V43.8628H110.564V27.2529H81.6037ZM111.246 27.2529V43.8628H140.206V27.2529H111.246ZM140.888 27.2529V43.8628H169.849V27.2529H140.888ZM170.525 27.2529V43.8628H199.486V27.2529H170.525ZM200.168 27.2529V43.8628H229.128V27.2529H200.168ZM229.81 27.2529V43.8628H258.771V27.2529H229.81ZM259.453 27.2529V43.8628H288.413V27.2529H259.453ZM289.09 27.2529V43.8628H318.05V27.2529H289.09ZM318.732 27.2529V43.8628H347.692V27.2529H318.732ZM348.374 27.2529V43.8628H377.335V27.2529H348.374ZM377.335 26.5764V9.96645H348.374V26.5764H377.335ZM377.335 44.5447H348.374V61.1546H377.335V44.5447ZM347.692 61.8366H318.732V78.4465H347.692V61.8366ZM347.692 79.1284H318.732V95.7383H347.692V79.1284ZM348.374 95.7383V79.1284H377.335V95.7383H348.374ZM377.335 78.4465H348.374V61.8366H377.335V78.4465ZM378.017 78.4465H406.977V61.8366H378.017V78.4465ZM318.05 95.7383V79.1284H289.09V95.7383H318.05ZM288.413 95.7383V79.1284H259.453V95.7383H288.413ZM258.771 95.7383V79.1284H229.81V95.7383H258.771ZM229.128 95.7383V79.1284H200.168V95.7383H229.128ZM199.486 95.7383V79.1284H170.525V95.7383H199.486ZM169.849 95.7383V79.1284H140.888V95.7383H169.849ZM140.206 95.7383V79.1284H111.246V95.7383H140.206ZM110.564 95.7383V79.1284H81.6037V95.7383H110.564ZM80.9217 95.7383V79.1284H51.9613V95.7383H80.9217ZM51.2794 95.7383V79.1284H22.3189V95.7383H51.2794ZM21.6424 95.7383V79.1284H-7.31807V95.7383H21.6424ZM-7.31807 96.4202V113.03H21.6424V96.4202H-7.31807ZM-7.31807 78.4465H21.6424V61.8366H-7.31807V78.4465ZM22.3189 61.1546H51.2794V44.5447H22.3189V61.1546ZM21.6424 44.5447H-7.31807V61.1546H21.6424V44.5447ZM51.9613 44.5447V61.1546H80.9217V44.5447H51.9613ZM81.6037 44.5447V61.1546H110.564V44.5447H81.6037ZM111.246 44.5447V61.1546H140.206V44.5447H111.246ZM140.888 44.5447V61.1546H169.849V44.5447H140.888ZM170.525 44.5447V61.1546H199.486V44.5447H170.525ZM200.168 44.5447V61.1546H229.128V44.5447H200.168ZM229.81 44.5447V61.1546H258.771V44.5447H229.81ZM259.453 44.5447V61.1546H288.413V44.5447H259.453ZM289.09 44.5447V61.1546H318.05V44.5447H289.09ZM318.732 44.5447V61.1546H347.692V44.5447H318.732ZM22.3189 61.8366V78.4465H51.2794V61.8366H22.3189ZM51.9613 61.8366V78.4465H80.9217V61.8366H51.9613ZM81.6037 61.8366V78.4465H110.564V61.8366H81.6037ZM111.246 61.8366V78.4465H140.206V61.8366H111.246ZM140.888 61.8366V78.4465H169.849V61.8366H140.888ZM170.525 61.8366V78.4465H199.486V61.8366H170.525ZM200.168 61.8366V78.4465H229.128V61.8366H200.168ZM229.81 61.8366V78.4465H258.771V61.8366H229.81ZM259.453 61.8366V78.4465H288.413V61.8366H259.453ZM289.09 61.8366V78.4465H318.05V61.8366H289.09Z" fill="url(#paint0_linear_2107_3230)"/>
</g>
<path d="M1 25L25 1H173L181 9H381L399 27V96L372 123H195L182 110H8L1 103V25Z" stroke="#009956" stroke-width="0.5"/>
<path d="M377 123L399 101V123H377Z" fill="#00FF90"/>
<path d="M20 6L6 20L6 6L20 6Z" fill="#00FF90"/>
<path fill-rule="evenodd" clip-rule="evenodd" d="M182.619 123.027L187.598 123.027L179.938 115L174.959 115L182.619 123.027ZM180.959 123.027L175.98 123.027L168.321 115L173.299 115L180.959 123.027ZM169.342 123.027L174.32 123.027L166.661 115L161.682 115L169.342 123.027ZM167.682 123.027L162.703 123.027L155.043 115L160.022 115L167.682 123.027ZM156.066 123.027L161.045 123.027L153.385 115L148.406 115L156.066 123.027ZM154.408 123.027L149.429 123.027L141.77 115L146.749 115L154.408 123.027ZM142.791 123.027L147.77 123.027L140.11 115L135.131 115L142.791 123.027ZM136.154 123.027L141.133 123.027L133.473 115L128.495 115L136.154 123.027ZM134.494 123.027L129.515 123.027L121.856 115L126.835 115L134.494 123.027ZM122.879 123.027L127.857 123.027L120.198 115L115.219 115L122.879 123.027ZM21.6387 123.027L16.6599 123.027L9.00037 115L13.9791 115L21.6387 123.027ZM23.2986 123.027L28.2773 123.027L20.6178 115L15.639 115L23.2986 123.027ZM34.916 123.027L29.9373 123.027L22.2777 115L27.2564 115L34.916 123.027ZM36.576 123.027L41.5547 123.027L33.8951 115L28.9164 115L36.576 123.027ZM48.1934 123.027L43.2146 123.027L35.5551 115L40.5338 115L48.1934 123.027ZM49.8533 123.027L54.832 123.027L47.1725 115L42.1937 115L49.8533 123.027ZM61.4707 123.027L56.492 123.027L48.8324 115L53.8111 115L61.4707 123.027ZM63.1307 123.027L68.1094 123.027L60.4498 115L55.4711 115L63.1307 123.027ZM74.748 123.027L69.7693 123.027L62.1097 115L67.0885 115L74.748 123.027ZM76.408 123.027L81.3867 123.027L73.7271 115L68.7484 115L76.408 123.027ZM88.0254 123.027L83.0467 123.027L75.3871 115L80.3658 115L88.0254 123.027ZM89.6853 123.027L94.6641 123.027L87.0045 115L82.0258 115L89.6853 123.027ZM101.303 123.027L96.324 123.027L88.6644 115L93.6432 115L101.303 123.027ZM102.963 123.027L107.941 123.027L100.282 115L95.3031 115L102.963 123.027ZM114.58 123.027L109.601 123.027L101.942 115L106.921 115L114.58 123.027ZM116.24 123.027L121.219 123.027L113.559 115L108.58 115L116.24 123.027Z" fill="url(#paint1_linear_2107_3230)"/>
<path d="M182 6L177 1H373.5L378.5 6H182Z" fill="#00FF90"/>
<defs>
<linearGradient id="paint0_linear_2107_3230" x1="200" y1="-8" x2="200" y2="136.5" gradientUnits="userSpaceOnUse">
<stop stop-color="#00331D" stop-opacity="0"/>
<stop offset="0.5" stop-color="#00331D"/>
<stop offset="1" stop-color="#00331D" stop-opacity="0"/>
</linearGradient>
<linearGradient id="paint1_linear_2107_3230" x1="187.598" y1="119.014" x2="9.00062" y2="119.014" gradientUnits="userSpaceOnUse">
<stop stop-color="#00CC73"/>
<stop offset="1" stop-color="#00CC73" stop-opacity="0"/>
</linearGradient>
</defs>
</svg>
