<svg width="168" height="159" viewBox="0 0 168 159" fill="none" xmlns="http://www.w3.org/2000/svg">
<path opacity="0.23" d="M6.50692 6.01401L36.668 6.39134L42.2821 0.754883H125.812L131.426 6.39134L161.235 6.01401L161.188 83.9811L159.238 85.9149V109.522L165.393 115.677L165.346 146.312L155.832 155.84H134.668L130.087 151.265H37.9834L33.4264 155.84H12.2385L2.74854 146.312V115.677L8.87941 109.522V85.9149L6.88276 83.9811L6.50692 6.01401Z" fill="url(#paint0_linear_4250_16206)"/>
<path d="M161.963 83.6507V5.63646H131.755L126.141 0H41.9765L36.3624 5.63646H6.13086V83.6507L1.97314 87.825V146.619L11.9094 156.618H33.7315L38.2886 152.043H129.758L134.315 156.618H156.138L166.097 146.619V87.825L161.94 83.6507H161.963ZM165.346 146.312L155.832 155.84H134.644L130.087 151.265H37.9832L33.4262 155.84H12.2382L2.74831 146.312V88.1551L6.90603 83.9809V6.39113H36.6913L42.3054 0.754672H125.836L131.45 6.39113H161.211V83.9573L165.369 88.1316V146.288L165.346 146.312Z" fill="#00FF90"/>
<path d="M153.225 1.4624H146.695L142.138 6.01402H157.782L153.225 1.4624Z" fill="#00FF90"/>
<path d="M161.564 9.83447L161.611 51.0584L165.346 47.3087V13.6078L161.564 9.83447Z" fill="#00FF90"/>
<path d="M21.8458 1.4624H15.8558C14.3525 2.97175 12.8256 4.50467 11.3223 6.01402H26.4028L21.8458 1.4624Z" fill="#00FF90"/>
<path d="M2.74854 14.1739V47.3087L6.48343 51.0585L6.50692 10.377L2.74854 14.1739Z" fill="#00FF90"/>
<path d="M56.0703 152.02L58.8656 154.85H109.205L112 152.02H56.0703Z" fill="#00FF90"/>
<path d="M161.188 83.981L159.238 85.9148V109.522L165.393 115.677V88.1552L161.188 83.981Z" fill="#00FF90"/>
<path d="M6.92974 83.981L8.87941 85.9148V109.522L2.74854 115.677V88.1552L6.92974 83.981Z" fill="#00FF90"/>
<path opacity="0.4" d="M122.03 60.3503L127.127 54.7139H40.9663L46.0636 60.3503H122.03Z" fill="#00FF90"/>
<path opacity="0.4" d="M46.0636 96.999L40.9663 102.659H127.127L122.03 96.999H46.0636Z" fill="#00FF90"/>
<path opacity="0.14" d="M139.882 51.7184L147.399 43.417H20.6709L28.1877 51.7184H139.882Z" fill="#00FF90"/>
<path opacity="0.14" d="M28.1877 105.63L20.6709 113.932H147.399L139.882 105.63H28.1877Z" fill="#00FF90"/>
<path d="M161.188 34.1961H152.003L135.231 23.3948H33.5669L16.2548 34.1961H6.88232V33.4178H16.0434L33.3555 22.6401H135.466L152.238 33.4178H161.188V34.1961Z" fill="#00FF90"/>
<path d="M134.738 131.502H32.6277L15.8559 120.724H2.74854V119.946H16.0673L32.8391 130.747H134.504L151.839 119.946H165.534V120.724H152.051L134.738 131.502Z" fill="#00FF90"/>
<path d="M151.134 6.39111L161.564 16.8622V6.39111H151.134Z" fill="#00FF90"/>
<path d="M17.3119 6.39111L6.88232 16.8622V6.39111H17.3119Z" fill="#00FF90"/>
<path d="M54.7314 0.754883L57.4798 3.51415H110.003L112.728 0.754883H54.7314Z" fill="#00FF90"/>
<path d="M84.4464 8.56059H57.9732L53.5336 4.12689H44.1611V3.34863H53.8625L58.2786 7.80592H84.4464V8.56059Z" fill="#00FF90"/>
<path d="M109.698 8.56059H83.2246V7.80592H109.369L113.809 3.34863H123.486V4.12689H114.114L109.698 8.56059Z" fill="#00FF90"/>
<path d="M144.134 156.618L146.507 159H157.641L168 148.599V138.199L166.074 136.242V146.618L156.161 156.618H144.134Z" fill="#00FF90"/>
<path d="M23.8893 156.618L21.4933 159H10.3591L0 148.599V138.199L1.92617 136.242V146.618L11.8389 156.618H23.8893Z" fill="#00FF90"/>
<path d="M146.624 90.5371H21.6577V91.2918H146.624V90.5371Z" fill="#00FF90"/>
<path d="M146.624 66.0576H21.6577V66.8123H146.624V66.0576Z" fill="#00FF90"/>
<path d="M46.792 131.572L50.5269 135.322H117.567L121.302 131.572H46.792Z" fill="#00FF90"/>
<path d="M46.792 23.0176L50.5269 26.7674H117.567L121.302 23.0176H46.792Z" fill="#00FF90"/>
<path opacity="0.4" d="M109.815 40.4692L107.231 37.875H60.8622L58.2783 40.4692H109.815Z" fill="#00FF90"/>
<path opacity="0.4" d="M58.6543 116.974L61.2382 119.568H107.607L110.191 116.974H58.6543Z" fill="#00FF90"/>
<path d="M144.21 72.2202V76.0902C144.21 76.5702 144.186 77.0982 144.138 77.6742C144.09 78.2502 144.036 78.8622 143.976 79.5102C143.94 79.8822 143.898 80.3622 143.85 80.9502H142.41C142.374 80.3622 142.332 79.8822 142.284 79.5102C142.224 78.8622 142.17 78.2502 142.122 77.6742C142.074 77.0982 142.05 76.5702 142.05 76.0902V72.2202H144.21ZM144.39 82.5342V85.0002H141.87V82.5342H144.39Z" fill="#F4FD36"/>
<path d="M134.803 80.6802H136.135V82.6602H134.803V85.0002H132.661V82.6602H126.253V80.5362L132.301 72.2202H134.803V80.6802ZM132.661 80.6802V75.3702L128.773 80.6802H132.661Z" fill="#F4FD36"/>
<path d="M122.606 73.9481L117.764 83.2001H116.126L120.986 73.9481H122.606ZM119.384 85.2881C118.436 85.2881 117.614 85.0121 116.918 84.4601C116.222 83.9081 115.688 83.1341 115.316 82.1381C114.944 81.1301 114.758 79.9601 114.758 78.6281C114.758 77.2841 114.944 76.1081 115.316 75.1001C115.688 74.0921 116.222 73.3121 116.918 72.7601C117.614 72.2081 118.436 71.9321 119.384 71.9321C120.332 71.9321 121.154 72.2081 121.85 72.7601C122.546 73.3121 123.08 74.0921 123.452 75.1001C123.824 76.1081 124.01 77.2841 124.01 78.6281C124.01 79.9601 123.824 81.1301 123.452 82.1381C123.08 83.1341 122.546 83.9081 121.85 84.4601C121.154 85.0121 120.332 85.2881 119.384 85.2881ZM119.384 83.3081C119.876 83.3081 120.296 83.1221 120.644 82.7501C121.004 82.3781 121.28 81.8441 121.472 81.1481C121.664 80.4401 121.76 79.6001 121.76 78.6281C121.76 77.6441 121.664 76.7981 121.472 76.0901C121.28 75.3821 121.004 74.8421 120.644 74.4701C120.296 74.0981 119.876 73.9121 119.384 73.9121C118.892 73.9121 118.466 74.0981 118.106 74.4701C117.758 74.8421 117.488 75.3821 117.296 76.0901C117.104 76.7981 117.008 77.6441 117.008 78.6281C117.008 79.6001 117.104 80.4401 117.296 81.1481C117.488 81.8441 117.758 82.3781 118.106 82.7501C118.466 83.1221 118.892 83.3081 119.384 83.3081Z" fill="#F4FD36"/>
<path d="M111.057 80.6802H112.389V82.6602H111.057V85.0002H108.915V82.6602H102.507V80.5362L108.555 72.2202H111.057V80.6802ZM108.915 80.6802V75.3702L105.027 80.6802H108.915Z" fill="#F4FD36"/>
<path d="M83.6931 72.2202C85.0611 72.2202 86.1411 72.5682 86.9331 73.2642C87.7251 73.9602 88.1211 74.9082 88.1211 76.1082C88.1211 76.6842 87.9951 77.2062 87.7431 77.6742C87.4911 78.1422 87.1491 78.5142 86.7171 78.7902C86.2851 79.0542 85.8231 79.1982 85.3311 79.2222L84.7551 79.0422C85.8471 79.0422 86.6391 79.2162 87.1311 79.5642C87.6231 79.9122 87.9051 80.5182 87.9771 81.3822L88.3191 85.0002H86.1231L85.8171 81.5802C85.7691 81.0762 85.5711 80.7162 85.2231 80.5002C84.8871 80.2842 84.3471 80.1762 83.6031 80.1762H81.6771V85.0002H79.5171V72.2202H83.6931ZM83.6391 78.1782C84.3351 78.1782 84.8811 78.0042 85.2771 77.6562C85.6731 77.3082 85.8711 76.8222 85.8711 76.1982C85.8711 75.5862 85.6731 75.1002 85.2771 74.7402C84.8811 74.3802 84.3351 74.2002 83.6391 74.2002H81.6771V78.1782H83.6391Z" fill="#F4FD36"/>
<path d="M71.8919 85.2881C70.8839 85.2881 70.0199 85.0181 69.2999 84.4781C68.5799 83.9261 68.0279 83.1461 67.6439 82.1381C67.2719 81.1301 67.0859 79.9601 67.0859 78.6281C67.0859 77.2841 67.2719 76.1081 67.6439 75.1001C68.0279 74.0921 68.5799 73.3121 69.2999 72.7601C70.0199 72.2081 70.8839 71.9321 71.8919 71.9321C72.8999 71.9321 73.7639 72.2081 74.4839 72.7601C75.2039 73.3121 75.7499 74.0921 76.1219 75.1001C76.5059 76.1081 76.6979 77.2841 76.6979 78.6281C76.6979 79.9601 76.5059 81.1301 76.1219 82.1381C75.7499 83.1461 75.2039 83.9261 74.4839 84.4781C73.7639 85.0181 72.8999 85.2881 71.8919 85.2881ZM71.8919 83.3081C72.4319 83.3081 72.8939 83.1221 73.2779 82.7501C73.6619 82.3781 73.9499 81.8441 74.1419 81.1481C74.3459 80.4521 74.4479 79.6121 74.4479 78.6281C74.4479 77.6321 74.3459 76.7861 74.1419 76.0901C73.9499 75.3821 73.6619 74.8421 73.2779 74.4701C72.8939 74.0981 72.4319 73.9121 71.8919 73.9121C71.3519 73.9121 70.8899 74.0981 70.5059 74.4701C70.1219 74.8421 69.8279 75.3821 69.6239 76.0901C69.4319 76.7861 69.3359 77.6321 69.3359 78.6281C69.3359 79.6121 69.4319 80.4521 69.6239 81.1481C69.8279 81.8441 70.1219 82.3781 70.5059 82.7501C70.8899 83.1221 71.3519 83.3081 71.8919 83.3081Z" fill="#F4FD36"/>
<path d="M59.947 72.2202C61.315 72.2202 62.395 72.5682 63.187 73.2642C63.979 73.9602 64.375 74.9082 64.375 76.1082C64.375 76.6842 64.249 77.2062 63.997 77.6742C63.745 78.1422 63.403 78.5142 62.971 78.7902C62.539 79.0542 62.077 79.1982 61.585 79.2222L61.009 79.0422C62.101 79.0422 62.893 79.2162 63.385 79.5642C63.877 79.9122 64.159 80.5182 64.231 81.3822L64.573 85.0002H62.377L62.071 81.5802C62.023 81.0762 61.825 80.7162 61.477 80.5002C61.141 80.2842 60.601 80.1762 59.857 80.1762H57.931V85.0002H55.771V72.2202H59.947ZM59.893 78.1782C60.589 78.1782 61.135 78.0042 61.531 77.6562C61.927 77.3082 62.125 76.8222 62.125 76.1982C62.125 75.5862 61.927 75.1002 61.531 74.7402C61.135 74.3802 60.589 74.2002 59.893 74.2002H57.931V78.1782H59.893Z" fill="#F4FD36"/>
<path d="M48.0739 72.2202C49.4419 72.2202 50.5219 72.5682 51.3139 73.2642C52.106 73.9602 52.5019 74.9082 52.5019 76.1082C52.5019 76.6842 52.376 77.2062 52.124 77.6742C51.872 78.1422 51.5299 78.5142 51.0979 78.7902C50.666 79.0542 50.2039 79.1982 49.7119 79.2222L49.1359 79.0422C50.2279 79.0422 51.0199 79.2162 51.5119 79.5642C52.0039 79.9122 52.2859 80.5182 52.3579 81.3822L52.7 85.0002H50.504L50.1979 81.5802C50.1499 81.0762 49.9519 80.7162 49.6039 80.5002C49.2679 80.2842 48.7279 80.1762 47.9839 80.1762H46.0579V85.0002H43.8979V72.2202H48.0739ZM48.0199 78.1782C48.7159 78.1782 49.2619 78.0042 49.6579 77.6562C50.0539 77.3082 50.2519 76.8222 50.2519 76.1982C50.2519 75.5862 50.0539 75.1002 49.6579 74.7402C49.2619 74.3802 48.7159 74.2002 48.0199 74.2002H46.0579V78.1782H48.0199Z" fill="#F4FD36"/>
<path d="M40.5933 72.2202V74.2002H34.4193V77.6022H40.3773V79.5822H34.4193V83.0202H40.7373V85.0002H32.2593V72.2202H40.5933Z" fill="#F4FD36"/>
<path d="M25.4801 72.2202V76.0902C25.4801 76.5702 25.4561 77.0982 25.4081 77.6742C25.3601 78.2502 25.3061 78.8622 25.2461 79.5102C25.2101 79.8822 25.1681 80.3622 25.1201 80.9502H23.6801C23.6441 80.3622 23.6021 79.8822 23.5541 79.5102C23.4941 78.8622 23.4401 78.2502 23.3921 77.6742C23.3441 77.0982 23.3201 76.5702 23.3201 76.0902V72.2202H25.4801ZM25.6601 82.5342V85.0002H23.1401V82.5342H25.6601Z" fill="#F4FD36"/>
<defs>
<linearGradient id="paint0_linear_4250_16206" x1="2.74854" y1="78.2975" x2="165.393" y2="78.2975" gradientUnits="userSpaceOnUse">
<stop stop-color="#00FF90"/>
<stop offset="1" stop-color="#F4FD36"/>
</linearGradient>
</defs>
</svg>
