<svg width="400" height="177" viewBox="0 0 400 177" fill="none" xmlns="http://www.w3.org/2000/svg">
<g filter="url(#filter0_ii_2125_4550)">
<path d="M20 8H384L392 16V157L380 169H16L8 161L8 20L20 8Z" fill="black" fill-opacity="0.15"/>
</g>
<path d="M1 81V17L17 1H391L399 9V81" stroke="#009956" stroke-width="0.5"/>
<path d="M1 1V11L11 1H1Z" fill="#00FF90"/>
<path d="M398 2V8L392 2H398Z" fill="#00FF90"/>
<path d="M1 97V168L9 176H383L399 160V97" stroke="#009956" stroke-width="0.5"/>
<path d="M2 175V169L8 175H2Z" fill="#00FF90"/>
<path d="M399 176V166L389 176H399Z" fill="#00FF90"/>
<path fill-rule="evenodd" clip-rule="evenodd" d="M364.946 14C365.889 14 366.656 14.7912 366.656 15.7642C366.656 16.7372 365.889 17.5317 364.946 17.5317C364.003 17.5317 363.234 16.7405 363.234 15.7642C363.234 14.7878 364 14 364.946 14ZM350.602 14C351.545 14 352.312 14.7912 352.312 15.7642C352.312 16.7372 351.545 17.5317 350.602 17.5317C349.659 17.5317 348.893 16.7405 348.893 15.7642C348.893 14.7878 349.656 14 350.602 14ZM336.258 14C337.204 14 337.967 14.7912 337.967 15.7642C337.967 16.7372 337.204 17.5317 336.258 17.5317C335.312 17.5317 334.549 16.7405 334.549 15.7642C334.549 14.7878 335.315 14 336.258 14ZM321.917 14C322.86 14 323.626 14.7912 323.626 15.7642C323.626 16.7372 322.86 17.5317 321.917 17.5317C320.974 17.5317 320.204 16.7405 320.204 15.7642C320.204 14.7878 320.971 14 321.917 14ZM307.573 14C308.516 14 309.282 14.7912 309.282 15.7642C309.282 16.7372 308.516 17.5317 307.573 17.5317C306.63 17.5317 305.863 16.7405 305.863 15.7642C305.863 14.7878 306.627 14 307.573 14ZM293.229 14C294.175 14 294.938 14.7912 294.938 15.7642C294.938 16.7372 294.175 17.5317 293.229 17.5317C292.283 17.5317 291.519 16.7405 291.519 15.7642C291.519 14.7878 292.283 14 293.229 14ZM278.888 14C279.834 14 280.6 14.7912 280.6 15.7642C280.6 16.7372 279.834 17.5317 278.888 17.5317C277.942 17.5317 277.178 16.7405 277.178 15.7642C277.178 14.7878 277.945 14 278.888 14ZM264.544 14C265.486 14 266.253 14.7912 266.253 15.7642C266.253 16.7372 265.486 17.5317 264.544 17.5317C263.601 17.5317 262.831 16.7405 262.831 15.7642C262.831 14.7878 263.598 14 264.544 14ZM250.2 14C251.142 14 251.909 14.7912 251.909 15.7642C251.909 16.7372 251.142 17.5317 250.2 17.5317C249.257 17.5317 248.49 16.7405 248.49 15.7642C248.49 14.7878 249.253 14 250.2 14ZM235.859 14C236.805 14 237.568 14.7912 237.568 15.7642C237.568 16.7372 236.805 17.5317 235.859 17.5317C234.913 17.5317 234.149 16.7405 234.149 15.7642C234.149 14.7878 234.913 14 235.859 14ZM221.514 14C222.46 14 223.227 14.7912 223.227 15.7642C223.227 16.7372 222.46 17.5317 221.514 17.5317C220.568 17.5317 219.805 16.7405 219.805 15.7642C219.805 14.7878 220.572 14 221.514 14ZM207.17 14C208.113 14 208.88 14.7912 208.88 15.7642C208.88 16.7372 208.113 17.5317 207.17 17.5317C206.227 17.5317 205.461 16.7405 205.461 15.7642C205.461 14.7878 206.224 14 207.17 14ZM192.829 14C193.775 14 194.539 14.7912 194.539 15.7642C194.539 16.7372 193.775 17.5317 192.829 17.5317C191.883 17.5317 191.12 16.7405 191.12 15.7642C191.12 14.7878 191.887 14 192.829 14ZM178.485 14C179.431 14 180.195 14.7912 180.195 15.7642C180.195 16.7372 179.431 17.5317 178.485 17.5317C177.539 17.5317 176.776 16.7405 176.776 15.7642C176.776 14.7878 177.542 14 178.485 14ZM164.141 14C165.084 14 165.85 14.7912 165.85 15.7642C165.85 16.7372 165.084 17.5317 164.141 17.5317C163.198 17.5317 162.428 16.7405 162.428 15.7642C162.428 14.7878 163.195 14 164.141 14ZM149.8 14C150.743 14 151.51 14.7912 151.51 15.7642C151.51 16.7372 150.743 17.5317 149.8 17.5317C148.857 17.5317 148.091 16.7405 148.091 15.7642C148.091 14.7878 148.854 14 149.8 14ZM135.456 14C136.402 14 137.165 14.7912 137.165 15.7642C137.165 16.7372 136.402 17.5317 135.456 17.5317C134.51 17.5317 133.747 16.7405 133.747 15.7642C133.747 14.7878 134.513 14 135.456 14ZM121.112 14C122.058 14 122.825 14.7912 122.825 15.7642C122.825 16.7372 122.058 17.5317 121.112 17.5317C120.166 17.5317 119.402 16.7405 119.402 15.7642C119.402 14.7878 120.169 14 121.112 14ZM106.771 14C107.714 14 108.48 14.7912 108.48 15.7642C108.48 16.7372 107.714 17.5317 106.771 17.5317C105.828 17.5317 105.058 16.7405 105.058 15.7642C105.058 14.7878 105.825 14 106.771 14ZM92.4268 14C93.3696 14 94.1362 14.7912 94.1362 15.7642C94.1362 16.7372 93.3696 17.5317 92.4268 17.5317C91.484 17.5317 90.7174 16.7405 90.7174 15.7642C90.7174 14.7878 91.4807 14 92.4268 14ZM78.0826 14C79.0287 14 79.7921 14.7912 79.7921 15.7642C79.7921 16.7372 79.0287 17.5317 78.0826 17.5317C77.1366 17.5317 76.3732 16.7405 76.3732 15.7642C76.3732 14.7878 77.1398 14 78.0826 14ZM63.7417 14C64.6845 14 65.4512 14.7912 65.4512 15.7642C65.4512 16.7372 64.6845 17.5317 63.7417 17.5317C62.7989 17.5317 62.0291 16.7405 62.0291 15.7642C62.0291 14.7878 62.7957 14 63.7417 14ZM49.3976 14C50.3436 14 51.107 14.7912 51.107 15.7642C51.107 16.7372 50.3436 17.5317 49.3976 17.5317C48.4515 17.5317 47.6882 16.7405 47.6882 15.7642C47.6882 14.7878 48.4515 14 49.3976 14ZM35.0534 14C35.9995 14 36.7628 14.7912 36.7628 15.7642C36.7628 16.7372 35.9995 17.5317 35.0534 17.5317C34.1074 17.5317 33.344 16.7405 33.344 15.7642C33.344 14.7878 34.1106 14 35.0534 14ZM366.656 27.7642C366.656 26.7912 365.889 26 364.946 26C364 26 363.234 26.7878 363.234 27.7642C363.234 28.7405 364.003 29.5317 364.946 29.5317C365.889 29.5317 366.656 28.7372 366.656 27.7642ZM352.312 27.7642C352.312 26.7912 351.545 26 350.602 26C349.656 26 348.893 26.7878 348.893 27.7642C348.893 28.7405 349.659 29.5317 350.602 29.5317C351.545 29.5317 352.312 28.7372 352.312 27.7642ZM337.967 27.7642C337.967 26.7912 337.204 26 336.258 26C335.315 26 334.549 26.7878 334.549 27.7642C334.549 28.7405 335.312 29.5317 336.258 29.5317C337.204 29.5317 337.967 28.7372 337.967 27.7642ZM323.626 27.7642C323.626 26.7912 322.86 26 321.917 26C320.971 26 320.204 26.7878 320.204 27.7642C320.204 28.7405 320.974 29.5317 321.917 29.5317C322.86 29.5317 323.626 28.7372 323.626 27.7642ZM309.282 27.7642C309.282 26.7912 308.516 26 307.573 26C306.627 26 305.863 26.7878 305.863 27.7642C305.863 28.7405 306.63 29.5317 307.573 29.5317C308.516 29.5317 309.282 28.7372 309.282 27.7642ZM294.938 27.7642C294.938 26.7912 294.175 26 293.229 26C292.283 26 291.519 26.7878 291.519 27.7642C291.519 28.7405 292.283 29.5317 293.229 29.5317C294.175 29.5317 294.938 28.7372 294.938 27.7642ZM280.6 27.7642C280.6 26.7912 279.834 26 278.888 26C277.945 26 277.178 26.7878 277.178 27.7642C277.178 28.7405 277.942 29.5317 278.888 29.5317C279.834 29.5317 280.6 28.7372 280.6 27.7642ZM266.253 27.7642C266.253 26.7912 265.486 26 264.544 26C263.598 26 262.831 26.7878 262.831 27.7642C262.831 28.7405 263.601 29.5317 264.544 29.5317C265.486 29.5317 266.253 28.7372 266.253 27.7642ZM251.909 27.7642C251.909 26.7912 251.142 26 250.2 26C249.253 26 248.49 26.7878 248.49 27.7642C248.49 28.7405 249.257 29.5317 250.2 29.5317C251.142 29.5317 251.909 28.7372 251.909 27.7642ZM237.568 27.7642C237.568 26.7912 236.805 26 235.859 26C234.913 26 234.149 26.7878 234.149 27.7642C234.149 28.7405 234.913 29.5317 235.859 29.5317C236.805 29.5317 237.568 28.7372 237.568 27.7642ZM223.227 27.7642C223.227 26.7912 222.46 26 221.514 26C220.572 26 219.805 26.7878 219.805 27.7642C219.805 28.7405 220.568 29.5317 221.514 29.5317C222.46 29.5317 223.227 28.7372 223.227 27.7642ZM208.88 27.7642C208.88 26.7912 208.113 26 207.17 26C206.224 26 205.461 26.7878 205.461 27.7642C205.461 28.7405 206.227 29.5317 207.17 29.5317C208.113 29.5317 208.88 28.7372 208.88 27.7642ZM194.539 27.7642C194.539 26.7912 193.775 26 192.829 26C191.887 26 191.12 26.7878 191.12 27.7642C191.12 28.7405 191.883 29.5317 192.829 29.5317C193.775 29.5317 194.539 28.7372 194.539 27.7642ZM180.195 27.7642C180.195 26.7912 179.431 26 178.485 26C177.542 26 176.776 26.7878 176.776 27.7642C176.776 28.7405 177.539 29.5317 178.485 29.5317C179.431 29.5317 180.195 28.7372 180.195 27.7642ZM165.85 27.7642C165.85 26.7912 165.084 26 164.141 26C163.195 26 162.428 26.7878 162.428 27.7642C162.428 28.7405 163.198 29.5317 164.141 29.5317C165.084 29.5317 165.85 28.7372 165.85 27.7642ZM151.51 27.7642C151.51 26.7912 150.743 26 149.8 26C148.854 26 148.091 26.7878 148.091 27.7642C148.091 28.7405 148.857 29.5317 149.8 29.5317C150.743 29.5317 151.51 28.7372 151.51 27.7642ZM137.165 27.7642C137.165 26.7912 136.402 26 135.456 26C134.513 26 133.747 26.7878 133.747 27.7642C133.747 28.7405 134.51 29.5317 135.456 29.5317C136.402 29.5317 137.165 28.7372 137.165 27.7642ZM122.825 27.7642C122.825 26.7912 122.058 26 121.112 26C120.169 26 119.402 26.7878 119.402 27.7642C119.402 28.7405 120.166 29.5317 121.112 29.5317C122.058 29.5317 122.825 28.7372 122.825 27.7642ZM108.48 27.7642C108.48 26.7912 107.714 26 106.771 26C105.825 26 105.058 26.7878 105.058 27.7642C105.058 28.7405 105.828 29.5317 106.771 29.5317C107.714 29.5317 108.48 28.7372 108.48 27.7642ZM94.1362 27.7642C94.1362 26.7912 93.3696 26 92.4268 26C91.4807 26 90.7174 26.7878 90.7174 27.7642C90.7174 28.7405 91.484 29.5317 92.4268 29.5317C93.3696 29.5317 94.1362 28.7372 94.1362 27.7642ZM79.7921 27.7642C79.7921 26.7912 79.0287 26 78.0826 26C77.1398 26 76.3732 26.7878 76.3732 27.7642C76.3732 28.7405 77.1366 29.5317 78.0826 29.5317C79.0287 29.5317 79.7921 28.7372 79.7921 27.7642ZM65.4512 27.7642C65.4512 26.7912 64.6845 26 63.7417 26C62.7957 26 62.0291 26.7878 62.0291 27.7642C62.0291 28.7405 62.7989 29.5317 63.7417 29.5317C64.6845 29.5317 65.4512 28.7372 65.4512 27.7642ZM51.107 27.7642C51.107 26.7912 50.3436 26 49.3976 26C48.4515 26 47.6882 26.7878 47.6882 27.7642C47.6882 28.7405 48.4515 29.5317 49.3976 29.5317C50.3436 29.5317 51.107 28.7372 51.107 27.7642ZM36.7628 27.7642C36.7628 26.7912 35.9995 26 35.0534 26C34.1106 26 33.344 26.7878 33.344 27.7642C33.344 28.7405 34.1074 29.5317 35.0534 29.5317C35.9995 29.5317 36.7628 28.7372 36.7628 27.7642ZM366.656 39.7642C366.656 38.7912 365.889 38 364.946 38C364 38 363.234 38.7878 363.234 39.7642C363.234 40.7405 364.003 41.5317 364.946 41.5317C365.889 41.5317 366.656 40.7372 366.656 39.7642ZM352.312 39.7642C352.312 38.7912 351.545 38 350.602 38C349.656 38 348.893 38.7878 348.893 39.7642C348.893 40.7405 349.659 41.5317 350.602 41.5317C351.545 41.5317 352.312 40.7372 352.312 39.7642ZM337.967 39.7642C337.967 38.7912 337.204 38 336.258 38C335.315 38 334.549 38.7878 334.549 39.7642C334.549 40.7405 335.312 41.5317 336.258 41.5317C337.204 41.5317 337.967 40.7372 337.967 39.7642ZM323.626 39.7642C323.626 38.7912 322.86 38 321.917 38C320.971 38 320.204 38.7878 320.204 39.7642C320.204 40.7405 320.974 41.5317 321.917 41.5317C322.86 41.5317 323.626 40.7372 323.626 39.7642ZM309.282 39.7642C309.282 38.7912 308.516 38 307.573 38C306.627 38 305.863 38.7878 305.863 39.7642C305.863 40.7405 306.63 41.5317 307.573 41.5317C308.516 41.5317 309.282 40.7372 309.282 39.7642ZM294.938 39.7642C294.938 38.7912 294.175 38 293.229 38C292.283 38 291.519 38.7878 291.519 39.7642C291.519 40.7405 292.283 41.5317 293.229 41.5317C294.175 41.5317 294.938 40.7372 294.938 39.7642ZM280.601 39.7642C280.601 38.7912 279.834 38 278.888 38C277.945 38 277.178 38.7878 277.178 39.7642C277.178 40.7405 277.942 41.5317 278.888 41.5317C279.834 41.5317 280.601 40.7372 280.601 39.7642ZM266.253 39.7642C266.253 38.7912 265.486 38 264.544 38C263.598 38 262.831 38.7878 262.831 39.7642C262.831 40.7405 263.601 41.5317 264.544 41.5317C265.486 41.5317 266.253 40.7372 266.253 39.7642ZM251.909 39.7642C251.909 38.7912 251.142 38 250.2 38C249.253 38 248.49 38.7878 248.49 39.7642C248.49 40.7405 249.257 41.5317 250.2 41.5317C251.142 41.5317 251.909 40.7372 251.909 39.7642ZM237.568 39.7642C237.568 38.7912 236.805 38 235.859 38C234.913 38 234.149 38.7878 234.149 39.7642C234.149 40.7405 234.913 41.5317 235.859 41.5317C236.805 41.5317 237.568 40.7372 237.568 39.7642ZM223.227 39.7642C223.227 38.7912 222.46 38 221.514 38C220.572 38 219.805 38.7878 219.805 39.7642C219.805 40.7405 220.568 41.5317 221.514 41.5317C222.46 41.5317 223.227 40.7372 223.227 39.7642ZM208.88 39.7642C208.88 38.7912 208.113 38 207.17 38C206.224 38 205.461 38.7878 205.461 39.7642C205.461 40.7405 206.227 41.5317 207.17 41.5317C208.113 41.5317 208.88 40.7372 208.88 39.7642ZM194.539 39.7642C194.539 38.7912 193.775 38 192.829 38C191.887 38 191.12 38.7878 191.12 39.7642C191.12 40.7405 191.883 41.5317 192.829 41.5317C193.775 41.5317 194.539 40.7372 194.539 39.7642ZM180.195 39.7642C180.195 38.7912 179.431 38 178.485 38C177.542 38 176.776 38.7878 176.776 39.7642C176.776 40.7405 177.539 41.5317 178.485 41.5317C179.431 41.5317 180.195 40.7372 180.195 39.7642ZM165.85 39.7642C165.85 38.7912 165.084 38 164.141 38C163.195 38 162.428 38.7878 162.428 39.7642C162.428 40.7405 163.198 41.5317 164.141 41.5317C165.084 41.5317 165.85 40.7372 165.85 39.7642ZM151.51 39.7642C151.51 38.7912 150.743 38 149.8 38C148.854 38 148.091 38.7878 148.091 39.7642C148.091 40.7405 148.857 41.5317 149.8 41.5317C150.743 41.5317 151.51 40.7372 151.51 39.7642ZM137.165 39.7642C137.165 38.7912 136.402 38 135.456 38C134.513 38 133.747 38.7878 133.747 39.7642C133.747 40.7405 134.51 41.5317 135.456 41.5317C136.402 41.5317 137.165 40.7372 137.165 39.7642ZM122.825 39.7642C122.825 38.7912 122.058 38 121.112 38C120.169 38 119.402 38.7878 119.402 39.7642C119.402 40.7405 120.166 41.5317 121.112 41.5317C122.058 41.5317 122.825 40.7372 122.825 39.7642ZM108.48 39.7642C108.48 38.7912 107.714 38 106.771 38C105.825 38 105.058 38.7878 105.058 39.7642C105.058 40.7405 105.828 41.5317 106.771 41.5317C107.714 41.5317 108.48 40.7372 108.48 39.7642ZM94.1362 39.7642C94.1362 38.7912 93.3696 38 92.4268 38C91.4807 38 90.7174 38.7878 90.7174 39.7642C90.7174 40.7405 91.484 41.5317 92.4268 41.5317C93.3696 41.5317 94.1362 40.7372 94.1362 39.7642ZM79.7921 39.7642C79.7921 38.7912 79.0287 38 78.0826 38C77.1398 38 76.3732 38.7878 76.3732 39.7642C76.3732 40.7405 77.1366 41.5317 78.0826 41.5317C79.0287 41.5317 79.7921 40.7372 79.7921 39.7642ZM65.4512 39.7642C65.4512 38.7912 64.6845 38 63.7417 38C62.7957 38 62.0291 38.7878 62.0291 39.7642C62.0291 40.7405 62.7989 41.5317 63.7417 41.5317C64.6845 41.5317 65.4512 40.7372 65.4512 39.7642ZM51.107 39.7642C51.107 38.7912 50.3436 38 49.3976 38C48.4515 38 47.6882 38.7878 47.6882 39.7642C47.6882 40.7405 48.4515 41.5317 49.3976 41.5317C50.3436 41.5317 51.107 40.7372 51.107 39.7642ZM36.7628 39.7642C36.7628 38.7912 35.9995 38 35.0534 38C34.1106 38 33.344 38.7878 33.344 39.7642C33.344 40.7405 34.1074 41.5317 35.0534 41.5317C35.9995 41.5317 36.7628 40.7372 36.7628 39.7642ZM381 50.3593C381 49.3863 380.233 48.5951 379.287 48.5951C378.345 48.5951 377.578 49.3829 377.578 50.3593C377.578 51.3356 378.341 52.1268 379.287 52.1268C380.233 52.1268 381 51.3323 381 50.3593ZM366.656 50.3593C366.656 49.3863 365.889 48.5951 364.946 48.5951C364 48.5951 363.234 49.3829 363.234 50.3593C363.234 51.3356 364.004 52.1268 364.946 52.1268C365.889 52.1268 366.656 51.3323 366.656 50.3593ZM352.312 50.3593C352.312 49.3863 351.545 48.5951 350.602 48.5951C349.656 48.5951 348.893 49.3829 348.893 50.3593C348.893 51.3356 349.659 52.1268 350.602 52.1268C351.545 52.1268 352.312 51.3323 352.312 50.3593ZM337.968 50.3593C337.968 49.3863 337.204 48.5951 336.258 48.5951C335.315 48.5951 334.549 49.3829 334.549 50.3593C334.549 51.3356 335.312 52.1268 336.258 52.1268C337.204 52.1268 337.968 51.3323 337.968 50.3593ZM323.627 50.3593C323.627 49.3863 322.86 48.5951 321.917 48.5951C320.971 48.5951 320.205 49.3829 320.205 50.3593C320.205 51.3356 320.974 52.1268 321.917 52.1268C322.86 52.1268 323.627 51.3323 323.627 50.3593ZM309.282 50.3593C309.282 49.3863 308.516 48.5951 307.573 48.5951C306.627 48.5951 305.864 49.3829 305.864 50.3593C305.864 51.3356 306.63 52.1268 307.573 52.1268C308.516 52.1268 309.282 51.3323 309.282 50.3593ZM294.938 50.3593C294.938 49.3863 294.175 48.5951 293.229 48.5951C292.283 48.5951 291.519 49.3829 291.519 50.3593C291.519 51.3356 292.283 52.1268 293.229 52.1268C294.175 52.1268 294.938 51.3323 294.938 50.3593ZM280.601 50.3593C280.601 49.3863 279.834 48.5951 278.888 48.5951C277.945 48.5951 277.179 49.3829 277.179 50.3593C277.179 51.3356 277.942 52.1268 278.888 52.1268C279.834 52.1268 280.601 51.3323 280.601 50.3593ZM266.253 50.3593C266.253 49.3863 265.487 48.5951 264.544 48.5951C263.598 48.5951 262.831 49.3829 262.831 50.3593C262.831 51.3356 263.601 52.1268 264.544 52.1268C265.487 52.1268 266.253 51.3323 266.253 50.3593ZM251.909 50.3593C251.909 49.3863 251.142 48.5951 250.2 48.5951C249.254 48.5951 248.49 49.3829 248.49 50.3593C248.49 51.3356 249.257 52.1268 250.2 52.1268C251.142 52.1268 251.909 51.3323 251.909 50.3593ZM237.568 50.3593C237.568 49.3863 236.805 48.5951 235.859 48.5951C234.913 48.5951 234.149 49.3829 234.149 50.3593C234.149 51.3356 234.913 52.1268 235.859 52.1268C236.805 52.1268 237.568 51.3323 237.568 50.3593ZM223.227 50.3593C223.227 49.3863 222.461 48.5951 221.515 48.5951C220.572 48.5951 219.805 49.3829 219.805 50.3593C219.805 51.3356 220.569 52.1268 221.515 52.1268C222.461 52.1268 223.227 51.3323 223.227 50.3593ZM208.88 50.3593C208.88 49.3863 208.113 48.5951 207.17 48.5951C206.224 48.5951 205.461 49.3829 205.461 50.3593C205.461 51.3356 206.228 52.1268 207.17 52.1268C208.113 52.1268 208.88 51.3323 208.88 50.3593ZM194.539 50.3593C194.539 49.3863 193.776 48.5951 192.83 48.5951C191.887 48.5951 191.12 49.3829 191.12 50.3593C191.12 51.3356 191.883 52.1268 192.83 52.1268C193.776 52.1268 194.539 51.3323 194.539 50.3593ZM180.195 50.3593C180.195 49.3863 179.431 48.5951 178.485 48.5951C177.543 48.5951 176.776 49.3829 176.776 50.3593C176.776 51.3356 177.539 52.1268 178.485 52.1268C179.431 52.1268 180.195 51.3323 180.195 50.3593ZM165.851 50.3593C165.851 49.3863 165.084 48.5951 164.141 48.5951C163.195 48.5951 162.429 49.3829 162.429 50.3593C162.429 51.3356 163.198 52.1268 164.141 52.1268C165.084 52.1268 165.851 51.3323 165.851 50.3593ZM151.51 50.3593C151.51 49.3863 150.743 48.5951 149.8 48.5951C148.854 48.5951 148.091 49.3829 148.091 50.3593C148.091 51.3356 148.858 52.1268 149.8 52.1268C150.743 52.1268 151.51 51.3323 151.51 50.3593ZM137.166 50.3593C137.166 49.3863 136.402 48.5951 135.456 48.5951C134.513 48.5951 133.747 49.3829 133.747 50.3593C133.747 51.3356 134.51 52.1268 135.456 52.1268C136.402 52.1268 137.166 51.3323 137.166 50.3593ZM122.825 50.3593C122.825 49.3863 122.058 48.5951 121.112 48.5951C120.169 48.5951 119.403 49.3829 119.403 50.3593C119.403 51.3356 120.166 52.1268 121.112 52.1268C122.058 52.1268 122.825 51.3323 122.825 50.3593ZM108.481 50.3593C108.481 49.3863 107.714 48.5951 106.771 48.5951C105.825 48.5951 105.058 49.3829 105.058 50.3593C105.058 51.3356 105.828 52.1268 106.771 52.1268C107.714 52.1268 108.481 51.3323 108.481 50.3593ZM94.1364 50.3593C94.1364 49.3863 93.3698 48.5951 92.427 48.5951C91.4809 48.5951 90.7175 49.3829 90.7175 50.3593C90.7175 51.3356 91.4842 52.1268 92.427 52.1268C93.3698 52.1268 94.1364 51.3323 94.1364 50.3593ZM79.7922 50.3593C79.7922 49.3863 79.0289 48.5951 78.0828 48.5951C77.14 48.5951 76.3734 49.3829 76.3734 50.3593C76.3734 51.3356 77.1367 52.1268 78.0828 52.1268C79.0289 52.1268 79.7922 51.3323 79.7922 50.3593ZM65.4513 50.3593C65.4513 49.3863 64.6847 48.5951 63.7419 48.5951C62.7958 48.5951 62.0292 49.3829 62.0292 50.3593C62.0292 51.3356 62.7991 52.1268 63.7419 52.1268C64.6847 52.1268 65.4513 51.3323 65.4513 50.3593ZM51.1072 50.3593C51.1072 49.3863 50.3438 48.5951 49.3977 48.5951C48.4517 48.5951 47.6883 49.3829 47.6883 50.3593C47.6883 51.3356 48.4517 52.1268 49.3977 52.1268C50.3438 52.1268 51.1072 51.3323 51.1072 50.3593ZM36.763 50.3593C36.763 49.3863 35.9996 48.5951 35.0536 48.5951C34.1108 48.5951 33.3442 49.3829 33.3442 50.3593C33.3442 51.3356 34.1075 52.1268 35.0536 52.1268C35.9996 52.1268 36.763 51.3323 36.763 50.3593ZM22.4221 50.3593C22.4221 49.3863 21.6555 48.5951 20.7094 48.5951C19.7666 48.5951 19 49.3829 19 50.3593C19 51.3356 19.7634 52.1268 20.7094 52.1268C21.6555 52.1268 22.4221 51.3323 22.4221 50.3593ZM379.287 60.0731C380.233 60.0731 381 60.8643 381 61.8407C381 62.817 380.233 63.6048 379.287 63.6048C378.341 63.6048 377.578 62.8136 377.578 61.8407C377.578 60.8677 378.345 60.0731 379.287 60.0731ZM364.946 60.0731C365.889 60.0731 366.656 60.8643 366.656 61.8407C366.656 62.817 365.889 63.6048 364.946 63.6048C364.004 63.6048 363.234 62.8136 363.234 61.8407C363.234 60.8677 364 60.0731 364.946 60.0731ZM350.602 60.0731C351.545 60.0731 352.312 60.8643 352.312 61.8407C352.312 62.817 351.545 63.6048 350.602 63.6048C349.659 63.6048 348.893 62.8136 348.893 61.8407C348.893 60.8677 349.656 60.0731 350.602 60.0731ZM336.258 60.0731C337.204 60.0731 337.968 60.8643 337.968 61.8407C337.968 62.817 337.204 63.6048 336.258 63.6048C335.312 63.6048 334.549 62.8136 334.549 61.8407C334.549 60.8677 335.315 60.0731 336.258 60.0731ZM321.917 60.0731C322.86 60.0731 323.627 60.8643 323.627 61.8407C323.627 62.817 322.86 63.6048 321.917 63.6048C320.974 63.6048 320.205 62.8136 320.205 61.8407C320.205 60.8677 320.971 60.0731 321.917 60.0731ZM307.573 60.0731C308.516 60.0731 309.282 60.8643 309.282 61.8407C309.282 62.817 308.516 63.6048 307.573 63.6048C306.63 63.6048 305.864 62.8136 305.864 61.8407C305.864 60.8677 306.627 60.0731 307.573 60.0731ZM293.229 60.0731C294.175 60.0731 294.938 60.8643 294.938 61.8407C294.938 62.817 294.175 63.6048 293.229 63.6048C292.283 63.6048 291.519 62.8136 291.519 61.8407C291.519 60.8677 292.283 60.0731 293.229 60.0731ZM278.888 60.0731C279.834 60.0731 280.601 60.8643 280.601 61.8407C280.601 62.817 279.834 63.6048 278.888 63.6048C277.942 63.6048 277.179 62.8136 277.179 61.8407C277.179 60.8677 277.945 60.0731 278.888 60.0731ZM264.544 60.0731C265.487 60.0731 266.253 60.8643 266.253 61.8407C266.253 62.817 265.487 63.6048 264.544 63.6048C263.601 63.6048 262.831 62.8136 262.831 61.8407C262.831 60.8677 263.598 60.0731 264.544 60.0731ZM250.2 60.0731C251.142 60.0731 251.909 60.8643 251.909 61.8407C251.909 62.817 251.142 63.6048 250.2 63.6048C249.257 63.6048 248.49 62.8136 248.49 61.8407C248.49 60.8677 249.254 60.0731 250.2 60.0731ZM235.859 60.0731C236.805 60.0731 237.568 60.8643 237.568 61.8407C237.568 62.817 236.805 63.6048 235.859 63.6048C234.913 63.6048 234.149 62.8136 234.149 61.8407C234.149 60.8677 234.913 60.0731 235.859 60.0731ZM221.515 60.0731C222.461 60.0731 223.227 60.8643 223.227 61.8407C223.227 62.817 222.461 63.6048 221.515 63.6048C220.569 63.6048 219.805 62.8136 219.805 61.8407C219.805 60.8677 220.572 60.0731 221.515 60.0731ZM207.17 60.0731C208.113 60.0731 208.88 60.8643 208.88 61.8407C208.88 62.817 208.113 63.6048 207.17 63.6048C206.228 63.6048 205.461 62.8136 205.461 61.8407C205.461 60.8677 206.224 60.0731 207.17 60.0731ZM192.83 60.0731C193.776 60.0731 194.539 60.8643 194.539 61.8407C194.539 62.817 193.776 63.6048 192.83 63.6048C191.883 63.6048 191.12 62.8136 191.12 61.8407C191.12 60.8677 191.887 60.0731 192.83 60.0731ZM178.485 60.0731C179.431 60.0731 180.195 60.8643 180.195 61.8407C180.195 62.817 179.431 63.6048 178.485 63.6048C177.539 63.6048 176.776 62.8136 176.776 61.8407C176.776 60.8677 177.543 60.0731 178.485 60.0731ZM164.141 60.0731C165.084 60.0731 165.851 60.8643 165.851 61.8407C165.851 62.817 165.084 63.6048 164.141 63.6048C163.198 63.6048 162.429 62.8136 162.429 61.8407C162.429 60.8677 163.195 60.0731 164.141 60.0731ZM149.8 60.0731C150.743 60.0731 151.51 60.8643 151.51 61.8407C151.51 62.817 150.743 63.6048 149.8 63.6048C148.858 63.6048 148.091 62.8136 148.091 61.8407C148.091 60.8677 148.854 60.0731 149.8 60.0731ZM135.456 60.0731C136.402 60.0731 137.166 60.8643 137.166 61.8407C137.166 62.817 136.402 63.6048 135.456 63.6048C134.51 63.6048 133.747 62.8136 133.747 61.8407C133.747 60.8677 134.513 60.0731 135.456 60.0731ZM121.112 60.0731C122.058 60.0731 122.825 60.8643 122.825 61.8407C122.825 62.817 122.058 63.6048 121.112 63.6048C120.166 63.6048 119.403 62.8136 119.403 61.8407C119.403 60.8677 120.169 60.0731 121.112 60.0731ZM106.771 60.0731C107.714 60.0731 108.481 60.8643 108.481 61.8407C108.481 62.817 107.714 63.6048 106.771 63.6048C105.828 63.6048 105.058 62.8136 105.058 61.8407C105.058 60.8677 105.825 60.0731 106.771 60.0731ZM92.427 60.0731C93.3698 60.0731 94.1364 60.8643 94.1364 61.8407C94.1364 62.817 93.3698 63.6048 92.427 63.6048C91.4842 63.6048 90.7175 62.8136 90.7175 61.8407C90.7175 60.8677 91.4809 60.0731 92.427 60.0731ZM78.0828 60.0731C79.0289 60.0731 79.7922 60.8643 79.7922 61.8407C79.7922 62.817 79.0289 63.6048 78.0828 63.6048C77.1367 63.6048 76.3734 62.8136 76.3734 61.8407C76.3734 60.8677 77.14 60.0731 78.0828 60.0731ZM63.7419 60.0731C64.6847 60.0731 65.4513 60.8643 65.4513 61.8407C65.4513 62.817 64.6847 63.6048 63.7419 63.6048C62.7991 63.6048 62.0292 62.8136 62.0292 61.8407C62.0292 60.8677 62.7958 60.0731 63.7419 60.0731ZM49.3977 60.0731C50.3438 60.0731 51.1072 60.8643 51.1072 61.8407C51.1072 62.817 50.3438 63.6048 49.3977 63.6048C48.4517 63.6048 47.6883 62.8136 47.6883 61.8407C47.6883 60.8677 48.4517 60.0731 49.3977 60.0731ZM35.0536 60.0731C35.9996 60.0731 36.763 60.8643 36.763 61.8407C36.763 62.817 35.9996 63.6048 35.0536 63.6048C34.1075 63.6048 33.3442 62.8136 33.3442 61.8407C33.3442 60.8677 34.1108 60.0731 35.0536 60.0731ZM20.7094 60.0731C21.6555 60.0731 22.4221 60.8643 22.4221 61.8407C22.4221 62.817 21.6555 63.6048 20.7094 63.6048C19.7634 63.6048 19 62.8136 19 61.8407C19 60.8677 19.7666 60.0731 20.7094 60.0731ZM381 72.4359C381 71.4595 380.233 70.6683 379.287 70.6683C378.345 70.6683 377.578 71.4629 377.578 72.4359C377.578 73.4089 378.341 74.2 379.287 74.2C380.233 74.2 381 73.4122 381 72.4359ZM366.656 72.4359C366.656 71.4595 365.889 70.6683 364.946 70.6683C364 70.6683 363.234 71.4629 363.234 72.4359C363.234 73.4089 364.004 74.2 364.946 74.2C365.889 74.2 366.656 73.4122 366.656 72.4359ZM352.312 72.4359C352.312 71.4595 351.545 70.6683 350.602 70.6683C349.656 70.6683 348.893 71.4629 348.893 72.4359C348.893 73.4089 349.659 74.2 350.602 74.2C351.545 74.2 352.312 73.4122 352.312 72.4359ZM337.968 72.4359C337.968 71.4595 337.204 70.6683 336.258 70.6683C335.315 70.6683 334.549 71.4629 334.549 72.4359C334.549 73.4089 335.312 74.2 336.258 74.2C337.204 74.2 337.968 73.4122 337.968 72.4359ZM323.627 72.4359C323.627 71.4595 322.86 70.6683 321.917 70.6683C320.971 70.6683 320.205 71.4629 320.205 72.4359C320.205 73.4089 320.974 74.2 321.917 74.2C322.86 74.2 323.627 73.4122 323.627 72.4359ZM309.282 72.4359C309.282 71.4595 308.516 70.6683 307.573 70.6683C306.627 70.6683 305.864 71.4629 305.864 72.4359C305.864 73.4089 306.63 74.2 307.573 74.2C308.516 74.2 309.282 73.4122 309.282 72.4359ZM294.938 72.4359C294.938 71.4595 294.175 70.6683 293.229 70.6683C292.283 70.6683 291.519 71.4629 291.519 72.4359C291.519 73.4089 292.283 74.2 293.229 74.2C294.175 74.2 294.938 73.4122 294.938 72.4359ZM280.601 72.4359C280.601 71.4595 279.834 70.6683 278.888 70.6683C277.945 70.6683 277.179 71.4629 277.179 72.4359C277.179 73.4089 277.942 74.2 278.888 74.2C279.834 74.2 280.601 73.4122 280.601 72.4359ZM266.253 72.4359C266.253 71.4595 265.487 70.6683 264.544 70.6683C263.598 70.6683 262.831 71.4629 262.831 72.4359C262.831 73.4089 263.601 74.2 264.544 74.2C265.487 74.2 266.253 73.4122 266.253 72.4359ZM251.909 72.4359C251.909 71.4595 251.142 70.6683 250.2 70.6683C249.254 70.6683 248.49 71.4629 248.49 72.4359C248.49 73.4089 249.257 74.2 250.2 74.2C251.142 74.2 251.909 73.4122 251.909 72.4359ZM237.568 72.4359C237.568 71.4595 236.805 70.6683 235.859 70.6683C234.913 70.6683 234.149 71.4629 234.149 72.4359C234.149 73.4089 234.913 74.2 235.859 74.2C236.805 74.2 237.568 73.4122 237.568 72.4359ZM223.227 72.4359C223.227 71.4595 222.461 70.6683 221.515 70.6683C220.572 70.6683 219.805 71.4629 219.805 72.4359C219.805 73.4089 220.569 74.2 221.515 74.2C222.461 74.2 223.227 73.4122 223.227 72.4359ZM208.88 72.4359C208.88 71.4595 208.113 70.6683 207.17 70.6683C206.224 70.6683 205.461 71.4629 205.461 72.4359C205.461 73.4089 206.228 74.2 207.17 74.2C208.113 74.2 208.88 73.4122 208.88 72.4359ZM194.539 72.4359C194.539 71.4595 193.776 70.6683 192.83 70.6683C191.887 70.6683 191.12 71.4629 191.12 72.4359C191.12 73.4089 191.883 74.2 192.83 74.2C193.776 74.2 194.539 73.4122 194.539 72.4359ZM180.195 72.4359C180.195 71.4595 179.431 70.6683 178.485 70.6683C177.543 70.6683 176.776 71.4629 176.776 72.4359C176.776 73.4089 177.539 74.2 178.485 74.2C179.431 74.2 180.195 73.4122 180.195 72.4359ZM165.851 72.4359C165.851 71.4595 165.084 70.6683 164.141 70.6683C163.195 70.6683 162.429 71.4629 162.429 72.4359C162.429 73.4089 163.198 74.2 164.141 74.2C165.084 74.2 165.851 73.4122 165.851 72.4359ZM151.51 72.4359C151.51 71.4595 150.743 70.6683 149.8 70.6683C148.854 70.6683 148.091 71.4629 148.091 72.4359C148.091 73.4089 148.858 74.2 149.8 74.2C150.743 74.2 151.51 73.4122 151.51 72.4359ZM137.166 72.4359C137.166 71.4595 136.402 70.6683 135.456 70.6683C134.513 70.6683 133.747 71.4629 133.747 72.4359C133.747 73.4089 134.51 74.2 135.456 74.2C136.402 74.2 137.166 73.4122 137.166 72.4359ZM122.825 72.4359C122.825 71.4595 122.058 70.6683 121.112 70.6683C120.169 70.6683 119.403 71.4629 119.403 72.4359C119.403 73.4089 120.166 74.2 121.112 74.2C122.058 74.2 122.825 73.4122 122.825 72.4359ZM108.481 72.4359C108.481 71.4595 107.714 70.6683 106.771 70.6683C105.825 70.6683 105.058 71.4629 105.058 72.4359C105.058 73.4089 105.828 74.2 106.771 74.2C107.714 74.2 108.481 73.4122 108.481 72.4359ZM94.1364 72.4359C94.1364 71.4595 93.3698 70.6683 92.427 70.6683C91.4809 70.6683 90.7175 71.4629 90.7175 72.4359C90.7175 73.4089 91.4842 74.2 92.427 74.2C93.3698 74.2 94.1364 73.4122 94.1364 72.4359ZM79.7922 72.4359C79.7922 71.4595 79.0289 70.6683 78.0828 70.6683C77.14 70.6683 76.3734 71.4629 76.3734 72.4359C76.3734 73.4089 77.1367 74.2 78.0828 74.2C79.0289 74.2 79.7922 73.4122 79.7922 72.4359ZM65.4513 72.4359C65.4513 71.4595 64.6847 70.6683 63.7419 70.6683C62.7958 70.6683 62.0292 71.4629 62.0292 72.4359C62.0292 73.4089 62.7991 74.2 63.7419 74.2C64.6847 74.2 65.4513 73.4122 65.4513 72.4359ZM51.1072 72.4359C51.1072 71.4595 50.3438 70.6683 49.3977 70.6683C48.4517 70.6683 47.6883 71.4629 47.6883 72.4359C47.6883 73.4089 48.4517 74.2 49.3977 74.2C50.3438 74.2 51.1072 73.4122 51.1072 72.4359ZM36.763 72.4359C36.763 71.4595 35.9996 70.6683 35.0536 70.6683C34.1108 70.6683 33.3442 71.4629 33.3442 72.4359C33.3442 73.4089 34.1075 74.2 35.0536 74.2C35.9996 74.2 36.763 73.4122 36.763 72.4359ZM22.4221 72.4359C22.4221 71.4595 21.6555 70.6683 20.7094 70.6683C19.7666 70.6683 19 71.4629 19 72.4359C19 73.4089 19.7634 74.2 20.7094 74.2C21.6555 74.2 22.4221 73.4122 22.4221 72.4359ZM379.287 82.1464C380.233 82.1464 381 82.9349 381 83.9122C381 84.8895 380.233 85.6781 379.287 85.6781C378.341 85.6781 377.578 84.8861 377.578 83.9122C377.578 82.9383 378.345 82.1464 379.287 82.1464ZM364.946 82.1464C365.889 82.1464 366.656 82.9349 366.656 83.9122C366.656 84.8895 365.889 85.6781 364.946 85.6781C364.004 85.6781 363.234 84.8861 363.234 83.9122C363.234 82.9383 364 82.1464 364.946 82.1464ZM350.602 82.1464C351.545 82.1464 352.312 82.9349 352.312 83.9122C352.312 84.8895 351.545 85.6781 350.602 85.6781C349.659 85.6781 348.893 84.8861 348.893 83.9122C348.893 82.9383 349.656 82.1464 350.602 82.1464ZM336.258 82.1464C337.204 82.1464 337.968 82.9349 337.968 83.9122C337.968 84.8895 337.204 85.6781 336.258 85.6781C335.312 85.6781 334.549 84.8861 334.549 83.9122C334.549 82.9383 335.315 82.1464 336.258 82.1464ZM321.917 82.1464C322.86 82.1464 323.627 82.9349 323.627 83.9122C323.627 84.8895 322.86 85.6781 321.917 85.6781C320.974 85.6781 320.205 84.8861 320.205 83.9122C320.205 82.9383 320.971 82.1464 321.917 82.1464ZM307.573 82.1464C308.516 82.1464 309.282 82.9349 309.282 83.9122C309.282 84.8895 308.516 85.6781 307.573 85.6781C306.63 85.6781 305.864 84.8861 305.864 83.9122C305.864 82.9383 306.627 82.1464 307.573 82.1464ZM293.229 82.1464C294.175 82.1464 294.938 82.9349 294.938 83.9122C294.938 84.8895 294.175 85.6781 293.229 85.6781C292.283 85.6781 291.519 84.8861 291.519 83.9122C291.519 82.9383 292.283 82.1464 293.229 82.1464ZM278.888 82.1464C279.834 82.1464 280.601 82.9349 280.601 83.9122C280.601 84.8895 279.834 85.6781 278.888 85.6781C277.942 85.6781 277.179 84.8861 277.179 83.9122C277.179 82.9383 277.945 82.1464 278.888 82.1464ZM264.544 82.1464C265.487 82.1464 266.253 82.9349 266.253 83.9122C266.253 84.8895 265.487 85.6781 264.544 85.6781C263.601 85.6781 262.831 84.8861 262.831 83.9122C262.831 82.9383 263.598 82.1464 264.544 82.1464ZM250.2 82.1464C251.142 82.1464 251.909 82.9349 251.909 83.9122C251.909 84.8895 251.142 85.6781 250.2 85.6781C249.257 85.6781 248.49 84.8861 248.49 83.9122C248.49 82.9383 249.254 82.1464 250.2 82.1464ZM235.859 82.1464C236.805 82.1464 237.568 82.9349 237.568 83.9122C237.568 84.8895 236.805 85.6781 235.859 85.6781C234.913 85.6781 234.149 84.8861 234.149 83.9122C234.149 82.9383 234.913 82.1464 235.859 82.1464ZM221.515 82.1464C222.461 82.1464 223.227 82.9349 223.227 83.9122C223.227 84.8895 222.461 85.6781 221.515 85.6781C220.569 85.6781 219.805 84.8861 219.805 83.9122C219.805 82.9383 220.572 82.1464 221.515 82.1464ZM207.17 82.1464C208.113 82.1464 208.88 82.9349 208.88 83.9122C208.88 84.8895 208.113 85.6781 207.17 85.6781C206.228 85.6781 205.461 84.8861 205.461 83.9122C205.461 82.9383 206.224 82.1464 207.17 82.1464ZM192.83 82.1464C193.776 82.1464 194.539 82.9349 194.539 83.9122C194.539 84.8895 193.776 85.6781 192.83 85.6781C191.883 85.6781 191.12 84.8861 191.12 83.9122C191.12 82.9383 191.887 82.1464 192.83 82.1464ZM178.485 82.1464C179.431 82.1464 180.195 82.9349 180.195 83.9122C180.195 84.8895 179.431 85.6781 178.485 85.6781C177.539 85.6781 176.776 84.8861 176.776 83.9122C176.776 82.9383 177.543 82.1464 178.485 82.1464ZM164.141 82.1464C165.084 82.1464 165.851 82.9349 165.851 83.9122C165.851 84.8895 165.084 85.6781 164.141 85.6781C163.198 85.6781 162.429 84.8861 162.429 83.9122C162.429 82.9383 163.195 82.1464 164.141 82.1464ZM149.8 82.1464C150.743 82.1464 151.51 82.9349 151.51 83.9122C151.51 84.8895 150.743 85.6781 149.8 85.6781C148.858 85.6781 148.091 84.8861 148.091 83.9122C148.091 82.9383 148.854 82.1464 149.8 82.1464ZM135.456 82.1464C136.402 82.1464 137.166 82.9349 137.166 83.9122C137.166 84.8895 136.402 85.6781 135.456 85.6781C134.51 85.6781 133.747 84.8861 133.747 83.9122C133.747 82.9383 134.513 82.1464 135.456 82.1464ZM121.112 82.1464C122.058 82.1464 122.825 82.9349 122.825 83.9122C122.825 84.8895 122.058 85.6781 121.112 85.6781C120.166 85.6781 119.403 84.8861 119.403 83.9122C119.403 82.9383 120.169 82.1464 121.112 82.1464ZM106.771 82.1464C107.714 82.1464 108.481 82.9349 108.481 83.9122C108.481 84.8895 107.714 85.6781 106.771 85.6781C105.828 85.6781 105.058 84.8861 105.058 83.9122C105.058 82.9383 105.825 82.1464 106.771 82.1464ZM92.427 82.1464C93.3698 82.1464 94.1364 82.9349 94.1364 83.9122C94.1364 84.8895 93.3698 85.6781 92.427 85.6781C91.4842 85.6781 90.7175 84.8861 90.7175 83.9122C90.7175 82.9383 91.4809 82.1464 92.427 82.1464ZM78.0828 82.1464C79.0289 82.1464 79.7922 82.9349 79.7922 83.9122C79.7922 84.8895 79.0289 85.6781 78.0828 85.6781C77.1367 85.6781 76.3734 84.8861 76.3734 83.9122C76.3734 82.9383 77.14 82.1464 78.0828 82.1464ZM63.7419 82.1464C64.6847 82.1464 65.4513 82.9349 65.4513 83.9122C65.4513 84.8895 64.6847 85.6781 63.7419 85.6781C62.7991 85.6781 62.0292 84.8861 62.0292 83.9122C62.0292 82.9383 62.7958 82.1464 63.7419 82.1464ZM49.3977 82.1464C50.3438 82.1464 51.1072 82.9349 51.1072 83.9122C51.1072 84.8895 50.3438 85.6781 49.3977 85.6781C48.4517 85.6781 47.6883 84.8861 47.6883 83.9122C47.6883 82.9383 48.4517 82.1464 49.3977 82.1464ZM35.0536 82.1464C35.9996 82.1464 36.763 82.9349 36.763 83.9122C36.763 84.8895 35.9996 85.6781 35.0536 85.6781C34.1075 85.6781 33.3442 84.8861 33.3442 83.9122C33.3442 82.9383 34.1108 82.1464 35.0536 82.1464ZM20.7094 82.1464C21.6555 82.1464 22.4221 82.9349 22.4221 83.9122C22.4221 84.8895 21.6555 85.6781 20.7094 85.6781C19.7634 85.6781 19 84.8861 19 83.9122C19 82.9383 19.7666 82.1464 20.7094 82.1464ZM381 94.5073C381 93.53 380.233 92.7415 379.287 92.7415C378.345 92.7415 377.578 93.5334 377.578 94.5073C377.578 95.4812 378.341 96.2732 379.287 96.2732C380.233 96.2732 381 95.4846 381 94.5073ZM366.656 94.5073C366.656 93.53 365.889 92.7415 364.946 92.7415C364 92.7415 363.234 93.5334 363.234 94.5073C363.234 95.4812 364.004 96.2732 364.946 96.2732C365.889 96.2732 366.656 95.4846 366.656 94.5073ZM352.312 94.5073C352.312 93.53 351.545 92.7415 350.602 92.7415C349.656 92.7415 348.893 93.5334 348.893 94.5073C348.893 95.4812 349.659 96.2732 350.602 96.2732C351.545 96.2732 352.312 95.4846 352.312 94.5073ZM337.968 94.5073C337.968 93.53 337.204 92.7415 336.258 92.7415C335.315 92.7415 334.549 93.5334 334.549 94.5073C334.549 95.4812 335.312 96.2732 336.258 96.2732C337.204 96.2732 337.968 95.4846 337.968 94.5073ZM323.627 94.5073C323.627 93.53 322.86 92.7415 321.917 92.7415C320.971 92.7415 320.205 93.5334 320.205 94.5073C320.205 95.4812 320.974 96.2732 321.917 96.2732C322.86 96.2732 323.627 95.4846 323.627 94.5073ZM309.282 94.5073C309.282 93.53 308.516 92.7415 307.573 92.7415C306.627 92.7415 305.864 93.5334 305.864 94.5073C305.864 95.4812 306.63 96.2732 307.573 96.2732C308.516 96.2732 309.282 95.4846 309.282 94.5073ZM294.938 94.5073C294.938 93.53 294.175 92.7415 293.229 92.7415C292.283 92.7415 291.519 93.5334 291.519 94.5073C291.519 95.4812 292.283 96.2732 293.229 96.2732C294.175 96.2732 294.938 95.4846 294.938 94.5073ZM280.601 94.5073C280.601 93.53 279.834 92.7415 278.888 92.7415C277.945 92.7415 277.179 93.5334 277.179 94.5073C277.179 95.4812 277.942 96.2732 278.888 96.2732C279.834 96.2732 280.601 95.4846 280.601 94.5073ZM266.253 94.5073C266.253 93.53 265.487 92.7415 264.544 92.7415C263.598 92.7415 262.831 93.5334 262.831 94.5073C262.831 95.4812 263.601 96.2732 264.544 96.2732C265.487 96.2732 266.253 95.4846 266.253 94.5073ZM251.909 94.5073C251.909 93.53 251.142 92.7415 250.2 92.7415C249.254 92.7415 248.49 93.5334 248.49 94.5073C248.49 95.4812 249.257 96.2732 250.2 96.2732C251.142 96.2732 251.909 95.4846 251.909 94.5073ZM237.568 94.5073C237.568 93.53 236.805 92.7415 235.859 92.7415C234.913 92.7415 234.149 93.5334 234.149 94.5073C234.149 95.4812 234.913 96.2732 235.859 96.2732C236.805 96.2732 237.568 95.4846 237.568 94.5073ZM223.227 94.5073C223.227 93.53 222.461 92.7415 221.515 92.7415C220.572 92.7415 219.805 93.5334 219.805 94.5073C219.805 95.4812 220.569 96.2732 221.515 96.2732C222.461 96.2732 223.227 95.4846 223.227 94.5073ZM208.88 94.5073C208.88 93.53 208.113 92.7415 207.17 92.7415C206.224 92.7415 205.461 93.5334 205.461 94.5073C205.461 95.4812 206.228 96.2732 207.17 96.2732C208.113 96.2732 208.88 95.4846 208.88 94.5073ZM194.539 94.5073C194.539 93.53 193.776 92.7415 192.83 92.7415C191.887 92.7415 191.12 93.5334 191.12 94.5073C191.12 95.4812 191.883 96.2732 192.83 96.2732C193.776 96.2732 194.539 95.4846 194.539 94.5073ZM180.195 94.5073C180.195 93.53 179.431 92.7415 178.485 92.7415C177.543 92.7415 176.776 93.5334 176.776 94.5073C176.776 95.4812 177.539 96.2732 178.485 96.2732C179.431 96.2732 180.195 95.4846 180.195 94.5073ZM165.851 94.5073C165.851 93.53 165.084 92.7415 164.141 92.7415C163.195 92.7415 162.429 93.5334 162.429 94.5073C162.429 95.4812 163.198 96.2732 164.141 96.2732C165.084 96.2732 165.851 95.4846 165.851 94.5073ZM151.51 94.5073C151.51 93.53 150.743 92.7415 149.8 92.7415C148.854 92.7415 148.091 93.5334 148.091 94.5073C148.091 95.4812 148.858 96.2732 149.8 96.2732C150.743 96.2732 151.51 95.4846 151.51 94.5073ZM137.166 94.5073C137.166 93.53 136.402 92.7415 135.456 92.7415C134.513 92.7415 133.747 93.5334 133.747 94.5073C133.747 95.4812 134.51 96.2732 135.456 96.2732C136.402 96.2732 137.166 95.4846 137.166 94.5073ZM122.825 94.5073C122.825 93.53 122.058 92.7415 121.112 92.7415C120.169 92.7415 119.403 93.5334 119.403 94.5073C119.403 95.4812 120.166 96.2732 121.112 96.2732C122.058 96.2732 122.825 95.4846 122.825 94.5073ZM108.481 94.5073C108.481 93.53 107.714 92.7415 106.771 92.7415C105.825 92.7415 105.058 93.5334 105.058 94.5073C105.058 95.4812 105.828 96.2732 106.771 96.2732C107.714 96.2732 108.481 95.4846 108.481 94.5073ZM94.1364 94.5073C94.1364 93.53 93.3698 92.7415 92.427 92.7415C91.4809 92.7415 90.7175 93.5334 90.7175 94.5073C90.7175 95.4812 91.4842 96.2732 92.427 96.2732C93.3698 96.2732 94.1364 95.4846 94.1364 94.5073ZM79.7922 94.5073C79.7922 93.53 79.0289 92.7415 78.0828 92.7415C77.14 92.7415 76.3734 93.5334 76.3734 94.5073C76.3734 95.4812 77.1367 96.2732 78.0828 96.2732C79.0289 96.2732 79.7922 95.4846 79.7922 94.5073ZM65.4513 94.5073C65.4513 93.53 64.6847 92.7415 63.7419 92.7415C62.7958 92.7415 62.0292 93.5334 62.0292 94.5073C62.0292 95.4812 62.7991 96.2732 63.7419 96.2732C64.6847 96.2732 65.4513 95.4846 65.4513 94.5073ZM51.1072 94.5073C51.1072 93.53 50.3438 92.7415 49.3977 92.7415C48.4517 92.7415 47.6883 93.5334 47.6883 94.5073C47.6883 95.4812 48.4517 96.2732 49.3977 96.2732C50.3438 96.2732 51.1072 95.4846 51.1072 94.5073ZM36.763 94.5073C36.763 93.53 35.9996 92.7415 35.0536 92.7415C34.1108 92.7415 33.3442 93.5334 33.3442 94.5073C33.3442 95.4812 34.1075 96.2732 35.0536 96.2732C35.9996 96.2732 36.763 95.4846 36.763 94.5073ZM22.4221 94.5073C22.4221 93.53 21.6555 92.7415 20.7094 92.7415C19.7666 92.7415 19 93.5334 19 94.5073C19 95.4812 19.7634 96.2732 20.7094 96.2732C21.6555 96.2732 22.4221 95.4846 22.4221 94.5073ZM379.287 104.219C380.233 104.219 381 105.008 381 105.985C381 106.963 380.233 107.751 379.287 107.751C378.341 107.751 377.578 106.963 377.578 105.985C377.578 105.008 378.345 104.219 379.287 104.219ZM364.946 104.219C365.889 104.219 366.656 105.008 366.656 105.985C366.656 106.963 365.889 107.751 364.946 107.751C364.004 107.751 363.234 106.963 363.234 105.985C363.234 105.008 364 104.219 364.946 104.219ZM350.602 104.219C351.545 104.219 352.312 105.008 352.312 105.985C352.312 106.963 351.545 107.751 350.602 107.751C349.659 107.751 348.893 106.963 348.893 105.985C348.893 105.008 349.656 104.219 350.602 104.219ZM336.258 104.219C337.204 104.219 337.968 105.008 337.968 105.985C337.968 106.963 337.204 107.751 336.258 107.751C335.312 107.751 334.549 106.963 334.549 105.985C334.549 105.008 335.315 104.219 336.258 104.219ZM321.917 104.219C322.86 104.219 323.627 105.008 323.627 105.985C323.627 106.963 322.86 107.751 321.917 107.751C320.974 107.751 320.205 106.963 320.205 105.985C320.205 105.008 320.971 104.219 321.917 104.219ZM307.573 104.219C308.516 104.219 309.282 105.008 309.282 105.985C309.282 106.963 308.516 107.751 307.573 107.751C306.63 107.751 305.864 106.963 305.864 105.985C305.864 105.008 306.627 104.219 307.573 104.219ZM293.229 104.219C294.175 104.219 294.938 105.008 294.938 105.985C294.938 106.963 294.175 107.751 293.229 107.751C292.283 107.751 291.519 106.963 291.519 105.985C291.519 105.008 292.283 104.219 293.229 104.219ZM278.888 104.219C279.834 104.219 280.601 105.008 280.601 105.985C280.601 106.963 279.834 107.751 278.888 107.751C277.942 107.751 277.179 106.963 277.179 105.985C277.179 105.008 277.945 104.219 278.888 104.219ZM264.544 104.219C265.487 104.219 266.253 105.008 266.253 105.985C266.253 106.963 265.487 107.751 264.544 107.751C263.601 107.751 262.831 106.963 262.831 105.985C262.831 105.008 263.598 104.219 264.544 104.219ZM250.2 104.219C251.142 104.219 251.909 105.008 251.909 105.985C251.909 106.963 251.142 107.751 250.2 107.751C249.257 107.751 248.49 106.963 248.49 105.985C248.49 105.008 249.254 104.219 250.2 104.219ZM235.859 104.219C236.805 104.219 237.568 105.008 237.568 105.985C237.568 106.963 236.805 107.751 235.859 107.751C234.913 107.751 234.149 106.963 234.149 105.985C234.149 105.008 234.913 104.219 235.859 104.219ZM221.515 104.219C222.461 104.219 223.227 105.008 223.227 105.985C223.227 106.963 222.461 107.751 221.515 107.751C220.569 107.751 219.805 106.963 219.805 105.985C219.805 105.008 220.572 104.219 221.515 104.219ZM207.17 104.219C208.113 104.219 208.88 105.008 208.88 105.985C208.88 106.963 208.113 107.751 207.17 107.751C206.228 107.751 205.461 106.963 205.461 105.985C205.461 105.008 206.224 104.219 207.17 104.219ZM192.83 104.219C193.776 104.219 194.539 105.008 194.539 105.985C194.539 106.963 193.776 107.751 192.83 107.751C191.883 107.751 191.12 106.963 191.12 105.985C191.12 105.008 191.887 104.219 192.83 104.219ZM178.485 104.219C179.431 104.219 180.195 105.008 180.195 105.985C180.195 106.963 179.431 107.751 178.485 107.751C177.539 107.751 176.776 106.963 176.776 105.985C176.776 105.008 177.543 104.219 178.485 104.219ZM164.141 104.219C165.084 104.219 165.851 105.008 165.851 105.985C165.851 106.963 165.084 107.751 164.141 107.751C163.198 107.751 162.429 106.963 162.429 105.985C162.429 105.008 163.195 104.219 164.141 104.219ZM149.8 104.219C150.743 104.219 151.51 105.008 151.51 105.985C151.51 106.963 150.743 107.751 149.8 107.751C148.858 107.751 148.091 106.963 148.091 105.985C148.091 105.008 148.854 104.219 149.8 104.219ZM135.456 104.219C136.402 104.219 137.166 105.008 137.166 105.985C137.166 106.963 136.402 107.751 135.456 107.751C134.51 107.751 133.747 106.963 133.747 105.985C133.747 105.008 134.513 104.219 135.456 104.219ZM121.112 104.219C122.058 104.219 122.825 105.008 122.825 105.985C122.825 106.963 122.058 107.751 121.112 107.751C120.166 107.751 119.403 106.963 119.403 105.985C119.403 105.008 120.169 104.219 121.112 104.219ZM106.771 104.219C107.714 104.219 108.481 105.008 108.481 105.985C108.481 106.963 107.714 107.751 106.771 107.751C105.828 107.751 105.058 106.963 105.058 105.985C105.058 105.008 105.825 104.219 106.771 104.219ZM92.427 104.219C93.3698 104.219 94.1364 105.008 94.1364 105.985C94.1364 106.963 93.3698 107.751 92.427 107.751C91.4842 107.751 90.7175 106.963 90.7175 105.985C90.7175 105.008 91.4809 104.219 92.427 104.219ZM78.0828 104.219C79.0289 104.219 79.7922 105.008 79.7922 105.985C79.7922 106.963 79.0289 107.751 78.0828 107.751C77.1367 107.751 76.3734 106.963 76.3734 105.985C76.3734 105.008 77.14 104.219 78.0828 104.219ZM63.7419 104.219C64.6847 104.219 65.4513 105.008 65.4513 105.985C65.4513 106.963 64.6847 107.751 63.7419 107.751C62.7991 107.751 62.0292 106.963 62.0292 105.985C62.0292 105.008 62.7958 104.219 63.7419 104.219ZM49.3977 104.219C50.3438 104.219 51.1072 105.008 51.1072 105.985C51.1072 106.963 50.3438 107.751 49.3977 107.751C48.4517 107.751 47.6883 106.963 47.6883 105.985C47.6883 105.008 48.4517 104.219 49.3977 104.219ZM35.0536 104.219C35.9996 104.219 36.763 105.008 36.763 105.985C36.763 106.963 35.9996 107.751 35.0536 107.751C34.1075 107.751 33.3442 106.963 33.3442 105.985C33.3442 105.008 34.1108 104.219 35.0536 104.219ZM20.7094 104.219C21.6555 104.219 22.4221 105.008 22.4221 105.985C22.4221 106.963 21.6555 107.751 20.7094 107.751C19.7634 107.751 19 106.963 19 105.985C19 105.008 19.7666 104.219 20.7094 104.219ZM381 116.58C381 115.603 380.233 114.815 379.287 114.815C378.345 114.815 377.578 115.603 377.578 116.58C377.578 117.558 378.341 118.346 379.287 118.346C380.233 118.346 381 117.558 381 116.58ZM366.656 116.58C366.656 115.603 365.889 114.815 364.946 114.815C364 114.815 363.234 115.603 363.234 116.58C363.234 117.558 364.004 118.346 364.946 118.346C365.889 118.346 366.656 117.558 366.656 116.58ZM352.312 116.58C352.312 115.603 351.545 114.815 350.602 114.815C349.656 114.815 348.893 115.603 348.893 116.58C348.893 117.558 349.659 118.346 350.602 118.346C351.545 118.346 352.312 117.558 352.312 116.58ZM337.968 116.58C337.968 115.603 337.204 114.815 336.258 114.815C335.315 114.815 334.549 115.603 334.549 116.58C334.549 117.558 335.312 118.346 336.258 118.346C337.204 118.346 337.968 117.558 337.968 116.58ZM323.627 116.58C323.627 115.603 322.86 114.815 321.917 114.815C320.971 114.815 320.205 115.603 320.205 116.58C320.205 117.558 320.974 118.346 321.917 118.346C322.86 118.346 323.627 117.558 323.627 116.58ZM309.282 116.58C309.282 115.603 308.516 114.815 307.573 114.815C306.627 114.815 305.864 115.603 305.864 116.58C305.864 117.558 306.63 118.346 307.573 118.346C308.516 118.346 309.282 117.558 309.282 116.58ZM294.938 116.58C294.938 115.603 294.175 114.815 293.229 114.815C292.283 114.815 291.519 115.603 291.519 116.58C291.519 117.558 292.283 118.346 293.229 118.346C294.175 118.346 294.938 117.558 294.938 116.58ZM280.601 116.58C280.601 115.603 279.834 114.815 278.888 114.815C277.945 114.815 277.179 115.603 277.179 116.58C277.179 117.558 277.942 118.346 278.888 118.346C279.834 118.346 280.601 117.558 280.601 116.58ZM266.253 116.58C266.253 115.603 265.487 114.815 264.544 114.815C263.598 114.815 262.831 115.603 262.831 116.58C262.831 117.558 263.601 118.346 264.544 118.346C265.487 118.346 266.253 117.558 266.253 116.58ZM251.909 116.58C251.909 115.603 251.142 114.815 250.2 114.815C249.254 114.815 248.49 115.603 248.49 116.58C248.49 117.558 249.257 118.346 250.2 118.346C251.142 118.346 251.909 117.558 251.909 116.58ZM237.568 116.58C237.568 115.603 236.805 114.815 235.859 114.815C234.913 114.815 234.149 115.603 234.149 116.58C234.149 117.558 234.913 118.346 235.859 118.346C236.805 118.346 237.568 117.558 237.568 116.58ZM223.227 116.58C223.227 115.603 222.461 114.815 221.515 114.815C220.572 114.815 219.805 115.603 219.805 116.58C219.805 117.558 220.569 118.346 221.515 118.346C222.461 118.346 223.227 117.558 223.227 116.58ZM208.88 116.58C208.88 115.603 208.113 114.815 207.17 114.815C206.224 114.815 205.461 115.603 205.461 116.58C205.461 117.558 206.228 118.346 207.17 118.346C208.113 118.346 208.88 117.558 208.88 116.58ZM194.539 116.58C194.539 115.603 193.776 114.815 192.83 114.815C191.887 114.815 191.12 115.603 191.12 116.58C191.12 117.558 191.883 118.346 192.83 118.346C193.776 118.346 194.539 117.558 194.539 116.58ZM180.195 116.58C180.195 115.603 179.431 114.815 178.485 114.815C177.543 114.815 176.776 115.603 176.776 116.58C176.776 117.558 177.539 118.346 178.485 118.346C179.431 118.346 180.195 117.558 180.195 116.58ZM165.851 116.58C165.851 115.603 165.084 114.815 164.141 114.815C163.195 114.815 162.429 115.603 162.429 116.58C162.429 117.558 163.198 118.346 164.141 118.346C165.084 118.346 165.851 117.558 165.851 116.58ZM151.51 116.58C151.51 115.603 150.743 114.815 149.8 114.815C148.854 114.815 148.091 115.603 148.091 116.58C148.091 117.558 148.858 118.346 149.8 118.346C150.743 118.346 151.51 117.558 151.51 116.58ZM137.166 116.58C137.166 115.603 136.402 114.815 135.456 114.815C134.513 114.815 133.747 115.603 133.747 116.58C133.747 117.558 134.51 118.346 135.456 118.346C136.402 118.346 137.166 117.558 137.166 116.58ZM122.825 116.58C122.825 115.603 122.058 114.815 121.112 114.815C120.169 114.815 119.403 115.603 119.403 116.58C119.403 117.558 120.166 118.346 121.112 118.346C122.058 118.346 122.825 117.558 122.825 116.58ZM108.481 116.58C108.481 115.603 107.714 114.815 106.771 114.815C105.825 114.815 105.058 115.603 105.058 116.58C105.058 117.558 105.828 118.346 106.771 118.346C107.714 118.346 108.481 117.558 108.481 116.58ZM94.1364 116.58C94.1364 115.603 93.3698 114.815 92.427 114.815C91.4809 114.815 90.7175 115.603 90.7175 116.58C90.7175 117.558 91.4842 118.346 92.427 118.346C93.3698 118.346 94.1364 117.558 94.1364 116.58ZM79.7922 116.58C79.7922 115.603 79.0289 114.815 78.0828 114.815C77.14 114.815 76.3734 115.603 76.3734 116.58C76.3734 117.558 77.1367 118.346 78.0828 118.346C79.0289 118.346 79.7922 117.558 79.7922 116.58ZM65.4513 116.58C65.4513 115.603 64.6847 114.815 63.7419 114.815C62.7958 114.815 62.0292 115.603 62.0292 116.58C62.0292 117.558 62.7991 118.346 63.7419 118.346C64.6847 118.346 65.4513 117.558 65.4513 116.58ZM51.1072 116.58C51.1072 115.603 50.3438 114.815 49.3977 114.815C48.4517 114.815 47.6883 115.603 47.6883 116.58C47.6883 117.558 48.4517 118.346 49.3977 118.346C50.3438 118.346 51.1072 117.558 51.1072 116.58ZM36.763 116.58C36.763 115.603 35.9996 114.815 35.0536 114.815C34.1108 114.815 33.3442 115.603 33.3442 116.58C33.3442 117.558 34.1075 118.346 35.0536 118.346C35.9996 118.346 36.763 117.558 36.763 116.58ZM22.4221 116.58C22.4221 115.603 21.6555 114.815 20.7094 114.815C19.7666 114.815 19 115.603 19 116.58C19 117.558 19.7634 118.346 20.7094 118.346C21.6555 118.346 22.4221 117.558 22.4221 116.58ZM379.287 126.293C380.233 126.293 381 127.081 381 128.059C381 129.036 380.233 129.824 379.287 129.824C378.341 129.824 377.578 129.036 377.578 128.059C377.578 127.081 378.345 126.293 379.287 126.293ZM364.946 126.293C365.889 126.293 366.656 127.081 366.656 128.059C366.656 129.036 365.889 129.824 364.946 129.824C364.004 129.824 363.234 129.036 363.234 128.059C363.234 127.081 364 126.293 364.946 126.293ZM350.602 126.293C351.545 126.293 352.312 127.081 352.312 128.059C352.312 129.036 351.545 129.824 350.602 129.824C349.659 129.824 348.893 129.036 348.893 128.059C348.893 127.081 349.656 126.293 350.602 126.293ZM336.258 126.293C337.204 126.293 337.968 127.081 337.968 128.059C337.968 129.036 337.204 129.824 336.258 129.824C335.312 129.824 334.549 129.036 334.549 128.059C334.549 127.081 335.315 126.293 336.258 126.293ZM321.917 126.293C322.86 126.293 323.627 127.081 323.627 128.059C323.627 129.036 322.86 129.824 321.917 129.824C320.974 129.824 320.205 129.036 320.205 128.059C320.205 127.081 320.971 126.293 321.917 126.293ZM307.573 126.293C308.516 126.293 309.282 127.081 309.282 128.059C309.282 129.036 308.516 129.824 307.573 129.824C306.63 129.824 305.864 129.036 305.864 128.059C305.864 127.081 306.627 126.293 307.573 126.293ZM293.229 126.293C294.175 126.293 294.938 127.081 294.938 128.059C294.938 129.036 294.175 129.824 293.229 129.824C292.283 129.824 291.519 129.036 291.519 128.059C291.519 127.081 292.283 126.293 293.229 126.293ZM278.888 126.293C279.834 126.293 280.601 127.081 280.601 128.059C280.601 129.036 279.834 129.824 278.888 129.824C277.942 129.824 277.179 129.036 277.179 128.059C277.179 127.081 277.945 126.293 278.888 126.293ZM264.544 126.293C265.487 126.293 266.253 127.081 266.253 128.059C266.253 129.036 265.487 129.824 264.544 129.824C263.601 129.824 262.831 129.036 262.831 128.059C262.831 127.081 263.598 126.293 264.544 126.293ZM250.2 126.293C251.142 126.293 251.909 127.081 251.909 128.059C251.909 129.036 251.142 129.824 250.2 129.824C249.257 129.824 248.49 129.036 248.49 128.059C248.49 127.081 249.254 126.293 250.2 126.293ZM235.859 126.293C236.805 126.293 237.568 127.081 237.568 128.059C237.568 129.036 236.805 129.824 235.859 129.824C234.913 129.824 234.149 129.036 234.149 128.059C234.149 127.081 234.913 126.293 235.859 126.293ZM221.515 126.293C222.461 126.293 223.227 127.081 223.227 128.059C223.227 129.036 222.461 129.824 221.515 129.824C220.569 129.824 219.805 129.036 219.805 128.059C219.805 127.081 220.572 126.293 221.515 126.293ZM207.17 126.293C208.113 126.293 208.88 127.081 208.88 128.059C208.88 129.036 208.113 129.824 207.17 129.824C206.228 129.824 205.461 129.036 205.461 128.059C205.461 127.081 206.224 126.293 207.17 126.293ZM192.83 126.293C193.776 126.293 194.539 127.081 194.539 128.059C194.539 129.036 193.776 129.824 192.83 129.824C191.883 129.824 191.12 129.036 191.12 128.059C191.12 127.081 191.887 126.293 192.83 126.293ZM178.485 126.293C179.431 126.293 180.195 127.081 180.195 128.059C180.195 129.036 179.431 129.824 178.485 129.824C177.539 129.824 176.776 129.036 176.776 128.059C176.776 127.081 177.543 126.293 178.485 126.293ZM164.141 126.293C165.084 126.293 165.851 127.081 165.851 128.059C165.851 129.036 165.084 129.824 164.141 129.824C163.198 129.824 162.429 129.036 162.429 128.059C162.429 127.081 163.195 126.293 164.141 126.293ZM149.8 126.293C150.743 126.293 151.51 127.081 151.51 128.059C151.51 129.036 150.743 129.824 149.8 129.824C148.858 129.824 148.091 129.036 148.091 128.059C148.091 127.081 148.854 126.293 149.8 126.293ZM135.456 126.293C136.402 126.293 137.166 127.081 137.166 128.059C137.166 129.036 136.402 129.824 135.456 129.824C134.51 129.824 133.747 129.036 133.747 128.059C133.747 127.081 134.513 126.293 135.456 126.293ZM121.112 126.293C122.058 126.293 122.825 127.081 122.825 128.059C122.825 129.036 122.058 129.824 121.112 129.824C120.166 129.824 119.403 129.036 119.403 128.059C119.403 127.081 120.169 126.293 121.112 126.293ZM106.771 126.293C107.714 126.293 108.481 127.081 108.481 128.059C108.481 129.036 107.714 129.824 106.771 129.824C105.828 129.824 105.058 129.036 105.058 128.059C105.058 127.081 105.825 126.293 106.771 126.293ZM92.427 126.293C93.3698 126.293 94.1364 127.081 94.1364 128.059C94.1364 129.036 93.3698 129.824 92.427 129.824C91.4842 129.824 90.7175 129.036 90.7175 128.059C90.7175 127.081 91.4809 126.293 92.427 126.293ZM78.0828 126.293C79.0289 126.293 79.7922 127.081 79.7922 128.059C79.7922 129.036 79.0289 129.824 78.0828 129.824C77.1367 129.824 76.3734 129.036 76.3734 128.059C76.3734 127.081 77.14 126.293 78.0828 126.293ZM63.7419 126.293C64.6847 126.293 65.4513 127.081 65.4513 128.059C65.4513 129.036 64.6847 129.824 63.7419 129.824C62.7991 129.824 62.0292 129.036 62.0292 128.059C62.0292 127.081 62.7958 126.293 63.7419 126.293ZM49.3977 126.293C50.3438 126.293 51.1072 127.081 51.1072 128.059C51.1072 129.036 50.3438 129.824 49.3977 129.824C48.4517 129.824 47.6883 129.036 47.6883 128.059C47.6883 127.081 48.4517 126.293 49.3977 126.293ZM35.0536 126.293C35.9996 126.293 36.763 127.081 36.763 128.059C36.763 129.036 35.9996 129.824 35.0536 129.824C34.1075 129.824 33.3442 129.036 33.3442 128.059C33.3442 127.081 34.1108 126.293 35.0536 126.293ZM20.7094 126.293C21.6555 126.293 22.4221 127.081 22.4221 128.059C22.4221 129.036 21.6555 129.824 20.7094 129.824C19.7634 129.824 19 129.036 19 128.059C19 127.081 19.7666 126.293 20.7094 126.293ZM381 138.654C381 137.68 380.233 136.888 379.287 136.888C378.345 136.888 377.578 137.676 377.578 138.654C377.578 139.631 378.341 140.42 379.287 140.42C380.233 140.42 381 139.628 381 138.654ZM366.656 138.654C366.656 137.68 365.889 136.888 364.946 136.888C364 136.888 363.234 137.676 363.234 138.654C363.234 139.631 364.004 140.42 364.946 140.42C365.889 140.42 366.656 139.628 366.656 138.654ZM352.312 138.654C352.312 137.68 351.545 136.888 350.602 136.888C349.656 136.888 348.893 137.676 348.893 138.654C348.893 139.631 349.659 140.42 350.602 140.42C351.545 140.42 352.312 139.628 352.312 138.654ZM337.968 138.654C337.968 137.68 337.204 136.888 336.258 136.888C335.315 136.888 334.549 137.676 334.549 138.654C334.549 139.631 335.312 140.42 336.258 140.42C337.204 140.42 337.968 139.628 337.968 138.654ZM323.627 138.654C323.627 137.68 322.86 136.888 321.917 136.888C320.971 136.888 320.205 137.676 320.205 138.654C320.205 139.631 320.974 140.42 321.917 140.42C322.86 140.42 323.627 139.628 323.627 138.654ZM309.282 138.654C309.282 137.68 308.516 136.888 307.573 136.888C306.627 136.888 305.864 137.676 305.864 138.654C305.864 139.631 306.63 140.42 307.573 140.42C308.516 140.42 309.282 139.628 309.282 138.654ZM294.938 138.654C294.938 137.68 294.175 136.888 293.229 136.888C292.283 136.888 291.519 137.676 291.519 138.654C291.519 139.631 292.283 140.42 293.229 140.42C294.175 140.42 294.938 139.628 294.938 138.654ZM280.601 138.654C280.601 137.68 279.834 136.888 278.888 136.888C277.945 136.888 277.179 137.676 277.179 138.654C277.179 139.631 277.942 140.42 278.888 140.42C279.834 140.42 280.601 139.628 280.601 138.654ZM266.253 138.654C266.253 137.68 265.487 136.888 264.544 136.888C263.598 136.888 262.831 137.676 262.831 138.654C262.831 139.631 263.601 140.42 264.544 140.42C265.487 140.42 266.253 139.628 266.253 138.654ZM251.909 138.654C251.909 137.68 251.142 136.888 250.2 136.888C249.254 136.888 248.49 137.676 248.49 138.654C248.49 139.631 249.257 140.42 250.2 140.42C251.142 140.42 251.909 139.628 251.909 138.654ZM237.568 138.654C237.568 137.68 236.805 136.888 235.859 136.888C234.913 136.888 234.149 137.676 234.149 138.654C234.149 139.631 234.913 140.42 235.859 140.42C236.805 140.42 237.568 139.628 237.568 138.654ZM223.227 138.654C223.227 137.68 222.461 136.888 221.515 136.888C220.572 136.888 219.805 137.676 219.805 138.654C219.805 139.631 220.569 140.42 221.515 140.42C222.461 140.42 223.227 139.628 223.227 138.654ZM208.88 138.654C208.88 137.68 208.113 136.888 207.17 136.888C206.224 136.888 205.461 137.676 205.461 138.654C205.461 139.631 206.228 140.42 207.17 140.42C208.113 140.42 208.88 139.628 208.88 138.654ZM194.539 138.654C194.539 137.68 193.776 136.888 192.83 136.888C191.887 136.888 191.12 137.676 191.12 138.654C191.12 139.631 191.883 140.42 192.83 140.42C193.776 140.42 194.539 139.628 194.539 138.654ZM180.195 138.654C180.195 137.68 179.431 136.888 178.485 136.888C177.543 136.888 176.776 137.676 176.776 138.654C176.776 139.631 177.539 140.42 178.485 140.42C179.431 140.42 180.195 139.628 180.195 138.654ZM165.851 138.654C165.851 137.68 165.084 136.888 164.141 136.888C163.195 136.888 162.429 137.676 162.429 138.654C162.429 139.631 163.198 140.42 164.141 140.42C165.084 140.42 165.851 139.628 165.851 138.654ZM151.51 138.654C151.51 137.68 150.743 136.888 149.8 136.888C148.854 136.888 148.091 137.676 148.091 138.654C148.091 139.631 148.858 140.42 149.8 140.42C150.743 140.42 151.51 139.628 151.51 138.654ZM137.166 138.654C137.166 137.68 136.402 136.888 135.456 136.888C134.513 136.888 133.747 137.676 133.747 138.654C133.747 139.631 134.51 140.42 135.456 140.42C136.402 140.42 137.166 139.628 137.166 138.654ZM122.825 138.654C122.825 137.68 122.058 136.888 121.112 136.888C120.169 136.888 119.403 137.676 119.403 138.654C119.403 139.631 120.166 140.42 121.112 140.42C122.058 140.42 122.825 139.628 122.825 138.654ZM108.481 138.654C108.481 137.68 107.714 136.888 106.771 136.888C105.825 136.888 105.058 137.676 105.058 138.654C105.058 139.631 105.828 140.42 106.771 140.42C107.714 140.42 108.481 139.628 108.481 138.654ZM94.1364 138.654C94.1364 137.68 93.3698 136.888 92.427 136.888C91.4809 136.888 90.7175 137.676 90.7175 138.654C90.7175 139.631 91.4842 140.42 92.427 140.42C93.3698 140.42 94.1364 139.628 94.1364 138.654ZM79.7922 138.654C79.7922 137.68 79.0289 136.888 78.0828 136.888C77.14 136.888 76.3734 137.676 76.3734 138.654C76.3734 139.631 77.1367 140.42 78.0828 140.42C79.0289 140.42 79.7922 139.628 79.7922 138.654ZM65.4513 138.654C65.4513 137.68 64.6847 136.888 63.7419 136.888C62.7958 136.888 62.0292 137.676 62.0292 138.654C62.0292 139.631 62.7991 140.42 63.7419 140.42C64.6847 140.42 65.4513 139.628 65.4513 138.654ZM51.1072 138.654C51.1072 137.68 50.3438 136.888 49.3977 136.888C48.4517 136.888 47.6883 137.676 47.6883 138.654C47.6883 139.631 48.4517 140.42 49.3977 140.42C50.3438 140.42 51.1072 139.628 51.1072 138.654ZM36.763 138.654C36.763 137.68 35.9996 136.888 35.0536 136.888C34.1108 136.888 33.3442 137.676 33.3442 138.654C33.3442 139.631 34.1075 140.42 35.0536 140.42C35.9996 140.42 36.763 139.628 36.763 138.654ZM22.4221 138.654C22.4221 137.68 21.6555 136.888 20.7094 136.888C19.7666 136.888 19 137.676 19 138.654C19 139.631 19.7634 140.42 20.7094 140.42C21.6555 140.42 22.4221 139.628 22.4221 138.654ZM379.287 147.354C380.233 147.354 381 148.146 381 149.12C381 150.094 380.233 150.886 379.287 150.886C378.341 150.886 377.578 150.097 377.578 149.12C377.578 148.143 378.345 147.354 379.287 147.354ZM364.946 147.354C365.889 147.354 366.656 148.146 366.656 149.12C366.656 150.094 365.889 150.886 364.946 150.886C364.004 150.886 363.234 150.097 363.234 149.12C363.234 148.143 364 147.354 364.946 147.354ZM350.602 147.354C351.545 147.354 352.312 148.146 352.312 149.12C352.312 150.094 351.545 150.886 350.602 150.886C349.659 150.886 348.893 150.097 348.893 149.12C348.893 148.143 349.656 147.354 350.602 147.354ZM336.258 147.354C337.204 147.354 337.968 148.146 337.968 149.12C337.968 150.094 337.204 150.886 336.258 150.886C335.312 150.886 334.549 150.097 334.549 149.12C334.549 148.143 335.315 147.354 336.258 147.354ZM321.917 147.354C322.86 147.354 323.627 148.146 323.627 149.12C323.627 150.094 322.86 150.886 321.917 150.886C320.974 150.886 320.205 150.097 320.205 149.12C320.205 148.143 320.971 147.354 321.917 147.354ZM307.573 147.354C308.516 147.354 309.282 148.146 309.282 149.12C309.282 150.094 308.516 150.886 307.573 150.886C306.63 150.886 305.864 150.097 305.864 149.12C305.864 148.143 306.627 147.354 307.573 147.354ZM293.229 147.354C294.175 147.354 294.938 148.146 294.938 149.12C294.938 150.094 294.175 150.886 293.229 150.886C292.283 150.886 291.519 150.097 291.519 149.12C291.519 148.143 292.283 147.354 293.229 147.354ZM278.888 147.354C279.834 147.354 280.601 148.146 280.601 149.12C280.601 150.094 279.834 150.886 278.888 150.886C277.942 150.886 277.179 150.097 277.179 149.12C277.179 148.143 277.945 147.354 278.888 147.354ZM264.544 147.354C265.487 147.354 266.253 148.146 266.253 149.12C266.253 150.094 265.487 150.886 264.544 150.886C263.601 150.886 262.831 150.097 262.831 149.12C262.831 148.143 263.598 147.354 264.544 147.354ZM250.2 147.354C251.142 147.354 251.909 148.146 251.909 149.12C251.909 150.094 251.142 150.886 250.2 150.886C249.257 150.886 248.49 150.097 248.49 149.12C248.49 148.143 249.254 147.354 250.2 147.354ZM235.859 147.354C236.805 147.354 237.568 148.146 237.568 149.12C237.568 150.094 236.805 150.886 235.859 150.886C234.913 150.886 234.149 150.097 234.149 149.12C234.149 148.143 234.913 147.354 235.859 147.354ZM221.515 147.354C222.461 147.354 223.227 148.146 223.227 149.12C223.227 150.094 222.461 150.886 221.515 150.886C220.569 150.886 219.805 150.097 219.805 149.12C219.805 148.143 220.572 147.354 221.515 147.354ZM207.17 147.354C208.113 147.354 208.88 148.146 208.88 149.12C208.88 150.094 208.113 150.886 207.17 150.886C206.228 150.886 205.461 150.097 205.461 149.12C205.461 148.143 206.224 147.354 207.17 147.354ZM192.83 147.354C193.776 147.354 194.539 148.146 194.539 149.12C194.539 150.094 193.776 150.886 192.83 150.886C191.883 150.886 191.12 150.097 191.12 149.12C191.12 148.143 191.887 147.354 192.83 147.354ZM178.485 147.354C179.431 147.354 180.195 148.146 180.195 149.12C180.195 150.094 179.431 150.886 178.485 150.886C177.539 150.886 176.776 150.097 176.776 149.12C176.776 148.143 177.543 147.354 178.485 147.354ZM164.141 147.354C165.084 147.354 165.851 148.146 165.851 149.12C165.851 150.094 165.084 150.886 164.141 150.886C163.198 150.886 162.429 150.097 162.429 149.12C162.429 148.143 163.195 147.354 164.141 147.354ZM149.8 147.354C150.743 147.354 151.51 148.146 151.51 149.12C151.51 150.094 150.743 150.886 149.8 150.886C148.858 150.886 148.091 150.097 148.091 149.12C148.091 148.143 148.854 147.354 149.8 147.354ZM135.456 147.354C136.402 147.354 137.166 148.146 137.166 149.12C137.166 150.094 136.402 150.886 135.456 150.886C134.51 150.886 133.747 150.097 133.747 149.12C133.747 148.143 134.513 147.354 135.456 147.354ZM121.112 147.354C122.058 147.354 122.825 148.146 122.825 149.12C122.825 150.094 122.058 150.886 121.112 150.886C120.166 150.886 119.403 150.097 119.403 149.12C119.403 148.143 120.169 147.354 121.112 147.354ZM106.771 147.354C107.714 147.354 108.481 148.146 108.481 149.12C108.481 150.094 107.714 150.886 106.771 150.886C105.828 150.886 105.058 150.097 105.058 149.12C105.058 148.143 105.825 147.354 106.771 147.354ZM92.427 147.354C93.3698 147.354 94.1364 148.146 94.1364 149.12C94.1364 150.094 93.3698 150.886 92.427 150.886C91.4842 150.886 90.7175 150.097 90.7175 149.12C90.7175 148.143 91.4809 147.354 92.427 147.354ZM78.0828 147.354C79.0289 147.354 79.7922 148.146 79.7922 149.12C79.7922 150.094 79.0289 150.886 78.0828 150.886C77.1367 150.886 76.3734 150.097 76.3734 149.12C76.3734 148.143 77.14 147.354 78.0828 147.354ZM63.7419 147.354C64.6847 147.354 65.4513 148.146 65.4513 149.12C65.4513 150.094 64.6847 150.886 63.7419 150.886C62.7991 150.886 62.0292 150.097 62.0292 149.12C62.0292 148.143 62.7958 147.354 63.7419 147.354ZM49.3977 147.354C50.3438 147.354 51.1072 148.146 51.1072 149.12C51.1072 150.094 50.3438 150.886 49.3977 150.886C48.4517 150.886 47.6883 150.097 47.6883 149.12C47.6883 148.143 48.4517 147.354 49.3977 147.354ZM35.0536 147.354C35.9996 147.354 36.763 148.146 36.763 149.12C36.763 150.094 35.9996 150.886 35.0536 150.886C34.1075 150.886 33.3442 150.097 33.3442 149.12C33.3442 148.143 34.1108 147.354 35.0536 147.354ZM20.7094 147.354C21.6555 147.354 22.4221 148.146 22.4221 149.12C22.4221 150.094 21.6555 150.886 20.7094 150.886C19.7634 150.886 19 150.097 19 149.12C19 148.143 19.7666 147.354 20.7094 147.354ZM366.656 160.725C366.656 159.752 365.889 158.961 364.946 158.961C364 158.961 363.234 159.749 363.234 160.725C363.234 161.702 364.003 162.493 364.946 162.493C365.889 162.493 366.656 161.698 366.656 160.725ZM352.312 160.725C352.312 159.752 351.545 158.961 350.602 158.961C349.656 158.961 348.893 159.749 348.893 160.725C348.893 161.702 349.659 162.493 350.602 162.493C351.545 162.493 352.312 161.698 352.312 160.725ZM337.967 160.725C337.967 159.752 337.204 158.961 336.258 158.961C335.315 158.961 334.549 159.749 334.549 160.725C334.549 161.702 335.312 162.493 336.258 162.493C337.204 162.493 337.967 161.698 337.967 160.725ZM323.626 160.725C323.626 159.752 322.86 158.961 321.917 158.961C320.971 158.961 320.204 159.749 320.204 160.725C320.204 161.702 320.974 162.493 321.917 162.493C322.86 162.493 323.626 161.698 323.626 160.725ZM309.282 160.725C309.282 159.752 308.516 158.961 307.573 158.961C306.627 158.961 305.863 159.749 305.863 160.725C305.863 161.702 306.63 162.493 307.573 162.493C308.516 162.493 309.282 161.698 309.282 160.725ZM294.938 160.725C294.938 159.752 294.175 158.961 293.229 158.961C292.283 158.961 291.519 159.749 291.519 160.725C291.519 161.702 292.283 162.493 293.229 162.493C294.175 162.493 294.938 161.698 294.938 160.725ZM280.601 160.725C280.601 159.752 279.834 158.961 278.888 158.961C277.945 158.961 277.178 159.749 277.178 160.725C277.178 161.702 277.942 162.493 278.888 162.493C279.834 162.493 280.601 161.698 280.601 160.725ZM266.253 160.725C266.253 159.752 265.486 158.961 264.544 158.961C263.598 158.961 262.831 159.749 262.831 160.725C262.831 161.702 263.601 162.493 264.544 162.493C265.486 162.493 266.253 161.698 266.253 160.725ZM251.909 160.725C251.909 159.752 251.142 158.961 250.2 158.961C249.253 158.961 248.49 159.749 248.49 160.725C248.49 161.702 249.257 162.493 250.2 162.493C251.142 162.493 251.909 161.698 251.909 160.725ZM237.568 160.725C237.568 159.752 236.805 158.961 235.859 158.961C234.913 158.961 234.149 159.749 234.149 160.725C234.149 161.702 234.913 162.493 235.859 162.493C236.805 162.493 237.568 161.698 237.568 160.725ZM223.227 160.725C223.227 159.752 222.46 158.961 221.514 158.961C220.572 158.961 219.805 159.749 219.805 160.725C219.805 161.702 220.568 162.493 221.514 162.493C222.46 162.493 223.227 161.698 223.227 160.725ZM208.88 160.725C208.88 159.752 208.113 158.961 207.17 158.961C206.224 158.961 205.461 159.749 205.461 160.725C205.461 161.702 206.227 162.493 207.17 162.493C208.113 162.493 208.88 161.698 208.88 160.725ZM194.539 160.725C194.539 159.752 193.775 158.961 192.829 158.961C191.887 158.961 191.12 159.749 191.12 160.725C191.12 161.702 191.883 162.493 192.829 162.493C193.775 162.493 194.539 161.698 194.539 160.725ZM180.195 160.725C180.195 159.752 179.431 158.961 178.485 158.961C177.542 158.961 176.776 159.749 176.776 160.725C176.776 161.702 177.539 162.493 178.485 162.493C179.431 162.493 180.195 161.698 180.195 160.725ZM165.85 160.725C165.85 159.752 165.084 158.961 164.141 158.961C163.195 158.961 162.428 159.749 162.428 160.725C162.428 161.702 163.198 162.493 164.141 162.493C165.084 162.493 165.85 161.698 165.85 160.725ZM151.51 160.725C151.51 159.752 150.743 158.961 149.8 158.961C148.854 158.961 148.091 159.749 148.091 160.725C148.091 161.702 148.857 162.493 149.8 162.493C150.743 162.493 151.51 161.698 151.51 160.725ZM137.165 160.725C137.165 159.752 136.402 158.961 135.456 158.961C134.513 158.961 133.747 159.749 133.747 160.725C133.747 161.702 134.51 162.493 135.456 162.493C136.402 162.493 137.165 161.698 137.165 160.725ZM122.825 160.725C122.825 159.752 122.058 158.961 121.112 158.961C120.169 158.961 119.402 159.749 119.402 160.725C119.402 161.702 120.166 162.493 121.112 162.493C122.058 162.493 122.825 161.698 122.825 160.725ZM108.48 160.725C108.48 159.752 107.714 158.961 106.771 158.961C105.825 158.961 105.058 159.749 105.058 160.725C105.058 161.702 105.828 162.493 106.771 162.493C107.714 162.493 108.48 161.698 108.48 160.725ZM94.1362 160.725C94.1362 159.752 93.3696 158.961 92.4268 158.961C91.4807 158.961 90.7174 159.749 90.7174 160.725C90.7174 161.702 91.484 162.493 92.4268 162.493C93.3696 162.493 94.1362 161.698 94.1362 160.725ZM79.7921 160.725C79.7921 159.752 79.0287 158.961 78.0826 158.961C77.1398 158.961 76.3732 159.749 76.3732 160.725C76.3732 161.702 77.1366 162.493 78.0826 162.493C79.0287 162.493 79.7921 161.698 79.7921 160.725ZM65.4512 160.725C65.4512 159.752 64.6845 158.961 63.7417 158.961C62.7957 158.961 62.0291 159.749 62.0291 160.725C62.0291 161.702 62.7989 162.493 63.7417 162.493C64.6845 162.493 65.4512 161.698 65.4512 160.725ZM51.107 160.725C51.107 159.752 50.3436 158.961 49.3976 158.961C48.4515 158.961 47.6882 159.749 47.6882 160.725C47.6882 161.702 48.4515 162.493 49.3976 162.493C50.3436 162.493 51.107 161.698 51.107 160.725ZM36.7628 160.725C36.7628 159.752 35.9995 158.961 35.0534 158.961C34.1106 158.961 33.344 159.749 33.344 160.725C33.344 161.702 34.1074 162.493 35.0534 162.493C35.9995 162.493 36.7628 161.698 36.7628 160.725Z" fill="url(#paint0_linear_2125_4550)" fill-opacity="0.65"/>
<defs>
<filter id="filter0_ii_2125_4550" x="8" y="8" width="384" height="161" filterUnits="userSpaceOnUse" color-interpolation-filters="sRGB">
<feFlood flood-opacity="0" result="BackgroundImageFix"/>
<feBlend mode="normal" in="SourceGraphic" in2="BackgroundImageFix" result="shape"/>
<feColorMatrix in="SourceAlpha" type="matrix" values="0 0 0 0 0 0 0 0 0 0 0 0 0 0 0 0 0 0 127 0" result="hardAlpha"/>
<feOffset/>
<feGaussianBlur stdDeviation="16"/>
<feComposite in2="hardAlpha" operator="arithmetic" k2="-1" k3="1"/>
<feColorMatrix type="matrix" values="0 0 0 0 0 0 0 0 0 1 0 0 0 0 0.564706 0 0 0 0.35 0"/>
<feBlend mode="normal" in2="shape" result="effect1_innerShadow_2125_4550"/>
<feColorMatrix in="SourceAlpha" type="matrix" values="0 0 0 0 0 0 0 0 0 0 0 0 0 0 0 0 0 0 127 0" result="hardAlpha"/>
<feOffset/>
<feGaussianBlur stdDeviation="2"/>
<feComposite in2="hardAlpha" operator="arithmetic" k2="-1" k3="1"/>
<feColorMatrix type="matrix" values="0 0 0 0 1 0 0 0 0 1 0 0 0 0 1 0 0 0 0.5 0"/>
<feBlend mode="normal" in2="effect1_innerShadow_2125_4550" result="effect2_innerShadow_2125_4550"/>
</filter>
<linearGradient id="paint0_linear_2125_4550" x1="200" y1="8" x2="200" y2="169" gradientUnits="userSpaceOnUse">
<stop stop-color="#00331D" stop-opacity="0"/>
<stop offset="0.5" stop-color="#00331D"/>
<stop offset="1" stop-color="#00331D" stop-opacity="0"/>
</linearGradient>
</defs>
</svg>
