<svg width="400" height="152" viewBox="0 0 400 152" fill="none" xmlns="http://www.w3.org/2000/svg">
<path d="M20 8H384L392 16V132L380 144H16L8 136V20L20 8Z" fill="black" fill-opacity="0.15"/>
<path d="M1 68V17L17 1H391L399 9V68" stroke="#009956" stroke-width="0.5"/>
<path d="M1 1V11L11 1H1Z" fill="#00FF90"/>
<path d="M398 2V8L392 2H398Z" fill="#00FF90"/>
<path d="M1 84V143L9 151H383L399 135V84" stroke="#009956" stroke-width="0.5"/>
<path d="M2 150V144L8 150H2Z" fill="#00FF90"/>
<path d="M399 151V141L389 151H399Z" fill="#00FF90"/>
<path fill-rule="evenodd" clip-rule="evenodd" d="M366.656 15.7642C366.656 14.7912 365.889 14 364.946 14C364 14 363.234 14.7878 363.234 15.7642C363.234 16.7405 364.003 17.5317 364.946 17.5317C365.889 17.5317 366.656 16.7372 366.656 15.7642ZM352.312 15.7642C352.312 14.7912 351.545 14 350.602 14C349.656 14 348.893 14.7878 348.893 15.7642C348.893 16.7405 349.659 17.5317 350.602 17.5317C351.545 17.5317 352.312 16.7372 352.312 15.7642ZM337.967 15.7642C337.967 14.7912 337.204 14 336.258 14C335.315 14 334.549 14.7878 334.549 15.7642C334.549 16.7405 335.312 17.5317 336.258 17.5317C337.204 17.5317 337.967 16.7372 337.967 15.7642ZM323.626 15.7642C323.626 14.7912 322.86 14 321.917 14C320.971 14 320.204 14.7878 320.204 15.7642C320.204 16.7405 320.974 17.5317 321.917 17.5317C322.86 17.5317 323.626 16.7372 323.626 15.7642ZM309.282 15.7642C309.282 14.7912 308.516 14 307.573 14C306.627 14 305.863 14.7878 305.863 15.7642C305.863 16.7405 306.63 17.5317 307.573 17.5317C308.516 17.5317 309.282 16.7372 309.282 15.7642ZM294.938 15.7642C294.938 14.7912 294.175 14 293.229 14C292.283 14 291.519 14.7878 291.519 15.7642C291.519 16.7405 292.283 17.5317 293.229 17.5317C294.175 17.5317 294.938 16.7372 294.938 15.7642ZM280.6 15.7642C280.6 14.7912 279.834 14 278.888 14C277.945 14 277.178 14.7878 277.178 15.7642C277.178 16.7405 277.942 17.5317 278.888 17.5317C279.834 17.5317 280.6 16.7372 280.6 15.7642ZM266.253 15.7642C266.253 14.7912 265.486 14 264.544 14C263.598 14 262.831 14.7878 262.831 15.7642C262.831 16.7405 263.601 17.5317 264.544 17.5317C265.486 17.5317 266.253 16.7372 266.253 15.7642ZM251.909 15.7642C251.909 14.7912 251.142 14 250.2 14C249.253 14 248.49 14.7878 248.49 15.7642C248.49 16.7405 249.257 17.5317 250.2 17.5317C251.142 17.5317 251.909 16.7372 251.909 15.7642ZM237.568 15.7642C237.568 14.7912 236.805 14 235.859 14C234.913 14 234.149 14.7878 234.149 15.7642C234.149 16.7405 234.913 17.5317 235.859 17.5317C236.805 17.5317 237.568 16.7372 237.568 15.7642ZM223.227 15.7642C223.227 14.7912 222.46 14 221.514 14C220.572 14 219.805 14.7878 219.805 15.7642C219.805 16.7405 220.568 17.5317 221.514 17.5317C222.46 17.5317 223.227 16.7372 223.227 15.7642ZM208.88 15.7642C208.88 14.7912 208.113 14 207.17 14C206.224 14 205.461 14.7878 205.461 15.7642C205.461 16.7405 206.227 17.5317 207.17 17.5317C208.113 17.5317 208.88 16.7372 208.88 15.7642ZM194.539 15.7642C194.539 14.7912 193.775 14 192.829 14C191.887 14 191.12 14.7878 191.12 15.7642C191.12 16.7405 191.883 17.5317 192.829 17.5317C193.775 17.5317 194.539 16.7372 194.539 15.7642ZM180.195 15.7642C180.195 14.7912 179.431 14 178.485 14C177.542 14 176.776 14.7878 176.776 15.7642C176.776 16.7405 177.539 17.5317 178.485 17.5317C179.431 17.5317 180.195 16.7372 180.195 15.7642ZM165.85 15.7642C165.85 14.7912 165.084 14 164.141 14C163.195 14 162.428 14.7878 162.428 15.7642C162.428 16.7405 163.198 17.5317 164.141 17.5317C165.084 17.5317 165.85 16.7372 165.85 15.7642ZM151.51 15.7642C151.51 14.7912 150.743 14 149.8 14C148.854 14 148.091 14.7878 148.091 15.7642C148.091 16.7405 148.857 17.5317 149.8 17.5317C150.743 17.5317 151.51 16.7372 151.51 15.7642ZM137.165 15.7642C137.165 14.7912 136.402 14 135.456 14C134.513 14 133.747 14.7878 133.747 15.7642C133.747 16.7405 134.51 17.5317 135.456 17.5317C136.402 17.5317 137.165 16.7372 137.165 15.7642ZM122.825 15.7642C122.825 14.7912 122.058 14 121.112 14C120.169 14 119.402 14.7878 119.402 15.7642C119.402 16.7405 120.166 17.5317 121.112 17.5317C122.058 17.5317 122.825 16.7372 122.825 15.7642ZM108.48 15.7642C108.48 14.7912 107.714 14 106.771 14C105.825 14 105.058 14.7878 105.058 15.7642C105.058 16.7405 105.828 17.5317 106.771 17.5317C107.714 17.5317 108.48 16.7372 108.48 15.7642ZM94.1362 15.7642C94.1362 14.7912 93.3696 14 92.4268 14C91.4807 14 90.7174 14.7878 90.7174 15.7642C90.7174 16.7405 91.484 17.5317 92.4268 17.5317C93.3696 17.5317 94.1362 16.7372 94.1362 15.7642ZM79.7921 15.7642C79.7921 14.7912 79.0287 14 78.0826 14C77.1398 14 76.3732 14.7878 76.3732 15.7642C76.3732 16.7405 77.1366 17.5317 78.0826 17.5317C79.0287 17.5317 79.7921 16.7372 79.7921 15.7642ZM65.4512 15.7642C65.4512 14.7912 64.6845 14 63.7417 14C62.7957 14 62.0291 14.7878 62.0291 15.7642C62.0291 16.7405 62.7989 17.5317 63.7417 17.5317C64.6845 17.5317 65.4512 16.7372 65.4512 15.7642ZM51.107 15.7642C51.107 14.7912 50.3436 14 49.3976 14C48.4515 14 47.6882 14.7878 47.6882 15.7642C47.6882 16.7405 48.4515 17.5317 49.3976 17.5317C50.3436 17.5317 51.107 16.7372 51.107 15.7642ZM36.7628 15.7642C36.7628 14.7912 35.9995 14 35.0534 14C34.1106 14 33.344 14.7878 33.344 15.7642C33.344 16.7405 34.1074 17.5317 35.0534 17.5317C35.9995 17.5317 36.7628 16.7372 36.7628 15.7642ZM381 26.3593C381 25.3863 380.233 24.5951 379.287 24.5951C378.345 24.5951 377.578 25.3829 377.578 26.3593C377.578 27.3356 378.341 28.1268 379.287 28.1268C380.233 28.1268 381 27.3322 381 26.3593ZM366.656 26.3593C366.656 25.3863 365.889 24.5951 364.946 24.5951C364 24.5951 363.234 25.3829 363.234 26.3593C363.234 27.3356 364.004 28.1268 364.946 28.1268C365.889 28.1268 366.656 27.3322 366.656 26.3593ZM352.312 26.3593C352.312 25.3863 351.545 24.5951 350.602 24.5951C349.656 24.5951 348.893 25.3829 348.893 26.3593C348.893 27.3356 349.659 28.1268 350.602 28.1268C351.545 28.1268 352.312 27.3322 352.312 26.3593ZM337.968 26.3593C337.968 25.3863 337.204 24.5951 336.258 24.5951C335.315 24.5951 334.549 25.3829 334.549 26.3593C334.549 27.3356 335.312 28.1268 336.258 28.1268C337.204 28.1268 337.968 27.3322 337.968 26.3593ZM323.627 26.3593C323.627 25.3863 322.86 24.5951 321.917 24.5951C320.971 24.5951 320.205 25.3829 320.205 26.3593C320.205 27.3356 320.974 28.1268 321.917 28.1268C322.86 28.1268 323.627 27.3322 323.627 26.3593ZM309.282 26.3593C309.282 25.3863 308.516 24.5951 307.573 24.5951C306.627 24.5951 305.864 25.3829 305.864 26.3593C305.864 27.3356 306.63 28.1268 307.573 28.1268C308.516 28.1268 309.282 27.3322 309.282 26.3593ZM294.938 26.3593C294.938 25.3863 294.175 24.5951 293.229 24.5951C292.283 24.5951 291.519 25.3829 291.519 26.3593C291.519 27.3356 292.283 28.1268 293.229 28.1268C294.175 28.1268 294.938 27.3322 294.938 26.3593ZM280.601 26.3593C280.601 25.3863 279.834 24.5951 278.888 24.5951C277.945 24.5951 277.179 25.3829 277.179 26.3593C277.179 27.3356 277.942 28.1268 278.888 28.1268C279.834 28.1268 280.601 27.3322 280.601 26.3593ZM266.253 26.3593C266.253 25.3863 265.487 24.5951 264.544 24.5951C263.598 24.5951 262.831 25.3829 262.831 26.3593C262.831 27.3356 263.601 28.1268 264.544 28.1268C265.487 28.1268 266.253 27.3322 266.253 26.3593ZM251.909 26.3593C251.909 25.3863 251.142 24.5951 250.2 24.5951C249.254 24.5951 248.49 25.3829 248.49 26.3593C248.49 27.3356 249.257 28.1268 250.2 28.1268C251.142 28.1268 251.909 27.3322 251.909 26.3593ZM237.568 26.3593C237.568 25.3863 236.805 24.5951 235.859 24.5951C234.913 24.5951 234.149 25.3829 234.149 26.3593C234.149 27.3356 234.913 28.1268 235.859 28.1268C236.805 28.1268 237.568 27.3322 237.568 26.3593ZM223.227 26.3593C223.227 25.3863 222.461 24.5951 221.515 24.5951C220.572 24.5951 219.805 25.3829 219.805 26.3593C219.805 27.3356 220.569 28.1268 221.515 28.1268C222.461 28.1268 223.227 27.3322 223.227 26.3593ZM208.88 26.3593C208.88 25.3863 208.113 24.5951 207.17 24.5951C206.224 24.5951 205.461 25.3829 205.461 26.3593C205.461 27.3356 206.228 28.1268 207.17 28.1268C208.113 28.1268 208.88 27.3322 208.88 26.3593ZM194.539 26.3593C194.539 25.3863 193.776 24.5951 192.83 24.5951C191.887 24.5951 191.12 25.3829 191.12 26.3593C191.12 27.3356 191.883 28.1268 192.83 28.1268C193.776 28.1268 194.539 27.3322 194.539 26.3593ZM180.195 26.3593C180.195 25.3863 179.431 24.5951 178.485 24.5951C177.543 24.5951 176.776 25.3829 176.776 26.3593C176.776 27.3356 177.539 28.1268 178.485 28.1268C179.431 28.1268 180.195 27.3322 180.195 26.3593ZM165.851 26.3593C165.851 25.3863 165.084 24.5951 164.141 24.5951C163.195 24.5951 162.429 25.3829 162.429 26.3593C162.429 27.3356 163.198 28.1268 164.141 28.1268C165.084 28.1268 165.851 27.3322 165.851 26.3593ZM151.51 26.3593C151.51 25.3863 150.743 24.5951 149.8 24.5951C148.854 24.5951 148.091 25.3829 148.091 26.3593C148.091 27.3356 148.858 28.1268 149.8 28.1268C150.743 28.1268 151.51 27.3322 151.51 26.3593ZM137.166 26.3593C137.166 25.3863 136.402 24.5951 135.456 24.5951C134.513 24.5951 133.747 25.3829 133.747 26.3593C133.747 27.3356 134.51 28.1268 135.456 28.1268C136.402 28.1268 137.166 27.3322 137.166 26.3593ZM122.825 26.3593C122.825 25.3863 122.058 24.5951 121.112 24.5951C120.169 24.5951 119.403 25.3829 119.403 26.3593C119.403 27.3356 120.166 28.1268 121.112 28.1268C122.058 28.1268 122.825 27.3322 122.825 26.3593ZM108.481 26.3593C108.481 25.3863 107.714 24.5951 106.771 24.5951C105.825 24.5951 105.058 25.3829 105.058 26.3593C105.058 27.3356 105.828 28.1268 106.771 28.1268C107.714 28.1268 108.481 27.3322 108.481 26.3593ZM94.1364 26.3593C94.1364 25.3863 93.3698 24.5951 92.427 24.5951C91.4809 24.5951 90.7175 25.3829 90.7175 26.3593C90.7175 27.3356 91.4842 28.1268 92.427 28.1268C93.3698 28.1268 94.1364 27.3322 94.1364 26.3593ZM79.7922 26.3593C79.7922 25.3863 79.0289 24.5951 78.0828 24.5951C77.14 24.5951 76.3734 25.3829 76.3734 26.3593C76.3734 27.3356 77.1367 28.1268 78.0828 28.1268C79.0289 28.1268 79.7922 27.3322 79.7922 26.3593ZM65.4513 26.3593C65.4513 25.3863 64.6847 24.5951 63.7419 24.5951C62.7958 24.5951 62.0292 25.3829 62.0292 26.3593C62.0292 27.3356 62.7991 28.1268 63.7419 28.1268C64.6847 28.1268 65.4513 27.3322 65.4513 26.3593ZM51.1072 26.3593C51.1072 25.3863 50.3438 24.5951 49.3977 24.5951C48.4517 24.5951 47.6883 25.3829 47.6883 26.3593C47.6883 27.3356 48.4517 28.1268 49.3977 28.1268C50.3438 28.1268 51.1072 27.3322 51.1072 26.3593ZM36.763 26.3593C36.763 25.3863 35.9996 24.5951 35.0536 24.5951C34.1108 24.5951 33.3442 25.3829 33.3442 26.3593C33.3442 27.3356 34.1075 28.1268 35.0536 28.1268C35.9996 28.1268 36.763 27.3322 36.763 26.3593ZM22.4221 26.3593C22.4221 25.3863 21.6555 24.5951 20.7094 24.5951C19.7666 24.5951 19 25.3829 19 26.3593C19 27.3356 19.7634 28.1268 20.7094 28.1268C21.6555 28.1268 22.4221 27.3322 22.4221 26.3593ZM379.287 36.0731C380.233 36.0731 381 36.8643 381 37.8407C381 38.817 380.233 39.6048 379.287 39.6048C378.341 39.6048 377.578 38.8136 377.578 37.8407C377.578 36.8677 378.345 36.0731 379.287 36.0731ZM364.946 36.0731C365.889 36.0731 366.656 36.8643 366.656 37.8407C366.656 38.817 365.889 39.6048 364.946 39.6048C364.004 39.6048 363.234 38.8136 363.234 37.8407C363.234 36.8677 364 36.0731 364.946 36.0731ZM350.602 36.0731C351.545 36.0731 352.312 36.8643 352.312 37.8407C352.312 38.817 351.545 39.6048 350.602 39.6048C349.659 39.6048 348.893 38.8136 348.893 37.8407C348.893 36.8677 349.656 36.0731 350.602 36.0731ZM336.258 36.0731C337.204 36.0731 337.968 36.8643 337.968 37.8407C337.968 38.817 337.204 39.6048 336.258 39.6048C335.312 39.6048 334.549 38.8136 334.549 37.8407C334.549 36.8677 335.315 36.0731 336.258 36.0731ZM321.917 36.0731C322.86 36.0731 323.627 36.8643 323.627 37.8407C323.627 38.817 322.86 39.6048 321.917 39.6048C320.974 39.6048 320.205 38.8136 320.205 37.8407C320.205 36.8677 320.971 36.0731 321.917 36.0731ZM307.573 36.0731C308.516 36.0731 309.282 36.8643 309.282 37.8407C309.282 38.817 308.516 39.6048 307.573 39.6048C306.63 39.6048 305.864 38.8136 305.864 37.8407C305.864 36.8677 306.627 36.0731 307.573 36.0731ZM293.229 36.0731C294.175 36.0731 294.938 36.8643 294.938 37.8407C294.938 38.817 294.175 39.6048 293.229 39.6048C292.283 39.6048 291.519 38.8136 291.519 37.8407C291.519 36.8677 292.283 36.0731 293.229 36.0731ZM278.888 36.0731C279.834 36.0731 280.601 36.8643 280.601 37.8407C280.601 38.817 279.834 39.6048 278.888 39.6048C277.942 39.6048 277.179 38.8136 277.179 37.8407C277.179 36.8677 277.945 36.0731 278.888 36.0731ZM264.544 36.0731C265.487 36.0731 266.253 36.8643 266.253 37.8407C266.253 38.817 265.487 39.6048 264.544 39.6048C263.601 39.6048 262.831 38.8136 262.831 37.8407C262.831 36.8677 263.598 36.0731 264.544 36.0731ZM250.2 36.0731C251.142 36.0731 251.909 36.8643 251.909 37.8407C251.909 38.817 251.142 39.6048 250.2 39.6048C249.257 39.6048 248.49 38.8136 248.49 37.8407C248.49 36.8677 249.254 36.0731 250.2 36.0731ZM235.859 36.0731C236.805 36.0731 237.568 36.8643 237.568 37.8407C237.568 38.817 236.805 39.6048 235.859 39.6048C234.913 39.6048 234.149 38.8136 234.149 37.8407C234.149 36.8677 234.913 36.0731 235.859 36.0731ZM221.515 36.0731C222.461 36.0731 223.227 36.8643 223.227 37.8407C223.227 38.817 222.461 39.6048 221.515 39.6048C220.569 39.6048 219.805 38.8136 219.805 37.8407C219.805 36.8677 220.572 36.0731 221.515 36.0731ZM207.17 36.0731C208.113 36.0731 208.88 36.8643 208.88 37.8407C208.88 38.817 208.113 39.6048 207.17 39.6048C206.228 39.6048 205.461 38.8136 205.461 37.8407C205.461 36.8677 206.224 36.0731 207.17 36.0731ZM192.83 36.0731C193.776 36.0731 194.539 36.8643 194.539 37.8407C194.539 38.817 193.776 39.6048 192.83 39.6048C191.883 39.6048 191.12 38.8136 191.12 37.8407C191.12 36.8677 191.887 36.0731 192.83 36.0731ZM178.485 36.0731C179.431 36.0731 180.195 36.8643 180.195 37.8407C180.195 38.817 179.431 39.6048 178.485 39.6048C177.539 39.6048 176.776 38.8136 176.776 37.8407C176.776 36.8677 177.543 36.0731 178.485 36.0731ZM164.141 36.0731C165.084 36.0731 165.851 36.8643 165.851 37.8407C165.851 38.817 165.084 39.6048 164.141 39.6048C163.198 39.6048 162.429 38.8136 162.429 37.8407C162.429 36.8677 163.195 36.0731 164.141 36.0731ZM149.8 36.0731C150.743 36.0731 151.51 36.8643 151.51 37.8407C151.51 38.817 150.743 39.6048 149.8 39.6048C148.858 39.6048 148.091 38.8136 148.091 37.8407C148.091 36.8677 148.854 36.0731 149.8 36.0731ZM135.456 36.0731C136.402 36.0731 137.166 36.8643 137.166 37.8407C137.166 38.817 136.402 39.6048 135.456 39.6048C134.51 39.6048 133.747 38.8136 133.747 37.8407C133.747 36.8677 134.513 36.0731 135.456 36.0731ZM121.112 36.0731C122.058 36.0731 122.825 36.8643 122.825 37.8407C122.825 38.817 122.058 39.6048 121.112 39.6048C120.166 39.6048 119.403 38.8136 119.403 37.8407C119.403 36.8677 120.169 36.0731 121.112 36.0731ZM106.771 36.0731C107.714 36.0731 108.481 36.8643 108.481 37.8407C108.481 38.817 107.714 39.6048 106.771 39.6048C105.828 39.6048 105.058 38.8136 105.058 37.8407C105.058 36.8677 105.825 36.0731 106.771 36.0731ZM92.427 36.0731C93.3698 36.0731 94.1364 36.8643 94.1364 37.8407C94.1364 38.817 93.3698 39.6048 92.427 39.6048C91.4842 39.6048 90.7175 38.8136 90.7175 37.8407C90.7175 36.8677 91.4809 36.0731 92.427 36.0731ZM78.0828 36.0731C79.0289 36.0731 79.7922 36.8643 79.7922 37.8407C79.7922 38.817 79.0289 39.6048 78.0828 39.6048C77.1367 39.6048 76.3734 38.8136 76.3734 37.8407C76.3734 36.8677 77.14 36.0731 78.0828 36.0731ZM63.7419 36.0731C64.6847 36.0731 65.4513 36.8643 65.4513 37.8407C65.4513 38.817 64.6847 39.6048 63.7419 39.6048C62.7991 39.6048 62.0292 38.8136 62.0292 37.8407C62.0292 36.8677 62.7958 36.0731 63.7419 36.0731ZM49.3977 36.0731C50.3438 36.0731 51.1072 36.8643 51.1072 37.8407C51.1072 38.817 50.3438 39.6048 49.3977 39.6048C48.4517 39.6048 47.6883 38.8136 47.6883 37.8407C47.6883 36.8677 48.4517 36.0731 49.3977 36.0731ZM35.0536 36.0731C35.9996 36.0731 36.763 36.8643 36.763 37.8407C36.763 38.817 35.9996 39.6048 35.0536 39.6048C34.1075 39.6048 33.3442 38.8136 33.3442 37.8407C33.3442 36.8677 34.1108 36.0731 35.0536 36.0731ZM20.7094 36.0731C21.6555 36.0731 22.4221 36.8643 22.4221 37.8407C22.4221 38.817 21.6555 39.6048 20.7094 39.6048C19.7634 39.6048 19 38.8136 19 37.8407C19 36.8677 19.7666 36.0731 20.7094 36.0731ZM381 48.4359C381 47.4595 380.233 46.6683 379.287 46.6683C378.345 46.6683 377.578 47.4629 377.578 48.4359C377.578 49.4089 378.341 50.2 379.287 50.2C380.233 50.2 381 49.4122 381 48.4359ZM366.656 48.4359C366.656 47.4595 365.889 46.6683 364.946 46.6683C364 46.6683 363.234 47.4629 363.234 48.4359C363.234 49.4089 364.004 50.2 364.946 50.2C365.889 50.2 366.656 49.4122 366.656 48.4359ZM352.312 48.4359C352.312 47.4595 351.545 46.6683 350.602 46.6683C349.656 46.6683 348.893 47.4629 348.893 48.4359C348.893 49.4089 349.659 50.2 350.602 50.2C351.545 50.2 352.312 49.4122 352.312 48.4359ZM337.968 48.4359C337.968 47.4595 337.204 46.6683 336.258 46.6683C335.315 46.6683 334.549 47.4629 334.549 48.4359C334.549 49.4089 335.312 50.2 336.258 50.2C337.204 50.2 337.968 49.4122 337.968 48.4359ZM323.627 48.4359C323.627 47.4595 322.86 46.6683 321.917 46.6683C320.971 46.6683 320.205 47.4629 320.205 48.4359C320.205 49.4089 320.974 50.2 321.917 50.2C322.86 50.2 323.627 49.4122 323.627 48.4359ZM309.282 48.4359C309.282 47.4595 308.516 46.6683 307.573 46.6683C306.627 46.6683 305.864 47.4629 305.864 48.4359C305.864 49.4089 306.63 50.2 307.573 50.2C308.516 50.2 309.282 49.4122 309.282 48.4359ZM294.938 48.4359C294.938 47.4595 294.175 46.6683 293.229 46.6683C292.283 46.6683 291.519 47.4629 291.519 48.4359C291.519 49.4089 292.283 50.2 293.229 50.2C294.175 50.2 294.938 49.4122 294.938 48.4359ZM280.601 48.4359C280.601 47.4595 279.834 46.6683 278.888 46.6683C277.945 46.6683 277.179 47.4629 277.179 48.4359C277.179 49.4089 277.942 50.2 278.888 50.2C279.834 50.2 280.601 49.4122 280.601 48.4359ZM266.253 48.4359C266.253 47.4595 265.487 46.6683 264.544 46.6683C263.598 46.6683 262.831 47.4629 262.831 48.4359C262.831 49.4089 263.601 50.2 264.544 50.2C265.487 50.2 266.253 49.4122 266.253 48.4359ZM251.909 48.4359C251.909 47.4595 251.142 46.6683 250.2 46.6683C249.254 46.6683 248.49 47.4629 248.49 48.4359C248.49 49.4089 249.257 50.2 250.2 50.2C251.142 50.2 251.909 49.4122 251.909 48.4359ZM237.568 48.4359C237.568 47.4595 236.805 46.6683 235.859 46.6683C234.913 46.6683 234.149 47.4629 234.149 48.4359C234.149 49.4089 234.913 50.2 235.859 50.2C236.805 50.2 237.568 49.4122 237.568 48.4359ZM223.227 48.4359C223.227 47.4595 222.461 46.6683 221.515 46.6683C220.572 46.6683 219.805 47.4629 219.805 48.4359C219.805 49.4089 220.569 50.2 221.515 50.2C222.461 50.2 223.227 49.4122 223.227 48.4359ZM208.88 48.4359C208.88 47.4595 208.113 46.6683 207.17 46.6683C206.224 46.6683 205.461 47.4629 205.461 48.4359C205.461 49.4089 206.228 50.2 207.17 50.2C208.113 50.2 208.88 49.4122 208.88 48.4359ZM194.539 48.4359C194.539 47.4595 193.776 46.6683 192.83 46.6683C191.887 46.6683 191.12 47.4629 191.12 48.4359C191.12 49.4089 191.883 50.2 192.83 50.2C193.776 50.2 194.539 49.4122 194.539 48.4359ZM180.195 48.4359C180.195 47.4595 179.431 46.6683 178.485 46.6683C177.543 46.6683 176.776 47.4629 176.776 48.4359C176.776 49.4089 177.539 50.2 178.485 50.2C179.431 50.2 180.195 49.4122 180.195 48.4359ZM165.851 48.4359C165.851 47.4595 165.084 46.6683 164.141 46.6683C163.195 46.6683 162.429 47.4629 162.429 48.4359C162.429 49.4089 163.198 50.2 164.141 50.2C165.084 50.2 165.851 49.4122 165.851 48.4359ZM151.51 48.4359C151.51 47.4595 150.743 46.6683 149.8 46.6683C148.854 46.6683 148.091 47.4629 148.091 48.4359C148.091 49.4089 148.858 50.2 149.8 50.2C150.743 50.2 151.51 49.4122 151.51 48.4359ZM137.166 48.4359C137.166 47.4595 136.402 46.6683 135.456 46.6683C134.513 46.6683 133.747 47.4629 133.747 48.4359C133.747 49.4089 134.51 50.2 135.456 50.2C136.402 50.2 137.166 49.4122 137.166 48.4359ZM122.825 48.4359C122.825 47.4595 122.058 46.6683 121.112 46.6683C120.169 46.6683 119.403 47.4629 119.403 48.4359C119.403 49.4089 120.166 50.2 121.112 50.2C122.058 50.2 122.825 49.4122 122.825 48.4359ZM108.481 48.4359C108.481 47.4595 107.714 46.6683 106.771 46.6683C105.825 46.6683 105.058 47.4629 105.058 48.4359C105.058 49.4089 105.828 50.2 106.771 50.2C107.714 50.2 108.481 49.4122 108.481 48.4359ZM94.1364 48.4359C94.1364 47.4595 93.3698 46.6683 92.427 46.6683C91.4809 46.6683 90.7175 47.4629 90.7175 48.4359C90.7175 49.4089 91.4842 50.2 92.427 50.2C93.3698 50.2 94.1364 49.4122 94.1364 48.4359ZM79.7922 48.4359C79.7922 47.4595 79.0289 46.6683 78.0828 46.6683C77.14 46.6683 76.3734 47.4629 76.3734 48.4359C76.3734 49.4089 77.1367 50.2 78.0828 50.2C79.0289 50.2 79.7922 49.4122 79.7922 48.4359ZM65.4513 48.4359C65.4513 47.4595 64.6847 46.6683 63.7419 46.6683C62.7958 46.6683 62.0292 47.4629 62.0292 48.4359C62.0292 49.4089 62.7991 50.2 63.7419 50.2C64.6847 50.2 65.4513 49.4122 65.4513 48.4359ZM51.1072 48.4359C51.1072 47.4595 50.3438 46.6683 49.3977 46.6683C48.4517 46.6683 47.6883 47.4629 47.6883 48.4359C47.6883 49.4089 48.4517 50.2 49.3977 50.2C50.3438 50.2 51.1072 49.4122 51.1072 48.4359ZM36.763 48.4359C36.763 47.4595 35.9996 46.6683 35.0536 46.6683C34.1108 46.6683 33.3442 47.4629 33.3442 48.4359C33.3442 49.4089 34.1075 50.2 35.0536 50.2C35.9996 50.2 36.763 49.4122 36.763 48.4359ZM22.4221 48.4359C22.4221 47.4595 21.6555 46.6683 20.7094 46.6683C19.7666 46.6683 19 47.4629 19 48.4359C19 49.4089 19.7634 50.2 20.7094 50.2C21.6555 50.2 22.4221 49.4122 22.4221 48.4359ZM379.287 58.1464C380.233 58.1464 381 58.9349 381 59.9122C381 60.8895 380.233 61.6781 379.287 61.6781C378.341 61.6781 377.578 60.8861 377.578 59.9122C377.578 58.9383 378.345 58.1464 379.287 58.1464ZM364.946 58.1464C365.889 58.1464 366.656 58.9349 366.656 59.9122C366.656 60.8895 365.889 61.6781 364.946 61.6781C364.004 61.6781 363.234 60.8861 363.234 59.9122C363.234 58.9383 364 58.1464 364.946 58.1464ZM350.602 58.1464C351.545 58.1464 352.312 58.9349 352.312 59.9122C352.312 60.8895 351.545 61.6781 350.602 61.6781C349.659 61.6781 348.893 60.8861 348.893 59.9122C348.893 58.9383 349.656 58.1464 350.602 58.1464ZM336.258 58.1464C337.204 58.1464 337.968 58.9349 337.968 59.9122C337.968 60.8895 337.204 61.6781 336.258 61.6781C335.312 61.6781 334.549 60.8861 334.549 59.9122C334.549 58.9383 335.315 58.1464 336.258 58.1464ZM321.917 58.1464C322.86 58.1464 323.627 58.9349 323.627 59.9122C323.627 60.8895 322.86 61.6781 321.917 61.6781C320.974 61.6781 320.205 60.8861 320.205 59.9122C320.205 58.9383 320.971 58.1464 321.917 58.1464ZM307.573 58.1464C308.516 58.1464 309.282 58.9349 309.282 59.9122C309.282 60.8895 308.516 61.6781 307.573 61.6781C306.63 61.6781 305.864 60.8861 305.864 59.9122C305.864 58.9383 306.627 58.1464 307.573 58.1464ZM293.229 58.1464C294.175 58.1464 294.938 58.9349 294.938 59.9122C294.938 60.8895 294.175 61.6781 293.229 61.6781C292.283 61.6781 291.519 60.8861 291.519 59.9122C291.519 58.9383 292.283 58.1464 293.229 58.1464ZM278.888 58.1464C279.834 58.1464 280.601 58.9349 280.601 59.9122C280.601 60.8895 279.834 61.6781 278.888 61.6781C277.942 61.6781 277.179 60.8861 277.179 59.9122C277.179 58.9383 277.945 58.1464 278.888 58.1464ZM264.544 58.1464C265.487 58.1464 266.253 58.9349 266.253 59.9122C266.253 60.8895 265.487 61.6781 264.544 61.6781C263.601 61.6781 262.831 60.8861 262.831 59.9122C262.831 58.9383 263.598 58.1464 264.544 58.1464ZM250.2 58.1464C251.142 58.1464 251.909 58.9349 251.909 59.9122C251.909 60.8895 251.142 61.6781 250.2 61.6781C249.257 61.6781 248.49 60.8861 248.49 59.9122C248.49 58.9383 249.254 58.1464 250.2 58.1464ZM235.859 58.1464C236.805 58.1464 237.568 58.9349 237.568 59.9122C237.568 60.8895 236.805 61.6781 235.859 61.6781C234.913 61.6781 234.149 60.8861 234.149 59.9122C234.149 58.9383 234.913 58.1464 235.859 58.1464ZM221.515 58.1464C222.461 58.1464 223.227 58.9349 223.227 59.9122C223.227 60.8895 222.461 61.6781 221.515 61.6781C220.569 61.6781 219.805 60.8861 219.805 59.9122C219.805 58.9383 220.572 58.1464 221.515 58.1464ZM207.17 58.1464C208.113 58.1464 208.88 58.9349 208.88 59.9122C208.88 60.8895 208.113 61.6781 207.17 61.6781C206.228 61.6781 205.461 60.8861 205.461 59.9122C205.461 58.9383 206.224 58.1464 207.17 58.1464ZM192.83 58.1464C193.776 58.1464 194.539 58.9349 194.539 59.9122C194.539 60.8895 193.776 61.6781 192.83 61.6781C191.883 61.6781 191.12 60.8861 191.12 59.9122C191.12 58.9383 191.887 58.1464 192.83 58.1464ZM178.485 58.1464C179.431 58.1464 180.195 58.9349 180.195 59.9122C180.195 60.8895 179.431 61.6781 178.485 61.6781C177.539 61.6781 176.776 60.8861 176.776 59.9122C176.776 58.9383 177.543 58.1464 178.485 58.1464ZM164.141 58.1464C165.084 58.1464 165.851 58.9349 165.851 59.9122C165.851 60.8895 165.084 61.6781 164.141 61.6781C163.198 61.6781 162.429 60.8861 162.429 59.9122C162.429 58.9383 163.195 58.1464 164.141 58.1464ZM149.8 58.1464C150.743 58.1464 151.51 58.9349 151.51 59.9122C151.51 60.8895 150.743 61.6781 149.8 61.6781C148.858 61.6781 148.091 60.8861 148.091 59.9122C148.091 58.9383 148.854 58.1464 149.8 58.1464ZM135.456 58.1464C136.402 58.1464 137.166 58.9349 137.166 59.9122C137.166 60.8895 136.402 61.6781 135.456 61.6781C134.51 61.6781 133.747 60.8861 133.747 59.9122C133.747 58.9383 134.513 58.1464 135.456 58.1464ZM121.112 58.1464C122.058 58.1464 122.825 58.9349 122.825 59.9122C122.825 60.8895 122.058 61.6781 121.112 61.6781C120.166 61.6781 119.403 60.8861 119.403 59.9122C119.403 58.9383 120.169 58.1464 121.112 58.1464ZM106.771 58.1464C107.714 58.1464 108.481 58.9349 108.481 59.9122C108.481 60.8895 107.714 61.6781 106.771 61.6781C105.828 61.6781 105.058 60.8861 105.058 59.9122C105.058 58.9383 105.825 58.1464 106.771 58.1464ZM92.427 58.1464C93.3698 58.1464 94.1364 58.9349 94.1364 59.9122C94.1364 60.8895 93.3698 61.6781 92.427 61.6781C91.4842 61.6781 90.7175 60.8861 90.7175 59.9122C90.7175 58.9383 91.4809 58.1464 92.427 58.1464ZM78.0828 58.1464C79.0289 58.1464 79.7922 58.9349 79.7922 59.9122C79.7922 60.8895 79.0289 61.6781 78.0828 61.6781C77.1367 61.6781 76.3734 60.8861 76.3734 59.9122C76.3734 58.9383 77.14 58.1464 78.0828 58.1464ZM63.7419 58.1464C64.6847 58.1464 65.4513 58.9349 65.4513 59.9122C65.4513 60.8895 64.6847 61.6781 63.7419 61.6781C62.7991 61.6781 62.0292 60.8861 62.0292 59.9122C62.0292 58.9383 62.7958 58.1464 63.7419 58.1464ZM49.3977 58.1464C50.3438 58.1464 51.1072 58.9349 51.1072 59.9122C51.1072 60.8895 50.3438 61.6781 49.3977 61.6781C48.4517 61.6781 47.6883 60.8861 47.6883 59.9122C47.6883 58.9383 48.4517 58.1464 49.3977 58.1464ZM35.0536 58.1464C35.9996 58.1464 36.763 58.9349 36.763 59.9122C36.763 60.8895 35.9996 61.6781 35.0536 61.6781C34.1075 61.6781 33.3442 60.8861 33.3442 59.9122C33.3442 58.9383 34.1108 58.1464 35.0536 58.1464ZM20.7094 58.1464C21.6555 58.1464 22.4221 58.9349 22.4221 59.9122C22.4221 60.8895 21.6555 61.6781 20.7094 61.6781C19.7634 61.6781 19 60.8861 19 59.9122C19 58.9383 19.7666 58.1464 20.7094 58.1464ZM381 70.5073C381 69.53 380.233 68.7415 379.287 68.7415C378.345 68.7415 377.578 69.5334 377.578 70.5073C377.578 71.4812 378.341 72.2732 379.287 72.2732C380.233 72.2732 381 71.4846 381 70.5073ZM366.656 70.5073C366.656 69.53 365.889 68.7415 364.946 68.7415C364 68.7415 363.234 69.5334 363.234 70.5073C363.234 71.4812 364.004 72.2732 364.946 72.2732C365.889 72.2732 366.656 71.4846 366.656 70.5073ZM352.312 70.5073C352.312 69.53 351.545 68.7415 350.602 68.7415C349.656 68.7415 348.893 69.5334 348.893 70.5073C348.893 71.4812 349.659 72.2732 350.602 72.2732C351.545 72.2732 352.312 71.4846 352.312 70.5073ZM337.968 70.5073C337.968 69.53 337.204 68.7415 336.258 68.7415C335.315 68.7415 334.549 69.5334 334.549 70.5073C334.549 71.4812 335.312 72.2732 336.258 72.2732C337.204 72.2732 337.968 71.4846 337.968 70.5073ZM323.627 70.5073C323.627 69.53 322.86 68.7415 321.917 68.7415C320.971 68.7415 320.205 69.5334 320.205 70.5073C320.205 71.4812 320.974 72.2732 321.917 72.2732C322.86 72.2732 323.627 71.4846 323.627 70.5073ZM309.282 70.5073C309.282 69.53 308.516 68.7415 307.573 68.7415C306.627 68.7415 305.864 69.5334 305.864 70.5073C305.864 71.4812 306.63 72.2732 307.573 72.2732C308.516 72.2732 309.282 71.4846 309.282 70.5073ZM294.938 70.5073C294.938 69.53 294.175 68.7415 293.229 68.7415C292.283 68.7415 291.519 69.5334 291.519 70.5073C291.519 71.4812 292.283 72.2732 293.229 72.2732C294.175 72.2732 294.938 71.4846 294.938 70.5073ZM280.601 70.5073C280.601 69.53 279.834 68.7415 278.888 68.7415C277.945 68.7415 277.179 69.5334 277.179 70.5073C277.179 71.4812 277.942 72.2732 278.888 72.2732C279.834 72.2732 280.601 71.4846 280.601 70.5073ZM266.253 70.5073C266.253 69.53 265.487 68.7415 264.544 68.7415C263.598 68.7415 262.831 69.5334 262.831 70.5073C262.831 71.4812 263.601 72.2732 264.544 72.2732C265.487 72.2732 266.253 71.4846 266.253 70.5073ZM251.909 70.5073C251.909 69.53 251.142 68.7415 250.2 68.7415C249.254 68.7415 248.49 69.5334 248.49 70.5073C248.49 71.4812 249.257 72.2732 250.2 72.2732C251.142 72.2732 251.909 71.4846 251.909 70.5073ZM237.568 70.5073C237.568 69.53 236.805 68.7415 235.859 68.7415C234.913 68.7415 234.149 69.5334 234.149 70.5073C234.149 71.4812 234.913 72.2732 235.859 72.2732C236.805 72.2732 237.568 71.4846 237.568 70.5073ZM223.227 70.5073C223.227 69.53 222.461 68.7415 221.515 68.7415C220.572 68.7415 219.805 69.5334 219.805 70.5073C219.805 71.4812 220.569 72.2732 221.515 72.2732C222.461 72.2732 223.227 71.4846 223.227 70.5073ZM208.88 70.5073C208.88 69.53 208.113 68.7415 207.17 68.7415C206.224 68.7415 205.461 69.5334 205.461 70.5073C205.461 71.4812 206.228 72.2732 207.17 72.2732C208.113 72.2732 208.88 71.4846 208.88 70.5073ZM194.539 70.5073C194.539 69.53 193.776 68.7415 192.83 68.7415C191.887 68.7415 191.12 69.5334 191.12 70.5073C191.12 71.4812 191.883 72.2732 192.83 72.2732C193.776 72.2732 194.539 71.4846 194.539 70.5073ZM180.195 70.5073C180.195 69.53 179.431 68.7415 178.485 68.7415C177.543 68.7415 176.776 69.5334 176.776 70.5073C176.776 71.4812 177.539 72.2732 178.485 72.2732C179.431 72.2732 180.195 71.4846 180.195 70.5073ZM165.851 70.5073C165.851 69.53 165.084 68.7415 164.141 68.7415C163.195 68.7415 162.429 69.5334 162.429 70.5073C162.429 71.4812 163.198 72.2732 164.141 72.2732C165.084 72.2732 165.851 71.4846 165.851 70.5073ZM151.51 70.5073C151.51 69.53 150.743 68.7415 149.8 68.7415C148.854 68.7415 148.091 69.5334 148.091 70.5073C148.091 71.4812 148.858 72.2732 149.8 72.2732C150.743 72.2732 151.51 71.4846 151.51 70.5073ZM137.166 70.5073C137.166 69.53 136.402 68.7415 135.456 68.7415C134.513 68.7415 133.747 69.5334 133.747 70.5073C133.747 71.4812 134.51 72.2732 135.456 72.2732C136.402 72.2732 137.166 71.4846 137.166 70.5073ZM122.825 70.5073C122.825 69.53 122.058 68.7415 121.112 68.7415C120.169 68.7415 119.403 69.5334 119.403 70.5073C119.403 71.4812 120.166 72.2732 121.112 72.2732C122.058 72.2732 122.825 71.4846 122.825 70.5073ZM108.481 70.5073C108.481 69.53 107.714 68.7415 106.771 68.7415C105.825 68.7415 105.058 69.5334 105.058 70.5073C105.058 71.4812 105.828 72.2732 106.771 72.2732C107.714 72.2732 108.481 71.4846 108.481 70.5073ZM94.1364 70.5073C94.1364 69.53 93.3698 68.7415 92.427 68.7415C91.4809 68.7415 90.7175 69.5334 90.7175 70.5073C90.7175 71.4812 91.4842 72.2732 92.427 72.2732C93.3698 72.2732 94.1364 71.4846 94.1364 70.5073ZM79.7922 70.5073C79.7922 69.53 79.0289 68.7415 78.0828 68.7415C77.14 68.7415 76.3734 69.5334 76.3734 70.5073C76.3734 71.4812 77.1367 72.2732 78.0828 72.2732C79.0289 72.2732 79.7922 71.4846 79.7922 70.5073ZM65.4513 70.5073C65.4513 69.53 64.6847 68.7415 63.7419 68.7415C62.7958 68.7415 62.0292 69.5334 62.0292 70.5073C62.0292 71.4812 62.7991 72.2732 63.7419 72.2732C64.6847 72.2732 65.4513 71.4846 65.4513 70.5073ZM51.1072 70.5073C51.1072 69.53 50.3438 68.7415 49.3977 68.7415C48.4517 68.7415 47.6883 69.5334 47.6883 70.5073C47.6883 71.4812 48.4517 72.2732 49.3977 72.2732C50.3438 72.2732 51.1072 71.4846 51.1072 70.5073ZM36.763 70.5073C36.763 69.53 35.9996 68.7415 35.0536 68.7415C34.1108 68.7415 33.3442 69.5334 33.3442 70.5073C33.3442 71.4812 34.1075 72.2732 35.0536 72.2732C35.9996 72.2732 36.763 71.4846 36.763 70.5073ZM22.4221 70.5073C22.4221 69.53 21.6555 68.7415 20.7094 68.7415C19.7666 68.7415 19 69.5334 19 70.5073C19 71.4812 19.7634 72.2732 20.7094 72.2732C21.6555 72.2732 22.4221 71.4846 22.4221 70.5073ZM379.287 80.2195C380.233 80.2195 381 81.008 381 81.9853C381 82.9626 380.233 83.7512 379.287 83.7512C378.341 83.7512 377.578 82.9626 377.578 81.9853C377.578 81.008 378.345 80.2195 379.287 80.2195ZM364.946 80.2195C365.889 80.2195 366.656 81.008 366.656 81.9853C366.656 82.9626 365.889 83.7512 364.946 83.7512C364.004 83.7512 363.234 82.9626 363.234 81.9853C363.234 81.008 364 80.2195 364.946 80.2195ZM350.602 80.2195C351.545 80.2195 352.312 81.008 352.312 81.9853C352.312 82.9626 351.545 83.7512 350.602 83.7512C349.659 83.7512 348.893 82.9626 348.893 81.9853C348.893 81.008 349.656 80.2195 350.602 80.2195ZM336.258 80.2195C337.204 80.2195 337.968 81.008 337.968 81.9853C337.968 82.9626 337.204 83.7512 336.258 83.7512C335.312 83.7512 334.549 82.9626 334.549 81.9853C334.549 81.008 335.315 80.2195 336.258 80.2195ZM321.917 80.2195C322.86 80.2195 323.627 81.008 323.627 81.9853C323.627 82.9626 322.86 83.7512 321.917 83.7512C320.974 83.7512 320.205 82.9626 320.205 81.9853C320.205 81.008 320.971 80.2195 321.917 80.2195ZM307.573 80.2195C308.516 80.2195 309.282 81.008 309.282 81.9853C309.282 82.9626 308.516 83.7512 307.573 83.7512C306.63 83.7512 305.864 82.9626 305.864 81.9853C305.864 81.008 306.627 80.2195 307.573 80.2195ZM293.229 80.2195C294.175 80.2195 294.938 81.008 294.938 81.9853C294.938 82.9626 294.175 83.7512 293.229 83.7512C292.283 83.7512 291.519 82.9626 291.519 81.9853C291.519 81.008 292.283 80.2195 293.229 80.2195ZM278.888 80.2195C279.834 80.2195 280.601 81.008 280.601 81.9853C280.601 82.9626 279.834 83.7512 278.888 83.7512C277.942 83.7512 277.179 82.9626 277.179 81.9853C277.179 81.008 277.945 80.2195 278.888 80.2195ZM264.544 80.2195C265.487 80.2195 266.253 81.008 266.253 81.9853C266.253 82.9626 265.487 83.7512 264.544 83.7512C263.601 83.7512 262.831 82.9626 262.831 81.9853C262.831 81.008 263.598 80.2195 264.544 80.2195ZM250.2 80.2195C251.142 80.2195 251.909 81.008 251.909 81.9853C251.909 82.9626 251.142 83.7512 250.2 83.7512C249.257 83.7512 248.49 82.9626 248.49 81.9853C248.49 81.008 249.254 80.2195 250.2 80.2195ZM235.859 80.2195C236.805 80.2195 237.568 81.008 237.568 81.9853C237.568 82.9626 236.805 83.7512 235.859 83.7512C234.913 83.7512 234.149 82.9626 234.149 81.9853C234.149 81.008 234.913 80.2195 235.859 80.2195ZM221.515 80.2195C222.461 80.2195 223.227 81.008 223.227 81.9853C223.227 82.9626 222.461 83.7512 221.515 83.7512C220.569 83.7512 219.805 82.9626 219.805 81.9853C219.805 81.008 220.572 80.2195 221.515 80.2195ZM207.17 80.2195C208.113 80.2195 208.88 81.008 208.88 81.9853C208.88 82.9626 208.113 83.7512 207.17 83.7512C206.228 83.7512 205.461 82.9626 205.461 81.9853C205.461 81.008 206.224 80.2195 207.17 80.2195ZM192.83 80.2195C193.776 80.2195 194.539 81.008 194.539 81.9853C194.539 82.9626 193.776 83.7512 192.83 83.7512C191.883 83.7512 191.12 82.9626 191.12 81.9853C191.12 81.008 191.887 80.2195 192.83 80.2195ZM178.485 80.2195C179.431 80.2195 180.195 81.008 180.195 81.9853C180.195 82.9626 179.431 83.7512 178.485 83.7512C177.539 83.7512 176.776 82.9626 176.776 81.9853C176.776 81.008 177.543 80.2195 178.485 80.2195ZM164.141 80.2195C165.084 80.2195 165.851 81.008 165.851 81.9853C165.851 82.9626 165.084 83.7512 164.141 83.7512C163.198 83.7512 162.429 82.9626 162.429 81.9853C162.429 81.008 163.195 80.2195 164.141 80.2195ZM149.8 80.2195C150.743 80.2195 151.51 81.008 151.51 81.9853C151.51 82.9626 150.743 83.7512 149.8 83.7512C148.858 83.7512 148.091 82.9626 148.091 81.9853C148.091 81.008 148.854 80.2195 149.8 80.2195ZM135.456 80.2195C136.402 80.2195 137.166 81.008 137.166 81.9853C137.166 82.9626 136.402 83.7512 135.456 83.7512C134.51 83.7512 133.747 82.9626 133.747 81.9853C133.747 81.008 134.513 80.2195 135.456 80.2195ZM121.112 80.2195C122.058 80.2195 122.825 81.008 122.825 81.9853C122.825 82.9626 122.058 83.7512 121.112 83.7512C120.166 83.7512 119.403 82.9626 119.403 81.9853C119.403 81.008 120.169 80.2195 121.112 80.2195ZM106.771 80.2195C107.714 80.2195 108.481 81.008 108.481 81.9853C108.481 82.9626 107.714 83.7512 106.771 83.7512C105.828 83.7512 105.058 82.9626 105.058 81.9853C105.058 81.008 105.825 80.2195 106.771 80.2195ZM92.427 80.2195C93.3698 80.2195 94.1364 81.008 94.1364 81.9853C94.1364 82.9626 93.3698 83.7512 92.427 83.7512C91.4842 83.7512 90.7175 82.9626 90.7175 81.9853C90.7175 81.008 91.4809 80.2195 92.427 80.2195ZM78.0828 80.2195C79.0289 80.2195 79.7922 81.008 79.7922 81.9853C79.7922 82.9626 79.0289 83.7512 78.0828 83.7512C77.1367 83.7512 76.3734 82.9626 76.3734 81.9853C76.3734 81.008 77.14 80.2195 78.0828 80.2195ZM63.7419 80.2195C64.6847 80.2195 65.4513 81.008 65.4513 81.9853C65.4513 82.9626 64.6847 83.7512 63.7419 83.7512C62.7991 83.7512 62.0292 82.9626 62.0292 81.9853C62.0292 81.008 62.7958 80.2195 63.7419 80.2195ZM49.3977 80.2195C50.3438 80.2195 51.1072 81.008 51.1072 81.9853C51.1072 82.9626 50.3438 83.7512 49.3977 83.7512C48.4517 83.7512 47.6883 82.9626 47.6883 81.9853C47.6883 81.008 48.4517 80.2195 49.3977 80.2195ZM35.0536 80.2195C35.9996 80.2195 36.763 81.008 36.763 81.9853C36.763 82.9626 35.9996 83.7512 35.0536 83.7512C34.1075 83.7512 33.3442 82.9626 33.3442 81.9853C33.3442 81.008 34.1108 80.2195 35.0536 80.2195ZM20.7094 80.2195C21.6555 80.2195 22.4221 81.008 22.4221 81.9853C22.4221 82.9626 21.6555 83.7512 20.7094 83.7512C19.7634 83.7512 19 82.9626 19 81.9853C19 81.008 19.7666 80.2195 20.7094 80.2195ZM381 92.5805C381 91.6032 380.233 90.8146 379.287 90.8146C378.345 90.8146 377.578 91.6032 377.578 92.5805C377.578 93.5578 378.341 94.3463 379.287 94.3463C380.233 94.3463 381 93.5578 381 92.5805ZM366.656 92.5805C366.656 91.6032 365.889 90.8146 364.946 90.8146C364 90.8146 363.234 91.6032 363.234 92.5805C363.234 93.5578 364.004 94.3463 364.946 94.3463C365.889 94.3463 366.656 93.5578 366.656 92.5805ZM352.312 92.5805C352.312 91.6032 351.545 90.8146 350.602 90.8146C349.656 90.8146 348.893 91.6032 348.893 92.5805C348.893 93.5578 349.659 94.3463 350.602 94.3463C351.545 94.3463 352.312 93.5578 352.312 92.5805ZM337.968 92.5805C337.968 91.6032 337.204 90.8146 336.258 90.8146C335.315 90.8146 334.549 91.6032 334.549 92.5805C334.549 93.5578 335.312 94.3463 336.258 94.3463C337.204 94.3463 337.968 93.5578 337.968 92.5805ZM323.627 92.5805C323.627 91.6032 322.86 90.8146 321.917 90.8146C320.971 90.8146 320.205 91.6032 320.205 92.5805C320.205 93.5578 320.974 94.3463 321.917 94.3463C322.86 94.3463 323.627 93.5578 323.627 92.5805ZM309.282 92.5805C309.282 91.6032 308.516 90.8146 307.573 90.8146C306.627 90.8146 305.864 91.6032 305.864 92.5805C305.864 93.5578 306.63 94.3463 307.573 94.3463C308.516 94.3463 309.282 93.5578 309.282 92.5805ZM294.938 92.5805C294.938 91.6032 294.175 90.8146 293.229 90.8146C292.283 90.8146 291.519 91.6032 291.519 92.5805C291.519 93.5578 292.283 94.3463 293.229 94.3463C294.175 94.3463 294.938 93.5578 294.938 92.5805ZM280.601 92.5805C280.601 91.6032 279.834 90.8146 278.888 90.8146C277.945 90.8146 277.179 91.6032 277.179 92.5805C277.179 93.5578 277.942 94.3463 278.888 94.3463C279.834 94.3463 280.601 93.5578 280.601 92.5805ZM266.253 92.5805C266.253 91.6032 265.487 90.8146 264.544 90.8146C263.598 90.8146 262.831 91.6032 262.831 92.5805C262.831 93.5578 263.601 94.3463 264.544 94.3463C265.487 94.3463 266.253 93.5578 266.253 92.5805ZM251.909 92.5805C251.909 91.6032 251.142 90.8146 250.2 90.8146C249.254 90.8146 248.49 91.6032 248.49 92.5805C248.49 93.5578 249.257 94.3463 250.2 94.3463C251.142 94.3463 251.909 93.5578 251.909 92.5805ZM237.568 92.5805C237.568 91.6032 236.805 90.8146 235.859 90.8146C234.913 90.8146 234.149 91.6032 234.149 92.5805C234.149 93.5578 234.913 94.3463 235.859 94.3463C236.805 94.3463 237.568 93.5578 237.568 92.5805ZM223.227 92.5805C223.227 91.6032 222.461 90.8146 221.515 90.8146C220.572 90.8146 219.805 91.6032 219.805 92.5805C219.805 93.5578 220.569 94.3463 221.515 94.3463C222.461 94.3463 223.227 93.5578 223.227 92.5805ZM208.88 92.5805C208.88 91.6032 208.113 90.8146 207.17 90.8146C206.224 90.8146 205.461 91.6032 205.461 92.5805C205.461 93.5578 206.228 94.3463 207.17 94.3463C208.113 94.3463 208.88 93.5578 208.88 92.5805ZM194.539 92.5805C194.539 91.6032 193.776 90.8146 192.83 90.8146C191.887 90.8146 191.12 91.6032 191.12 92.5805C191.12 93.5578 191.883 94.3463 192.83 94.3463C193.776 94.3463 194.539 93.5578 194.539 92.5805ZM180.195 92.5805C180.195 91.6032 179.431 90.8146 178.485 90.8146C177.543 90.8146 176.776 91.6032 176.776 92.5805C176.776 93.5578 177.539 94.3463 178.485 94.3463C179.431 94.3463 180.195 93.5578 180.195 92.5805ZM165.851 92.5805C165.851 91.6032 165.084 90.8146 164.141 90.8146C163.195 90.8146 162.429 91.6032 162.429 92.5805C162.429 93.5578 163.198 94.3463 164.141 94.3463C165.084 94.3463 165.851 93.5578 165.851 92.5805ZM151.51 92.5805C151.51 91.6032 150.743 90.8146 149.8 90.8146C148.854 90.8146 148.091 91.6032 148.091 92.5805C148.091 93.5578 148.858 94.3463 149.8 94.3463C150.743 94.3463 151.51 93.5578 151.51 92.5805ZM137.166 92.5805C137.166 91.6032 136.402 90.8146 135.456 90.8146C134.513 90.8146 133.747 91.6032 133.747 92.5805C133.747 93.5578 134.51 94.3463 135.456 94.3463C136.402 94.3463 137.166 93.5578 137.166 92.5805ZM122.825 92.5805C122.825 91.6032 122.058 90.8146 121.112 90.8146C120.169 90.8146 119.403 91.6032 119.403 92.5805C119.403 93.5578 120.166 94.3463 121.112 94.3463C122.058 94.3463 122.825 93.5578 122.825 92.5805ZM108.481 92.5805C108.481 91.6032 107.714 90.8146 106.771 90.8146C105.825 90.8146 105.058 91.6032 105.058 92.5805C105.058 93.5578 105.828 94.3463 106.771 94.3463C107.714 94.3463 108.481 93.5578 108.481 92.5805ZM94.1364 92.5805C94.1364 91.6032 93.3698 90.8146 92.427 90.8146C91.4809 90.8146 90.7175 91.6032 90.7175 92.5805C90.7175 93.5578 91.4842 94.3463 92.427 94.3463C93.3698 94.3463 94.1364 93.5578 94.1364 92.5805ZM79.7922 92.5805C79.7922 91.6032 79.0289 90.8146 78.0828 90.8146C77.14 90.8146 76.3734 91.6032 76.3734 92.5805C76.3734 93.5578 77.1367 94.3463 78.0828 94.3463C79.0289 94.3463 79.7922 93.5578 79.7922 92.5805ZM65.4513 92.5805C65.4513 91.6032 64.6847 90.8146 63.7419 90.8146C62.7958 90.8146 62.0292 91.6032 62.0292 92.5805C62.0292 93.5578 62.7991 94.3463 63.7419 94.3463C64.6847 94.3463 65.4513 93.5578 65.4513 92.5805ZM51.1072 92.5805C51.1072 91.6032 50.3438 90.8146 49.3977 90.8146C48.4517 90.8146 47.6883 91.6032 47.6883 92.5805C47.6883 93.5578 48.4517 94.3463 49.3977 94.3463C50.3438 94.3463 51.1072 93.5578 51.1072 92.5805ZM36.763 92.5805C36.763 91.6032 35.9996 90.8146 35.0536 90.8146C34.1108 90.8146 33.3442 91.6032 33.3442 92.5805C33.3442 93.5578 34.1075 94.3463 35.0536 94.3463C35.9996 94.3463 36.763 93.5578 36.763 92.5805ZM22.4221 92.5805C22.4221 91.6032 21.6555 90.8146 20.7094 90.8146C19.7666 90.8146 19 91.6032 19 92.5805C19 93.5578 19.7634 94.3463 20.7094 94.3463C21.6555 94.3463 22.4221 93.5578 22.4221 92.5805ZM379.287 102.293C380.233 102.293 381 103.081 381 104.059C381 105.036 380.233 105.824 379.287 105.824C378.341 105.824 377.578 105.036 377.578 104.059C377.578 103.081 378.345 102.293 379.287 102.293ZM364.946 102.293C365.889 102.293 366.656 103.081 366.656 104.059C366.656 105.036 365.889 105.824 364.946 105.824C364.004 105.824 363.234 105.036 363.234 104.059C363.234 103.081 364 102.293 364.946 102.293ZM350.602 102.293C351.545 102.293 352.312 103.081 352.312 104.059C352.312 105.036 351.545 105.824 350.602 105.824C349.659 105.824 348.893 105.036 348.893 104.059C348.893 103.081 349.656 102.293 350.602 102.293ZM336.258 102.293C337.204 102.293 337.968 103.081 337.968 104.059C337.968 105.036 337.204 105.824 336.258 105.824C335.312 105.824 334.549 105.036 334.549 104.059C334.549 103.081 335.315 102.293 336.258 102.293ZM321.917 102.293C322.86 102.293 323.627 103.081 323.627 104.059C323.627 105.036 322.86 105.824 321.917 105.824C320.974 105.824 320.205 105.036 320.205 104.059C320.205 103.081 320.971 102.293 321.917 102.293ZM307.573 102.293C308.516 102.293 309.282 103.081 309.282 104.059C309.282 105.036 308.516 105.824 307.573 105.824C306.63 105.824 305.864 105.036 305.864 104.059C305.864 103.081 306.627 102.293 307.573 102.293ZM293.229 102.293C294.175 102.293 294.938 103.081 294.938 104.059C294.938 105.036 294.175 105.824 293.229 105.824C292.283 105.824 291.519 105.036 291.519 104.059C291.519 103.081 292.283 102.293 293.229 102.293ZM278.888 102.293C279.834 102.293 280.601 103.081 280.601 104.059C280.601 105.036 279.834 105.824 278.888 105.824C277.942 105.824 277.179 105.036 277.179 104.059C277.179 103.081 277.945 102.293 278.888 102.293ZM264.544 102.293C265.487 102.293 266.253 103.081 266.253 104.059C266.253 105.036 265.487 105.824 264.544 105.824C263.601 105.824 262.831 105.036 262.831 104.059C262.831 103.081 263.598 102.293 264.544 102.293ZM250.2 102.293C251.142 102.293 251.909 103.081 251.909 104.059C251.909 105.036 251.142 105.824 250.2 105.824C249.257 105.824 248.49 105.036 248.49 104.059C248.49 103.081 249.254 102.293 250.2 102.293ZM235.859 102.293C236.805 102.293 237.568 103.081 237.568 104.059C237.568 105.036 236.805 105.824 235.859 105.824C234.913 105.824 234.149 105.036 234.149 104.059C234.149 103.081 234.913 102.293 235.859 102.293ZM221.515 102.293C222.461 102.293 223.227 103.081 223.227 104.059C223.227 105.036 222.461 105.824 221.515 105.824C220.569 105.824 219.805 105.036 219.805 104.059C219.805 103.081 220.572 102.293 221.515 102.293ZM207.17 102.293C208.113 102.293 208.88 103.081 208.88 104.059C208.88 105.036 208.113 105.824 207.17 105.824C206.228 105.824 205.461 105.036 205.461 104.059C205.461 103.081 206.224 102.293 207.17 102.293ZM192.83 102.293C193.776 102.293 194.539 103.081 194.539 104.059C194.539 105.036 193.776 105.824 192.83 105.824C191.883 105.824 191.12 105.036 191.12 104.059C191.12 103.081 191.887 102.293 192.83 102.293ZM178.485 102.293C179.431 102.293 180.195 103.081 180.195 104.059C180.195 105.036 179.431 105.824 178.485 105.824C177.539 105.824 176.776 105.036 176.776 104.059C176.776 103.081 177.543 102.293 178.485 102.293ZM164.141 102.293C165.084 102.293 165.851 103.081 165.851 104.059C165.851 105.036 165.084 105.824 164.141 105.824C163.198 105.824 162.429 105.036 162.429 104.059C162.429 103.081 163.195 102.293 164.141 102.293ZM149.8 102.293C150.743 102.293 151.51 103.081 151.51 104.059C151.51 105.036 150.743 105.824 149.8 105.824C148.858 105.824 148.091 105.036 148.091 104.059C148.091 103.081 148.854 102.293 149.8 102.293ZM135.456 102.293C136.402 102.293 137.166 103.081 137.166 104.059C137.166 105.036 136.402 105.824 135.456 105.824C134.51 105.824 133.747 105.036 133.747 104.059C133.747 103.081 134.513 102.293 135.456 102.293ZM121.112 102.293C122.058 102.293 122.825 103.081 122.825 104.059C122.825 105.036 122.058 105.824 121.112 105.824C120.166 105.824 119.403 105.036 119.403 104.059C119.403 103.081 120.169 102.293 121.112 102.293ZM106.771 102.293C107.714 102.293 108.481 103.081 108.481 104.059C108.481 105.036 107.714 105.824 106.771 105.824C105.828 105.824 105.058 105.036 105.058 104.059C105.058 103.081 105.825 102.293 106.771 102.293ZM92.427 102.293C93.3698 102.293 94.1364 103.081 94.1364 104.059C94.1364 105.036 93.3698 105.824 92.427 105.824C91.4842 105.824 90.7175 105.036 90.7175 104.059C90.7175 103.081 91.4809 102.293 92.427 102.293ZM78.0828 102.293C79.0289 102.293 79.7922 103.081 79.7922 104.059C79.7922 105.036 79.0289 105.824 78.0828 105.824C77.1367 105.824 76.3734 105.036 76.3734 104.059C76.3734 103.081 77.14 102.293 78.0828 102.293ZM63.7419 102.293C64.6847 102.293 65.4513 103.081 65.4513 104.059C65.4513 105.036 64.6847 105.824 63.7419 105.824C62.7991 105.824 62.0292 105.036 62.0292 104.059C62.0292 103.081 62.7958 102.293 63.7419 102.293ZM49.3977 102.293C50.3438 102.293 51.1072 103.081 51.1072 104.059C51.1072 105.036 50.3438 105.824 49.3977 105.824C48.4517 105.824 47.6883 105.036 47.6883 104.059C47.6883 103.081 48.4517 102.293 49.3977 102.293ZM35.0536 102.293C35.9996 102.293 36.763 103.081 36.763 104.059C36.763 105.036 35.9996 105.824 35.0536 105.824C34.1075 105.824 33.3442 105.036 33.3442 104.059C33.3442 103.081 34.1108 102.293 35.0536 102.293ZM20.7094 102.293C21.6555 102.293 22.4221 103.081 22.4221 104.059C22.4221 105.036 21.6555 105.824 20.7094 105.824C19.7634 105.824 19 105.036 19 104.059C19 103.081 19.7666 102.293 20.7094 102.293ZM381 114.654C381 113.68 380.233 112.888 379.287 112.888C378.345 112.888 377.578 113.676 377.578 114.654C377.578 115.631 378.341 116.42 379.287 116.42C380.233 116.42 381 115.628 381 114.654ZM366.656 114.654C366.656 113.68 365.889 112.888 364.946 112.888C364 112.888 363.234 113.676 363.234 114.654C363.234 115.631 364.004 116.42 364.946 116.42C365.889 116.42 366.656 115.628 366.656 114.654ZM352.312 114.654C352.312 113.68 351.545 112.888 350.602 112.888C349.656 112.888 348.893 113.676 348.893 114.654C348.893 115.631 349.659 116.42 350.602 116.42C351.545 116.42 352.312 115.628 352.312 114.654ZM337.968 114.654C337.968 113.68 337.204 112.888 336.258 112.888C335.315 112.888 334.549 113.676 334.549 114.654C334.549 115.631 335.312 116.42 336.258 116.42C337.204 116.42 337.968 115.628 337.968 114.654ZM323.627 114.654C323.627 113.68 322.86 112.888 321.917 112.888C320.971 112.888 320.205 113.676 320.205 114.654C320.205 115.631 320.974 116.42 321.917 116.42C322.86 116.42 323.627 115.628 323.627 114.654ZM309.282 114.654C309.282 113.68 308.516 112.888 307.573 112.888C306.627 112.888 305.864 113.676 305.864 114.654C305.864 115.631 306.63 116.42 307.573 116.42C308.516 116.42 309.282 115.628 309.282 114.654ZM294.938 114.654C294.938 113.68 294.175 112.888 293.229 112.888C292.283 112.888 291.519 113.676 291.519 114.654C291.519 115.631 292.283 116.42 293.229 116.42C294.175 116.42 294.938 115.628 294.938 114.654ZM280.601 114.654C280.601 113.68 279.834 112.888 278.888 112.888C277.945 112.888 277.179 113.676 277.179 114.654C277.179 115.631 277.942 116.42 278.888 116.42C279.834 116.42 280.601 115.628 280.601 114.654ZM266.253 114.654C266.253 113.68 265.487 112.888 264.544 112.888C263.598 112.888 262.831 113.676 262.831 114.654C262.831 115.631 263.601 116.42 264.544 116.42C265.487 116.42 266.253 115.628 266.253 114.654ZM251.909 114.654C251.909 113.68 251.142 112.888 250.2 112.888C249.254 112.888 248.49 113.676 248.49 114.654C248.49 115.631 249.257 116.42 250.2 116.42C251.142 116.42 251.909 115.628 251.909 114.654ZM237.568 114.654C237.568 113.68 236.805 112.888 235.859 112.888C234.913 112.888 234.149 113.676 234.149 114.654C234.149 115.631 234.913 116.42 235.859 116.42C236.805 116.42 237.568 115.628 237.568 114.654ZM223.227 114.654C223.227 113.68 222.461 112.888 221.515 112.888C220.572 112.888 219.805 113.676 219.805 114.654C219.805 115.631 220.569 116.42 221.515 116.42C222.461 116.42 223.227 115.628 223.227 114.654ZM208.88 114.654C208.88 113.68 208.113 112.888 207.17 112.888C206.224 112.888 205.461 113.676 205.461 114.654C205.461 115.631 206.228 116.42 207.17 116.42C208.113 116.42 208.88 115.628 208.88 114.654ZM194.539 114.654C194.539 113.68 193.776 112.888 192.83 112.888C191.887 112.888 191.12 113.676 191.12 114.654C191.12 115.631 191.883 116.42 192.83 116.42C193.776 116.42 194.539 115.628 194.539 114.654ZM180.195 114.654C180.195 113.68 179.431 112.888 178.485 112.888C177.543 112.888 176.776 113.676 176.776 114.654C176.776 115.631 177.539 116.42 178.485 116.42C179.431 116.42 180.195 115.628 180.195 114.654ZM165.851 114.654C165.851 113.68 165.084 112.888 164.141 112.888C163.195 112.888 162.429 113.676 162.429 114.654C162.429 115.631 163.198 116.42 164.141 116.42C165.084 116.42 165.851 115.628 165.851 114.654ZM151.51 114.654C151.51 113.68 150.743 112.888 149.8 112.888C148.854 112.888 148.091 113.676 148.091 114.654C148.091 115.631 148.858 116.42 149.8 116.42C150.743 116.42 151.51 115.628 151.51 114.654ZM137.166 114.654C137.166 113.68 136.402 112.888 135.456 112.888C134.513 112.888 133.747 113.676 133.747 114.654C133.747 115.631 134.51 116.42 135.456 116.42C136.402 116.42 137.166 115.628 137.166 114.654ZM122.825 114.654C122.825 113.68 122.058 112.888 121.112 112.888C120.169 112.888 119.403 113.676 119.403 114.654C119.403 115.631 120.166 116.42 121.112 116.42C122.058 116.42 122.825 115.628 122.825 114.654ZM108.481 114.654C108.481 113.68 107.714 112.888 106.771 112.888C105.825 112.888 105.058 113.676 105.058 114.654C105.058 115.631 105.828 116.42 106.771 116.42C107.714 116.42 108.481 115.628 108.481 114.654ZM94.1364 114.654C94.1364 113.68 93.3698 112.888 92.427 112.888C91.4809 112.888 90.7175 113.676 90.7175 114.654C90.7175 115.631 91.4842 116.42 92.427 116.42C93.3698 116.42 94.1364 115.628 94.1364 114.654ZM79.7922 114.654C79.7922 113.68 79.0289 112.888 78.0828 112.888C77.14 112.888 76.3734 113.676 76.3734 114.654C76.3734 115.631 77.1367 116.42 78.0828 116.42C79.0289 116.42 79.7922 115.628 79.7922 114.654ZM65.4513 114.654C65.4513 113.68 64.6847 112.888 63.7419 112.888C62.7958 112.888 62.0292 113.676 62.0292 114.654C62.0292 115.631 62.7991 116.42 63.7419 116.42C64.6847 116.42 65.4513 115.628 65.4513 114.654ZM51.1072 114.654C51.1072 113.68 50.3438 112.888 49.3977 112.888C48.4517 112.888 47.6883 113.676 47.6883 114.654C47.6883 115.631 48.4517 116.42 49.3977 116.42C50.3438 116.42 51.1072 115.628 51.1072 114.654ZM36.763 114.654C36.763 113.68 35.9996 112.888 35.0536 112.888C34.1108 112.888 33.3442 113.676 33.3442 114.654C33.3442 115.631 34.1075 116.42 35.0536 116.42C35.9996 116.42 36.763 115.628 36.763 114.654ZM22.4221 114.654C22.4221 113.68 21.6555 112.888 20.7094 112.888C19.7666 112.888 19 113.676 19 114.654C19 115.631 19.7634 116.42 20.7094 116.42C21.6555 116.42 22.4221 115.628 22.4221 114.654ZM379.287 123.354C380.233 123.354 381 124.146 381 125.12C381 126.094 380.233 126.886 379.287 126.886C378.341 126.886 377.578 126.097 377.578 125.12C377.578 124.143 378.345 123.354 379.287 123.354ZM364.946 123.354C365.889 123.354 366.656 124.146 366.656 125.12C366.656 126.094 365.889 126.886 364.946 126.886C364.004 126.886 363.234 126.097 363.234 125.12C363.234 124.143 364 123.354 364.946 123.354ZM350.602 123.354C351.545 123.354 352.312 124.146 352.312 125.12C352.312 126.094 351.545 126.886 350.602 126.886C349.659 126.886 348.893 126.097 348.893 125.12C348.893 124.143 349.656 123.354 350.602 123.354ZM336.258 123.354C337.204 123.354 337.968 124.146 337.968 125.12C337.968 126.094 337.204 126.886 336.258 126.886C335.312 126.886 334.549 126.097 334.549 125.12C334.549 124.143 335.315 123.354 336.258 123.354ZM321.917 123.354C322.86 123.354 323.627 124.146 323.627 125.12C323.627 126.094 322.86 126.886 321.917 126.886C320.974 126.886 320.205 126.097 320.205 125.12C320.205 124.143 320.971 123.354 321.917 123.354ZM307.573 123.354C308.516 123.354 309.282 124.146 309.282 125.12C309.282 126.094 308.516 126.886 307.573 126.886C306.63 126.886 305.864 126.097 305.864 125.12C305.864 124.143 306.627 123.354 307.573 123.354ZM293.229 123.354C294.175 123.354 294.938 124.146 294.938 125.12C294.938 126.094 294.175 126.886 293.229 126.886C292.283 126.886 291.519 126.097 291.519 125.12C291.519 124.143 292.283 123.354 293.229 123.354ZM278.888 123.354C279.834 123.354 280.601 124.146 280.601 125.12C280.601 126.094 279.834 126.886 278.888 126.886C277.942 126.886 277.179 126.097 277.179 125.12C277.179 124.143 277.945 123.354 278.888 123.354ZM264.544 123.354C265.487 123.354 266.253 124.146 266.253 125.12C266.253 126.094 265.487 126.886 264.544 126.886C263.601 126.886 262.831 126.097 262.831 125.12C262.831 124.143 263.598 123.354 264.544 123.354ZM250.2 123.354C251.142 123.354 251.909 124.146 251.909 125.12C251.909 126.094 251.142 126.886 250.2 126.886C249.257 126.886 248.49 126.097 248.49 125.12C248.49 124.143 249.254 123.354 250.2 123.354ZM235.859 123.354C236.805 123.354 237.568 124.146 237.568 125.12C237.568 126.094 236.805 126.886 235.859 126.886C234.913 126.886 234.149 126.097 234.149 125.12C234.149 124.143 234.913 123.354 235.859 123.354ZM221.515 123.354C222.461 123.354 223.227 124.146 223.227 125.12C223.227 126.094 222.461 126.886 221.515 126.886C220.569 126.886 219.805 126.097 219.805 125.12C219.805 124.143 220.572 123.354 221.515 123.354ZM207.17 123.354C208.113 123.354 208.88 124.146 208.88 125.12C208.88 126.094 208.113 126.886 207.17 126.886C206.228 126.886 205.461 126.097 205.461 125.12C205.461 124.143 206.224 123.354 207.17 123.354ZM192.83 123.354C193.776 123.354 194.539 124.146 194.539 125.12C194.539 126.094 193.776 126.886 192.83 126.886C191.883 126.886 191.12 126.097 191.12 125.12C191.12 124.143 191.887 123.354 192.83 123.354ZM178.485 123.354C179.431 123.354 180.195 124.146 180.195 125.12C180.195 126.094 179.431 126.886 178.485 126.886C177.539 126.886 176.776 126.097 176.776 125.12C176.776 124.143 177.543 123.354 178.485 123.354ZM164.141 123.354C165.084 123.354 165.851 124.146 165.851 125.12C165.851 126.094 165.084 126.886 164.141 126.886C163.198 126.886 162.429 126.097 162.429 125.12C162.429 124.143 163.195 123.354 164.141 123.354ZM149.8 123.354C150.743 123.354 151.51 124.146 151.51 125.12C151.51 126.094 150.743 126.886 149.8 126.886C148.858 126.886 148.091 126.097 148.091 125.12C148.091 124.143 148.854 123.354 149.8 123.354ZM135.456 123.354C136.402 123.354 137.166 124.146 137.166 125.12C137.166 126.094 136.402 126.886 135.456 126.886C134.51 126.886 133.747 126.097 133.747 125.12C133.747 124.143 134.513 123.354 135.456 123.354ZM121.112 123.354C122.058 123.354 122.825 124.146 122.825 125.12C122.825 126.094 122.058 126.886 121.112 126.886C120.166 126.886 119.403 126.097 119.403 125.12C119.403 124.143 120.169 123.354 121.112 123.354ZM106.771 123.354C107.714 123.354 108.481 124.146 108.481 125.12C108.481 126.094 107.714 126.886 106.771 126.886C105.828 126.886 105.058 126.097 105.058 125.12C105.058 124.143 105.825 123.354 106.771 123.354ZM92.427 123.354C93.3698 123.354 94.1364 124.146 94.1364 125.12C94.1364 126.094 93.3698 126.886 92.427 126.886C91.4842 126.886 90.7175 126.097 90.7175 125.12C90.7175 124.143 91.4809 123.354 92.427 123.354ZM78.0828 123.354C79.0289 123.354 79.7922 124.146 79.7922 125.12C79.7922 126.094 79.0289 126.886 78.0828 126.886C77.1367 126.886 76.3734 126.097 76.3734 125.12C76.3734 124.143 77.14 123.354 78.0828 123.354ZM63.7419 123.354C64.6847 123.354 65.4513 124.146 65.4513 125.12C65.4513 126.094 64.6847 126.886 63.7419 126.886C62.7991 126.886 62.0292 126.097 62.0292 125.12C62.0292 124.143 62.7958 123.354 63.7419 123.354ZM49.3977 123.354C50.3438 123.354 51.1072 124.146 51.1072 125.12C51.1072 126.094 50.3438 126.886 49.3977 126.886C48.4517 126.886 47.6883 126.097 47.6883 125.12C47.6883 124.143 48.4517 123.354 49.3977 123.354ZM35.0536 123.354C35.9996 123.354 36.763 124.146 36.763 125.12C36.763 126.094 35.9996 126.886 35.0536 126.886C34.1075 126.886 33.3442 126.097 33.3442 125.12C33.3442 124.143 34.1108 123.354 35.0536 123.354ZM20.7094 123.354C21.6555 123.354 22.4221 124.146 22.4221 125.12C22.4221 126.094 21.6555 126.886 20.7094 126.886C19.7634 126.886 19 126.097 19 125.12C19 124.143 19.7666 123.354 20.7094 123.354ZM366.656 136.725C366.656 135.752 365.889 134.961 364.946 134.961C364 134.961 363.234 135.749 363.234 136.725C363.234 137.702 364.003 138.493 364.946 138.493C365.889 138.493 366.656 137.698 366.656 136.725ZM352.312 136.725C352.312 135.752 351.545 134.961 350.602 134.961C349.656 134.961 348.893 135.749 348.893 136.725C348.893 137.702 349.659 138.493 350.602 138.493C351.545 138.493 352.312 137.698 352.312 136.725ZM337.967 136.725C337.967 135.752 337.204 134.961 336.258 134.961C335.315 134.961 334.549 135.749 334.549 136.725C334.549 137.702 335.312 138.493 336.258 138.493C337.204 138.493 337.967 137.698 337.967 136.725ZM323.626 136.725C323.626 135.752 322.86 134.961 321.917 134.961C320.971 134.961 320.204 135.749 320.204 136.725C320.204 137.702 320.974 138.493 321.917 138.493C322.86 138.493 323.626 137.698 323.626 136.725ZM309.282 136.725C309.282 135.752 308.516 134.961 307.573 134.961C306.627 134.961 305.863 135.749 305.863 136.725C305.863 137.702 306.63 138.493 307.573 138.493C308.516 138.493 309.282 137.698 309.282 136.725ZM294.938 136.725C294.938 135.752 294.175 134.961 293.229 134.961C292.283 134.961 291.519 135.749 291.519 136.725C291.519 137.702 292.283 138.493 293.229 138.493C294.175 138.493 294.938 137.698 294.938 136.725ZM280.6 136.725C280.6 135.752 279.834 134.961 278.888 134.961C277.945 134.961 277.178 135.749 277.178 136.725C277.178 137.702 277.942 138.493 278.888 138.493C279.834 138.493 280.6 137.698 280.6 136.725ZM266.253 136.725C266.253 135.752 265.486 134.961 264.544 134.961C263.598 134.961 262.831 135.749 262.831 136.725C262.831 137.702 263.601 138.493 264.544 138.493C265.486 138.493 266.253 137.698 266.253 136.725ZM251.909 136.725C251.909 135.752 251.142 134.961 250.2 134.961C249.253 134.961 248.49 135.749 248.49 136.725C248.49 137.702 249.257 138.493 250.2 138.493C251.142 138.493 251.909 137.698 251.909 136.725ZM237.568 136.725C237.568 135.752 236.805 134.961 235.859 134.961C234.913 134.961 234.149 135.749 234.149 136.725C234.149 137.702 234.913 138.493 235.859 138.493C236.805 138.493 237.568 137.698 237.568 136.725ZM223.227 136.725C223.227 135.752 222.46 134.961 221.514 134.961C220.572 134.961 219.805 135.749 219.805 136.725C219.805 137.702 220.568 138.493 221.514 138.493C222.46 138.493 223.227 137.698 223.227 136.725ZM208.88 136.725C208.88 135.752 208.113 134.961 207.17 134.961C206.224 134.961 205.461 135.749 205.461 136.725C205.461 137.702 206.227 138.493 207.17 138.493C208.113 138.493 208.88 137.698 208.88 136.725ZM194.539 136.725C194.539 135.752 193.775 134.961 192.829 134.961C191.887 134.961 191.12 135.749 191.12 136.725C191.12 137.702 191.883 138.493 192.829 138.493C193.775 138.493 194.539 137.698 194.539 136.725ZM180.195 136.725C180.195 135.752 179.431 134.961 178.485 134.961C177.542 134.961 176.776 135.749 176.776 136.725C176.776 137.702 177.539 138.493 178.485 138.493C179.431 138.493 180.195 137.698 180.195 136.725ZM165.85 136.725C165.85 135.752 165.084 134.961 164.141 134.961C163.195 134.961 162.428 135.749 162.428 136.725C162.428 137.702 163.198 138.493 164.141 138.493C165.084 138.493 165.85 137.698 165.85 136.725ZM151.51 136.725C151.51 135.752 150.743 134.961 149.8 134.961C148.854 134.961 148.091 135.749 148.091 136.725C148.091 137.702 148.857 138.493 149.8 138.493C150.743 138.493 151.51 137.698 151.51 136.725ZM137.165 136.725C137.165 135.752 136.402 134.961 135.456 134.961C134.513 134.961 133.747 135.749 133.747 136.725C133.747 137.702 134.51 138.493 135.456 138.493C136.402 138.493 137.165 137.698 137.165 136.725ZM122.825 136.725C122.825 135.752 122.058 134.961 121.112 134.961C120.169 134.961 119.402 135.749 119.402 136.725C119.402 137.702 120.166 138.493 121.112 138.493C122.058 138.493 122.825 137.698 122.825 136.725ZM108.48 136.725C108.48 135.752 107.714 134.961 106.771 134.961C105.825 134.961 105.058 135.749 105.058 136.725C105.058 137.702 105.828 138.493 106.771 138.493C107.714 138.493 108.48 137.698 108.48 136.725ZM94.1362 136.725C94.1362 135.752 93.3696 134.961 92.4268 134.961C91.4807 134.961 90.7174 135.749 90.7174 136.725C90.7174 137.702 91.484 138.493 92.4268 138.493C93.3696 138.493 94.1362 137.698 94.1362 136.725ZM79.7921 136.725C79.7921 135.752 79.0287 134.961 78.0826 134.961C77.1398 134.961 76.3732 135.749 76.3732 136.725C76.3732 137.702 77.1366 138.493 78.0826 138.493C79.0287 138.493 79.7921 137.698 79.7921 136.725ZM65.4512 136.725C65.4512 135.752 64.6845 134.961 63.7417 134.961C62.7957 134.961 62.0291 135.749 62.0291 136.725C62.0291 137.702 62.7989 138.493 63.7417 138.493C64.6845 138.493 65.4512 137.698 65.4512 136.725ZM51.107 136.725C51.107 135.752 50.3436 134.961 49.3976 134.961C48.4515 134.961 47.6882 135.749 47.6882 136.725C47.6882 137.702 48.4515 138.493 49.3976 138.493C50.3436 138.493 51.107 137.698 51.107 136.725ZM36.7628 136.725C36.7628 135.752 35.9995 134.961 35.0534 134.961C34.1106 134.961 33.344 135.749 33.344 136.725C33.344 137.702 34.1074 138.493 35.0534 138.493C35.9995 138.493 36.7628 137.698 36.7628 136.725Z" fill="url(#paint0_linear_2045_563)" fill-opacity="0.65"/>
<defs>
<linearGradient id="paint0_linear_2045_563" x1="200" y1="-8.5" x2="200" y2="160.5" gradientUnits="userSpaceOnUse">
<stop stop-color="#00331D" stop-opacity="0"/>
<stop offset="0.5" stop-color="#00331D"/>
<stop offset="1" stop-color="#00331D" stop-opacity="0"/>
</linearGradient>
</defs>
</svg>
