<svg width="161" height="233" viewBox="0 0 161 233" fill="none" xmlns="http://www.w3.org/2000/svg">
<path fill-rule="evenodd" clip-rule="evenodd" d="M139.165 232.401L56.9612 232.401L50.7052 227.322L6.45081 227.322L9.71468e-05 222.066L0.000103373 79.6306L4.47909 75.9749L4.47909 22.3839L17.77 11.5748L57.7888 11.5748L70.8607 0.963253L141.161 0.963256L158.347 14.9143L158.347 216.829L139.165 232.401ZM157.641 15.1514L140.869 1.55608L71.1771 1.55607L58.3244 11.9897L58.1053 12.1676L18.0865 12.1676L5.2337 22.6012L5.2337 76.212L5.01461 76.3899L0.730374 79.8677L0.730368 221.809L6.76728 226.71L51.0217 226.71L51.2164 226.887L57.2776 231.808L138.873 231.808L157.641 216.572L157.641 15.1514Z" fill="#40404A"/>
<path opacity="0.1" d="M37.1223 11.7138L42.5506 16.1007L69.8871 16.1007L83.251 5.2718L130.597 5.2718L154.818 24.9139L154.818 208.353L133.226 225.88L55.6955 225.88L51.8007 222.699L27.7504 222.699L22.9063 226.631L50.7053 226.631L57.3751 232.046L138.946 232.046L158.031 216.553L158.031 15.4288L140.991 1.59631L70.8608 1.59631L58.1784 11.8916C58.1784 11.8916 37.244 11.7138 37.1223 11.7138Z" fill="#40404A"/>
<path d="M158.225 108.876L161 111.129L161 190.962L158.006 193.393C158.006 193.393 157.933 108.876 158.225 108.876Z" fill="#40404A"/>
<path d="M142.354 229.476L54.1617 229.476L57.3749 232.065L139.165 232.065C139.165 232.065 142.232 229.476 142.354 229.476Z" fill="#40404A"/>
<path d="M50.4864 231.728L47.2489 229.1L43.5002 229.1L46.7134 231.708L50.4864 231.728Z" fill="#40404A"/>
<path d="M44.7416 231.728L41.504 229.1L37.7553 229.1L40.9685 231.708L44.7416 231.728Z" fill="#40404A"/>
<path d="M39.0202 231.728L35.7827 229.1L32.0096 229.1L35.2471 231.708L39.0202 231.728Z" fill="#40404A"/>
<path d="M33.2764 231.728L30.0388 229.1L26.2901 229.1L29.5033 231.708L33.2764 231.728Z" fill="#40404A"/>
<path d="M27.5315 231.728L24.294 229.1L20.5453 229.1L23.7585 231.708L27.5315 231.728Z" fill="#40404A"/>
<path d="M21.7867 231.728L18.5735 229.1L14.8005 229.1L18.0136 231.708L21.7867 231.728Z" fill="#40404A"/>
<path d="M16.0665 231.728L12.829 229.1L9.08024 229.1L12.2934 231.708L16.0665 231.728Z" fill="#40404A"/>
<path d="M62.6577 1.37792L53.4806 8.8277L47.0786 8.8277L56.28 1.35815L62.6577 1.37792Z" fill="#40404A"/>
<path d="M52.7009 1.37792L43.5239 8.8277L37.1218 8.8277L46.2989 1.35815L52.7009 1.37792Z" fill="#40404A"/>
<path d="M42.721 1.37792L33.5439 8.8277L27.1419 8.8277L36.3433 1.35815C36.3433 1.35815 42.7453 1.37792 42.721 1.37792Z" fill="#40404A"/>
<path d="M32.7642 1.37792L23.5872 8.8277L17.1851 8.8277L26.3865 1.35815L32.7642 1.37792Z" fill="#40404A"/>
<path d="M0.511049 12.1489L0.511047 62.8351L1.67948 61.8866L1.67948 21.4364L13.2178 12.0698L0.511049 12.1489Z" fill="#40404A"/>
</svg>
