<svg width="400" height="101" viewBox="0 0 400 101" fill="none" xmlns="http://www.w3.org/2000/svg">
<rect x="3" y="3" width="394" height="82" fill="#00331D" fill-opacity="0.35"/>
<path d="M385 87L399 73V87H385Z" fill="#66FFBC"/>
<path d="M397 3L389 3L397 11L397 3Z" fill="#009956"/>
<path d="M141 100H115L102 87H1V13V1H13H387L399 13V66L378 87H298L285 100H259" stroke="#009956"/>
<path fill-rule="evenodd" clip-rule="evenodd" d="M297.979 100.027L293 100.027L300.66 92L305.638 92L297.979 100.027ZM299.894 100.027L304.872 100.027L312.532 92L307.553 92L299.894 100.027ZM311.766 100.027L306.787 100.027L314.447 92L319.425 92L311.766 100.027ZM313.681 100.027L318.66 100.027L326.319 92L321.34 92L313.681 100.027ZM325.553 100.027L320.574 100.027L328.234 92L333.213 92L325.553 100.027ZM327.468 100.027L332.447 100.027L340.106 92L335.128 92L327.468 100.027ZM334.362 100.027L339.341 100.027L347 92L342.021 92L334.362 100.027ZM341.362 100.027L346.34 100.027L354 92L349.021 92L341.362 100.027ZM353.341 100.027L348.362 100.027L356.021 92L361 92L353.341 100.027ZM355.362 100.027L360.341 100.027L368 92L363.021 92L355.362 100.027ZM367.341 100.027L362.362 100.027L370.021 92L375 92L367.341 100.027Z" fill="url(#paint0_linear_4002_16004)"/>
<path fill-rule="evenodd" clip-rule="evenodd" d="M103.021 100.027L108 100.027L100.34 92L95.3617 92L103.021 100.027ZM101.106 100.027L96.1277 100.027L88.4681 92L93.4468 92L101.106 100.027ZM89.2341 100.027L94.2128 100.027L86.5532 92L81.5745 92L89.2341 100.027ZM87.3192 100.027L82.3405 100.027L74.6809 92L79.6596 92L87.3192 100.027ZM75.4469 100.027L80.4256 100.027L72.766 92L67.7873 92L75.4469 100.027ZM73.5318 100.027L68.5531 100.027L60.8936 92L65.8723 92L73.5318 100.027ZM66.6382 100.027L61.6595 100.027L53.9999 92L58.9786 92L66.6382 100.027ZM59.6383 100.027L54.6596 100.027L47 92L51.9787 92L59.6383 100.027ZM47.6595 100.027L52.6382 100.027L44.9786 92L39.9999 92L47.6595 100.027ZM45.6382 100.027L40.6595 100.027L32.9999 92L37.9786 92L45.6382 100.027ZM33.6595 100.027L38.6382 100.027L30.9786 92L25.9999 92L33.6595 100.027Z" fill="url(#paint1_linear_4002_16004)"/>
<defs>
<linearGradient id="paint0_linear_4002_16004" x1="293" y1="96.0135" x2="375" y2="96.0135" gradientUnits="userSpaceOnUse">
<stop stop-color="#00CC73"/>
<stop offset="1" stop-color="#00CC73" stop-opacity="0"/>
</linearGradient>
<linearGradient id="paint1_linear_4002_16004" x1="108" y1="96.0135" x2="26" y2="96.0135" gradientUnits="userSpaceOnUse">
<stop stop-color="#00CC73"/>
<stop offset="1" stop-color="#00CC73" stop-opacity="0"/>
</linearGradient>
</defs>
</svg>
