<svg width="400" height="88" viewBox="0 0 400 88" fill="none" xmlns="http://www.w3.org/2000/svg">
<rect x="3" y="3" width="394" height="69" fill="#00331D" fill-opacity="0.35"/>
<path d="M131 4L128 1H273L270 4H131Z" fill="#009956"/>
<path fill-rule="evenodd" clip-rule="evenodd" d="M297.979 87.027L293 87.027L300.66 79L305.638 79L297.979 87.027ZM299.894 87.027L304.872 87.027L312.532 79L307.553 79L299.894 87.027ZM311.766 87.027L306.787 87.027L314.447 79L319.425 79L311.766 87.027ZM313.681 87.027L318.66 87.027L326.319 79L321.34 79L313.681 87.027ZM325.553 87.027L320.574 87.027L328.234 79L333.213 79L325.553 87.027ZM327.468 87.027L332.447 87.027L340.106 79L335.128 79L327.468 87.027ZM334.362 87.027L339.341 87.027L347 79L342.021 79L334.362 87.027ZM341.362 87.027L346.34 87.027L354 79L349.021 79L341.362 87.027ZM353.341 87.027L348.362 87.027L356.021 79L361 79L353.341 87.027ZM355.362 87.027L360.341 87.027L368 79L363.021 79L355.362 87.027ZM367.341 87.027L362.362 87.027L370.021 79L375 79L367.341 87.027Z" fill="url(#paint0_linear_2051_772)"/>
<path fill-rule="evenodd" clip-rule="evenodd" d="M103.021 87.027L108 87.027L100.34 79L95.3617 79L103.021 87.027ZM101.106 87.027L96.1277 87.027L88.4681 79L93.4468 79L101.106 87.027ZM89.2341 87.027L94.2128 87.027L86.5532 79L81.5745 79L89.2341 87.027ZM87.3192 87.027L82.3405 87.027L74.6809 79L79.6596 79L87.3192 87.027ZM75.4469 87.027L80.4256 87.027L72.766 79L67.7873 79L75.4469 87.027ZM73.5318 87.027L68.5531 87.027L60.8936 79L65.8723 79L73.5318 87.027ZM66.6382 87.027L61.6595 87.027L53.9999 79L58.9786 79L66.6382 87.027ZM59.6383 87.027L54.6596 87.027L47 79L51.9787 79L59.6383 87.027ZM47.6595 87.027L52.6382 87.027L44.9786 79L39.9999 79L47.6595 87.027ZM45.6382 87.027L40.6595 87.027L32.9999 79L37.9786 79L45.6382 87.027ZM33.6595 87.027L38.6382 87.027L30.9786 79L25.9999 79L33.6595 87.027Z" fill="url(#paint1_linear_2051_772)"/>
<path d="M385 74L399 60V74H385Z" fill="#66FFBC"/>
<path d="M397 3L389 3L397 11L397 3Z" fill="#009956"/>
<path d="M3 3L11 3L3 11L3 3Z" fill="#009956"/>
<path d="M141 87H115L102 74H1V13L13 1H387L399 13V53L378 74H298L285 87H259" stroke="#009956"/>
<defs>
<linearGradient id="paint0_linear_2051_772" x1="293" y1="83.0135" x2="375" y2="83.0135" gradientUnits="userSpaceOnUse">
<stop stop-color="#00CC73"/>
<stop offset="1" stop-color="#00CC73" stop-opacity="0"/>
</linearGradient>
<linearGradient id="paint1_linear_2051_772" x1="108" y1="83.0135" x2="26" y2="83.0135" gradientUnits="userSpaceOnUse">
<stop stop-color="#00CC73"/>
<stop offset="1" stop-color="#00CC73" stop-opacity="0"/>
</linearGradient>
</defs>
</svg>
