<svg width="221" height="73" viewBox="0 0 221 73" fill="none" xmlns="http://www.w3.org/2000/svg">
<g opacity="0.6" filter="url(#filter0_f_2007_292)">
<path fill-rule="evenodd" clip-rule="evenodd" d="M51.8555 22.26C51.8555 17.4238 48.4393 13.3559 43.8844 12.2712C43.11 12.1356 42.3357 12 41.5158 12H12V19.9097H40.787C42.4724 19.9097 43.8844 21.3108 43.8844 22.9832V32.7008C43.8844 34.3731 42.4724 35.7291 40.787 35.7291H19.9711V24.2035H12V43.6388H41.5158C41.8802 43.6388 42.2446 43.6388 42.5635 43.5936C43.0189 43.5484 43.4289 43.5032 43.8844 43.4128C47.7105 42.5088 50.7167 39.5257 51.5822 35.6839C51.7644 34.9607 51.8555 34.1923 51.8555 33.424V22.26ZM58.9903 12H98.8457V19.9097H66.9613V19.9549H58.9903V12ZM58.9903 24.5651H98.8457V31.0285H66.9613H58.9903V24.5651ZM58.9903 35.7291H98.8457V43.6388H58.9903V35.7291ZM146.459 22.26C146.459 21.4464 146.322 20.6781 146.185 19.9097C145.275 16.1582 142.268 13.1752 138.488 12.2712C137.713 12.1356 136.939 12 136.119 12H106.603V19.9097H135.39C137.076 19.9097 138.488 21.3108 138.488 22.9832V24.7911C138.488 26.4634 137.076 27.8194 135.39 27.8194H106.603V43.6388H114.574V35.7291H136.119C136.484 35.7291 136.848 35.7291 137.167 35.6839C137.622 35.6387 138.032 35.5935 138.488 35.5031C142.268 34.5991 145.275 31.6161 146.185 27.8194V27.7742C146.368 27.051 146.459 26.2827 146.459 25.5143V22.26ZM160.986 43.6388H153.015V12H160.986V43.6388ZM200.619 12H208.591V43.6388H198.934L176.706 21.582V43.6388H168.735V12H178.3L200.619 34.1472V12Z" fill="url(#paint0_linear_2007_292)"/>
</g>
<path fill-rule="evenodd" clip-rule="evenodd" d="M51.8555 22.26C51.8555 17.4238 48.4394 13.3559 43.8844 12.2712C43.1101 12.1356 42.3358 12 41.5159 12H12.0001V19.9097H40.7871C42.4724 19.9097 43.8844 21.3108 43.8844 22.9832V32.7008C43.8844 34.3731 42.4724 35.7291 40.7871 35.7291H19.9712V24.2035H12.0001V43.6388H41.5159C41.8803 43.6388 42.2447 43.6388 42.5635 43.5936C43.019 43.5484 43.4289 43.5032 43.8844 43.4128C47.7106 42.5088 50.7168 39.5257 51.5822 35.6839C51.7644 34.9607 51.8555 34.1923 51.8555 33.424V22.26ZM58.9903 12H98.8458V19.9097H66.9614V19.9549H58.9903V12ZM58.9903 24.5651H98.8458V31.0285H66.9614H58.9903V24.5651ZM58.9903 35.7291H98.8458V43.6388H58.9903V35.7291ZM146.459 22.26C146.459 21.4464 146.322 20.6781 146.186 19.9097C145.275 16.1582 142.268 13.1752 138.488 12.2712C137.713 12.1356 136.939 12 136.119 12H106.603V19.9097H135.39C137.076 19.9097 138.488 21.3108 138.488 22.9832V24.7911C138.488 26.4634 137.076 27.8194 135.39 27.8194H106.603V43.6388H114.574V35.7291H136.119C136.484 35.7291 136.848 35.7291 137.167 35.6839C137.622 35.6387 138.032 35.5935 138.488 35.5031C142.268 34.5991 145.275 31.6161 146.186 27.8194V27.7742C146.368 27.051 146.459 26.2827 146.459 25.5143V22.26ZM160.987 43.6388H153.015V12H160.987V43.6388ZM200.62 12H208.591V43.6388H198.934L176.706 21.582V43.6388H168.735V12H178.301L200.62 34.1472V12Z" fill="url(#paint1_linear_2007_292)"/>
<path fill-rule="evenodd" clip-rule="evenodd" d="M31.8828 73L29.4032 67.0856L27.7652 63.1352L26.9235 61.1487L25.2856 57.1982H22.4647H21.4182H18.5973L16.9366 61.1487L16.1177 63.1352L14.4797 67.0856L12.0001 73H16.2997L18.7793 67.0856L20.44 63.1352L21.259 61.1487H22.6239L23.4429 63.1352L25.1036 67.0856L27.5832 73H31.8828ZM43.3131 69.0496H59.2376V73H39.332V57.1982H43.3131V69.0496ZM86.701 69.0496H70.7766V57.1982H66.7955V73H86.701V69.0496ZM98.2399 73H94.2588V57.1982H98.2399V73ZM125.519 73L123.039 67.0856L121.401 63.1352L120.56 61.1487L118.922 57.1982H116.101H115.054H112.233L110.573 61.1487L109.754 63.1352L108.116 67.0856L105.636 73H109.936L112.415 67.0856L114.076 63.1352L114.895 61.1487H116.26L117.079 63.1352L118.74 67.0856L121.219 73H125.519ZM148.892 57.1982H152.873V73H148.051L136.949 61.9839V73H132.968V57.1982H137.745L148.892 68.2595V57.1982ZM180.908 61.1489L180.908 61.1487C180.453 59.275 178.951 57.7852 177.063 57.3337C176.676 57.266 176.289 57.1982 175.88 57.1982H161.139V61.1487H175.516C176.358 61.1487 177.063 61.8485 177.063 62.6837V64.1284H181.044V62.3225C181.044 61.9163 180.976 61.5326 180.908 61.1489ZM166.644 69.0496C165.802 69.0496 165.12 68.3723 165.12 67.5371V63.2932H161.139V67.8983C161.139 68.1466 161.139 68.3949 161.184 68.6432L161.252 69.0496C161.707 70.9458 163.209 72.4356 165.12 72.8871C165.324 72.9323 165.529 72.9548 165.757 72.9774C165.916 73 166.098 73 166.28 73H181.044V69.0496H166.644ZM209 57.1982H189.094V61.1712H193.076V61.1487H209V57.1982ZM209 63.4738H189.094V66.7019H193.076H209V63.4738ZM209 69.0496H189.094V73H209V69.0496Z" fill="white"/>
<defs>
<filter id="filter0_f_2007_292" x="0" y="0" width="220.591" height="55.6388" filterUnits="userSpaceOnUse" color-interpolation-filters="sRGB">
<feFlood flood-opacity="0" result="BackgroundImageFix"/>
<feBlend mode="normal" in="SourceGraphic" in2="BackgroundImageFix" result="shape"/>
<feGaussianBlur stdDeviation="6" result="effect1_foregroundBlur_2007_292"/>
</filter>
<linearGradient id="paint0_linear_2007_292" x1="12" y1="27.8194" x2="208.591" y2="27.8194" gradientUnits="userSpaceOnUse">
<stop stop-color="#00FF90"/>
<stop offset="1" stop-color="#F4FD36"/>
</linearGradient>
<linearGradient id="paint1_linear_2007_292" x1="12.0001" y1="27.8194" x2="208.591" y2="27.8194" gradientUnits="userSpaceOnUse">
<stop stop-color="#00FF90"/>
<stop offset="1" stop-color="#F4FD36"/>
</linearGradient>
</defs>
</svg>
