<svg width="190" height="108" viewBox="0 0 190 108" fill="none" xmlns="http://www.w3.org/2000/svg">
<g opacity="0.6" filter="url(#filter0_f_2202_10778)">
<path fill-rule="evenodd" clip-rule="evenodd" d="M124.963 29.873C128.744 29.873 131.809 26.8268 131.809 23.069C131.809 19.3111 128.744 16.2648 124.963 16.2648C121.182 16.2648 118.117 19.3111 118.117 23.069C118.117 26.8268 121.182 29.873 124.963 29.873ZM12 29.2054V69.1781H26.8064C32.466 69.1781 37.2966 67.2604 41.2698 63.411C45.2572 59.5471 47.258 54.8027 47.258 49.1917C47.258 43.5666 45.2714 38.8222 41.2983 34.9726C37.3251 31.1231 32.4945 29.2054 26.8206 29.2054H12ZM22.4473 60.3852V38.0125H24.9342C28.4356 38.0125 31.2225 39.0069 33.2949 41.0097C35.3671 42.9985 36.3962 45.7258 36.3962 49.1917C36.3962 52.7146 35.353 55.4561 33.2662 57.4306C31.194 59.4051 28.3785 60.3852 24.8198 60.3852H22.4473ZM71.0113 51.6206H59.7493C60.3353 48.7654 62.2648 47.3308 65.5089 47.3165C66.8524 47.3165 68.0386 47.7144 69.0819 48.5099C70.1253 49.2911 70.7684 50.3281 71.0113 51.6206ZM80.0152 57.189V56.1805C80.0152 51.4928 78.7003 47.7995 76.0421 45.1149C73.3981 42.4301 69.725 41.0806 65.0231 41.0806C60.4783 41.0806 56.8339 42.3733 54.0754 44.9443C51.2601 47.5723 49.8594 51.1234 49.8594 55.6122C49.8594 60.1863 51.3743 63.78 54.39 66.3797C57.2483 68.8513 61.0213 70.087 65.6948 70.087C69.0533 70.087 71.9546 69.3343 74.4271 67.8286C77.1711 66.1808 78.9148 63.8085 79.6436 60.7403H70.2968C69.3249 62.4164 67.7813 63.2545 65.6661 63.2545C61.6216 63.2545 59.5921 61.2233 59.5921 57.189H80.0152ZM130.408 33.268V69.1781H119.961V43.6519C119.961 37.9132 124.635 33.268 130.408 33.268ZM147.701 29.2054H137.254V69.1781H147.701V44.6888H147.83L166.98 69.1781H177.428V29.2054H166.98V53.6522H166.881L147.701 29.2054ZM95.1214 55.9249V74.8742H177.871V78.3687C177.871 80.3147 176.299 81.8774 174.355 81.8774H84.6885V74.8742V29.2054H100.681C105.212 29.2054 108.742 30.2566 111.257 32.3448C113.958 34.6033 115.316 37.9414 115.316 42.3592C115.316 51.4078 110.571 55.9249 101.067 55.9249H95.1214ZM96.8936 37.5721H95.1214V47.544H96.8936C99.4376 47.544 101.167 47.3451 102.082 46.9473C103.639 46.2656 104.425 44.845 104.425 42.6717C104.425 40.4273 103.682 38.9499 102.182 38.2397C101.224 37.7993 99.4662 37.5721 96.8936 37.5721Z" fill="url(#paint0_linear_2202_10778)"/>
</g>
<path d="M109.871 22.6852C109.871 18.6794 111.472 14.8299 114.33 11.989C117.188 9.14794 121.047 7.55699 125.092 7.55699C129.122 7.55699 132.995 9.14794 135.853 11.989C138.712 14.8299 140.312 18.6652 140.312 22.6852H137.583C137.583 19.3898 136.268 16.2363 133.924 13.9066C131.58 11.5771 128.407 10.2701 125.092 10.2701C121.776 10.2701 118.603 11.5771 116.259 13.9066C113.915 16.2363 112.601 19.3898 112.601 22.6852H109.871Z" fill="white"/>
<path d="M102.268 22.6853C102.268 16.6765 104.669 10.8952 108.956 6.6479C113.23 2.40064 119.047 0 125.092 0C131.137 0 136.954 2.38643 141.227 6.6479C145.501 10.8952 147.916 16.6765 147.916 22.6853H144.9C144.9 17.4578 142.814 12.4577 139.098 8.76444C135.382 5.07116 130.351 2.99724 125.092 2.99724C119.832 2.99724 114.802 5.07116 111.086 8.76444C107.37 12.4577 105.283 17.4578 105.283 22.6853H102.268Z" fill="white"/>
<path d="M102.268 22.6853C102.268 16.6765 104.669 10.8952 108.956 6.6479C113.23 2.40064 119.047 0 125.092 0C131.137 0 136.954 2.38643 141.227 6.6479C145.501 10.8952 147.916 16.6765 147.916 22.6853H144.9C144.9 17.4578 142.814 12.4577 139.098 8.76444C135.382 5.07116 130.351 2.99724 125.092 2.99724C119.832 2.99724 114.802 5.07116 111.086 8.76444C107.37 12.4577 105.283 17.4578 105.283 22.6853H102.268Z" fill="white"/>
<path fill-rule="evenodd" clip-rule="evenodd" d="M125.092 29.873C128.873 29.873 131.937 26.8268 131.937 23.069C131.937 19.3111 128.873 16.2648 125.092 16.2648C121.311 16.2648 118.246 19.3111 118.246 23.069C118.246 26.8268 121.311 29.873 125.092 29.873ZM12.1284 29.2054V69.1781H26.9348C32.5944 69.1781 37.4251 67.2604 41.3982 63.411C45.3856 59.5471 47.3864 54.8027 47.3864 49.1917C47.3864 43.5666 45.3998 38.8222 41.4267 34.9726C37.4535 31.1231 32.6229 29.2054 26.949 29.2054H12.1284ZM22.5758 60.3852V38.0125H25.0626C28.564 38.0125 31.3509 39.0069 33.4233 41.0097C35.4955 42.9985 36.5246 45.7258 36.5246 49.1917C36.5246 52.7146 35.4814 55.4561 33.3947 57.4306C31.3224 59.4051 28.5069 60.3852 24.9482 60.3852H22.5758ZM71.1405 51.6206H59.8785C60.4644 48.7654 62.3939 47.3308 65.6381 47.3165C66.9815 47.3165 68.1677 47.7144 69.2111 48.5099C70.2544 49.2911 70.8975 50.3281 71.1405 51.6206ZM80.1444 57.189V56.1805C80.1444 51.4928 78.8295 47.7995 76.1713 45.1149C73.5272 42.4301 69.8542 41.0806 65.1522 41.0806C60.6074 41.0806 56.963 42.3733 54.2046 44.9443C51.3892 47.5723 49.9885 51.1234 49.9885 55.6122C49.9885 60.1863 51.5034 63.78 54.5191 66.3797C57.3775 68.8513 61.1504 70.087 65.8239 70.087C69.1825 70.087 72.0837 69.3343 74.5563 67.8286C77.3002 66.1808 79.0439 63.8085 79.7727 60.7403H70.4259C69.454 62.4164 67.9105 63.2545 65.7953 63.2545C61.7507 63.2545 59.7213 61.2233 59.7213 57.189H80.1444ZM130.537 33.268V69.1781H120.09V43.6519C120.09 37.9132 124.763 33.268 130.537 33.268ZM147.83 29.2054H137.383V69.1781H147.83V44.6888H147.959L167.109 69.1781H177.557V29.2054H167.109V53.6522H167.01L147.83 29.2054ZM95.2506 55.9249V74.8742H178V78.3687C178 80.3147 176.428 81.8774 174.485 81.8774H84.8176V74.8742V29.2054H100.81C105.341 29.2054 108.871 30.2566 111.386 32.3448C114.087 34.6033 115.445 37.9414 115.445 42.3592C115.445 51.4078 110.7 55.9249 101.196 55.9249H95.2506ZM97.0228 37.5721H95.2506V47.544H97.0228C99.5667 47.544 101.296 47.3451 102.211 46.9473C103.769 46.2656 104.555 44.845 104.555 42.6717C104.555 40.4273 103.811 38.9499 102.311 38.2397C101.353 37.7993 99.5954 37.5721 97.0228 37.5721Z" fill="url(#paint1_linear_2202_10778)"/>
<path d="M33.3807 102.048H22.4759L20.3893 107.304H12L23.705 77.0475H32.3373L43.8136 107.304H35.3815L33.3807 102.048ZM31.2512 96.0254L28.0212 86.3802H27.9354L24.6626 96.0254H31.2512Z" fill="white"/>
<path d="M53.4748 73.9793V107.29H46.1145V81.2949C46.1145 77.2607 49.4159 73.9793 53.4748 73.9793Z" fill="white"/>
<path d="M58.3057 73.9793C62.3645 73.9793 65.666 77.2465 65.666 81.2949V107.304H58.3057V73.9793Z" fill="white"/>
<path d="M77.8427 86.7069V107.304H70.4824V94.0224C70.4967 89.974 73.7838 86.7069 77.8427 86.7069ZM74.1555 74.7037C75.2987 74.7037 76.2706 75.1015 77.0709 75.8969C77.8713 76.6924 78.2715 77.6583 78.2715 78.7946C78.2715 79.9312 77.8713 80.8971 77.0709 81.6926C76.2706 82.4881 75.2987 82.8857 74.1555 82.8857C73.012 82.8857 72.0403 82.4881 71.2398 81.6926C70.4396 80.8971 70.0393 79.9312 70.0393 78.7946C70.0393 77.6583 70.4396 76.6924 71.2398 75.8969C72.0403 75.1015 73.012 74.7037 74.1555 74.7037Z" fill="white"/>
<path d="M93.4921 92.3603C92.1058 92.3603 90.9625 92.8007 90.0763 93.6672C89.1903 94.5338 88.7615 95.6417 88.7615 97.0196C88.7615 98.4117 89.1903 99.5338 90.062 100.372C90.9482 101.21 92.0916 101.622 93.4921 101.622C94.8927 101.622 96.0361 101.21 96.9079 100.372C97.7796 99.5196 98.2084 98.4117 98.2084 97.0196C98.2084 95.6417 97.7653 94.5338 96.8936 93.6672C96.0075 92.8007 94.8785 92.3603 93.4921 92.3603ZM105.326 86.7068V107.304H97.9655V105.017H97.8797C96.6364 107.006 94.5496 108 91.6342 108C88.6043 108 86.0889 106.906 84.0881 104.733C82.1444 102.616 81.1726 100.045 81.1726 97.0054C81.1726 93.9798 82.1301 91.4086 84.0453 89.3063C86.0174 87.133 88.5186 86.0534 91.5341 86.0534C94.2924 86.0534 96.4362 86.9483 97.9655 88.7381V86.7211H105.326V86.7068Z" fill="white"/>
<path d="M117.589 86.7069V89.3632H117.674C119.189 87.1473 121.39 86.025 124.306 86.025C129.494 86.025 132.095 88.866 132.095 94.5622V107.276H124.734V97.2469C124.734 95.5423 124.634 94.3917 124.434 93.7951C124.006 92.4882 122.991 91.8348 121.419 91.8348C118.875 91.8348 117.589 93.4258 117.589 96.5935V107.276H110.228V86.6784H117.589V86.7069Z" fill="white"/>
<path d="M151.875 87.2324V93.4115C150.56 92.4598 149.288 91.9769 148.073 91.9769C146.644 91.9769 145.443 92.4599 144.472 93.4258C143.514 94.3775 143.028 95.5708 143.028 96.9912C143.028 98.4828 143.514 99.6902 144.472 100.642C145.443 101.579 146.687 102.048 148.202 102.048C149.617 102.048 150.846 101.579 151.889 100.642V106.821C150.331 107.602 148.602 108 146.701 108C143.585 108 140.941 106.991 138.769 104.96C136.554 102.901 135.439 100.329 135.439 97.2327C135.439 93.9513 136.539 91.2667 138.755 89.1785C140.97 87.0904 143.728 86.0392 147.03 86.0392C148.802 86.0392 150.417 86.437 151.875 87.2324Z" fill="white"/>
<path d="M162.379 94.0083H170.896C170.711 93.0281 170.225 92.2468 169.438 91.6501C168.653 91.0535 167.752 90.7552 166.737 90.7552C164.28 90.7552 162.836 91.8348 162.379 94.0083ZM177.729 97.4601V98.2271H162.264C162.264 101.281 163.794 102.815 166.853 102.815C168.452 102.815 169.625 102.176 170.368 100.912H177.443C176.884 103.241 175.57 105.031 173.498 106.281C171.625 107.418 169.424 107.986 166.895 107.986C163.365 107.986 160.506 107.048 158.334 105.187C156.048 103.213 154.904 100.5 154.904 97.0339C154.904 93.6389 155.962 90.9399 158.091 88.9655C160.178 87.0194 162.937 86.0392 166.367 86.0392C169.924 86.0392 172.712 87.062 174.712 89.0933C176.728 91.1103 177.729 93.9087 177.729 97.4601Z" fill="white"/>
<defs>
<filter id="filter0_f_2202_10778" x="0" y="4.26476" width="189.871" height="89.6126" filterUnits="userSpaceOnUse" color-interpolation-filters="sRGB">
<feFlood flood-opacity="0" result="BackgroundImageFix"/>
<feBlend mode="normal" in="SourceGraphic" in2="BackgroundImageFix" result="shape"/>
<feGaussianBlur stdDeviation="6" result="effect1_foregroundBlur_2202_10778"/>
</filter>
<linearGradient id="paint0_linear_2202_10778" x1="12" y1="49.0711" x2="177.871" y2="49.0711" gradientUnits="userSpaceOnUse">
<stop stop-color="#00FF90"/>
<stop offset="1" stop-color="#F4FD36"/>
</linearGradient>
<linearGradient id="paint1_linear_2202_10778" x1="12.1284" y1="49.0711" x2="178" y2="49.0711" gradientUnits="userSpaceOnUse">
<stop stop-color="#00FF90"/>
<stop offset="1" stop-color="#F4FD36"/>
</linearGradient>
</defs>
</svg>
