<svg width="247" height="78" viewBox="0 0 247 78" fill="none" xmlns="http://www.w3.org/2000/svg">
<path d="M236.493 0.454224H246.487V40.4311H234.38L206.51 12.5615V40.4311H196.516V0.454224H208.509L236.493 28.438V0.454224Z" fill="white"/>
<path d="M186.8 40.4311H176.806V0.454224H186.8V40.4311Z" fill="white"/>
<path d="M168.243 10.4484C168.414 11.4193 168.585 12.3902 168.585 13.4182V17.5301C168.585 18.5009 168.471 19.4718 168.243 20.3855C168.243 20.4427 168.243 20.4427 168.243 20.4427C167.101 25.2399 163.331 29.0091 158.591 30.1513C158.02 30.2655 157.506 30.3227 156.935 30.3798C156.535 30.4369 156.078 30.4369 155.622 30.4369H128.609V40.4311H118.614V20.4427H154.708C156.821 20.4427 158.591 18.7294 158.591 16.6163V14.3319C158.591 12.2188 156.821 10.4484 154.708 10.4484H118.614V0.454224H155.622C156.65 0.454224 157.62 0.625554 158.591 0.796885C163.331 1.93908 167.101 5.70833 168.243 10.4484Z" fill="white"/>
<path d="M58.9169 0.454224H108.888V10.4484H68.9111V10.5056H58.9169V0.454224ZM58.9169 16.3308H108.888V24.4975H68.9111H58.9169V16.3308ZM58.9169 30.4369H108.888V40.4311H58.9169V30.4369Z" fill="white"/>
<path d="M39.9769 0.796885C45.6879 2.16752 49.9711 7.3074 49.9711 13.4182V27.5243C49.9711 28.4951 49.8569 29.466 49.6284 30.3798C48.5433 35.2341 44.7741 39.0033 39.9769 40.1455C39.4058 40.2598 38.8918 40.3169 38.3207 40.374C37.9209 40.4311 37.464 40.4311 37.0072 40.4311H0V15.8739H9.99422V30.4369H36.0934C38.2065 30.4369 39.9769 28.7236 39.9769 26.6105V14.3319C39.9769 12.2188 38.2065 10.4484 36.0934 10.4484H0V0.454224H37.0072C38.0351 0.454224 39.006 0.625554 39.9769 0.796885Z" fill="white"/>
<path d="M222.042 57.5641H247V62.5556H227.034V62.5841H222.042V57.5641ZM222.042 65.4935H247V69.5723H227.034H222.042V65.4935ZM222.042 72.5387H247V77.5302H222.042V72.5387Z" fill="white"/>
<path d="M211.778 62.5556C211.863 63.0405 211.949 63.5254 211.949 64.0388V66.3207H206.957V64.4952C206.957 63.4398 206.073 62.5556 205.018 62.5556H186.991V57.5641H205.474C205.987 57.5641 206.472 57.6497 206.957 57.7352C209.325 58.3057 211.207 60.1882 211.778 62.5556ZM191.983 70.6277C191.983 71.683 192.838 72.5387 193.894 72.5387H211.949V77.5302H193.437C193.209 77.5302 192.981 77.5302 192.781 77.5017C192.496 77.4732 192.239 77.4447 191.983 77.3876C189.587 76.8172 187.704 74.9346 187.134 72.5387C187.105 72.3676 187.077 72.1964 187.048 72.0253C186.991 71.7115 186.991 71.3978 186.991 71.084V65.2653H191.983V70.6277Z" fill="white"/>
<path d="M171.637 57.5641H176.628V77.5302H170.581L156.662 63.611V77.5302H151.67V57.5641H157.66L171.637 71.5404V57.5641Z" fill="white"/>
<path d="M139.222 70.0572L142.331 77.5302H136.94L133.831 70.0572L131.749 65.0657L130.722 62.5556H129.011L127.984 65.0657L125.901 70.0572L122.792 77.5302H117.402L120.511 70.0572L122.564 65.0657L123.591 62.5556L125.673 57.5641H129.21H130.522H134.059L136.113 62.5556L137.168 65.0657L139.222 70.0572Z" fill="white"/>
<path d="M108.128 77.5302H103.137V57.5641H108.128V77.5302Z" fill="white"/>
<path d="M73.6945 72.5387H93.6607V77.5302H68.703V57.5641H73.6945V72.5387Z" fill="white"/>
<path d="M39.2606 72.5387H59.2267V77.5302H34.269V57.5641H39.2606V72.5387Z" fill="white"/>
<path d="M21.8202 70.0572L24.9292 77.5302H19.5383L16.4293 70.0572L14.3471 65.0657L13.3203 62.5556H11.6089L10.5821 65.0657L8.49988 70.0572L5.39086 77.5302H0L3.10902 70.0572L5.16268 65.0657L6.18951 62.5556L8.2717 57.5641H11.8086H13.1206H16.6575L18.7111 62.5556L19.7665 65.0657L21.8202 70.0572Z" fill="white"/>
</svg>
