<svg width="180" height="158" viewBox="0 0 180 158" fill="none" xmlns="http://www.w3.org/2000/svg">
<path d="M173.544 151.52H6.48329L0 139.698L0.246201 139.264L81.7387 1.92578H97.7691L98.0153 2.35962L180 139.698L173.517 151.52H173.544ZM7.5228 149.757H172.477L177.976 139.725L96.7843 3.68826H82.7782L2.02432 139.725L7.5228 149.757Z" fill="#F4FD36"/>
<path d="M54.1643 34.0295L22.2676 87.5547L25.1946 98.8617L65.5716 31.1011L54.1643 34.0295Z" fill="#F4FD36"/>
<path d="M125.863 34.0295L157.732 87.5547L154.805 98.8617L114.428 31.1011L125.863 34.0295Z" fill="#F4FD36"/>
<path opacity="0.17" d="M11.3251 145.608L6.94824 137.636L83.9817 7.83643H95.5805L173.052 137.664L168.702 145.608H11.3251Z" fill="url(#paint0_linear_4250_16150)"/>
<path d="M117.739 158H62.2888L54.9302 150.706H125.097L117.739 158Z" fill="#F4FD36"/>
<path d="M18.5467 109.87L15.6196 98.5633L19.2853 92.4082L22.2671 104.149L18.5467 109.87Z" fill="#F4FD36"/>
<path d="M11.8997 121.014L8.97266 109.707L12.6383 103.552L15.6201 115.266L11.8997 121.014Z" fill="#F4FD36"/>
<path d="M161.453 109.87L164.408 98.5633L160.742 92.4082L157.733 104.149L161.453 109.87Z" fill="#F4FD36"/>
<path d="M168.101 121.014L171.055 109.707L167.389 103.552L164.408 115.266L168.101 121.014Z" fill="#F4FD36"/>
<path d="M95.4715 0H84.1189L82.4502 2.81997H97.1402L95.4715 0Z" fill="#F4FD36"/>
<path d="M28.313 70.4995L43.2218 45.3909L48.5562 44.0352L29.7081 75.8141L28.313 70.4995Z" fill="#F4FD36"/>
<path d="M152.07 70.4995L137.162 45.3909L131.827 44.0352L150.675 75.8141L152.07 70.4995Z" fill="#F4FD36"/>
<path d="M124.879 157.918L131.39 151.492H135.985L129.557 157.864L124.879 157.918Z" fill="#F4FD36"/>
<path d="M139.788 156.373L144.712 151.492H140.089L135.192 156.373H139.788Z" fill="#F4FD36"/>
<path d="M150.457 154.285L153.302 151.492H148.678L145.861 154.285H150.457Z" fill="#F4FD36"/>
<path d="M54.8754 157.918L48.3648 151.492H43.769L50.1976 157.864L54.8754 157.918Z" fill="#F4FD36"/>
<path d="M39.9665 156.373L35.0425 151.492H39.6382L44.5622 156.373H39.9665Z" fill="#F4FD36"/>
<path d="M29.2976 154.285L26.4526 151.492H31.0484L33.8934 154.285H29.2976Z" fill="#F4FD36"/>
<path d="M118.724 25.0545L109.833 22.8582L107.453 18.9536L116.262 21.1228L118.724 25.0545Z" fill="#F4FD36"/>
<path d="M109.696 13.2048L102.939 11.5508L105.319 15.4554L112.076 17.1094L109.696 13.2048Z" fill="#F4FD36"/>
<path d="M102.42 5.20635L98.5352 4.25732L100.915 8.1619L104.8 9.13804L102.42 5.20635Z" fill="#F4FD36"/>
<path d="M60.7295 25.0545L69.6474 22.8582L72 18.9536L63.1915 21.1228L60.7295 25.0545Z" fill="#F4FD36"/>
<path d="M69.7569 13.2048L76.5137 11.5508L74.1338 15.4554L67.377 17.1094L69.7569 13.2048Z" fill="#F4FD36"/>
<path d="M77.0337 5.20635L80.9182 4.25732L78.5657 8.1619L74.6538 9.13804L77.0337 5.20635Z" fill="#F4FD36"/>
<path d="M58.0487 142.517L54.9302 145.608H125.097L121.979 142.517H58.0487Z" fill="#F4FD36"/>
<path d="M145.915 98.5905L150.155 99.6751L114.593 39.7236L113.499 43.9536L145.915 98.5905Z" fill="#F4FD36"/>
<path d="M33.8114 98.5905L29.5713 99.6751L65.1063 39.7236L66.2279 43.9536L33.8114 98.5905Z" fill="#F4FD36"/>
<path d="M171.219 134.843L153.793 105.505L152.699 109.708L166.432 132.891C168.018 133.542 169.605 134.193 171.192 134.843H171.219Z" fill="#F4FD36"/>
<path d="M8.67139 134.843L26.0969 105.505L27.1912 109.708L13.4313 132.891C11.8446 133.542 10.258 134.193 8.67139 134.843Z" fill="#F4FD36"/>
<path opacity="0.35" d="M40.8147 124.92L38.0791 119.93L86.225 38.7749H93.5016L141.948 119.93L139.213 124.92H40.8147Z" fill="url(#paint1_linear_4250_16150)"/>
<path opacity="0.4" d="M112.267 129.854L114.428 127.712H65.5713L67.7597 129.854H112.267Z" fill="#F4FD36"/>
<path opacity="0.4" d="M109.395 56.5891L106.414 55.8027L131.061 97.6414L131.827 94.7129L109.395 56.5891Z" fill="#F4FD36"/>
<path opacity="0.4" d="M70.3315 56.5891L73.2859 55.8027L48.6659 97.6414L47.8999 94.7129L70.3315 56.5891Z" fill="#F4FD36"/>
<path d="M93.1188 101.166H85.9789L85.0215 59.8154H94.0489L93.0914 101.166H93.1188ZM93.9941 114.832H85.1036V106.02H93.9941V114.832Z" fill="#F4FD36"/>
<defs>
<linearGradient id="paint0_linear_4250_16150" x1="6.94824" y1="76.7224" x2="173.052" y2="76.7224" gradientUnits="userSpaceOnUse">
<stop stop-color="#00FF90"/>
<stop offset="1" stop-color="#F4FD36"/>
</linearGradient>
<linearGradient id="paint1_linear_4250_16150" x1="38.0791" y1="81.8473" x2="141.948" y2="81.8473" gradientUnits="userSpaceOnUse">
<stop stop-color="#00FF90"/>
<stop offset="1" stop-color="#F4FD36"/>
</linearGradient>
</defs>
</svg>
