<svg width="180" height="152" viewBox="0 0 180 152" fill="none" xmlns="http://www.w3.org/2000/svg">
<path d="M173.544 151.76H6.48329L0 139.938L0.246201 139.504L81.7387 2.16602H97.7691L98.0153 2.59986L180 139.938L173.517 151.76H173.544ZM7.5228 149.998H172.477L177.976 139.965L96.7843 3.9285H82.7782L2.02432 139.965L7.5228 149.998Z" fill="#F4FD36"/>
<path d="M95.4715 0.240234H84.1189L82.4502 3.06021H97.1402L95.4715 0.240234Z" fill="#F4FD36"/>
<path d="M58.0487 142.757L54.9302 145.848H125.097L121.979 142.757H58.0487Z" fill="#F4FD36"/>
<path d="M145.915 98.8308L150.155 99.9154L114.593 39.9639L113.499 44.1938L145.915 98.8308Z" fill="#F4FD36"/>
<path d="M33.8114 98.8308L29.5713 99.9154L65.1063 39.9639L66.2279 44.1938L33.8114 98.8308Z" fill="#F4FD36"/>
<path d="M171.219 135.084L153.793 105.745L152.699 109.948L166.432 133.131C168.018 133.782 169.605 134.433 171.192 135.084H171.219Z" fill="#F4FD36"/>
<path d="M8.67139 135.084L26.0969 105.745L27.1912 109.948L13.4313 133.131C11.8446 133.782 10.258 134.433 8.67139 135.084Z" fill="#F4FD36"/>
<path opacity="0.35" d="M40.8147 125.16L38.0791 120.171L86.225 39.0151H93.5016L141.948 120.171L139.213 125.16H40.8147Z" fill="#626516"/>
<path opacity="0.4" d="M112.267 130.094L114.428 127.952H65.5713L67.7597 130.094H112.267Z" fill="#F4FD36"/>
<path opacity="0.4" d="M109.395 56.8293L106.414 56.043L131.061 97.8816L131.827 94.9532L109.395 56.8293Z" fill="#F4FD36"/>
<path opacity="0.4" d="M70.3315 56.8293L73.2859 56.043L48.6659 97.8816L47.8999 94.9532L70.3315 56.8293Z" fill="#F4FD36"/>
<path d="M93.1188 101.406H85.9789L85.0215 60.0557H94.0489L93.0914 101.406H93.1188ZM93.9941 115.072H85.1036V106.26H93.9941V115.072Z" fill="#F4FD36"/>
</svg>
