<svg width="400" height="203" viewBox="0 0 400 203" fill="none" xmlns="http://www.w3.org/2000/svg">
<path fill-rule="evenodd" clip-rule="evenodd" d="M38.5832 188.574H58.7235C62.9255 185.172 66.8574 181.996 70.5409 179.008H52.2801C48.0025 181.996 43.4495 185.172 38.5778 188.574H38.5832ZM257.864 135.005H268.093C268.136 135.032 268.179 135.059 268.223 135.086C269.659 135.937 271.145 136.809 272.684 137.713C272.732 137.745 272.781 137.772 272.819 137.794C272.867 137.826 272.916 137.853 272.965 137.88C274.52 138.801 276.135 139.743 277.804 140.728C277.858 140.76 277.912 140.787 277.955 140.819C278.009 140.846 278.063 140.879 278.117 140.911C279.867 141.939 281.682 143 283.556 144.108C283.615 144.141 283.675 144.184 283.74 144.216C283.799 144.248 283.859 144.286 283.913 144.318C285.889 145.476 287.942 146.692 290.08 147.952C290.151 147.99 290.221 148.033 290.28 148.065C290.351 148.103 290.415 148.146 290.48 148.184C292.727 149.502 295.071 150.886 297.518 152.318C297.599 152.366 297.674 152.409 297.744 152.453C297.825 152.501 297.901 152.544 297.982 152.592C300.564 154.116 303.264 155.704 306.084 157.362C306.175 157.416 306.267 157.47 306.359 157.524C306.451 157.577 306.543 157.637 306.629 157.685C309.627 159.445 312.77 161.297 316.075 163.241C316.183 163.3 316.291 163.37 316.389 163.429C316.497 163.488 316.605 163.558 316.702 163.612C320.218 165.685 323.928 167.859 327.844 170.163C327.974 170.239 328.103 170.32 328.222 170.384C328.352 170.465 328.482 170.54 328.617 170.61C332.808 173.076 337.247 175.697 341.941 178.448C342.097 178.54 342.259 178.637 342.416 178.728C342.573 178.82 342.735 178.917 342.875 179.003C347.952 181.99 353.359 185.167 359.143 188.569C359.327 188.676 359.51 188.784 359.71 188.897C359.91 189.01 360.104 189.134 360.283 189.231C366.769 193.048 373.763 197.166 381.325 201.607C381.557 201.747 381.789 201.882 382 202H18C18.1782 201.882 18.3727 201.747 18.5725 201.607C24.9835 197.171 30.9192 193.058 36.4282 189.236C36.5794 189.134 36.7468 189.016 36.9143 188.903C37.0817 188.789 37.2383 188.682 37.395 188.569C42.3045 185.167 46.9007 181.99 51.2107 179.003C51.3295 178.917 51.4646 178.82 51.5996 178.728C51.7346 178.637 51.8696 178.54 52.0047 178.448C55.9906 175.692 59.7605 173.076 63.3197 170.61C63.4278 170.535 63.5412 170.465 63.6546 170.384C63.7518 170.32 63.8652 170.239 63.9733 170.163C67.3003 167.859 70.449 165.674 73.4358 163.607C73.5168 163.547 73.614 163.483 73.7058 163.418C73.7869 163.364 73.8787 163.3 73.9759 163.235C76.7844 161.286 79.4579 159.435 82.0018 157.674C82.072 157.626 82.1476 157.567 82.2286 157.513C82.3096 157.459 82.3852 157.405 82.4663 157.351C84.8589 155.688 87.1543 154.1 89.3417 152.582C89.4065 152.533 89.4768 152.485 89.5416 152.442C89.601 152.404 89.6712 152.356 89.736 152.307C91.8154 150.875 93.803 149.492 95.7095 148.173C95.7635 148.13 95.8175 148.092 95.8769 148.049C95.9309 148.017 95.9849 147.974 96.0444 147.936C97.8591 146.676 99.6036 145.465 101.278 144.302C101.321 144.27 101.375 144.238 101.424 144.2C101.472 144.168 101.526 144.125 101.575 144.092C103.168 142.989 104.708 141.923 106.193 140.895C106.236 140.862 106.285 140.825 106.328 140.803C106.366 140.776 106.414 140.744 106.457 140.712C107.873 139.732 109.239 138.79 110.557 137.869C110.6 137.842 110.638 137.815 110.681 137.783C110.719 137.762 110.757 137.735 110.794 137.702C112.096 136.798 113.36 135.926 114.57 135.081C114.608 135.054 114.645 135.027 114.683 135H257.858L257.864 135.005ZM267.742 135.161H258.096C259.322 135.985 260.586 136.836 261.893 137.713H272.041C270.556 136.836 269.125 135.985 267.737 135.161H267.742ZM257.507 135.161H247.877C248.93 135.985 250.016 136.836 251.145 137.713H261.277C259.975 136.836 258.722 135.985 257.507 135.161ZM247.288 135.161H237.653C238.533 135.985 239.446 136.836 240.391 137.713H250.524C249.406 136.836 248.325 135.985 247.283 135.161H247.288ZM237.07 135.161H227.44C228.153 135.985 228.882 136.83 229.643 137.713H239.776C238.841 136.836 237.939 135.985 237.07 135.161ZM226.84 135.161H217.221C217.761 135.985 218.317 136.83 218.895 137.713H229.011C228.261 136.83 227.537 135.985 226.835 135.161H226.84ZM216.622 135.161H207.002C207.37 135.985 207.753 136.83 208.147 137.713H218.263C217.696 136.83 217.151 135.985 216.622 135.161ZM206.403 135.161H196.8C197 135.985 197.2 136.83 197.41 137.713H207.51C207.127 136.83 206.759 135.985 206.397 135.161H206.403ZM196.2 135.161H186.581C186.608 135.985 186.635 136.83 186.662 137.713H196.778C196.578 136.83 196.384 135.985 196.195 135.161H196.2ZM185.982 135.161H176.352C176.206 135.985 176.055 136.83 175.898 137.713H186.03C186.014 136.83 185.998 135.985 185.982 135.161ZM175.752 135.161H166.133C165.82 135.985 165.49 136.83 165.15 137.713H175.266C175.434 136.83 175.596 135.985 175.747 135.161H175.752ZM165.534 135.161H155.914C155.428 135.985 154.926 136.83 154.402 137.713H164.518C164.869 136.83 165.204 135.985 165.534 135.161ZM155.315 135.161H145.685C145.026 135.985 144.345 136.83 143.638 137.713H153.77C154.305 136.83 154.818 135.985 155.315 135.161ZM145.096 135.161H135.461C134.634 135.985 133.776 136.83 132.885 137.713H143.017C143.735 136.83 144.426 135.985 145.096 135.161ZM134.878 135.161H125.248C124.248 135.98 123.211 136.83 122.137 137.708C125.501 137.713 128.888 137.713 132.269 137.713C133.171 136.83 134.04 135.985 134.878 135.161ZM124.659 135.161H115.04C113.868 135.98 112.658 136.83 111.399 137.708H121.515C122.601 136.83 123.643 135.98 124.653 135.161H124.659ZM272.322 137.88H262.141C263.508 138.801 264.923 139.743 266.381 140.728H277.123C275.471 139.743 273.867 138.801 272.322 137.88ZM261.525 137.88H251.361C252.533 138.801 253.77 139.743 255.023 140.728H265.733C264.28 139.743 262.876 138.801 261.525 137.88ZM250.74 137.88H240.57C241.553 138.79 242.573 139.743 243.627 140.728H254.353C253.105 139.743 251.901 138.801 250.74 137.88ZM239.954 137.88H229.789C230.583 138.79 231.404 139.743 232.252 140.728H242.978C241.936 139.743 240.931 138.79 239.959 137.88H239.954ZM229.157 137.88H219.009C219.608 138.79 220.235 139.743 220.878 140.722C224.458 140.728 228.007 140.728 231.588 140.728C230.751 139.743 229.94 138.79 229.163 137.88H229.157ZM218.371 137.88H208.223C208.633 138.79 209.06 139.743 209.498 140.722H220.208C219.576 139.743 218.966 138.795 218.377 137.88H218.371ZM207.586 137.88H197.453C197.675 138.79 197.902 139.743 198.134 140.722H208.828C208.401 139.743 207.991 138.795 207.591 137.88H207.586ZM196.822 137.88H186.673C186.7 138.79 186.732 139.743 186.759 140.722H197.47C197.248 139.743 197.032 138.795 196.822 137.88ZM186.036 137.88H175.866C175.704 138.79 175.536 139.743 175.358 140.722H186.084C186.068 139.743 186.052 138.795 186.03 137.88H186.036ZM175.234 137.88H165.085C164.734 138.79 164.367 139.743 163.983 140.722H174.694C174.883 139.743 175.061 138.795 175.234 137.88ZM164.453 137.88H154.305C153.759 138.79 153.192 139.743 152.609 140.722H163.319C163.713 139.743 164.091 138.795 164.453 137.88ZM153.668 137.88H143.503C142.768 138.79 142.001 139.737 141.213 140.722H151.939C152.533 139.743 153.117 138.795 153.668 137.88ZM142.882 137.88C139.485 137.88 136.093 137.875 132.712 137.875C131.788 138.795 130.821 139.737 129.828 140.722H140.554C141.353 139.737 142.131 138.795 142.876 137.88H142.882ZM132.101 137.875H121.931C120.813 138.795 119.652 139.737 118.453 140.717C122.018 140.717 125.599 140.717 129.196 140.722C130.2 139.737 131.156 138.795 132.096 137.875H132.101ZM121.316 137.875H111.167C109.86 138.795 108.499 139.737 107.1 140.717H117.81C119.02 139.737 120.192 138.795 121.321 137.875H121.316ZM277.437 140.916H266.656C268.19 141.944 269.778 143.005 271.425 144.114H282.838C280.974 143.005 279.17 141.944 277.437 140.916ZM266.003 140.916C262.411 140.916 258.814 140.911 255.255 140.911C256.573 141.944 257.945 143.005 259.36 144.114H270.734C269.103 143.005 267.521 141.944 266.003 140.916ZM254.591 140.911H243.826C244.95 141.944 246.095 143.005 247.278 144.114H258.668C257.264 143.005 255.908 141.944 254.585 140.911H254.591ZM243.173 140.911H232.409C233.3 141.944 234.218 143.005 235.196 144.108C238.982 144.108 242.768 144.108 246.586 144.114C245.398 143.005 244.264 141.944 243.173 140.911ZM231.739 140.911H220.991C221.666 141.939 222.363 143 223.092 144.108H234.466C233.527 143.01 232.614 141.944 231.739 140.911ZM220.321 140.911H209.573C210.032 141.939 210.513 143 211.005 144.108H222.379C221.671 143.005 220.98 141.939 220.321 140.911ZM208.909 140.911H198.183C198.426 141.939 198.685 143 198.949 144.108H210.308C209.827 143.005 209.363 141.939 208.914 140.911H208.909ZM197.507 140.911H186.759C186.792 141.939 186.824 143 186.857 144.108H198.231C197.983 143.005 197.74 141.939 197.507 140.911ZM186.09 140.911H175.326C175.142 141.939 174.953 143 174.753 144.108H186.144C186.122 143.005 186.106 141.939 186.084 140.911H186.09ZM174.656 140.911C171.08 140.911 167.489 140.905 163.908 140.905C163.508 141.939 163.098 143.005 162.666 144.108H174.04C174.251 143.005 174.456 141.939 174.65 140.911H174.656ZM163.244 140.9H152.496C151.88 141.934 151.248 143 150.589 144.098C154.375 144.098 158.177 144.103 161.963 144.103C162.406 143 162.833 141.934 163.244 140.9ZM151.826 140.9H141.062C140.235 141.923 139.377 142.989 138.502 144.098H149.892C150.546 143 151.194 141.934 151.82 140.9H151.826ZM140.408 140.9H129.66C128.618 141.923 127.538 142.989 126.42 144.098H137.81C138.712 142.994 139.582 141.928 140.408 140.9ZM129.012 140.9H118.232C116.973 141.923 115.672 142.989 114.321 144.098H125.734C126.868 142.994 127.959 141.928 129.012 140.9ZM117.578 140.9H106.83C105.361 141.923 103.833 142.989 102.25 144.098H113.625C114.991 142.994 116.303 141.928 117.573 140.9H117.578ZM283.189 144.318H271.739C273.472 145.476 275.271 146.692 277.145 147.952H289.314C287.191 146.692 285.155 145.481 283.194 144.318H283.189ZM271.047 144.318H259.63C261.12 145.476 262.665 146.692 264.28 147.952H276.405C274.547 146.692 272.759 145.481 271.042 144.318H271.047ZM258.938 144.318H247.504C248.752 145.476 250.048 146.692 251.399 147.941C255.433 147.941 259.468 147.941 263.545 147.947C261.947 146.687 260.413 145.476 258.938 144.313V144.318ZM246.808 144.318H235.374C236.378 145.476 237.421 146.682 238.512 147.941H250.659C249.325 146.687 248.045 145.476 246.808 144.318ZM234.645 144.318C230.826 144.318 227.045 144.313 223.232 144.313C223.994 145.481 224.804 146.687 225.63 147.947H237.756C236.686 146.687 235.633 145.481 234.645 144.324V144.318ZM222.519 144.313H211.107C211.626 145.481 212.166 146.687 212.727 147.947H224.853C224.043 146.687 223.265 145.481 222.519 144.313ZM210.389 144.313H198.993C199.268 145.47 199.56 146.687 199.857 147.947H211.966C211.42 146.687 210.896 145.481 210.389 144.313ZM198.28 144.313H186.862C186.9 145.47 186.932 146.687 186.97 147.947H199.095C198.809 146.687 198.539 145.476 198.274 144.313H198.28ZM186.155 144.313H174.721C174.515 145.47 174.294 146.687 174.073 147.947H186.219C186.198 146.687 186.176 145.476 186.155 144.313ZM174.008 144.313H162.59C162.142 145.47 161.672 146.687 161.18 147.941C165.236 147.947 169.271 147.947 173.306 147.947C173.549 146.687 173.775 145.476 174.002 144.313H174.008ZM161.877 144.313H150.465C149.773 145.47 149.071 146.682 148.321 147.941H160.446C160.948 146.687 161.413 145.476 161.877 144.313ZM149.773 144.313H138.34C137.405 145.47 136.433 146.682 135.418 147.941H147.564C148.331 146.682 149.066 145.476 149.773 144.313ZM137.643 144.313C133.824 144.308 129.99 144.308 126.209 144.308C125.031 145.47 123.805 146.682 122.531 147.941H134.678C135.704 146.682 136.692 145.476 137.643 144.313ZM125.512 144.308H114.062C112.642 145.47 111.167 146.682 109.628 147.941H121.796C123.087 146.682 124.324 145.476 125.518 144.308H125.512ZM113.371 144.308H101.958C100.295 145.465 98.5666 146.682 96.7681 147.941H108.893C110.449 146.682 111.939 145.476 113.371 144.308ZM289.708 148.184H277.496C279.468 149.502 281.52 150.886 283.669 152.318H296.697C294.266 150.886 291.938 149.502 289.708 148.184ZM276.756 148.184C272.684 148.184 268.633 148.184 264.582 148.178C266.278 149.502 268.044 150.881 269.892 152.318H282.881C280.753 150.886 278.711 149.502 276.762 148.184H276.756ZM263.842 148.178H251.647C253.067 149.502 254.547 150.881 256.092 152.318H269.098C267.267 150.875 265.517 149.502 263.837 148.178H263.842ZM250.907 148.178H238.712C239.857 149.502 241.045 150.881 242.292 152.318H255.303C253.775 150.875 252.311 149.502 250.907 148.178ZM237.955 148.178H225.782C226.651 149.497 227.553 150.881 228.498 152.318H241.482C240.256 150.875 239.079 149.502 237.955 148.178ZM224.998 148.178H212.825C213.435 149.497 214.051 150.881 214.693 152.318H227.683C226.754 150.875 225.868 149.497 224.998 148.178ZM212.069 148.178H199.916C200.23 149.497 200.559 150.881 200.905 152.313C205.225 152.313 209.546 152.313 213.894 152.318C213.246 150.875 212.646 149.497 212.074 148.178H212.069ZM199.155 148.178H186.981C187.019 149.497 187.062 150.881 187.105 152.313H200.094C199.77 150.881 199.457 149.497 199.155 148.178ZM186.219 148.178H174.029C173.792 149.497 173.543 150.87 173.306 152.313H186.295C186.268 150.881 186.246 149.497 186.219 148.178ZM173.268 148.178C169.217 148.173 165.166 148.173 161.094 148.173C160.602 149.497 160.068 150.875 159.511 152.313H172.501C172.776 150.87 173.041 149.497 173.273 148.178H173.268ZM160.354 148.173H148.18C147.392 149.497 146.571 150.875 145.712 152.313H158.696C159.274 150.87 159.825 149.497 160.354 148.173ZM147.419 148.173H135.223C134.159 149.497 133.047 150.875 131.891 152.313H144.896C145.771 150.87 146.614 149.497 147.413 148.173H147.419ZM134.489 148.173H122.293C120.954 149.492 119.555 150.875 118.097 152.313H131.102C132.28 150.87 133.408 149.497 134.489 148.173ZM121.553 148.173H109.342C107.727 149.492 106.042 150.875 104.275 152.307C108.596 152.313 112.96 152.313 117.303 152.313C118.777 150.87 120.192 149.492 121.553 148.173ZM108.602 148.173H96.4278C94.5375 149.492 92.5607 150.875 90.5029 152.307H103.487C105.264 150.875 106.971 149.492 108.602 148.173ZM297.156 152.592H284.075C286.338 154.116 288.73 155.704 291.198 157.362H305.198C302.4 155.699 299.721 154.111 297.156 152.592ZM283.281 152.592H270.237C272.182 154.116 274.223 155.704 276.346 157.362H290.345C287.893 155.699 285.522 154.111 283.275 152.592H283.281ZM269.449 152.592H256.384C258.015 154.105 259.716 155.704 261.498 157.362H275.498C273.391 155.699 271.377 154.111 269.449 152.592ZM255.595 152.592H242.53C243.843 154.105 245.214 155.704 246.651 157.357C251.301 157.357 255.979 157.357 260.65 157.362C258.89 155.699 257.205 154.105 255.595 152.592ZM241.72 152.592H228.677C229.67 154.105 230.713 155.693 231.804 157.357H245.782C244.366 155.704 243.016 154.105 241.72 152.592ZM227.861 152.592H214.818C215.498 154.105 216.206 155.693 216.946 157.357H230.923C229.854 155.693 228.833 154.105 227.856 152.592H227.861ZM214.007 152.592C209.649 152.592 205.306 152.587 200.964 152.587C201.326 154.111 201.704 155.699 202.098 157.357H216.076C215.358 155.693 214.666 154.105 214.002 152.592H214.007ZM200.154 152.587H187.111C187.154 154.111 187.202 155.699 187.251 157.357H201.229C200.856 155.693 200.494 154.105 200.154 152.587ZM186.3 152.587H173.257C172.987 154.111 172.701 155.699 172.404 157.357H186.381C186.354 155.693 186.327 154.105 186.3 152.587ZM172.441 152.587H159.398C158.809 154.111 158.194 155.699 157.551 157.357H171.529C171.847 155.693 172.15 154.105 172.441 152.587ZM158.588 152.587H145.544C144.637 154.1 143.692 155.699 142.704 157.351C147.354 157.357 152.009 157.357 156.681 157.357C157.346 155.693 157.983 154.105 158.588 152.587ZM144.734 152.587H131.675C130.454 154.1 129.174 155.699 127.835 157.351H141.834C142.844 155.699 143.811 154.1 144.734 152.587ZM130.881 152.587H117.816C116.276 154.1 114.667 155.688 112.982 157.351H126.981C128.337 155.699 129.633 154.1 130.875 152.587H130.881ZM117.022 152.587H103.941C102.083 154.1 100.16 155.688 98.1345 157.351H112.134C113.835 155.688 115.466 154.1 117.022 152.587ZM103.147 152.587C98.8043 152.582 94.4457 152.582 90.1033 152.582C87.9267 154.1 85.6529 155.688 83.2818 157.351H97.2812C99.3282 155.688 101.267 154.1 103.147 152.587ZM305.738 157.685H291.674C294.299 159.445 297.059 161.286 299.959 163.241H315.114C311.83 161.297 308.708 159.445 305.738 157.685ZM290.826 157.685C286.132 157.685 281.433 157.685 276.762 157.68C279.019 159.44 281.39 161.292 283.886 163.241H299.041C296.162 161.292 293.429 159.445 290.826 157.685ZM275.908 157.68H261.844C263.734 159.44 265.722 161.292 267.807 163.241H282.962C280.494 161.292 278.144 159.44 275.903 157.68H275.908ZM260.991 157.68H246.927C248.45 159.44 250.048 161.292 251.728 163.235C256.762 163.241 261.822 163.241 266.883 163.241C264.82 161.292 262.854 159.44 260.985 157.68H260.991ZM246.052 157.68H232.014C233.17 159.44 234.38 161.292 235.655 163.235H250.788C249.13 161.292 247.553 159.445 246.052 157.68ZM231.134 157.68H217.091C217.88 159.44 218.706 161.292 219.576 163.235H234.709C233.456 161.292 232.268 159.445 231.134 157.68ZM216.222 157.68H202.179C202.601 159.44 203.038 161.292 203.503 163.235H218.636C217.794 161.292 216.989 159.445 216.222 157.68ZM201.304 157.68H187.262C187.316 159.44 187.37 161.292 187.424 163.235H202.557C202.12 161.292 201.699 159.445 201.304 157.68ZM186.387 157.68H172.344C172.026 159.435 171.696 161.292 171.345 163.235H186.479C186.446 161.292 186.414 159.445 186.381 157.68H186.387ZM171.469 157.68C166.776 157.68 162.099 157.674 157.427 157.674C156.741 159.435 156.022 161.286 155.272 163.235H170.405C170.778 161.292 171.134 159.435 171.469 157.68ZM156.557 157.674H142.515C141.461 159.435 140.36 161.286 139.198 163.235H154.332C155.11 161.286 155.85 159.435 156.557 157.674ZM141.64 157.674H127.575C126.155 159.435 124.664 161.286 123.098 163.235H138.253C139.436 161.286 140.565 159.435 141.64 157.674ZM126.722 157.674H112.658C110.87 159.435 108.996 161.286 107.019 163.235H122.174C123.768 161.286 125.28 159.435 126.717 157.674H126.722ZM111.804 157.674H97.7403C95.5853 159.435 93.3223 161.286 90.9404 163.235H106.096C108.094 161.286 109.99 159.435 111.799 157.674H111.804ZM96.8869 157.674H82.8227C80.3005 159.435 77.6486 161.286 74.8671 163.235H90.0223C92.4257 161.286 94.7103 159.435 96.8869 157.674ZM315.741 163.607H300.51C303.594 165.679 306.845 167.854 310.28 170.158H326.802C322.913 167.854 319.235 165.674 315.741 163.607ZM299.586 163.607H284.355C287.007 165.679 289.805 167.854 292.754 170.158H309.276C305.868 167.854 302.643 165.674 299.586 163.607ZM283.432 163.607H268.201C270.421 165.679 272.765 167.854 275.233 170.158H291.755C288.827 167.854 286.057 165.674 283.432 163.607ZM267.283 163.607H252.052C253.84 165.679 255.725 167.854 257.718 170.158H274.239C271.793 167.854 269.481 165.674 267.283 163.607ZM251.101 163.607H235.898C237.253 165.679 238.685 167.854 240.197 170.158H256.692C254.731 167.854 252.873 165.674 251.107 163.607H251.101ZM234.947 163.607H219.743C220.667 165.679 221.644 167.854 222.671 170.158H239.165C237.685 167.854 236.281 165.674 234.947 163.607ZM218.793 163.607H203.589C204.08 165.668 204.599 167.854 205.15 170.158H221.644C220.645 167.854 219.695 165.674 218.798 163.607H218.793ZM202.644 163.607C197.561 163.607 192.501 163.601 187.44 163.601C187.499 165.674 187.564 167.854 187.634 170.158H204.129C203.611 167.854 203.114 165.668 202.649 163.607H202.644ZM186.489 163.601H171.286C170.913 165.674 170.524 167.854 170.108 170.158H186.603C186.565 167.854 186.527 165.668 186.489 163.601ZM170.335 163.601H155.131C154.326 165.674 153.479 167.854 152.587 170.158H169.082C169.525 167.854 169.941 165.668 170.34 163.601H170.335ZM154.181 163.601H138.977C137.74 165.674 136.438 167.854 135.061 170.158H151.556C152.479 167.854 153.349 165.668 154.181 163.601ZM138.026 163.601H122.795C121.127 165.674 119.371 167.854 117.513 170.158H134.035C135.439 167.854 136.768 165.668 138.026 163.601ZM121.872 163.601H106.641C104.54 165.674 102.326 167.854 99.9871 170.158H116.509C118.394 167.854 120.176 165.668 121.872 163.601ZM105.718 163.601H90.4867C87.9537 165.674 85.2856 167.854 82.4663 170.158H98.9879C101.354 167.854 103.595 165.668 105.718 163.601ZM89.5632 163.601H74.3324C71.3672 165.674 68.2454 167.854 64.9454 170.158H81.4671C84.3134 167.854 87.0085 165.668 89.5632 163.601ZM327.563 170.61H310.955C314.628 173.076 318.522 175.697 322.638 178.448H340.79C336.129 175.692 331.722 173.076 327.563 170.61ZM309.951 170.61H293.343C296.502 173.076 299.851 175.697 303.389 178.448H321.541C317.458 175.692 313.596 173.076 309.951 170.61ZM292.333 170.61H275.725C278.371 173.076 281.174 175.697 284.134 178.448H302.287C298.781 175.692 295.465 173.076 292.333 170.61ZM274.715 170.61H258.107C260.24 173.076 262.492 175.697 264.879 178.448H283.032C280.099 175.692 277.329 173.076 274.715 170.61ZM257.075 170.61H240.494C242.109 173.076 243.821 175.697 245.63 178.448H263.751C261.396 175.692 259.171 173.076 257.07 170.61H257.075ZM239.457 170.61H222.876C223.978 173.076 225.144 175.697 226.376 178.448H244.496C242.719 175.692 241.039 173.076 239.452 170.61H239.457ZM221.839 170.61H205.258C205.847 173.076 206.468 175.697 207.127 178.448H225.247C224.048 175.692 222.914 173.076 221.839 170.61ZM204.221 170.61H187.64C187.71 173.076 187.791 175.697 187.872 178.448H205.992C205.371 175.692 204.777 173.076 204.221 170.61ZM186.608 170.61H170.027C169.584 173.076 169.114 175.697 168.623 178.448H186.743C186.695 175.692 186.651 173.076 186.608 170.61ZM168.99 170.61H152.409C151.453 173.076 150.438 175.697 149.368 178.448H167.489C168.018 175.692 168.515 173.076 168.99 170.61ZM151.372 170.61H134.791C133.322 173.076 131.761 175.697 130.114 178.448H148.234C149.341 175.692 150.384 173.076 151.372 170.61ZM133.759 170.61H117.151C115.164 173.076 113.063 175.697 110.838 178.448H128.99C130.67 175.692 132.263 173.076 133.765 170.61H133.759ZM116.141 170.61H99.5334C97.0327 173.076 94.3809 175.697 91.5831 178.448H109.73C111.988 175.692 114.127 173.076 116.141 170.61ZM98.5234 170.61H81.9154C78.9016 173.076 75.7042 175.697 72.3286 178.448H90.4813C93.3169 175.692 95.9958 173.076 98.5288 170.61H98.5234ZM80.9108 170.61H64.3027C60.7705 173.076 57.033 175.697 53.0795 178.448H71.2322C74.6402 175.692 77.87 173.076 80.9162 170.61H80.9108ZM341.719 179.003H323.459C327.909 181.99 332.651 185.167 337.723 188.569H357.863C352.122 185.167 346.753 181.99 341.714 179.003H341.719ZM322.357 179.003H304.096C307.925 181.99 312.003 185.167 316.362 188.569H336.502C331.474 185.167 326.769 181.99 322.351 179.003H322.357ZM302.989 179.003H284.728C287.931 181.99 291.344 185.167 294.995 188.569H315.136C310.815 185.167 306.775 181.99 302.983 179.003H302.989ZM283.621 179.003H265.36C267.942 181.99 270.691 185.167 273.634 188.569H293.775C290.161 185.167 286.786 181.99 283.621 179.003ZM274.207 189.242C277.399 192.929 280.845 196.918 284.566 201.214H307.196C302.627 196.913 298.398 192.924 294.482 189.242H274.207ZM264.221 179.003H245.992C247.947 181.99 250.038 185.167 252.268 188.569H272.381C269.481 185.167 266.77 181.99 264.226 179.003H264.221ZM244.853 179.003H226.624C227.958 181.99 229.379 185.167 230.902 188.569H251.01C248.822 185.167 246.775 181.99 244.853 179.003ZM225.485 179.003H207.256C207.969 181.99 208.725 185.167 209.535 188.569H229.643C228.163 185.167 226.781 181.99 225.485 179.003ZM206.117 179.003H187.888C187.975 181.99 188.072 185.167 188.169 188.569H208.277C207.51 185.167 206.792 181.99 206.117 179.003ZM186.749 179.003H168.52C167.986 181.99 167.413 185.167 166.803 188.569H186.916C186.857 185.167 186.803 181.99 186.749 179.003ZM167.386 179.003H149.158C148.002 181.99 146.765 185.167 145.447 188.569H165.555C166.203 185.167 166.814 181.99 167.386 179.003ZM148.018 179.003H129.79C128.007 181.99 126.112 185.167 124.081 188.569H144.189C145.55 185.167 146.825 181.99 148.018 179.003ZM128.65 179.003H110.389C107.981 181.99 105.42 185.167 102.677 188.569H122.817C124.891 185.167 126.825 181.99 128.645 179.003H128.65ZM109.282 179.003H91.0214C87.9915 181.99 84.7671 185.167 81.3159 188.569H101.456C104.238 185.167 106.841 181.99 109.282 179.003ZM89.9142 179.003C86.8465 181.99 83.5843 185.167 80.0898 188.569H59.9495C64.1083 185.167 68.0024 181.99 71.6535 179.003H89.9142ZM338.722 189.236C344.22 192.929 350.167 196.918 356.583 201.219H379.213C371.954 196.918 365.224 192.929 358.997 189.236H338.722ZM317.22 189.236C321.952 192.929 327.061 196.918 332.581 201.219H355.211C348.849 196.918 342.951 192.929 337.496 189.236H317.22ZM295.714 189.242C299.673 192.929 303.956 196.913 308.573 201.214H331.204C325.738 196.913 320.672 192.924 315.989 189.231C309.222 189.236 302.449 189.236 295.714 189.236V189.242ZM252.706 189.242C255.125 192.929 257.739 196.918 260.564 201.214H283.162C279.495 196.918 276.092 192.924 272.949 189.242H252.706ZM231.199 189.242C232.846 192.929 234.634 196.918 236.557 201.214H259.149C256.378 196.918 253.813 192.924 251.436 189.242H231.193H231.199ZM209.697 189.242C210.578 192.929 211.528 196.918 212.555 201.214H235.152C233.278 196.918 231.544 192.924 229.94 189.242H209.697ZM188.191 189.242C188.299 192.935 188.418 196.918 188.547 201.214H211.14C210.162 196.918 209.26 192.924 208.428 189.242H188.185H188.191ZM166.689 189.242C166.03 192.935 165.318 196.918 164.551 201.214H187.143C187.062 196.918 186.997 192.935 186.932 189.242H166.689ZM145.183 189.242C143.751 192.935 142.207 196.918 140.543 201.214H163.141C163.962 196.918 164.723 192.935 165.426 189.242H145.183ZM123.676 189.242C121.478 192.935 119.096 196.918 116.536 201.214H139.128C140.846 196.918 142.439 192.935 143.913 189.242H123.67H123.676ZM102.142 189.242C99.1715 192.935 95.9579 196.918 92.4959 201.214H115.126C117.74 196.918 120.165 192.935 122.412 189.242H102.137H102.142ZM80.6353 189.242C76.8924 192.935 72.8471 196.918 68.4885 201.214H91.1187C94.6293 196.918 97.8915 192.935 100.905 189.242H80.6299H80.6353ZM59.1286 189.242C54.6133 192.935 49.7416 196.918 44.4865 201.214H67.1166C71.5293 196.918 75.6178 192.935 79.4039 189.242H59.1286ZM57.8971 189.242H37.6218C32.3396 192.935 26.6308 196.918 20.4791 201.214H43.1092C48.4184 196.918 53.3387 192.935 57.8971 189.242Z" fill="url(#paint0_linear_4005_3108)"/>
<path fill-rule="evenodd" clip-rule="evenodd" d="M399 134.823V128L388 138.496V145.319L399 134.823ZM399 137.447V144.27L388 154.766V147.943L399 137.447ZM399 153.716V146.894L388 157.39V164.213L399 153.716ZM399 156.34V163.163L388 173.66V166.837L399 156.34ZM399 172.61V165.787L388 176.284V183.106L399 172.61ZM399 175.234V182.057L388 192.553V185.73L399 175.234ZM399 184.681V191.504L388 202V195.177L399 184.681Z" fill="url(#paint1_linear_4005_3108)"/>
<path fill-rule="evenodd" clip-rule="evenodd" d="M1 134.823V128L12 138.496V145.319L1 134.823ZM1 137.447V144.27L12 154.766V147.943L1 137.447ZM1 153.716V146.894L12 157.39V164.213L1 153.716ZM1 156.34V163.163L12 173.66V166.837L1 156.34ZM1 172.61V165.787L12 176.284V183.106L1 172.61ZM1 175.234V182.057L12 192.553V185.73L1 175.234ZM1 184.681V191.504L12 202V195.177L1 184.681Z" fill="url(#paint2_linear_4005_3108)"/>
<path d="M18 135V202H382V135L399 118V1H315L307 9H93L85 1H1V118L18 135Z" stroke="#00663A"/>
<path d="M0.999996 89L5 85L5 1L1 1L0.999996 89Z" fill="#00663A"/>
<path d="M399 89L395 85L395 1L399 1L399 89Z" fill="#00663A"/>
<g filter="url(#filter0_f_4005_3108)">
<path d="M351.5 126.5C351.747 126.5 351.994 126.575 352.179 126.713L361.444 132.963C361.778 133.188 362 133.562 362 134L362 137.75C362 138.437 361.444 139 360.765 139C360.518 139 360.271 138.925 360.085 138.788L351.5 133L342.915 138.788C342.729 138.925 342.482 139 342.235 139C341.556 139 341 138.437 341 137.75L341 134C341 133.562 341.222 133.188 341.556 132.963L350.821 126.713C351.006 126.575 351.253 126.5 351.5 126.5ZM351.5 114C351.747 114 351.994 114.075 352.179 114.213L361.444 120.462C361.778 120.687 362 121.063 362 121.5L362 125.25C362 125.938 361.444 126.5 360.765 126.5C360.518 126.5 360.271 126.425 360.085 126.287L351.5 120.5L342.915 126.287C342.729 126.425 342.482 126.5 342.235 126.5C341.556 126.5 341 125.938 341 125.25L341 121.5C341 121.063 341.222 120.687 341.556 120.462L350.821 114.213C351.006 114.075 351.253 114 351.5 114Z" fill="url(#paint3_linear_4005_3108)"/>
</g>
<g filter="url(#filter1_f_4005_3108)">
<path d="M31.5001 54.5001C31.7471 54.5001 31.9941 54.5749 32.1793 54.7125L41.444 60.9626C41.7776 61.1875 42 61.5625 42 62.0001L42 65.7501C42 66.4374 41.444 67 40.7648 67C40.5175 67 40.2706 66.9249 40.0853 66.7876L31.5001 61.0001L22.9147 66.7876C22.7295 66.9249 22.4825 67 22.2354 67C21.556 67 21 66.4374 21 65.7501L21 62.0001C21 61.5625 21.2224 61.1876 21.556 60.9626L30.8207 54.7125C31.0059 54.5749 31.2529 54.5001 31.5001 54.5001ZM31.5001 42C31.7471 42 31.9941 42.0751 32.1793 42.2126L41.444 48.4625C41.7776 48.6875 42 49.0626 42 49.5L42 53.25C42 53.9375 41.444 54.5001 40.7648 54.5001C40.5175 54.5001 40.2706 54.4251 40.0853 54.2875L31.5001 48.5L22.9147 54.2875C22.7294 54.4251 22.4825 54.5001 22.2354 54.5001C21.556 54.5001 21 53.9375 21 53.25L21 49.5C21 49.0626 21.2224 48.6875 21.556 48.4625L30.8207 42.2126C31.0059 42.0751 31.2529 42 31.5001 42Z" fill="url(#paint4_linear_4005_3108)"/>
</g>
<g filter="url(#filter2_f_4005_3108)">
<path d="M375.5 101C375.653 101 375.806 101.048 375.921 101.136L381.656 105.136C381.862 105.28 382 105.52 382 105.8L382 108.2C382 108.64 381.656 109 381.235 109C381.082 109 380.929 108.952 380.815 108.864L375.5 105.16L370.185 108.864C370.071 108.952 369.918 109 369.765 109C369.344 109 369 108.64 369 108.2L369 105.8C369 105.52 369.138 105.28 369.344 105.136L375.079 101.136C375.194 101.048 375.347 101 375.5 101ZM375.5 93C375.653 93 375.806 93.048 375.921 93.1361L381.656 97.136C381.862 97.28 382 97.52 382 97.8L382 100.2C382 100.64 381.656 101 381.235 101C381.082 101 380.929 100.952 380.815 100.864L375.5 97.16L370.185 100.864C370.071 100.952 369.918 101 369.765 101C369.344 101 369 100.64 369 100.2L369 97.8C369 97.52 369.138 97.28 369.344 97.136L375.079 93.1361C375.194 93.048 375.347 93 375.5 93Z" fill="url(#paint5_linear_4005_3108)"/>
</g>
<g filter="url(#filter3_f_4005_3108)">
<path d="M52.5001 85.0001C52.653 85.0001 52.8059 85.048 52.9205 85.136L58.6558 89.136C58.8624 89.28 59 89.52 59 89.8001L59 92.2001C59 92.6399 58.6558 93 58.2353 93C58.0823 93 57.9294 92.952 57.8147 92.8641L52.5001 89.1601L47.1853 92.8641C47.0706 92.952 46.9177 93 46.7648 93C46.3442 93 46 92.6399 46 92.2001L46 89.8001C46 89.52 46.1376 89.28 46.3442 89.136L52.0795 85.136C52.1941 85.048 52.347 85.0001 52.5001 85.0001ZM52.5001 77C52.653 77 52.8059 77.048 52.9205 77.1361L58.6558 81.136C58.8624 81.28 59 81.52 59 81.8L59 84.2C59 84.64 58.6558 85.0001 58.2353 85.0001C58.0823 85.0001 57.9294 84.952 57.8147 84.864L52.5001 81.16L47.1853 84.864C47.0706 84.952 46.9177 85.0001 46.7648 85.0001C46.3442 85.0001 46 84.64 46 84.2L46 81.8C46 81.52 46.1376 81.28 46.3442 81.136L52.0795 77.1361C52.1941 77.048 52.347 77 52.5001 77Z" fill="url(#paint6_linear_4005_3108)"/>
</g>
<defs>
<filter id="filter0_f_4005_3108" x="340" y="113" width="23" height="27" filterUnits="userSpaceOnUse" color-interpolation-filters="sRGB">
<feFlood flood-opacity="0" result="BackgroundImageFix"/>
<feBlend mode="normal" in="SourceGraphic" in2="BackgroundImageFix" result="shape"/>
<feGaussianBlur stdDeviation="0.5" result="effect1_foregroundBlur_4005_3108"/>
</filter>
<filter id="filter1_f_4005_3108" x="20" y="41" width="23" height="27" filterUnits="userSpaceOnUse" color-interpolation-filters="sRGB">
<feFlood flood-opacity="0" result="BackgroundImageFix"/>
<feBlend mode="normal" in="SourceGraphic" in2="BackgroundImageFix" result="shape"/>
<feGaussianBlur stdDeviation="0.5" result="effect1_foregroundBlur_4005_3108"/>
</filter>
<filter id="filter2_f_4005_3108" x="367" y="91" width="17" height="20" filterUnits="userSpaceOnUse" color-interpolation-filters="sRGB">
<feFlood flood-opacity="0" result="BackgroundImageFix"/>
<feBlend mode="normal" in="SourceGraphic" in2="BackgroundImageFix" result="shape"/>
<feGaussianBlur stdDeviation="1" result="effect1_foregroundBlur_4005_3108"/>
</filter>
<filter id="filter3_f_4005_3108" x="44" y="75" width="17" height="20" filterUnits="userSpaceOnUse" color-interpolation-filters="sRGB">
<feFlood flood-opacity="0" result="BackgroundImageFix"/>
<feBlend mode="normal" in="SourceGraphic" in2="BackgroundImageFix" result="shape"/>
<feGaussianBlur stdDeviation="1" result="effect1_foregroundBlur_4005_3108"/>
</filter>
<linearGradient id="paint0_linear_4005_3108" x1="200" y1="135" x2="200" y2="202" gradientUnits="userSpaceOnUse">
<stop stop-color="#00663A" stop-opacity="0"/>
<stop offset="1" stop-color="#00663A"/>
</linearGradient>
<linearGradient id="paint1_linear_4005_3108" x1="393.5" y1="128" x2="393.5" y2="202" gradientUnits="userSpaceOnUse">
<stop stop-color="#00CC73"/>
<stop offset="1" stop-color="#00CC73" stop-opacity="0"/>
</linearGradient>
<linearGradient id="paint2_linear_4005_3108" x1="6.5" y1="128" x2="6.5" y2="202" gradientUnits="userSpaceOnUse">
<stop stop-color="#00CC73"/>
<stop offset="1" stop-color="#00CC73" stop-opacity="0"/>
</linearGradient>
<linearGradient id="paint3_linear_4005_3108" x1="351.5" y1="114" x2="351.5" y2="139" gradientUnits="userSpaceOnUse">
<stop stop-color="#00FF90"/>
<stop offset="1" stop-color="#00FF90" stop-opacity="0.2"/>
</linearGradient>
<linearGradient id="paint4_linear_4005_3108" x1="31.5" y1="42" x2="31.5" y2="67" gradientUnits="userSpaceOnUse">
<stop stop-color="#00FF90"/>
<stop offset="1" stop-color="#00FF90" stop-opacity="0.2"/>
</linearGradient>
<linearGradient id="paint5_linear_4005_3108" x1="375.5" y1="93" x2="375.5" y2="109" gradientUnits="userSpaceOnUse">
<stop stop-color="#00FF90"/>
<stop offset="1" stop-color="#00FF90" stop-opacity="0.2"/>
</linearGradient>
<linearGradient id="paint6_linear_4005_3108" x1="52.5" y1="77" x2="52.5" y2="93" gradientUnits="userSpaceOnUse">
<stop stop-color="#00FF90"/>
<stop offset="1" stop-color="#00FF90" stop-opacity="0.2"/>
</linearGradient>
</defs>
</svg>
