<svg width="24" height="24" viewBox="0 0 24 24" fill="none" xmlns="http://www.w3.org/2000/svg">
<path fill-rule="evenodd" clip-rule="evenodd" d="M1.30248 7.51899C3.03877 3.35491 7.17443 0.425088 12 0.425088C16.8256 0.425088 20.9612 3.35491 22.6975 7.51899C21.2469 5.29647 18.7252 3.82579 15.8571 3.82579C14.7149 3.82579 13.6276 4.05907 12.641 4.4802L12 0.620145L11.359 4.4802C10.3724 4.05907 9.28509 3.82579 8.14286 3.82579C5.27484 3.82579 2.75314 5.29647 1.30248 7.51899ZM0.428571 11.9025C0.428571 10.35 0.739316 8.86959 1.30248 7.51899C0.478438 8.78147 0 10.2866 0 11.9025C0 5.32892 5.37258 0 12 0C18.6274 0 24 5.32892 24 11.9025C24 10.2866 23.5216 8.78147 22.6975 7.51899C23.2607 8.86959 23.5714 10.35 23.5714 11.9025C23.5714 7.67662 20.1176 4.25088 15.8571 4.25088C14.7373 4.25088 13.6732 4.48755 12.7129 4.9132L12.641 4.4802C12.4222 4.57359 12.2084 4.67623 12 4.78761C11.7916 4.67623 11.5778 4.57359 11.359 4.4802L11.2871 4.9132C10.3268 4.48755 9.26268 4.25088 8.14286 4.25088C3.88237 4.25088 0.428571 7.67662 0.428571 11.9025ZM0.437487 12.2736C0.431566 12.1506 0.428571 12.0269 0.428571 11.9025C0.428571 12.0268 0.430565 12.1507 0.434522 12.2741L0.214286 12.3101L0.437071 12.3465C0.490407 13.7373 0.79325 15.0647 1.30248 16.286C0.478438 15.0235 0 13.5184 0 11.9025C0 18.4653 5.35508 23.7876 11.9676 23.8049L12 24L12.0324 23.8049C18.6449 23.7876 24 18.4653 24 11.9025C24 13.5184 23.5216 15.0235 22.6975 16.286C23.2068 15.0647 23.5096 13.7373 23.5629 12.3465L23.7857 12.3101L23.5655 12.2741C23.5694 12.1507 23.5714 12.0268 23.5714 11.9025C23.5714 12.0269 23.5684 12.1506 23.5625 12.2736L16.2438 11.0779C15.9971 8.66487 14.6795 6.56575 12.7698 5.25545L12.7129 4.9132C12.621 4.95397 12.5299 4.99646 12.4399 5.04065C12.2962 4.95192 12.1495 4.86751 12 4.78761C11.8505 4.86751 11.7038 4.95192 11.5601 5.04065C11.4701 4.99646 11.379 4.95397 11.2871 4.9132L11.2302 5.25545C9.32051 6.56575 8.00289 8.66487 7.7562 11.0779L0.437487 12.2736ZM0.441383 12.3472C0.439968 12.3227 0.438669 12.2982 0.437487 12.2736L0.434522 12.2741C0.435297 12.2982 0.436146 12.3224 0.437071 12.3465L0.441383 12.3472ZM7.88668 13.5636L0.441383 12.3472C0.673578 16.3661 4.03287 19.5541 8.14286 19.5541C9.21381 19.5541 10.2338 19.3376 11.1608 18.9464L11.2324 19.3775C10.2797 19.7653 9.23644 19.9791 8.14286 19.9791C5.27484 19.9791 2.75313 18.5085 1.30248 16.286C3.02639 20.4204 7.11561 23.338 11.8969 23.3794L11.9676 23.8049C11.9784 23.8049 11.9892 23.8049 12 23.8049C12.0108 23.8049 12.0216 23.8049 12.0324 23.8049L12.1031 23.3794C16.8844 23.338 20.9736 20.4204 22.6975 16.286C21.2469 18.5085 18.7252 19.9791 15.8571 19.9791C14.7636 19.9791 13.7203 19.7653 12.7676 19.3775L12.8392 18.9464C13.7662 19.3376 14.7862 19.5541 15.8571 19.5541C19.9671 19.5541 23.3264 16.3661 23.5586 12.3472L23.5629 12.3465C23.5639 12.3224 23.5647 12.2982 23.5655 12.2741L23.5625 12.2736C23.5613 12.2982 23.56 12.3227 23.5586 12.3472L16.1133 13.5636C16.2263 13.0275 16.2857 12.4719 16.2857 11.9025C16.2857 11.6241 16.2715 11.349 16.2438 11.0779L15.8048 11.0062C15.5588 8.9154 14.4631 7.08199 12.8693 5.85476L12.7698 5.25545C12.6617 5.18129 12.5517 5.10967 12.4399 5.04065C12.2905 5.11401 12.1438 5.19204 12 5.27453C11.8562 5.19204 11.7095 5.11401 11.5601 5.04065C11.4483 5.10967 11.3383 5.18129 11.2302 5.25545L11.1307 5.85476C9.53688 7.08199 8.44116 8.9154 8.19522 11.0062L7.7562 11.0779C7.72848 11.349 7.71429 11.6241 7.71429 11.9025C7.71429 12.4719 7.77369 13.0275 7.88668 13.5636ZM8.34214 13.638L7.88668 13.5636C8.30732 15.5594 9.4707 17.2846 11.077 18.4417L11.1608 18.9464C11.2959 18.8894 11.429 18.8286 11.5601 18.7643C11.7038 18.853 11.8505 18.9374 12 19.0173C11.7516 19.1501 11.4954 19.2704 11.2324 19.3775L11.8969 23.3794C11.9313 23.3797 11.9656 23.3799 12 23.3799C12.0344 23.3799 12.0687 23.3797 12.1031 23.3794L12.7676 19.3775C12.5046 19.2704 12.2484 19.1501 12 19.0173C12.1495 18.9374 12.2962 18.853 12.4399 18.7643C12.571 18.8286 12.7041 18.8894 12.8392 18.9464L12.923 18.4417C14.5293 17.2846 15.6927 15.5594 16.1133 13.5636L15.6579 13.638C15.7882 13.0804 15.8571 12.4994 15.8571 11.9025C15.8571 11.5993 15.8394 11.3002 15.8048 11.0062L13.6668 10.6569L12.8693 5.85476C12.5938 5.64264 12.3034 5.44863 12 5.27453C11.6966 5.44863 11.4062 5.64264 11.1307 5.85476L10.3332 10.6569L8.19522 11.0062C8.16064 11.3002 8.14286 11.5993 8.14286 11.9025C8.14286 12.4994 8.21177 13.0804 8.34214 13.638ZM10.9749 17.827L11.077 18.4417C11.2339 18.5548 11.395 18.6624 11.5601 18.7643C11.7095 18.6909 11.8562 18.6129 12 18.5304C12.1438 18.6129 12.2905 18.6909 12.4399 18.7643C12.605 18.6624 12.7661 18.5548 12.923 18.4417L13.0251 17.827C14.3218 16.7745 15.2666 15.3115 15.6579 13.638L13.6668 13.9633L13.0251 17.827C12.704 18.0876 12.3612 18.3231 12 18.5304C11.6388 18.3231 11.296 18.0876 10.9749 17.827ZM10.9749 17.827L10.3332 13.9633L8.34214 13.638C8.73341 15.3115 9.67822 16.7745 10.9749 17.827Z" fill="#00331D"/>
</svg>
