<svg width="430" height="235" viewBox="0 0 430 235" fill="none" xmlns="http://www.w3.org/2000/svg">
<path fill-rule="evenodd" clip-rule="evenodd" d="M414 150.823V144L403 154.496V161.319L414 150.823ZM414 153.447V160.27L403 170.766V163.943L414 153.447ZM414 169.716V162.894L403 173.39V180.213L414 169.716ZM414 172.34V179.163L403 189.66V182.837L414 172.34ZM414 188.61V181.787L403 192.284V199.106L414 188.61ZM414 191.234V198.057L403 208.553V201.73L414 191.234ZM414 200.681V207.504L403 218V211.177L414 200.681Z" fill="url(#paint0_linear_2545_15480)"/>
<path fill-rule="evenodd" clip-rule="evenodd" d="M16 150.823V144L27 154.496V161.319L16 150.823ZM16 153.447V160.27L27 170.766V163.943L16 153.447ZM16 169.716V162.894L27 173.39V180.213L16 169.716ZM16 172.34V179.163L27 189.66V182.837L16 172.34ZM16 188.61V181.787L27 192.284V199.106L16 188.61ZM16 191.234V198.057L27 208.553V201.73L16 191.234ZM16 200.681V207.504L27 218V211.177L16 200.681Z" fill="url(#paint1_linear_2545_15480)"/>
<g filter="url(#filter0_d_2545_15480)">
<path d="M33 151V218H397V151L414 134V17H330L322 25H108L100 17H16V134L33 151Z" fill="url(#paint2_linear_2545_15480)"/>
<path d="M33 151V218H397V151L414 134V17H330L322 25H108L100 17H16V134L33 151Z" stroke="#00FF90"/>
</g>
<g filter="url(#filter1_d_2545_15480)">
<path d="M16 105L20 101L20 17L16 17L16 105Z" fill="#00FF90"/>
</g>
<g filter="url(#filter2_d_2545_15480)">
<path d="M414 105L410 101L410 17L414 17L414 105Z" fill="#00FF90"/>
</g>
<g filter="url(#filter3_f_2545_15480)">
<path d="M366.5 142.5C366.747 142.5 366.994 142.575 367.179 142.713L376.444 148.963C376.778 149.188 377 149.562 377 150L377 153.75C377 154.437 376.444 155 375.765 155C375.518 155 375.271 154.925 375.085 154.788L366.5 149L357.915 154.788C357.729 154.925 357.482 155 357.235 155C356.556 155 356 154.437 356 153.75L356 150C356 149.562 356.222 149.188 356.556 148.963L365.821 142.713C366.006 142.575 366.253 142.5 366.5 142.5ZM366.5 130C366.747 130 366.994 130.075 367.179 130.213L376.444 136.462C376.778 136.687 377 137.063 377 137.5L377 141.25C377 141.938 376.444 142.5 375.765 142.5C375.518 142.5 375.271 142.425 375.085 142.287L366.5 136.5L357.915 142.287C357.729 142.425 357.482 142.5 357.235 142.5C356.556 142.5 356 141.938 356 141.25L356 137.5C356 137.063 356.222 136.687 356.556 136.462L365.821 130.213C366.006 130.075 366.253 130 366.5 130Z" fill="url(#paint3_linear_2545_15480)"/>
</g>
<g filter="url(#filter4_f_2545_15480)">
<path d="M46.5001 70.5001C46.7471 70.5001 46.9941 70.5749 47.1793 70.7125L56.444 76.9626C56.7776 77.1875 57 77.5625 57 78.0001L57 81.7501C57 82.4374 56.444 83 55.7648 83C55.5175 83 55.2706 82.9249 55.0853 82.7876L46.5001 77.0001L37.9147 82.7876C37.7295 82.9249 37.4825 83 37.2354 83C36.556 83 36 82.4374 36 81.7501L36 78.0001C36 77.5625 36.2224 77.1876 36.556 76.9626L45.8207 70.7125C46.0059 70.5749 46.2529 70.5001 46.5001 70.5001ZM46.5001 58C46.7471 58 46.9941 58.0751 47.1793 58.2126L56.444 64.4625C56.7776 64.6875 57 65.0626 57 65.5L57 69.25C57 69.9375 56.444 70.5001 55.7648 70.5001C55.5175 70.5001 55.2706 70.4251 55.0853 70.2875L46.5001 64.5L37.9147 70.2875C37.7294 70.4251 37.4825 70.5001 37.2354 70.5001C36.556 70.5001 36 69.9375 36 69.25L36 65.5C36 65.0626 36.2224 64.6875 36.556 64.4625L45.8207 58.2126C46.0059 58.0751 46.2529 58 46.5001 58Z" fill="url(#paint4_linear_2545_15480)"/>
</g>
<g filter="url(#filter5_f_2545_15480)">
<path d="M390.5 117C390.653 117 390.806 117.048 390.921 117.136L396.656 121.136C396.862 121.28 397 121.52 397 121.8L397 124.2C397 124.64 396.656 125 396.235 125C396.082 125 395.929 124.952 395.815 124.864L390.5 121.16L385.185 124.864C385.071 124.952 384.918 125 384.765 125C384.344 125 384 124.64 384 124.2L384 121.8C384 121.52 384.138 121.28 384.344 121.136L390.079 117.136C390.194 117.048 390.347 117 390.5 117ZM390.5 109C390.653 109 390.806 109.048 390.921 109.136L396.656 113.136C396.862 113.28 397 113.52 397 113.8L397 116.2C397 116.64 396.656 117 396.235 117C396.082 117 395.929 116.952 395.815 116.864L390.5 113.16L385.185 116.864C385.071 116.952 384.918 117 384.765 117C384.344 117 384 116.64 384 116.2L384 113.8C384 113.52 384.138 113.28 384.344 113.136L390.079 109.136C390.194 109.048 390.347 109 390.5 109Z" fill="url(#paint5_linear_2545_15480)"/>
</g>
<g filter="url(#filter6_f_2545_15480)">
<path d="M67.5001 101C67.653 101 67.8059 101.048 67.9205 101.136L73.6558 105.136C73.8624 105.28 74 105.52 74 105.8L74 108.2C74 108.64 73.6558 109 73.2353 109C73.0823 109 72.9294 108.952 72.8147 108.864L67.5001 105.16L62.1853 108.864C62.0706 108.952 61.9177 109 61.7648 109C61.3442 109 61 108.64 61 108.2L61 105.8C61 105.52 61.1376 105.28 61.3442 105.136L67.0795 101.136C67.1941 101.048 67.347 101 67.5001 101ZM67.5001 93C67.653 93 67.8059 93.048 67.9205 93.1361L73.6558 97.136C73.8624 97.28 74 97.52 74 97.8L74 100.2C74 100.64 73.6558 101 73.2353 101C73.0823 101 72.9294 100.952 72.8147 100.864L67.5001 97.16L62.1853 100.864C62.0706 100.952 61.9177 101 61.7648 101C61.3442 101 61 100.64 61 100.2L61 97.8C61 97.52 61.1376 97.28 61.3442 97.136L67.0795 93.1361C67.1941 93.048 67.347 93 67.5001 93Z" fill="url(#paint6_linear_2545_15480)"/>
</g>
<path fill-rule="evenodd" clip-rule="evenodd" d="M53.5832 204.574H73.7235C77.9255 201.172 81.8574 197.996 85.5409 195.008H67.2801C63.0025 197.996 58.4495 201.172 53.5778 204.574H53.5832ZM272.864 151.005H283.093C283.136 151.032 283.179 151.059 283.223 151.086C284.659 151.937 286.145 152.809 287.684 153.713C287.732 153.745 287.781 153.772 287.819 153.794C287.867 153.826 287.916 153.853 287.965 153.88C289.52 154.801 291.135 155.743 292.804 156.728C292.858 156.76 292.912 156.787 292.955 156.819C293.009 156.846 293.063 156.879 293.117 156.911C294.867 157.939 296.682 159 298.556 160.108C298.615 160.141 298.675 160.184 298.74 160.216C298.799 160.248 298.859 160.286 298.913 160.318C300.889 161.476 302.942 162.692 305.08 163.952C305.151 163.99 305.221 164.033 305.28 164.065C305.351 164.103 305.415 164.146 305.48 164.184C307.727 165.502 310.071 166.886 312.518 168.318C312.599 168.366 312.674 168.409 312.744 168.453C312.826 168.501 312.901 168.544 312.982 168.592C315.564 170.116 318.264 171.704 321.084 173.362C321.175 173.416 321.267 173.47 321.359 173.524C321.451 173.577 321.543 173.637 321.629 173.685C324.627 175.445 327.77 177.297 331.075 179.241C331.184 179.3 331.291 179.37 331.389 179.429C331.497 179.488 331.605 179.558 331.702 179.612C335.218 181.685 338.928 183.859 342.844 186.163C342.974 186.239 343.103 186.32 343.222 186.384C343.352 186.465 343.482 186.54 343.617 186.61C347.808 189.076 352.247 191.697 356.941 194.448C357.097 194.54 357.259 194.637 357.416 194.728C357.573 194.82 357.735 194.917 357.875 195.003C362.952 197.99 368.359 201.167 374.143 204.569C374.327 204.676 374.51 204.784 374.71 204.897C374.91 205.01 375.104 205.134 375.283 205.231C381.769 209.048 388.763 213.166 396.325 217.607C396.557 217.747 396.789 217.882 397 218H33C33.1782 217.882 33.3727 217.747 33.5725 217.607C39.9835 213.171 45.9192 209.058 51.4282 205.236C51.5794 205.134 51.7468 205.016 51.9143 204.903C52.0817 204.789 52.2383 204.682 52.395 204.569C57.3045 201.167 61.9007 197.99 66.2107 195.003C66.3295 194.917 66.4646 194.82 66.5996 194.728C66.7346 194.637 66.8696 194.54 67.0047 194.448C70.9906 191.692 74.7605 189.076 78.3197 186.61C78.4278 186.535 78.5412 186.465 78.6546 186.384C78.7518 186.32 78.8652 186.239 78.9733 186.163C82.3003 183.859 85.4491 181.674 88.4358 179.607C88.5168 179.547 88.614 179.483 88.7058 179.418C88.7869 179.364 88.8787 179.3 88.9759 179.235C91.7844 177.286 94.4579 175.435 97.0018 173.674C97.072 173.626 97.1476 173.567 97.2286 173.513C97.3096 173.459 97.3852 173.405 97.4663 173.351C99.8589 171.688 102.154 170.1 104.342 168.582C104.407 168.533 104.477 168.485 104.542 168.442C104.601 168.404 104.671 168.356 104.736 168.307C106.815 166.875 108.803 165.492 110.71 164.173C110.764 164.13 110.818 164.092 110.877 164.049C110.931 164.017 110.985 163.974 111.044 163.936C112.859 162.676 114.604 161.465 116.278 160.302C116.321 160.27 116.375 160.238 116.424 160.2C116.472 160.168 116.526 160.125 116.575 160.092C118.168 158.989 119.708 157.923 121.193 156.895C121.236 156.862 121.285 156.825 121.328 156.803C121.366 156.776 121.414 156.744 121.457 156.712C122.873 155.732 124.239 154.79 125.557 153.869C125.6 153.842 125.638 153.815 125.681 153.783C125.719 153.762 125.757 153.735 125.794 153.702C127.096 152.798 128.36 151.926 129.57 151.081C129.608 151.054 129.645 151.027 129.683 151H272.858L272.864 151.005ZM282.742 151.161H273.096C274.322 151.985 275.586 152.836 276.893 153.713H287.041C285.556 152.836 284.125 151.985 282.737 151.161H282.742ZM272.507 151.161H262.877C263.93 151.985 265.016 152.836 266.145 153.713H276.277C274.975 152.836 273.722 151.985 272.507 151.161ZM262.288 151.161H252.653C253.533 151.985 254.446 152.836 255.391 153.713H265.524C264.406 152.836 263.325 151.985 262.283 151.161H262.288ZM252.07 151.161H242.44C243.153 151.985 243.882 152.83 244.643 153.713H254.776C253.841 152.836 252.939 151.985 252.07 151.161ZM241.84 151.161H232.221C232.761 151.985 233.317 152.83 233.895 153.713H244.011C243.261 152.83 242.537 151.985 241.835 151.161H241.84ZM231.622 151.161H222.002C222.37 151.985 222.753 152.83 223.147 153.713H233.263C232.696 152.83 232.151 151.985 231.622 151.161ZM221.403 151.161H211.8C212 151.985 212.2 152.83 212.41 153.713H222.51C222.127 152.83 221.759 151.985 221.397 151.161H221.403ZM211.2 151.161H201.581C201.608 151.985 201.635 152.83 201.662 153.713H211.778C211.578 152.83 211.384 151.985 211.195 151.161H211.2ZM200.982 151.161H191.352C191.206 151.985 191.055 152.83 190.898 153.713H201.03C201.014 152.83 200.998 151.985 200.982 151.161ZM190.752 151.161H181.133C180.82 151.985 180.49 152.83 180.15 153.713H190.266C190.434 152.83 190.596 151.985 190.747 151.161H190.752ZM180.534 151.161H170.914C170.428 151.985 169.926 152.83 169.402 153.713H179.518C179.869 152.83 180.204 151.985 180.534 151.161ZM170.315 151.161H160.685C160.026 151.985 159.345 152.83 158.638 153.713H168.77C169.305 152.83 169.818 151.985 170.315 151.161ZM160.096 151.161H150.461C149.634 151.985 148.776 152.83 147.885 153.713H158.017C158.735 152.83 159.426 151.985 160.096 151.161ZM149.878 151.161H140.248C139.248 151.98 138.211 152.83 137.137 153.708C140.501 153.713 143.888 153.713 147.269 153.713C148.171 152.83 149.04 151.985 149.878 151.161ZM139.659 151.161H130.04C128.868 151.98 127.658 152.83 126.399 153.708H136.515C137.601 152.83 138.643 151.98 139.653 151.161H139.659ZM287.322 153.88H277.141C278.508 154.801 279.923 155.743 281.381 156.728H292.123C290.471 155.743 288.867 154.801 287.322 153.88ZM276.525 153.88H266.361C267.533 154.801 268.77 155.743 270.023 156.728H280.733C279.28 155.743 277.876 154.801 276.525 153.88ZM265.74 153.88H255.57C256.553 154.79 257.573 155.743 258.627 156.728H269.353C268.105 155.743 266.901 154.801 265.74 153.88ZM254.954 153.88H244.789C245.583 154.79 246.404 155.743 247.252 156.728H257.978C256.936 155.743 255.931 154.79 254.959 153.88H254.954ZM244.157 153.88H234.009C234.608 154.79 235.235 155.743 235.878 156.722C239.458 156.728 243.007 156.728 246.588 156.728C245.751 155.743 244.94 154.79 244.163 153.88H244.157ZM233.371 153.88H223.223C223.633 154.79 224.06 155.743 224.498 156.722H235.208C234.576 155.743 233.966 154.795 233.377 153.88H233.371ZM222.586 153.88H212.453C212.675 154.79 212.902 155.743 213.134 156.722H223.828C223.401 155.743 222.991 154.795 222.591 153.88H222.586ZM211.822 153.88H201.673C201.7 154.79 201.732 155.743 201.759 156.722H212.47C212.248 155.743 212.032 154.795 211.822 153.88ZM201.036 153.88H190.866C190.704 154.79 190.536 155.743 190.358 156.722H201.084C201.068 155.743 201.052 154.795 201.03 153.88H201.036ZM190.234 153.88H180.085C179.734 154.79 179.367 155.743 178.983 156.722H189.694C189.883 155.743 190.061 154.795 190.234 153.88ZM179.453 153.88H169.305C168.759 154.79 168.192 155.743 167.609 156.722H178.319C178.713 155.743 179.091 154.795 179.453 153.88ZM168.668 153.88H158.503C157.768 154.79 157.001 155.737 156.213 156.722H166.939C167.533 155.743 168.117 154.795 168.668 153.88ZM157.882 153.88C154.485 153.88 151.093 153.875 147.712 153.875C146.788 154.795 145.821 155.737 144.828 156.722H155.554C156.353 155.737 157.131 154.795 157.876 153.88H157.882ZM147.101 153.875H136.931C135.813 154.795 134.652 155.737 133.453 156.717C137.018 156.717 140.599 156.717 144.196 156.722C145.2 155.737 146.156 154.795 147.096 153.875H147.101ZM136.316 153.875H126.167C124.86 154.795 123.499 155.737 122.1 156.717H132.81C134.02 155.737 135.192 154.795 136.321 153.875H136.316ZM292.437 156.916H281.656C283.19 157.944 284.778 159.005 286.425 160.114H297.838C295.974 159.005 294.17 157.944 292.437 156.916ZM281.003 156.916C277.411 156.916 273.814 156.911 270.255 156.911C271.573 157.944 272.945 159.005 274.36 160.114H285.734C284.103 159.005 282.521 157.944 281.003 156.916ZM269.591 156.911H258.826C259.95 157.944 261.095 159.005 262.278 160.114H273.668C272.264 159.005 270.908 157.944 269.585 156.911H269.591ZM258.173 156.911H247.409C248.3 157.944 249.218 159.005 250.196 160.108C253.982 160.108 257.768 160.108 261.586 160.114C260.398 159.005 259.264 157.944 258.173 156.911ZM246.739 156.911H235.991C236.666 157.939 237.363 159 238.092 160.108H249.466C248.527 159.01 247.614 157.944 246.739 156.911ZM235.321 156.911H224.573C225.032 157.939 225.513 159 226.005 160.108H237.379C236.671 159.005 235.98 157.939 235.321 156.911ZM223.909 156.911H213.183C213.426 157.939 213.685 159 213.949 160.108H225.308C224.827 159.005 224.363 157.939 223.914 156.911H223.909ZM212.507 156.911H201.759C201.792 157.939 201.824 159 201.857 160.108H213.231C212.983 159.005 212.74 157.939 212.507 156.911ZM201.09 156.911H190.326C190.142 157.939 189.953 159 189.753 160.108H201.144C201.122 159.005 201.106 157.939 201.084 156.911H201.09ZM189.656 156.911C186.08 156.911 182.489 156.905 178.908 156.905C178.508 157.939 178.098 159.005 177.666 160.108H189.04C189.251 159.005 189.456 157.939 189.65 156.911H189.656ZM178.244 156.9H167.496C166.88 157.934 166.248 159 165.589 160.098C169.375 160.098 173.177 160.103 176.963 160.103C177.406 159 177.833 157.934 178.244 156.9ZM166.826 156.9H156.062C155.235 157.923 154.377 158.989 153.502 160.098H164.892C165.546 159 166.194 157.934 166.82 156.9H166.826ZM155.408 156.9H144.66C143.618 157.923 142.538 158.989 141.42 160.098H152.81C153.712 158.994 154.582 157.928 155.408 156.9ZM144.012 156.9H133.232C131.973 157.923 130.672 158.989 129.321 160.098H140.734C141.868 158.994 142.959 157.928 144.012 156.9ZM132.578 156.9H121.83C120.361 157.923 118.833 158.989 117.25 160.098H128.625C129.991 158.994 131.303 157.928 132.573 156.9H132.578ZM298.189 160.318H286.739C288.472 161.476 290.271 162.692 292.145 163.952H304.314C302.191 162.692 300.155 161.481 298.194 160.318H298.189ZM286.047 160.318H274.63C276.12 161.476 277.665 162.692 279.28 163.952H291.405C289.547 162.692 287.759 161.481 286.042 160.318H286.047ZM273.938 160.318H262.504C263.752 161.476 265.048 162.692 266.399 163.941C270.433 163.941 274.468 163.941 278.545 163.947C276.947 162.687 275.413 161.476 273.938 160.313V160.318ZM261.808 160.318H250.374C251.378 161.476 252.421 162.682 253.512 163.941H265.659C264.325 162.687 263.045 161.476 261.808 160.318ZM249.645 160.318C245.826 160.318 242.045 160.313 238.232 160.313C238.994 161.481 239.804 162.687 240.63 163.947H252.756C251.686 162.687 250.633 161.481 249.645 160.324V160.318ZM237.519 160.313H226.107C226.626 161.481 227.166 162.687 227.727 163.947H239.853C239.043 162.687 238.265 161.481 237.519 160.313ZM225.389 160.313H213.993C214.268 161.47 214.56 162.687 214.857 163.947H226.966C226.42 162.687 225.896 161.481 225.389 160.313ZM213.28 160.313H201.862C201.9 161.47 201.932 162.687 201.97 163.947H214.095C213.809 162.687 213.539 161.476 213.274 160.313H213.28ZM201.155 160.313H189.721C189.515 161.47 189.294 162.687 189.073 163.947H201.219C201.198 162.687 201.176 161.476 201.155 160.313ZM189.008 160.313H177.59C177.142 161.47 176.672 162.687 176.18 163.941C180.236 163.947 184.271 163.947 188.306 163.947C188.549 162.687 188.775 161.476 189.002 160.313H189.008ZM176.877 160.313H165.465C164.773 161.47 164.071 162.682 163.321 163.941H175.446C175.948 162.687 176.413 161.476 176.877 160.313ZM164.773 160.313H153.34C152.405 161.47 151.433 162.682 150.418 163.941H162.564C163.331 162.682 164.066 161.476 164.773 160.313ZM152.643 160.313C148.824 160.308 144.99 160.308 141.209 160.308C140.032 161.47 138.805 162.682 137.531 163.941H149.678C150.704 162.682 151.692 161.476 152.643 160.313ZM140.512 160.308H129.062C127.642 161.47 126.167 162.682 124.628 163.941H136.796C138.087 162.682 139.324 161.476 140.518 160.308H140.512ZM128.371 160.308H116.958C115.295 161.465 113.567 162.682 111.768 163.941H123.893C125.449 162.682 126.939 161.476 128.371 160.308ZM304.708 164.184H292.496C294.468 165.502 296.52 166.886 298.669 168.318H311.697C309.266 166.886 306.938 165.502 304.708 164.184ZM291.756 164.184C287.684 164.184 283.633 164.184 279.582 164.178C281.278 165.502 283.044 166.881 284.892 168.318H297.881C295.753 166.886 293.711 165.502 291.762 164.184H291.756ZM278.842 164.178H266.647C268.067 165.502 269.547 166.881 271.092 168.318H284.098C282.267 166.875 280.517 165.502 278.837 164.178H278.842ZM265.907 164.178H253.712C254.857 165.502 256.045 166.881 257.292 168.318H270.303C268.775 166.875 267.311 165.502 265.907 164.178ZM252.955 164.178H240.782C241.651 165.497 242.553 166.881 243.498 168.318H256.482C255.256 166.875 254.079 165.502 252.955 164.178ZM239.998 164.178H227.825C228.435 165.497 229.051 166.881 229.693 168.318H242.683C241.754 166.875 240.868 165.497 239.998 164.178ZM227.069 164.178H214.916C215.23 165.497 215.559 166.881 215.905 168.313C220.225 168.313 224.546 168.313 228.894 168.318C228.246 166.875 227.646 165.497 227.074 164.178H227.069ZM214.155 164.178H201.981C202.019 165.497 202.062 166.881 202.105 168.313H215.094C214.77 166.881 214.457 165.497 214.155 164.178ZM201.219 164.178H189.029C188.792 165.497 188.543 166.87 188.306 168.313H201.295C201.268 166.881 201.246 165.497 201.219 164.178ZM188.268 164.178C184.217 164.173 180.166 164.173 176.094 164.173C175.602 165.497 175.068 166.875 174.511 168.313H187.501C187.776 166.87 188.041 165.497 188.273 164.178H188.268ZM175.354 164.173H163.18C162.392 165.497 161.571 166.875 160.712 168.313H173.696C174.274 166.87 174.825 165.497 175.354 164.173ZM162.419 164.173H150.223C149.159 165.497 148.047 166.875 146.891 168.313H159.896C160.771 166.87 161.614 165.497 162.413 164.173H162.419ZM149.489 164.173H137.293C135.954 165.492 134.555 166.875 133.097 168.313H146.102C147.28 166.87 148.408 165.497 149.489 164.173ZM136.553 164.173H124.342C122.727 165.492 121.042 166.875 119.275 168.307C123.596 168.313 127.96 168.313 132.303 168.313C133.777 166.87 135.192 165.492 136.553 164.173ZM123.602 164.173H111.428C109.537 165.492 107.561 166.875 105.503 168.307H118.487C120.264 166.875 121.971 165.492 123.602 164.173ZM312.156 168.592H299.075C301.338 170.116 303.73 171.704 306.198 173.362H320.198C317.4 171.699 314.721 170.111 312.156 168.592ZM298.281 168.592H285.237C287.182 170.116 289.223 171.704 291.346 173.362H305.345C302.893 171.699 300.522 170.111 298.275 168.592H298.281ZM284.449 168.592H271.384C273.015 170.105 274.716 171.704 276.498 173.362H290.498C288.391 171.699 286.377 170.111 284.449 168.592ZM270.595 168.592H257.53C258.843 170.105 260.214 171.704 261.651 173.357C266.301 173.357 270.979 173.357 275.65 173.362C273.89 171.699 272.205 170.105 270.595 168.592ZM256.72 168.592H243.677C244.67 170.105 245.713 171.693 246.804 173.357H260.782C259.366 171.704 258.016 170.105 256.72 168.592ZM242.861 168.592H229.818C230.498 170.105 231.206 171.693 231.946 173.357H245.923C244.854 171.693 243.833 170.105 242.856 168.592H242.861ZM229.007 168.592C224.649 168.592 220.306 168.587 215.964 168.587C216.326 170.111 216.704 171.699 217.098 173.357H231.076C230.358 171.693 229.666 170.105 229.002 168.592H229.007ZM215.154 168.587H202.111C202.154 170.111 202.202 171.699 202.251 173.357H216.229C215.856 171.693 215.494 170.105 215.154 168.587ZM201.3 168.587H188.257C187.987 170.111 187.701 171.699 187.404 173.357H201.381C201.354 171.693 201.327 170.105 201.3 168.587ZM187.441 168.587H174.398C173.809 170.111 173.194 171.699 172.551 173.357H186.529C186.847 171.693 187.15 170.105 187.441 168.587ZM173.588 168.587H160.544C159.637 170.1 158.692 171.699 157.704 173.351C162.354 173.357 167.009 173.357 171.681 173.357C172.346 171.693 172.983 170.105 173.588 168.587ZM159.734 168.587H146.675C145.454 170.1 144.174 171.699 142.835 173.351H156.834C157.844 171.699 158.811 170.1 159.734 168.587ZM145.881 168.587H132.816C131.276 170.1 129.667 171.688 127.982 173.351H141.981C143.337 171.699 144.633 170.1 145.875 168.587H145.881ZM132.022 168.587H118.941C117.083 170.1 115.16 171.688 113.135 173.351H127.134C128.835 171.688 130.466 170.1 132.022 168.587ZM118.147 168.587C113.804 168.582 109.446 168.582 105.103 168.582C102.927 170.1 100.653 171.688 98.2818 173.351H112.281C114.328 171.688 116.267 170.1 118.147 168.587ZM320.738 173.685H306.674C309.299 175.445 312.059 177.286 314.959 179.241H330.114C326.83 177.297 323.708 175.445 320.738 173.685ZM305.826 173.685C301.132 173.685 296.433 173.685 291.762 173.68C294.019 175.44 296.39 177.292 298.886 179.241H314.041C311.162 177.292 308.429 175.445 305.826 173.685ZM290.908 173.68H276.844C278.734 175.44 280.722 177.292 282.807 179.241H297.962C295.494 177.292 293.144 175.44 290.903 173.68H290.908ZM275.991 173.68H261.927C263.45 175.44 265.048 177.292 266.728 179.235C271.762 179.241 276.822 179.241 281.883 179.241C279.82 177.292 277.854 175.44 275.985 173.68H275.991ZM261.052 173.68H247.014C248.17 175.44 249.38 177.292 250.655 179.235H265.788C264.13 177.292 262.553 175.445 261.052 173.68ZM246.134 173.68H232.091C232.88 175.44 233.706 177.292 234.576 179.235H249.709C248.456 177.292 247.268 175.445 246.134 173.68ZM231.222 173.68H217.179C217.601 175.44 218.038 177.292 218.503 179.235H233.636C232.794 177.292 231.989 175.445 231.222 173.68ZM216.304 173.68H202.262C202.316 175.44 202.37 177.292 202.424 179.235H217.557C217.12 177.292 216.699 175.445 216.304 173.68ZM201.387 173.68H187.344C187.026 175.435 186.696 177.292 186.345 179.235H201.479C201.446 177.292 201.414 175.445 201.381 173.68H201.387ZM186.469 173.68C181.776 173.68 177.099 173.674 172.427 173.674C171.741 175.435 171.022 177.286 170.272 179.235H185.405C185.778 177.292 186.134 175.435 186.469 173.68ZM171.557 173.674H157.515C156.461 175.435 155.36 177.286 154.198 179.235H169.332C170.11 177.286 170.85 175.435 171.557 173.674ZM156.64 173.674H142.575C141.155 175.435 139.664 177.286 138.098 179.235H153.253C154.436 177.286 155.565 175.435 156.64 173.674ZM141.722 173.674H127.658C125.87 175.435 123.996 177.286 122.019 179.235H137.174C138.768 177.286 140.28 175.435 141.717 173.674H141.722ZM126.804 173.674H112.74C110.585 175.435 108.322 177.286 105.94 179.235H121.096C123.094 177.286 124.99 175.435 126.799 173.674H126.804ZM111.887 173.674H97.8227C95.3005 175.435 92.6486 177.286 89.8671 179.235H105.022C107.426 177.286 109.71 175.435 111.887 173.674ZM330.741 179.607H315.51C318.594 181.679 321.845 183.854 325.28 186.158H341.802C337.913 183.854 334.235 181.674 330.741 179.607ZM314.586 179.607H299.355C302.007 181.679 304.805 183.854 307.754 186.158H324.276C320.868 183.854 317.643 181.674 314.586 179.607ZM298.432 179.607H283.201C285.421 181.679 287.765 183.854 290.233 186.158H306.755C303.827 183.854 301.057 181.674 298.432 179.607ZM282.283 179.607H267.052C268.84 181.679 270.725 183.854 272.718 186.158H289.239C286.793 183.854 284.481 181.674 282.283 179.607ZM266.101 179.607H250.898C252.253 181.679 253.685 183.854 255.197 186.158H271.692C269.731 183.854 267.873 181.674 266.107 179.607H266.101ZM249.947 179.607H234.743C235.667 181.679 236.644 183.854 237.671 186.158H254.165C252.685 183.854 251.281 181.674 249.947 179.607ZM233.793 179.607H218.589C219.08 181.668 219.599 183.854 220.15 186.158H236.644C235.645 183.854 234.695 181.674 233.798 179.607H233.793ZM217.644 179.607C212.561 179.607 207.501 179.601 202.44 179.601C202.499 181.674 202.564 183.854 202.634 186.158H219.129C218.611 183.854 218.114 181.668 217.649 179.607H217.644ZM201.489 179.601H186.286C185.913 181.674 185.524 183.854 185.108 186.158H201.603C201.565 183.854 201.527 181.668 201.489 179.601ZM185.335 179.601H170.131C169.326 181.674 168.479 183.854 167.587 186.158H184.082C184.525 183.854 184.941 181.668 185.34 179.601H185.335ZM169.181 179.601H153.977C152.74 181.674 151.438 183.854 150.061 186.158H166.556C167.479 183.854 168.349 181.668 169.181 179.601ZM153.026 179.601H137.795C136.127 181.674 134.371 183.854 132.513 186.158H149.035C150.439 183.854 151.768 181.668 153.026 179.601ZM136.872 179.601H121.641C119.54 181.674 117.326 183.854 114.987 186.158H131.509C133.394 183.854 135.176 181.668 136.872 179.601ZM120.718 179.601H105.487C102.954 181.674 100.286 183.854 97.4663 186.158H113.988C116.354 183.854 118.595 181.668 120.718 179.601ZM104.563 179.601H89.3324C86.3672 181.674 83.2454 183.854 79.9454 186.158H96.4671C99.3134 183.854 102.008 181.668 104.563 179.601ZM342.563 186.61H325.955C329.628 189.076 333.522 191.697 337.638 194.448H355.79C351.129 191.692 346.722 189.076 342.563 186.61ZM324.951 186.61H308.343C311.502 189.076 314.851 191.697 318.389 194.448H336.541C332.458 191.692 328.596 189.076 324.951 186.61ZM307.333 186.61H290.725C293.371 189.076 296.174 191.697 299.134 194.448H317.287C313.781 191.692 310.465 189.076 307.333 186.61ZM289.715 186.61H273.107C275.24 189.076 277.492 191.697 279.879 194.448H298.032C295.099 191.692 292.329 189.076 289.715 186.61ZM272.075 186.61H255.494C257.109 189.076 258.821 191.697 260.63 194.448H278.751C276.396 191.692 274.171 189.076 272.07 186.61H272.075ZM254.457 186.61H237.876C238.978 189.076 240.144 191.697 241.376 194.448H259.496C257.719 191.692 256.039 189.076 254.452 186.61H254.457ZM236.839 186.61H220.258C220.847 189.076 221.468 191.697 222.127 194.448H240.247C239.048 191.692 237.914 189.076 236.839 186.61ZM219.221 186.61H202.64C202.71 189.076 202.791 191.697 202.872 194.448H220.992C220.371 191.692 219.777 189.076 219.221 186.61ZM201.608 186.61H185.027C184.584 189.076 184.114 191.697 183.623 194.448H201.743C201.695 191.692 201.651 189.076 201.608 186.61ZM183.99 186.61H167.409C166.453 189.076 165.438 191.697 164.368 194.448H182.489C183.018 191.692 183.515 189.076 183.99 186.61ZM166.372 186.61H149.791C148.322 189.076 146.761 191.697 145.114 194.448H163.234C164.341 191.692 165.384 189.076 166.372 186.61ZM148.759 186.61H132.151C130.164 189.076 128.063 191.697 125.838 194.448H143.99C145.67 191.692 147.263 189.076 148.765 186.61H148.759ZM131.141 186.61H114.533C112.033 189.076 109.381 191.697 106.583 194.448H124.73C126.988 191.692 129.127 189.076 131.141 186.61ZM113.523 186.61H96.9154C93.9016 189.076 90.7042 191.697 87.3286 194.448H105.481C108.317 191.692 110.996 189.076 113.529 186.61H113.523ZM95.9108 186.61H79.3027C75.7705 189.076 72.033 191.697 68.0795 194.448H86.2322C89.6402 191.692 92.87 189.076 95.9162 186.61H95.9108ZM356.719 195.003H338.459C342.909 197.99 347.651 201.167 352.723 204.569H372.863C367.122 201.167 361.753 197.99 356.714 195.003H356.719ZM337.357 195.003H319.096C322.925 197.99 327.003 201.167 331.362 204.569H351.502C346.474 201.167 341.769 197.99 337.351 195.003H337.357ZM317.989 195.003H299.728C302.931 197.99 306.344 201.167 309.995 204.569H330.136C325.815 201.167 321.775 197.99 317.983 195.003H317.989ZM298.621 195.003H280.36C282.942 197.99 285.691 201.167 288.634 204.569H308.775C305.161 201.167 301.786 197.99 298.621 195.003ZM289.207 205.242C292.399 208.929 295.845 212.918 299.566 217.214H322.196C317.627 212.913 313.398 208.924 309.482 205.242H289.207ZM279.221 195.003H260.992C262.947 197.99 265.038 201.167 267.268 204.569H287.381C284.481 201.167 281.77 197.99 279.226 195.003H279.221ZM259.853 195.003H241.624C242.958 197.99 244.379 201.167 245.902 204.569H266.01C263.822 201.167 261.775 197.99 259.853 195.003ZM240.485 195.003H222.256C222.969 197.99 223.725 201.167 224.535 204.569H244.643C243.163 201.167 241.781 197.99 240.485 195.003ZM221.117 195.003H202.888C202.975 197.99 203.072 201.167 203.169 204.569H223.277C222.51 201.167 221.792 197.99 221.117 195.003ZM201.749 195.003H183.52C182.986 197.99 182.413 201.167 181.803 204.569H201.916C201.857 201.167 201.803 197.99 201.749 195.003ZM182.386 195.003H164.158C163.002 197.99 161.765 201.167 160.447 204.569H180.555C181.203 201.167 181.814 197.99 182.386 195.003ZM163.018 195.003H144.79C143.007 197.99 141.112 201.167 139.081 204.569H159.189C160.55 201.167 161.825 197.99 163.018 195.003ZM143.65 195.003H125.389C122.981 197.99 120.42 201.167 117.677 204.569H137.817C139.891 201.167 141.825 197.99 143.645 195.003H143.65ZM124.282 195.003H106.021C102.991 197.99 99.7671 201.167 96.3159 204.569H116.456C119.238 201.167 121.841 197.99 124.282 195.003ZM104.914 195.003C101.846 197.99 98.5843 201.167 95.0898 204.569H74.9495C79.1083 201.167 83.0024 197.99 86.6535 195.003H104.914ZM353.722 205.236C359.22 208.929 365.167 212.918 371.583 217.219H394.213C386.954 212.918 380.224 208.929 373.997 205.236H353.722ZM332.22 205.236C336.952 208.929 342.061 212.918 347.581 217.219H370.211C363.849 212.918 357.951 208.929 352.496 205.236H332.22ZM310.714 205.242C314.673 208.929 318.956 212.913 323.573 217.214H346.204C340.738 212.913 335.672 208.924 330.989 205.231C324.222 205.236 317.449 205.236 310.714 205.236V205.242ZM267.706 205.242C270.125 208.929 272.739 212.918 275.564 217.214H298.162C294.495 212.918 291.092 208.924 287.949 205.242H267.706ZM246.199 205.242C247.846 208.929 249.634 212.918 251.557 217.214H274.149C271.378 212.918 268.813 208.924 266.436 205.242H246.193H246.199ZM224.697 205.242C225.578 208.929 226.528 212.918 227.555 217.214H250.152C248.278 212.918 246.544 208.924 244.94 205.242H224.697ZM203.191 205.242C203.299 208.935 203.418 212.918 203.547 217.214H226.14C225.162 212.918 224.26 208.924 223.428 205.242H203.185H203.191ZM181.689 205.242C181.03 208.935 180.318 212.918 179.551 217.214H202.143C202.062 212.918 201.997 208.935 201.932 205.242H181.689ZM160.183 205.242C158.751 208.935 157.207 212.918 155.543 217.214H178.141C178.962 212.918 179.723 208.935 180.426 205.242H160.183ZM138.676 205.242C136.478 208.935 134.096 212.918 131.536 217.214H154.128C155.846 212.918 157.439 208.935 158.913 205.242H138.67H138.676ZM117.142 205.242C114.172 208.935 110.958 212.918 107.496 217.214H130.126C132.74 212.918 135.165 208.935 137.412 205.242H117.137H117.142ZM95.6353 205.242C91.8924 208.935 87.8471 212.918 83.4885 217.214H106.119C109.629 212.918 112.892 208.935 115.905 205.242H95.6299H95.6353ZM74.1286 205.242C69.6133 208.935 64.7416 212.918 59.4865 217.214H82.1166C86.5293 212.918 90.6178 208.935 94.4039 205.242H74.1286ZM72.8971 205.242H52.6218C47.3396 208.935 41.6308 212.918 35.4791 217.214H58.1092C63.4184 212.918 68.3387 208.935 72.8971 205.242Z" fill="url(#paint7_linear_2545_15480)"/>
<defs>
<filter id="filter0_d_2545_15480" x="-0.5" y="0.5" width="431" height="234" filterUnits="userSpaceOnUse" color-interpolation-filters="sRGB">
<feFlood flood-opacity="0" result="BackgroundImageFix"/>
<feColorMatrix in="SourceAlpha" type="matrix" values="0 0 0 0 0 0 0 0 0 0 0 0 0 0 0 0 0 0 127 0" result="hardAlpha"/>
<feOffset/>
<feGaussianBlur stdDeviation="8"/>
<feComposite in2="hardAlpha" operator="out"/>
<feColorMatrix type="matrix" values="0 0 0 0 0 0 0 0 0 0.6 0 0 0 0 0.337255 0 0 0 0.5 0"/>
<feBlend mode="normal" in2="BackgroundImageFix" result="effect1_dropShadow_2545_15480"/>
<feBlend mode="normal" in="SourceGraphic" in2="effect1_dropShadow_2545_15480" result="shape"/>
</filter>
<filter id="filter1_d_2545_15480" x="0" y="1" width="36" height="120" filterUnits="userSpaceOnUse" color-interpolation-filters="sRGB">
<feFlood flood-opacity="0" result="BackgroundImageFix"/>
<feColorMatrix in="SourceAlpha" type="matrix" values="0 0 0 0 0 0 0 0 0 0 0 0 0 0 0 0 0 0 127 0" result="hardAlpha"/>
<feOffset/>
<feGaussianBlur stdDeviation="8"/>
<feComposite in2="hardAlpha" operator="out"/>
<feColorMatrix type="matrix" values="0 0 0 0 0 0 0 0 0 0.6 0 0 0 0 0.337255 0 0 0 0.5 0"/>
<feBlend mode="normal" in2="BackgroundImageFix" result="effect1_dropShadow_2545_15480"/>
<feBlend mode="normal" in="SourceGraphic" in2="effect1_dropShadow_2545_15480" result="shape"/>
</filter>
<filter id="filter2_d_2545_15480" x="394" y="1" width="36" height="120" filterUnits="userSpaceOnUse" color-interpolation-filters="sRGB">
<feFlood flood-opacity="0" result="BackgroundImageFix"/>
<feColorMatrix in="SourceAlpha" type="matrix" values="0 0 0 0 0 0 0 0 0 0 0 0 0 0 0 0 0 0 127 0" result="hardAlpha"/>
<feOffset/>
<feGaussianBlur stdDeviation="8"/>
<feComposite in2="hardAlpha" operator="out"/>
<feColorMatrix type="matrix" values="0 0 0 0 0 0 0 0 0 0.6 0 0 0 0 0.337255 0 0 0 0.5 0"/>
<feBlend mode="normal" in2="BackgroundImageFix" result="effect1_dropShadow_2545_15480"/>
<feBlend mode="normal" in="SourceGraphic" in2="effect1_dropShadow_2545_15480" result="shape"/>
</filter>
<filter id="filter3_f_2545_15480" x="355" y="129" width="23" height="27" filterUnits="userSpaceOnUse" color-interpolation-filters="sRGB">
<feFlood flood-opacity="0" result="BackgroundImageFix"/>
<feBlend mode="normal" in="SourceGraphic" in2="BackgroundImageFix" result="shape"/>
<feGaussianBlur stdDeviation="0.5" result="effect1_foregroundBlur_2545_15480"/>
</filter>
<filter id="filter4_f_2545_15480" x="35" y="57" width="23" height="27" filterUnits="userSpaceOnUse" color-interpolation-filters="sRGB">
<feFlood flood-opacity="0" result="BackgroundImageFix"/>
<feBlend mode="normal" in="SourceGraphic" in2="BackgroundImageFix" result="shape"/>
<feGaussianBlur stdDeviation="0.5" result="effect1_foregroundBlur_2545_15480"/>
</filter>
<filter id="filter5_f_2545_15480" x="382" y="107" width="17" height="20" filterUnits="userSpaceOnUse" color-interpolation-filters="sRGB">
<feFlood flood-opacity="0" result="BackgroundImageFix"/>
<feBlend mode="normal" in="SourceGraphic" in2="BackgroundImageFix" result="shape"/>
<feGaussianBlur stdDeviation="1" result="effect1_foregroundBlur_2545_15480"/>
</filter>
<filter id="filter6_f_2545_15480" x="59" y="91" width="17" height="20" filterUnits="userSpaceOnUse" color-interpolation-filters="sRGB">
<feFlood flood-opacity="0" result="BackgroundImageFix"/>
<feBlend mode="normal" in="SourceGraphic" in2="BackgroundImageFix" result="shape"/>
<feGaussianBlur stdDeviation="1" result="effect1_foregroundBlur_2545_15480"/>
</filter>
<linearGradient id="paint0_linear_2545_15480" x1="408.5" y1="144" x2="408.5" y2="218" gradientUnits="userSpaceOnUse">
<stop stop-color="#00CC73"/>
<stop offset="1" stop-color="#00CC73" stop-opacity="0"/>
</linearGradient>
<linearGradient id="paint1_linear_2545_15480" x1="21.5" y1="144" x2="21.5" y2="218" gradientUnits="userSpaceOnUse">
<stop stop-color="#00CC73"/>
<stop offset="1" stop-color="#00CC73" stop-opacity="0"/>
</linearGradient>
<linearGradient id="paint2_linear_2545_15480" x1="215" y1="217.999" x2="215" y2="17" gradientUnits="userSpaceOnUse">
<stop stop-color="#002012"/>
<stop offset="1"/>
</linearGradient>
<linearGradient id="paint3_linear_2545_15480" x1="366.5" y1="130" x2="366.5" y2="155" gradientUnits="userSpaceOnUse">
<stop stop-color="#00FF90"/>
<stop offset="1" stop-color="#00FF90" stop-opacity="0.2"/>
</linearGradient>
<linearGradient id="paint4_linear_2545_15480" x1="46.5" y1="58" x2="46.5" y2="83" gradientUnits="userSpaceOnUse">
<stop stop-color="#00FF90"/>
<stop offset="1" stop-color="#00FF90" stop-opacity="0.2"/>
</linearGradient>
<linearGradient id="paint5_linear_2545_15480" x1="390.5" y1="109" x2="390.5" y2="125" gradientUnits="userSpaceOnUse">
<stop stop-color="#00FF90"/>
<stop offset="1" stop-color="#00FF90" stop-opacity="0.2"/>
</linearGradient>
<linearGradient id="paint6_linear_2545_15480" x1="67.5" y1="93" x2="67.5" y2="109" gradientUnits="userSpaceOnUse">
<stop stop-color="#00FF90"/>
<stop offset="1" stop-color="#00FF90" stop-opacity="0.2"/>
</linearGradient>
<linearGradient id="paint7_linear_2545_15480" x1="215" y1="151" x2="215" y2="218" gradientUnits="userSpaceOnUse">
<stop stop-color="#00663A" stop-opacity="0"/>
<stop offset="1" stop-color="#00663A"/>
</linearGradient>
</defs>
</svg>
