<svg width="430" height="90" viewBox="0 0 430 90" fill="none" xmlns="http://www.w3.org/2000/svg">
<path d="M431 56.5L399.5 88L319 88" stroke="url(#paint0_linear_5007_12802)"/>
<path d="M431 26.5L391 66.5L319 66.5" stroke="url(#paint1_linear_5007_12802)" stroke-width="0.5"/>
<path d="M431 1L417.5 14.5L398.5 14.5L369.5 43.5L319 43.5" stroke="url(#paint2_linear_5007_12802)"/>
<path d="M-0.999996 56.5L31.5 89L112 89" stroke="url(#paint3_linear_5007_12802)"/>
<path d="M-0.999995 26.5L40 67.5L112 67.5" stroke="url(#paint4_linear_5007_12802)" stroke-width="0.5"/>
<path d="M-0.999998 1L13.5 15.5L32.5 15.5L61.5 44.5L112 44.5" stroke="url(#paint5_linear_5007_12802)"/>
<defs>
<linearGradient id="paint0_linear_5007_12802" x1="545" y1="42.0001" x2="319" y2="42" gradientUnits="userSpaceOnUse">
<stop stop-color="#656565"/>
<stop offset="1" stop-color="#656565" stop-opacity="0"/>
</linearGradient>
<linearGradient id="paint1_linear_5007_12802" x1="518" y1="12" x2="319" y2="12" gradientUnits="userSpaceOnUse">
<stop stop-color="#F4FD36"/>
<stop offset="1" stop-color="#F4FD36" stop-opacity="0"/>
</linearGradient>
<linearGradient id="paint2_linear_5007_12802" x1="470" y1="25" x2="319" y2="25" gradientUnits="userSpaceOnUse">
<stop stop-color="#656565"/>
<stop offset="1" stop-color="#656565" stop-opacity="0"/>
</linearGradient>
<linearGradient id="paint3_linear_5007_12802" x1="-114" y1="43" x2="112" y2="43" gradientUnits="userSpaceOnUse">
<stop stop-color="#656565"/>
<stop offset="1" stop-color="#656565" stop-opacity="0"/>
</linearGradient>
<linearGradient id="paint4_linear_5007_12802" x1="-87" y1="13" x2="112" y2="12.9999" gradientUnits="userSpaceOnUse">
<stop stop-color="#00FF90"/>
<stop offset="1" stop-color="#00FF90" stop-opacity="0"/>
</linearGradient>
<linearGradient id="paint5_linear_5007_12802" x1="-39" y1="26" x2="112" y2="26" gradientUnits="userSpaceOnUse">
<stop stop-color="#656565"/>
<stop offset="1" stop-color="#656565" stop-opacity="0"/>
</linearGradient>
</defs>
</svg>
